<?xml version="1.0" encoding="UTF-8" standalone="no"?>
<!-- Generator: Adobe Illustrator 16.2.1, SVG Export Plug-In . SVG Version: 6.00 Build 0)  -->

<svg
   xmlns:dc="http://purl.org/dc/elements/1.1/"
   xmlns:cc="http://creativecommons.org/ns#"
   xmlns:rdf="http://www.w3.org/1999/02/22-rdf-syntax-ns#"
   xmlns:svg="http://www.w3.org/2000/svg"
   xmlns="http://www.w3.org/2000/svg"
   xmlns:sodipodi="http://sodipodi.sourceforge.net/DTD/sodipodi-0.dtd"
   xmlns:inkscape="http://www.inkscape.org/namespaces/inkscape"
   version="1.1"
   x="0px"
   y="0px"
   width="200px"
   height="200px"
   viewBox="0 0 200 200"
   enable-background="new 0 0 200 200"
   xml:space="preserve"
   id="svg2"
   inkscape:version="0.48.4 r9939"
   sodipodi:docname="energytimer.svg"><metadata
     id="metadata522"><rdf:RDF><cc:Work
         rdf:about=""><dc:format>image/svg+xml</dc:format><dc:type
           rdf:resource="http://purl.org/dc/dcmitype/StillImage" /><dc:title /></cc:Work></rdf:RDF></metadata><defs
     id="defs520" /><sodipodi:namedview
     pagecolor="#ffffff"
     bordercolor="#666666"
     borderopacity="1"
     objecttolerance="10"
     gridtolerance="10"
     guidetolerance="10"
     inkscape:pageopacity="0"
     inkscape:pageshadow="2"
     inkscape:window-width="1301"
     inkscape:window-height="744"
     id="namedview518"
     showgrid="false"
     inkscape:zoom="0.51625899"
     inkscape:cx="35.255072"
     inkscape:cy="106.59304"
     inkscape:window-x="65"
     inkscape:window-y="24"
     inkscape:window-maximized="1"
     inkscape:current-layer="svg2" /><path
     style="fill:#ffffff;fill-opacity:1;fill-rule:nonzero;stroke:#ffffff;stroke-width:0.49999997;stroke-linecap:round;stroke-linejoin:round;stroke-miterlimit:4;stroke-opacity:1;stroke-dasharray:none;stroke-dashoffset:0"
     d="m 84.589778,147.61195 c -0.93995,-0.18605 -3.44675,-0.91409 -5.57065,-1.61787 -16.6754,-5.52554 -30.30884,-18.92911 -36.18223,-35.57216 -2.16434,-6.13297 -2.54845,-8.91306 -2.53943,-18.379913 0.009,-9.63938 0.32153,-12.53533 1.88814,-17.506408 4.02218,-12.762909 12.44011,-23.556845 24.82758,-31.835333 3.74498,-2.502753 5.26032,-3.138469 5.91663,-2.482157 0.21675,0.216747 0.52811,4.80964 0.69191,10.206428 l 0.29783,9.812343 -2.08284,2.328285 c -7.14259,7.984304 -9.86088,12.386805 -11.75626,19.040252 -1.13623,3.98858 -1.53481,11.96921 -0.8193,16.40464 1.14038,7.069213 4.51075,13.896593 9.46796,19.179383 4.67519,4.98223 9.35368,7.986 16.95071,10.88298 3.00864,1.14729 3.31309,1.18033 10.93499,1.1866 9.039502,0.007 10.068272,-0.21016 17.061182,-3.60876 3.78071,-1.83745 4.88358,-2.63472 8.61141,-6.22528 6.80784,-6.55712 8.98936,-9.9017 11.01281,-16.88419 2.11625,-7.302753 2.11915,-14.338573 0.009,-21.620583 -1.80885,-6.241974 -4.60161,-10.865443 -10.68265,-17.685373 l -2.46059,-2.759571 0.10191,-8.313257 c 0.12999,-10.605588 0.2841,-11.820707 1.49913,-11.820707 1.10197,0 6.4361,3.146211 10.14007,5.980877 10.25057,7.844828 18.794,21.42165 20.83124,33.104041 0.73019,4.1872 0.84295,19.50736 0.17397,23.636543 -1.01014,6.23499 -4.97157,15.48133 -9.28142,21.66367 -2.66403,3.82147 -9.02887,10.19738 -13.36903,13.39229 -4.39623,3.23618 -12.14088,7.01879 -17.72918,8.6592 l -4.30168,1.26273 -10.966048,-0.0452 c -6.031344,-0.0249 -11.735114,-0.19744 -12.675074,-0.38349 z"
     id="path5097"
     inkscape:connector-curvature="0" /><path
     style="fill:#ffffff;fill-opacity:1;fill-rule:nonzero;stroke:#ffffff;stroke-width:0.49999997;stroke-linecap:round;stroke-linejoin:round;stroke-miterlimit:4;stroke-opacity:1;stroke-dasharray:none;stroke-dashoffset:0"
     d="m 95.359817,86.600956 c -2.56698,-0.435267 -4.54007,-1.862432 -5.34855,-3.868697 -0.63552,-1.577033 -0.70935,-4.3387 -0.76376,-28.567481 -0.0674,-30.005238 -0.21384,-28.43841 2.88955,-30.912461 1.40193,-1.117633 1.76436,-1.203868 5.14688,-1.224615 4.149723,-0.02545 5.023323,0.392455 7.171073,3.430442 l 1.23792,1.751043 -0.0265,27.127103 -0.0265,27.127105 -1.36945,1.906927 c -2.00405,2.790585 -5.031833,3.88834 -8.910613,3.230634 l 0,0 z"
     id="path5103"
     inkscape:connector-curvature="0" /><path
     sodipodi:type="arc"
     style="fill:#ffffff;fill-opacity:1;fill-rule:nonzero;stroke:#ffffff;stroke-width:0.50000000000000000;stroke-linecap:round;stroke-linejoin:round;stroke-miterlimit:4;stroke-opacity:1;stroke-dasharray:none;stroke-dashoffset:0"
     id="path5107"
     sodipodi:cx="133.28311"
     sodipodi:cy="126.13722"
     sodipodi:rx="32.186012"
     sodipodi:ry="33.011295"
     d="m 165.46912,126.13722 a 32.186012,33.011295 0 1 1 -64.37202,0 32.186012,33.011295 0 1 1 64.37202,0 z" /><path
     sodipodi:type="arc"
     style="fill:#000000;fill-opacity:1;fill-rule:nonzero;stroke:#ffffff;stroke-width:0.23937921;stroke-linecap:round;stroke-linejoin:round;stroke-miterlimit:4;stroke-opacity:1;stroke-dasharray:none;stroke-dashoffset:0"
     id="path5109"
     sodipodi:cx="19.806778"
     sodipodi:cy="89.205841"
     sodipodi:rx="14.0298"
     sodipodi:ry="13.82348"
     d="m 33.836578,89.205841 a 14.0298,13.82348 0 1 1 -28.0596005,0 14.0298,13.82348 0 1 1 28.0596005,0 z"
     transform="matrix(2.0441177,0,0,2.1343284,92.915178,-64.325405)" /><rect
     style="color:#000000;fill:#ffffff;fill-opacity:1;fill-rule:nonzero;stroke:#000000;stroke-width:1.99999988;stroke-linecap:butt;stroke-linejoin:miter;stroke-miterlimit:4;stroke-opacity:0.05479449;stroke-dasharray:none;stroke-dashoffset:0;marker:none;visibility:visible;display:inline;overflow:visible;enable-background:accumulate"
     id="rect5111"
     width="7.0149002"
     height="30.535444"
     x="130.095"
     y="100.14083"
     rx="4.6999998" /><rect
     style="color:#000000;fill:#ffffff;fill-opacity:1;fill-rule:nonzero;stroke:#000000;stroke-width:2;stroke-linecap:butt;stroke-linejoin:miter;stroke-miterlimit:4;stroke-opacity:0.05479449;stroke-dasharray:none;stroke-dashoffset:0;marker:none;visibility:visible;display:inline;overflow:visible;enable-background:accumulate"
     id="rect5111-0"
     width="7.0149002"
     height="24.345829"
     x="120.87035"
     y="-156.19724"
     rx="4.6999998"
     transform="matrix(-0.01663319,0.99986166,-0.99986166,-0.01663319,0,0)" /><path
     sodipodi:type="arc"
     style="fill:#000000;fill-opacity:1;fill-rule:nonzero;stroke:#ffffff;stroke-width:0.50873822;stroke-linecap:round;stroke-linejoin:round;stroke-miterlimit:4;stroke-opacity:1;stroke-dasharray:none;stroke-dashoffset:0"
     id="path5131"
     sodipodi:cx="78.401825"
     sodipodi:cy="136.24693"
     sodipodi:rx="3.7137709"
     sodipodi:ry="3.9200914"
     d="m 82.115596,136.24693 a 3.7137709,3.9200914 0 1 1 -7.427542,0 3.7137709,3.9200914 0 1 1 7.427542,0 z"
     transform="matrix(1.0097553,0,0,0.95661035,55.390595,-3.8215909)" /></svg>
