<?xml version="1.0" encoding="UTF-8" standalone="no"?>
<!-- Created with Inkscape (http://www.inkscape.org/) -->

<svg
   xmlns:dc="http://purl.org/dc/elements/1.1/"
   xmlns:cc="http://creativecommons.org/ns#"
   xmlns:rdf="http://www.w3.org/1999/02/22-rdf-syntax-ns#"
   xmlns:svg="http://www.w3.org/2000/svg"
   xmlns="http://www.w3.org/2000/svg"
   xmlns:xlink="http://www.w3.org/1999/xlink"
   xmlns:sodipodi="http://sodipodi.sourceforge.net/DTD/sodipodi-0.dtd"
   xmlns:inkscape="http://www.inkscape.org/namespaces/inkscape"
   width="1000"
   height="350"
   viewBox="0 0 1000 350.00001"
   id="svg2"
   version="1.1"
   inkscape:version="0.91 r13725"
   sodipodi:docname="about1.svg">
  <defs
     id="defs4">
    <radialGradient
       gradientTransform="matrix(-0.680136,0.819492,-0.884575,-0.73415,107.662,-22.079)"
       gradientUnits="userSpaceOnUse"
       xlink:href="#imagebot_18"
       id="imagebot_10"
       r="47.23"
       cy="-9.8280001"
       cx="87.489998" />
    <linearGradient
       id="imagebot_18">
      <stop
         stop-color="#fff"
         id="imagebot_20" />
      <stop
         stop-opacity="0.551"
         offset="1"
         id="imagebot_19" />
    </linearGradient>
    <radialGradient
       gradientTransform="matrix(1,0,0,0.0829268,-3.49035,103.478)"
       gradientUnits="userSpaceOnUse"
       xlink:href="#imagebot_22"
       id="imagebot_15"
       r="50.25"
       cy="118.2"
       cx="61.029999" />
    <linearGradient
       id="imagebot_22">
      <stop
         id="imagebot_27" />
      <stop
         stop-opacity="0"
         offset="1"
         id="imagebot_26" />
    </linearGradient>
    <filter
       style="color-interpolation-filters:sRGB"
       id="imagebot_16"
       height="2.152"
       width="1.095"
       y="-0.57599998"
       x="-0.048">
      <feGaussianBlur
         stdDeviation="1.99915"
         id="imagebot_23" />
    </filter>
    <radialGradient
       gradientTransform="matrix(-6.0082e-8,-0.478911,0.834857,0,8.85662,62.8263)"
       gradientUnits="userSpaceOnUse"
       xlink:href="#imagebot_21"
       id="imagebot_11"
       r="51.09"
       cy="60.369999"
       cx="109.07" />
    <linearGradient
       id="imagebot_21">
      <stop
         stop-opacity="0.872"
         stop-color="#eee"
         id="imagebot_25" />
      <stop
         stop-opacity="0"
         stop-color="#eee"
         offset="1"
         id="imagebot_24" />
    </linearGradient>
    <radialGradient
       gradientTransform="matrix(-0.680136,0.819492,-0.884575,-0.73415,798.48883,744.18601)"
       gradientUnits="userSpaceOnUse"
       xlink:href="#imagebot_18"
       id="imagebot_10-3"
       r="47.23"
       cy="-9.8280001"
       cx="87.489998" />
  </defs>
  <sodipodi:namedview
     id="base"
     pagecolor="#ffffff"
     bordercolor="#666666"
     borderopacity="1.0"
     inkscape:pageopacity="0.0"
     inkscape:pageshadow="2"
     inkscape:zoom="0.74229785"
     inkscape:cx="501.69252"
     inkscape:cy="197.16768"
     inkscape:document-units="px"
     inkscape:current-layer="layer1"
     showgrid="false"
     units="px"
     inkscape:window-width="1307"
     inkscape:window-height="744"
     inkscape:window-x="59"
     inkscape:window-y="24"
     inkscape:window-maximized="1" />
  <metadata
     id="metadata7">
    <rdf:RDF>
      <cc:Work
         rdf:about="">
        <dc:format>image/svg+xml</dc:format>
        <dc:type
           rdf:resource="http://purl.org/dc/dcmitype/StillImage" />
        <dc:title></dc:title>
      </cc:Work>
    </rdf:RDF>
  </metadata>
  <g
     inkscape:label="Layer 1"
     inkscape:groupmode="layer"
     id="layer1"
     transform="translate(0,-702.36216)">
    <text
       xml:space="preserve"
       style="font-style:normal;font-weight:normal;font-size:18.75px;line-height:125%;font-family:Arial;-inkscape-font-specification:Arial;letter-spacing:0px;word-spacing:0px;fill:#000000;fill-opacity:1;stroke:none;stroke-width:1px;stroke-linecap:butt;stroke-linejoin:miter;stroke-opacity:1"
       x="102.88137"
       y="947.15094"
       id="text3443"
       sodipodi:linespacing="125%"><tspan
         sodipodi:role="line"
         x="102.88137"
         y="947.15094"
         id="tspan3447" /><tspan
         sodipodi:role="line"
         x="102.88137"
         y="981.6593"
         id="tspan3451"
         style="font-size:30px">•Solar •CCTV •Wireless •DIY •Clean Energy •Green Gadgets</tspan></text>
    <path
       inkscape:connector-curvature="0"
       style="fill:#4d4d4d"
       d="m 123.73097,1012.0681 -2.22366,-2.6602 c -0.44306,-0.5278 -1.24973,-0.585 -1.798,-0.1252 l -1.34003,1.1199 c -0.0741,-0.052 -0.15032,-0.099 -0.23066,-0.1557 -0.73836,-0.4998 -1.74881,-1.1845 -2.76741,-2.4046 -1.02182,-1.222 -1.51714,-2.3399 -1.87942,-3.1559 -0.0384,-0.087 -0.0749,-0.1707 -0.11117,-0.249 l 0.89927,-0.7505 0.44224,-0.3703 c 0.54906,-0.4592 0.63497,-1.263 0.19317,-1.7921 l -2.22364,-2.6608 c -0.44185,-0.5284 -1.2489,-0.5858 -1.798,-0.1252 l -0.74999,0.6304 0.0177,0.022 c -0.25706,0.274 -0.48023,0.5961 -0.65643,0.9495 -0.16327,0.3367 -0.2755,0.662 -0.34292,0.992 -0.56126,2.644 0.44186,5.1958 3.46018,8.8066 4.17267,4.9912 7.8957,4.9748 8.05683,4.9725 0.35062,-0.01 0.69065,-0.063 1.04017,-0.1635 0.37551,-0.1115 0.73224,-0.2715 1.04706,-0.4755 l 0.0104,0.012 0.75821,-0.6205 c 0.548,-0.4591 0.63451,-1.2631 0.19299,-1.7928 m 7.74209,-5.8907 a 14.999978,14.999978 0 0 1 -15.00035,14.9998 14.999978,14.999978 0 0 1 -14.99965,-15.0003 14.999978,14.999978 0 0 1 15.00032,-14.9997 14.999978,14.999978 0 0 1 14.99965,15.0003"
       id="path9213" />
    <text
       xml:space="preserve"
       style="font-style:normal;font-weight:normal;font-size:18.75px;line-height:125%;font-family:Arial;-inkscape-font-specification:Arial;letter-spacing:0px;word-spacing:0px;fill:#000000;fill-opacity:1;stroke:none;stroke-width:1px;stroke-linecap:butt;stroke-linejoin:miter;stroke-opacity:1"
       x="135.92767"
       y="1018.8633"
       id="text9234"
       sodipodi:linespacing="125%"><tspan
         sodipodi:role="line"
         id="tspan9236"
         x="135.92767"
         y="1018.8633"
         style="font-style:normal;font-variant:normal;font-weight:bold;font-stretch:normal;font-size:25px;font-family:Arial;-inkscape-font-specification:'Arial Bold'">+91 9487066151</tspan></text>
    <text
       x="331.52173"
       y="1014.3538"
       font-size="144px"
       style="font-size:32.43928146px;font-family:Arial"
       id="text9259">@</text>
    <text
       xml:space="preserve"
       style="font-style:normal;font-weight:normal;font-size:18.75px;line-height:125%;font-family:Arial;-inkscape-font-specification:Arial;letter-spacing:0px;word-spacing:0px;fill:#000000;fill-opacity:1;stroke:none;stroke-width:1px;stroke-linecap:butt;stroke-linejoin:miter;stroke-opacity:1"
       x="370.17529"
       y="1015.9194"
       id="text9234-4"
       sodipodi:linespacing="125%"><tspan
         sodipodi:role="line"
         id="tspan9236-9"
         x="370.17529"
         y="1015.9194"
         style="font-style:normal;font-variant:normal;font-weight:bold;font-stretch:normal;font-size:25px;font-family:Arial;-inkscape-font-specification:'Arial Bold'">loginvizhi@gmail.com</tspan></text>
    <text
       xml:space="preserve"
       style="font-style:normal;font-weight:normal;font-size:18.75px;line-height:125%;font-family:Arial;-inkscape-font-specification:Arial;letter-spacing:0px;word-spacing:0px;fill:#000000;fill-opacity:1;stroke:none;stroke-width:1px;stroke-linecap:butt;stroke-linejoin:miter;stroke-opacity:1"
       x="647.80829"
       y="1017.189"
       id="text9234-4-9"
       sodipodi:linespacing="125%"><tspan
         sodipodi:role="line"
         id="tspan9236-9-3"
         x="647.80829"
         y="1017.189"
         style="font-style:normal;font-variant:normal;font-weight:bold;font-stretch:normal;font-size:25px;font-family:Arial;-inkscape-font-specification:'Arial Bold'">#189, Bazaar St.  CDM</tspan></text>
    <text
       xml:space="preserve"
       style="font-style:normal;font-weight:normal;font-size:58.75px;line-height:125%;font-family:Arial;-inkscape-font-specification:Arial;letter-spacing:0px;word-spacing:0px;fill:#000000;fill-opacity:1;stroke:none;stroke-width:1px;stroke-linecap:butt;stroke-linejoin:miter;stroke-opacity:1"
       x="103.98655"
       y="936.68378"
       id="text3357"
       sodipodi:linespacing="125%"><tspan
         sodipodi:role="line"
         id="tspan3359"
         x="103.98655"
         y="936.68378"
         style="font-size:58.75px"><tspan
   style="fill:#ff6600"
   id="tspan3363">VIZHI</tspan><tspan
   style="fill:#00ff00"
   id="tspan3361"> GREEN</tspan> EXPRESSIONS</tspan></text>
    <g
       id="g3440"
       transform="matrix(1.0905617,0,0,1.0125518,-332.93523,-31.657869)">
      <g
         id="g20"
         display="inline"
         style="display:inline"
         transform="translate(690.82683,766.26501)">
        <title
           id="title22">Layer 1</title>
        <path
           d="m 107.784,113.28 a 50.2451,4.16667 0 0 1 -100.49003,0 50.2451,4.16667 0 1 1 100.49003,0 z"
           id="imagebot_1"
           inkscape:connector-curvature="0"
           style="opacity:0.63399999;fill:url(#imagebot_15);filter:url(#imagebot_16)" />
      </g>
      <g
         id="g25"
         display="inline"
         style="display:inline"
         transform="translate(690.82683,766.26501)">
        <title
           id="title27">Layer 2</title>
        <path
           d="M 59.2891,0.0507812 C 53.6997,-0.184389 47.9545,0.411721 42.2578,1.92578 11.8884,9.99728 -6.12474,41.2107 1.91406,71.457 9.95276,101.703 41.0782,119.778 71.4453,111.707 101.812,103.636 119.828,72.4843 111.789,42.2383 105.258,17.6637 83.5229,1.07039 59.2891,0.0507812 Z"
           id="imagebot_2"
           inkscape:connector-curvature="0"
           style="fill:#000000" />
      </g>
      <g
         id="g35"
         display="inline"
         style="display:inline"
         transform="translate(690.82683,766.26501)">
        <title
           id="title37">Layer 5</title>
        <path
           d="m 19.1824,16.7536 c -2.9077,2.8086 -5.5173,5.9106 -7.72,9.2658 0.4484,-0.1924 1.0114,-0.465 1.7096,-0.7736 1.1056,-0.4886 1.1904,-0.0685 1.6002,-0.5848 0.41,-0.5164 0.5419,-0.6472 0.5216,-1.1601 -0.0207,-0.5131 -0.4797,-0.6694 -0.2728,-1.747 0.2069,-1.0778 0.6434,-0.2259 2.0935,-1.131 1.4499,-0.9053 0.097,-1.2224 0.7031,-2.0382 0.6064,-0.816 0.4448,-0.6784 1.4161,-1.3979 0.8195,-0.607 0.2735,-0.1907 -0.0513,-0.4332 l 0,0 z M 71.0488,8.81008 c -0.1367,0.0487 -0.2945,0.1798 -0.4495,0.4706 -0.4135,0.77582 -1.1011,1.31972 -2.1912,1.60392 -1.0903,0.2844 -1.1706,0.1243 -2.1369,0.7275 -0.9667,0.6033 -1.7421,0.2542 -1.3382,1.0898 0.4034,0.8358 0.7475,1.0954 0.7819,1.2606 0.0344,0.1652 -0.247,1.3729 -0.9904,0.8378 -0.7441,-0.5351 -2.3699,-2.8875 -1.5072,-1.2274 0.8624,1.6599 2.1039,2.0197 1.1147,2.5127 -0.9895,0.4932 -0.9863,0.1009 -1.1745,0.0249 -0.1879,-0.0758 -0.172,-0.8903 -0.3188,-1.3198 -0.147,-0.4291 -0.3075,-0.6625 -0.5736,-0.837 C 61.9992,13.7789 61.9799,13.437 61.5164,13.4185 61.0526,13.4 61.3843,13.08 60.668,13.229 c -0.7163,0.149 -1.3996,-0.1416 -1.0281,0.8159 0.3713,0.9573 0.3911,0.2548 1.0265,1.0997 0.6354,0.845 1.3182,0.0084 0.8498,0.7956 -0.4685,0.7873 -2.113,0.9065 -2.5561,0.7113 -0.4431,-0.1954 -0.253,0.1532 -1.0729,-0.1936 -0.8194,-0.347 -0.6566,-0.7914 -1.4028,-0.2337 -0.7461,0.5577 -0.8747,1.3405 -1.2628,1.1336 -0.388,-0.2068 -1.0271,0.6374 -1.3714,0.3645 -0.3445,-0.2733 -1.4527,-0.0459 -1.604,0.3306 -0.1518,0.3763 -0.8153,0.444 -1.6602,1.0796 -0.8449,0.6355 -0.6566,0.1785 -1.6187,1.3559 -0.9626,1.1773 -1.4632,2.1042 -1.9746,1.5782 -0.5118,-0.5256 -2.812,-1.1368 -2.0197,-1.4742 0.7923,-0.3371 1.1108,-0.7595 1.6318,-0.4656 0.5211,0.2938 1.186,0.0332 1.2383,-0.2653 0.0528,-0.2985 0.5003,-0.6717 -0.2298,-0.8646 -0.73,-0.1932 -0.7231,0.053 -1.85,-0.1148 -1.1272,-0.168 -0.0732,-0.2715 -1.5518,-0.194 -1.4784,0.0776 -2.0975,0.0894 -2.5059,0.0595 -0.4082,-0.03 -0.9383,0.1797 -1.5006,0.2392 -0.5627,0.0596 -0.964,0.0352 -1.4488,0.1935 -0.4842,0.1582 -0.7777,0.1046 -1.336,0.7381 -0.5583,0.6336 -1.0179,0.9426 -1.3783,1.4197 -0.3604,0.4772 -1.3755,1.4984 -1.6489,1.8428 -0.2735,0.3442 -1.226,1.4835 -1.2674,1.8371 -0.0414,0.3536 0.2433,0.5582 -0.1517,0.8703 -0.3951,0.312 -0.8477,0.4097 -1.167,0.5335 -0.1596,0.062 -0.1835,-0.0755 -0.1966,-0.1392 -0.0127,0.0112 -0.0559,0.0625 -0.1234,0.2562 -0.2159,0.6198 0.3166,2.5849 0.5347,2.252 0.2181,-0.3329 -0.1357,-1.1617 1.2484,-0.5872 1.3841,0.574 2.1257,0.2841 2.2308,1.067 0.1053,0.7828 0.9657,0.5519 1.1102,0.6944 0.1445,0.1421 0.6382,-0.3611 0.6382,-0.3611 0,0 1.0472,-1.0206 0.967,-1.4061 -0.0803,-0.3858 0.5178,-1.4145 0.5178,-1.4145 0,0 -0.622,-0.1789 -0.7366,-0.7299 -0.1146,-0.5508 0.0078,-0.7357 0.0031,-1.3096 -0.0044,-0.5736 -0.5936,0.114 0.8416,-1.277 1.4349,-1.3905 1.6957,-0.7061 1.6957,-0.7061 0,0 0.2677,0.2025 0.0611,0.5903 -0.2066,0.388 -0.534,1.3729 -0.6213,1.5058 -0.0874,0.1333 0.7099,0.8807 0.985,0.8235 0.2756,-0.0574 0.7889,-0.4146 1.1311,-0.4283 0.3422,-0.0135 0.8334,-0.3154 1.0216,-0.2396 0.1884,0.0757 0.647,0.3192 0.4287,0.6521 -0.2181,0.3327 -0.7675,0.7923 -1.2307,0.774 -0.464,-0.0182 -1.2831,-0.6528 -0.668,0.3691 0.615,1.0218 0.2357,1.3871 -0.1065,1.4008 -0.3417,0.0136 -1.1667,-0.4087 -0.8846,0.3948 0.2822,0.8032 -0.44,1.531 -0.6055,1.5654 -0.1654,0.0344 -0.4928,0.0671 -0.4928,0.0671 0,0 -0.5019,0.0216 -0.7771,0.0789 -0.2756,0.0574 -0.7755,0.4617 -0.8948,0.7166 -0.1197,0.2547 -0.3726,0.1469 -0.648,0.2042 -0.2754,0.0573 -0.0895,-0.3389 -0.6635,-0.3344 -0.5737,0.0043 -0.9238,-0.0318 -1.2084,0.2573 -0.2849,0.2891 -0.7648,0.4861 -1.0197,0.3668 -0.2547,-0.1194 0.0099,-0.5613 -0.3854,-0.2488 -0.3947,0.312 -0.5863,0.9689 -0.7401,1.0586 -0.0192,0.0111 -0.0236,0.0341 -0.0219,0.0377 -0.0241,0.0081 0.0412,0.0155 -0.1411,0.0695 -0.6497,0.1928 -0.881,0.3926 -1.1888,0.5713 -0.3078,0.1792 0.2474,0.7582 -0.3129,1.1046 -0.5603,0.3464 -0.2244,-0.2369 -0.7277,0.3849 -0.5029,0.6223 -0.4998,1.077 -0.7084,1.1779 -0.209,0.1012 -0.1537,0.2029 -0.6382,0.3611 -0.4845,0.1582 -0.4115,0.2268 -0.6759,0.3392 -0.2639,0.1124 0.0924,0.127 -0.5367,0.1427 -0.6292,0.0159 -1.001,0.3464 -0.845,0.5438 0.156,0.1974 2.2968,0.3667 0.7427,0.6325 -1.5541,0.2658 -0.9888,0.4262 -0.6125,0.5778 0.3765,0.1515 0.5917,0.3493 0.7687,0.3702 0.1769,0.0207 0.5857,0.6424 0.5857,0.6424 0,0 0.4314,-0.1548 0.2362,0.2883 -0.1951,0.4431 0.2174,0.4563 0.0449,1.0096 -0.1722,0.5532 -0.246,0.2172 -0.4435,0.3732 -0.1974,0.1557 -0.4559,0.6329 -1.131,0.4283 -0.6749,-0.2047 -1.1459,-0.2985 -1.8738,-0.2043 -0.7277,0.0937 -0.2524,-0.1193 -0.668,0.3691 -0.4156,0.4892 -0.4438,0.9642 -0.2854,1.4484 0.1582,0.4843 0.3658,1.1275 0.2691,1.4926 -0.0965,0.3648 -0.0312,0.6916 0.1818,1.1647 0.2135,0.4727 0.5857,0.6423 0.5857,0.6423 0,0 0.803,-0.0579 0.9797,-0.0369 0.1767,0.0207 0.4521,-0.2126 0.9499,-0.029 0.4982,0.1839 0.9581,0.2061 1.1647,-0.1819 0.2066,-0.3878 1.2512,-0.9925 1.5134,-1.3918 0.2617,-0.3994 0.4533,-0.5599 0.2193,-0.8563 -0.234,-0.2963 0.0742,-1.2338 0.3152,-1.4563 0.241,-0.2225 0.8231,-0.5061 0.8231,-0.5061 l 0.462,-1.1442 c 0,0 0.4211,-0.697 0.708,-0.6989 0.2869,-0.0022 1.9504,0.2119 1.6915,-0.4815 -0.2592,-0.6936 -0.0908,-0.9464 0.1318,-0.7053 0.2225,0.241 0.6438,0.0204 0.6438,0.0204 0,0 0.2117,-0.1445 0.4113,-0.0136 0.1996,0.1306 0.5464,0.8107 0.9114,0.9069 0.3651,0.0967 0.6884,0.1991 0.9318,0.2631 0.2433,0.0646 0.4246,-0.0986 0.9457,0.1955 0.5209,0.2942 1.0193,0.4137 1.1084,0.5673 0.0899,0.1537 0.5382,0.4635 0.5382,0.4635 0,0 0.4277,0.043 0.3634,0.2864 -0.0644,0.2432 -0.4855,1.0185 -0.7383,1.1858 -0.2527,0.1674 -1.0209,0.0865 -0.6997,0.2498 0.321,0.163 0.7772,0.3735 0.908,0.1736 0.1312,-0.1996 0.9353,-1.5254 0.9353,-1.5254 -0.0087,-0.0263 -0.0347,-0.1051 -0.0415,-0.2762 -0.0134,-0.3418 -0.1545,-0.7238 0.1555,-0.6159 0.3098,0.1082 0.5199,0.2794 0.5842,0.0362 0.0643,-0.2434 0.2089,-0.1525 -0.1011,-0.2604 -0.3101,-0.1081 -1.1674,-0.8893 -1.5096,-0.8756 -0.3422,0.0135 -1.2774,-0.3627 -1.2774,-0.3627 0,0 -0.2256,-0.1231 -0.7031,-0.4835 -0.4775,-0.3606 -0.5439,-0.24 -0.7347,-0.6027 -0.1902,-0.3627 -0.6187,-0.7849 0.0105,-0.8009 0.6293,-0.0159 1.0789,0.2901 1.6987,0.5062 0.6198,0.2161 0.5439,0.3397 1.1084,0.5673 0.5645,0.2276 0.6949,0.5534 1.0687,0.4182 0.3741,-0.1353 0.8702,0.0433 0.9733,0.5393 0.1032,0.496 0.3171,1.0058 0.4502,1.0933 0.1334,0.0875 0.5091,0.2643 0.6653,0.4616 0.156,0.1974 0.4979,0.679 0.7087,0.865 0.2113,0.1859 0.4069,0.3256 0.6295,0.5669 0.2225,0.241 0.1933,-0.0817 0.3815,-0.0056 0.1884,0.0758 0.3938,-0.0318 0.348,-0.2521 -0.0458,-0.2203 -0.069,-0.62 -0.069,-0.62 0,0 0.7305,-0.3842 0.4872,-0.4487 -0.2435,-0.0643 -1.0243,-0.5838 -1.0148,-0.8156 0.0093,-0.2318 -0.1469,-0.6734 0.1397,-0.6756 0.287,-0.0025 0.6661,0.4448 1.1805,-0.1222 0.5144,-0.5669 1.1722,-0.9327 1.0892,-0.2256 -0.0826,0.7069 0.2351,0.7487 0.3286,1.4767 0.0942,0.7279 0.3084,0.4463 0.7744,0.7518 0.4658,0.3056 0.7546,0.306 1.0529,0.3586 0.2986,0.0531 0.7279,-0.0855 1.1805,-0.1222 0.4523,-0.0366 0.6944,-0.3233 1.1031,-0.2932 0.4083,0.03 1.2525,-0.2994 1.4409,-0.2234 0.1884,0.0758 0.7851,-0.3952 0.9201,-0.0211 0.1354,0.3744 0.2555,-0.1267 0.2736,0.7892 0.0181,0.9158 -0.0887,1.5877 -0.0887,1.5877 -0.3655,1.2832 -0.5262,1.5979 -0.7904,1.7103 -0.2637,0.1123 -0.3854,0.3169 -0.8925,0.3649 -0.5075,0.0478 -1.1096,0.2234 -1.8602,0.2071 -0.7507,-0.0165 -1.9939,0.5915 -2.6135,0.3754 -0.6198,-0.2159 -1.3415,0.2079 -1.7526,-0.1088 -0.4107,-0.317 -0.9356,-0.1445 -1.202,-0.3189 -0.2661,-0.1745 -0.5034,-0.7645 -0.32,0.117 0.1834,0.8817 -0.3107,1.0601 -0.3292,1.5239 -0.0188,0.4636 0.202,0.1671 -0.4155,0.2381 -0.6176,0.0707 -0.7099,0.4583 -1.7289,-0.0193 -1.0192,-0.4778 -1.449,-0.4158 -1.9469,-0.5998 -0.4985,-0.1839 -0.777,0.6831 -1.4009,-0.1065 -0.6243,-0.79 -1.0851,0.0579 -1.2892,-0.6469 -0.204,-0.7051 -0.1293,-0.6527 -0.166,-1.105 -0.0361,-0.4524 0.4736,-0.9571 0.1639,-1.065 -0.31,-0.1079 -0.1455,-0.4329 -0.4967,-0.1872 -0.3514,0.2455 -0.8857,0.4057 -1.2922,0.6626 -0.4065,0.2572 0.9754,-0.2139 -1.139,0.3985 -2.1144,0.6122 -2.6497,0.9596 -2.6497,0.9596 0,0 -0.1937,-0.0693 -0.4235,0.2083 -0.2295,0.2776 -0.5364,0.6904 -0.9563,0.6053 -0.42,-0.0853 -0.637,0.0024 -0.9559,0.1264 -0.3193,0.1239 -0.6037,-0.1398 -0.9322,0.2158 -0.3286,0.3554 -0.7698,0.5541 -0.9582,0.4782 -0.1891,-0.0772 -0.5382,-0.4635 -0.5382,-0.4635 l -0.6171,1.2812 -0.4318,0.6574 -0.9605,0.8299 -0.0819,0.5325 c 0,0 -0.3478,0.5325 -0.2351,0.7966 0.1126,0.2642 0.2358,0.7673 0.2358,0.7673 0,0 -0.6183,0.8766 -0.9031,1.1657 -0.2849,0.2891 -0.6307,0.8699 -0.6307,0.8699 0,0 -0.2238,0.3997 -0.3661,0.5442 -0.1424,0.1443 -0.3438,0.5212 -0.4956,0.8978 -0.1517,0.3766 -0.3084,0.6481 -0.3842,0.8363 -0.0758,0.1881 -0.3236,0.637 -0.3627,1.2774 -0.0391,0.6408 -0.345,1.4643 -0.345,1.4643 l -0.0559,0.2702 c 0.2502,0.9253 0.2907,1.0996 0.4698,1.4074 0.1789,0.3075 0.2667,0.1689 0.3053,0.9084 0.0388,0.7389 0.0919,1.0374 0.0505,1.391 -0.0415,0.3532 -0.2347,1.0226 -0.2872,1.3213 -0.0532,0.2983 0.3849,0.7276 0.3849,0.7276 0,0 0.3058,0.6764 0.2298,0.8646 -0.0758,0.1884 0.1565,0.4692 0.1565,0.4692 0,0 0.7428,0.2593 1.0092,0.434 0.2661,0.1745 0.7049,0.4331 0.7944,0.5869 0.0897,0.1539 0.7106,0.8146 0.8,0.9684 0.0895,0.1538 0.6457,0.6689 0.7902,0.8114 0.1446,0.1426 0.8103,0.6465 0.8103,0.6465 0,0 0.8374,0.397 1.0487,0.5832 0.2111,0.1859 0.7483,0.1918 0.9477,0.3227 0.1998,0.1308 0.5698,-0.0199 0.8246,0.1 0.2549,0.1194 0.6369,-0.2347 0.8804,-0.1701 0.2432,0.0643 0.802,-0.2661 0.9443,-0.4106 0.1423,-0.1445 0.4456,-0.6277 0.7555,-0.52 0.3098,0.1077 0.4477,-0.0941 0.6797,-0.0849 0.2316,0.0093 0.4775,-0.3312 0.6979,-0.377 0.2205,-0.0459 0.7492,-0.3683 0.9144,-0.4026 0.1655,-0.0344 0.6245,-0.498 0.845,-0.5438 0.2201,-0.0458 0.4611,-0.3183 0.7593,-0.2657 0.2983,0.0526 0.1257,-0.2361 0.656,-0.1743 0.5302,0.0618 0.6609,-0.1359 0.8604,-0.0052 0.1999,0.131 0.389,-0.0901 0.6001,0.0959 0.211,0.1857 0.5126,0.2981 0.6136,0.5072 0.1007,0.2092 0.4766,0.3521 0.4766,0.3521 l 0.3438,-0.0275 c 0,0 0.3651,-0.4 0.5209,-0.2023 0.1559,0.1974 0.6438,0.0204 0.6438,0.0204 l 0.6276,0.4397 0.2124,0.1989 c 0,0 0.5202,0.825 0.5336,1.167 0.0137,0.3419 0.1418,1.0424 0.0109,1.242 -0.1308,0.1998 -0.0982,0.9517 -0.0982,0.9517 0,0 -0.1748,0.2549 0.4129,0.5926 0.5877,0.3379 1.0064,0.6718 1.2174,0.8575 0.2114,0.1861 0.7864,0.6897 0.9212,1.0639 0.1355,0.374 0.2974,0.5659 0.6211,1.016 0.3235,0.4501 0.6085,0.4663 0.7782,1.0061 0.1699,0.5393 0.2802,0.5117 0.3053,0.9084 0.0251,0.3973 -0.1297,0.4685 0.0928,0.7095 0.2225,0.2413 0.5421,0.7062 0.5219,0.8828 -0.0207,0.1767 0.0211,0.9201 0.0211,0.9201 l -0.04,0.3298 -0.3209,1.0748 -0.2091,0.5344 c -0.0299,0.4085 -0.1788,0.8674 -0.0091,1.4069 0.1695,0.5396 -0.1506,0.5825 0.4046,1.0417 0.5555,0.4595 0.9076,1.0389 1.2864,1.4775 0.3788,0.4384 0.6425,0.8818 0.7661,1.2009 0.1241,0.3192 0.3639,0.3896 0.5657,0.8073 0.2016,0.418 0.2777,0.6248 0.3351,0.9005 0.0573,0.2753 0.164,1.0205 0.309,1.1627 0.1443,0.1424 0.3078,0.6082 0.4087,0.8171 0.1009,0.2091 -0.1174,0.3072 0.2936,0.6242 0.4109,0.3168 0.6835,0.5043 0.9611,0.7341 0.2777,0.2298 0.203,0.1359 0.4488,0.4872 0.2454,0.3512 0.5092,0.5025 0.6332,0.8213 0.1238,0.319 0.3452,1.1514 0.5909,1.5027 0.2455,0.351 0.5638,0.68 0.5638,0.68 0,0 0.6694,0.283 0.8782,0.182 0.2086,-0.101 0.5615,-0.694 0.9265,-0.598 0.3651,0.097 0.5972,-0.142 0.8725,-0.2 0.2755,-0.057 0.4879,-0.4326 0.7635,-0.49 0.2755,-0.057 0.5715,-0.6003 0.8152,-0.5358 0.2432,0.0641 0.4697,-0.2013 0.688,-0.534 0.2185,-0.3325 0.3203,-0.5742 0.7243,-1.1182 0.4043,-0.544 0.3575,-0.5257 0.6307,-0.8699 0.2734,-0.3444 0.4948,-1.0271 0.8575,-1.2174 0.3626,-0.1904 0.3751,-0.6132 0.428,-0.9118 0.0531,-0.2986 0.0718,-0.4662 0.1914,-0.7212 0.1196,-0.2545 0.0648,0.0529 0.1913,-0.7212 0.1266,-0.7738 0.4199,-1.1339 0.6609,-1.3567 0.241,-0.2225 0.3377,-0.5835 0.4914,-0.6732 0.1537,-0.0897 0.462,0.0877 0.2487,-0.3853 -0.213,-0.4729 -0.25,-1.2212 -0.3943,-1.3636 -0.1449,-0.1427 -0.1811,0.4385 -0.2978,-0.3996 -0.1162,-0.8378 0.2877,-1.8002 0.2877,-1.8002 0,0 0.6204,-1.2194 0.8617,-1.442 0.2412,-0.2226 0.2704,-0.4041 0.6106,-0.7049 0.3395,-0.3002 1.056,-1.0113 0.9986,-1.2869 -0.0573,-0.2756 0.1209,-1.0705 0.0865,-1.236 -0.0344,-0.1652 -0.0876,-0.3224 -0.3924,-1.2363 -0.3052,-0.9134 -0.0254,-0.7358 -0.5393,-1.5485 -0.5138,-0.8128 -0.8019,-1.9095 -1.0792,-2.1391 -0.2779,-0.2298 -0.301,-0.9646 -0.3468,-1.1847 -0.0458,-0.2203 0.2233,-0.8579 0.3427,-1.1125 0.1194,-0.255 0.6469,-1.2892 0.6469,-1.2892 0,0 0.8231,-1.485 1.0829,-2.1711 0.2597,-0.6866 0.5328,-1.2976 0.7624,-1.5752 0.2298,-0.2776 0.7835,-0.9261 1.0545,-1.5571 0.2712,-0.631 0.8472,-1.841 0.8681,-2.0183 0.0205,-0.1764 0.3246,-0.8204 0.3246,-0.8204 0,0 0.4676,-0.841 0.4978,-1.2495 0.0297,-0.4087 0.147,-2.6707 0.0598,-2.5376 -0.0867,0.1332 -0.7492,0.3771 -0.9583,0.4781 -0.2085,0.1011 0.3927,0.1997 -1.2284,0.4222 -1.6205,0.2219 -2.3772,0.6638 -2.3772,0.6638 -0.5192,-0.0072 -0.7829,0.6485 -1.1088,-0.0884 -0.3256,-0.7365 -0.5374,-1.1716 -0.9823,-1.654 -0.4453,-0.4822 -0.7137,-0.6535 -1.3582,-1.2669 -0.6446,-0.613 -0.5329,-0.2734 -1.0883,-0.7322 -0.5553,-0.4594 -0.6222,-0.2761 -1.0465,-0.9349 -0.4244,-0.659 -0.5966,-0.3397 -1.1336,-1.2628 -0.5371,-0.9233 -0.7603,-0.9947 -1.0401,-1.5111 -0.28,-0.5164 -0.5586,-0.6308 -0.7721,-1.1035 -0.2133,-0.4731 -2.0055,-2.7622 -2.2053,-2.8932 -0.1998,-0.1306 -0.6473,-0.9315 -0.5578,-0.7775 0.0897,0.1537 0.9733,0.5393 0.9733,0.5393 0,0 0.3912,-0.2731 0.5566,-0.3075 0.1653,-0.0345 0.9592,0.4385 1.005,0.6586 0.0459,0.2205 1.431,1.0242 1.8665,1.7383 0.4359,0.7141 0.8781,1.1909 0.9786,1.3998 0.1004,0.209 0.8443,0.978 1.1336,1.2628 0.2889,0.285 1.1396,0.8101 1.3186,1.1179 0.1789,0.3078 1.4431,1.1908 1.5921,1.9071 0.149,0.7163 0.8453,1.5506 0.9464,1.7594 0.1012,0.2088 1.1564,0.2673 1.1564,0.2673 l 1.2484,-0.5872 c 0,0 1.7144,-1.6814 1.935,-1.7273 0.2201,-0.0457 1.8074,-1.2464 1.8074,-1.2464 0,0 0.5831,-0.7982 0.9986,-1.2869 0.4157,-0.4889 0.8163,-1.3424 0.8579,-1.6963 0.0411,-0.3536 0.2536,-0.4311 0.5911,-1.019 0.3377,-0.5876 0.8589,-1.2296 0.4046,-1.4801 -0.4545,-0.2502 -0.6517,-0.0753 -1.3171,-0.5118 -0.6656,-0.4362 -0.5871,-0.3424 -1.1219,-0.9786 -0.5348,-0.6358 -0.2888,-1.5459 -0.9435,-0.5473 -0.6543,0.9983 -0.2563,1.1221 -1.0485,1.4597 -0.7918,0.3369 -1.0264,0.9723 -1.5266,0.5015 -0.5001,-0.4708 -0.8167,-0.0469 -1.2095,-0.8277 -0.3922,-0.7805 -0.5591,-0.8084 -0.6826,-1.1273 -0.1236,-0.3193 -0.054,-0.3327 -0.6668,-1.0676 -0.6126,-0.7348 -0.5802,-2.086 -0.1558,-1.427 0.4246,0.659 0.8944,0.6978 1.714,1.0447 0.8192,0.3468 1.2369,0.6603 1.9093,0.5779 0.6725,-0.0827 1.2263,-0.2568 1.3593,-0.1698 0.1332,0.0875 0.1944,-0.1197 0.4929,-0.0671 0.2986,0.0531 0.3543,-0.2461 0.5563,0.1713 0.2018,0.418 0.8134,0.3711 1.1461,0.5892 0.3329,0.2181 0.3317,0.1056 1.071,0.0665 0.7395,-0.0387 1.7172,-0.2649 1.7172,-0.2649 l 1.0514,-0.2475 1.2024,-0.16 c 0,0 1.0038,0.327 1.2239,0.2813 0.2203,-0.0459 0.409,0.5321 1.0288,0.748 0.6198,0.2161 0.7274,0.2423 1.1381,0.5593 0.4115,0.317 0.3966,0.5157 0.9175,0.8096 0.5214,0.2943 1.1367,-0.294 1.2126,-0.4819 0.0752,-0.1883 0.5923,-0.5844 0.5744,-0.1207 -0.0188,0.4636 0.5942,0.151 0.6468,1.2326 0.0524,1.0808 -0.1259,0.8255 0.2988,1.4847 0.4244,0.6589 2.1155,2.6311 2.3084,3.2808 0.1928,0.6496 0.4539,0.3535 0.6351,0.9484 0.1813,0.5943 0.577,0.754 0.6687,1.1948 0.0917,0.4409 0.5016,0.4719 0.6253,0.7915 0.1243,0.3191 0.6591,-0.095 0.8129,-0.1842 0.154,-0.0897 0.7639,-0.9691 0.7639,-0.9691 0,0 0.3318,-0.1736 0.1615,-0.7133 -0.1698,-0.539 -0.1012,-0.4416 -0.2731,-1.268 -0.1719,-0.8264 -0.4889,-0.7634 -0.4955,-1.624 -0.0066,-0.8608 0.3092,-1.4373 0.3394,-1.8458 0.0299,-0.4085 0.3489,-1.1643 0.5574,-1.2654 0.2089,-0.1009 1.2804,-0.9703 1.4757,-1.4136 0.1952,-0.4429 0.5562,-0.9852 0.9054,-1.5175 0.349,-0.5323 1.0113,-1.2188 1.2112,-1.088 0.1996,0.1309 0.1138,0.0815 0.3894,0.0242 0.2757,-0.0573 0.8227,0.052 1.2197,0.0268 0.398,-0.0251 1.366,0.7639 1.635,1.2255 0.268,0.4616 0.134,0.3542 0.889,0.9447 0.755,0.5899 1.215,0.0553 1.399,0.9371 0.183,0.8817 0.165,0.8041 0.509,1.0775 0.345,0.2734 0.49,-0.7127 0.843,-0.671 0.3539,0.0417 0.3819,-0.1856 0.8409,0.6386 0.458,0.8245 0.616,0.7861 0.855,1.656 0.238,0.8701 -0.041,0.0532 0.108,0.7692 0.149,0.7165 0.103,0.801 0.35,1.4391 0.248,0.6388 0.681,0.7593 0.65,0.8808 0,0 0.134,-0.9911 -0.114,-1.6296 -0.247,-0.6381 -0.352,-1.6108 -0.134,-1.9435 0.218,-0.3332 0.432,-0.6599 0.801,0.0106 0.369,0.6701 0.377,0.0843 1.045,0.8076 0.668,0.7235 1.082,0.4832 1.217,0.8575 0.135,0.3743 0.416,0.3805 0.87,0.6307 0.454,0.2505 0.703,-0.2146 1.075,-0.637 0.373,-0.4225 1.33,-1.8761 1.282,-2.3836 -0.048,-0.5071 0.463,-0.5228 -0.682,-1.6062 -1.145,-1.0839 -1.216,-1.5219 -2.313,-2.0984 -1.097,-0.5766 -1.68,-0.4955 -1.169,-1.6364 0.509,-1.1409 0.711,-1.8781 1.209,-1.6941 0.498,0.1837 1.268,-0.032 1.498,1.0703 0.229,1.1018 0.25,2.3697 0.746,0.8869 0.434,-1.2974 0.649,-2.1291 0.582,-2.1337 -0.076,0.1245 0.382,-0.4846 0.382,-0.4846 C 104.995,26.8461 95.8381,15.6996 84.1599,8.90068 c -0.0358,0.0149 -0.0788,0.0508 -0.1113,0.0615 -0.484,0.1581 -1.605,0.2721 -2.0251,0.1871 -0.4205,-0.085 -0.6067,-0.4408 -2.0052,0.0222 -1.3981,0.4634 -2.2246,0.6256 -2.0409,0.1274 0.184,-0.4979 0.4135,-1.0189 0.5673,-1.1084 0.154,-0.0894 0.4857,-0.4438 0.1872,-0.4966 -0.2981,-0.0532 -0.6232,-0.1528 -1.2956,-0.0706 -0.6729,0.0825 -0.5579,0.3537 -1.5723,0.4498 -1.0145,0.0961 0.4849,-0.5161 -1.542,-0.0371 -2.0271,0.4794 -2.4988,0.7726 -2.7191,0.8185 -0.1379,0.0287 -0.3265,-0.1253 -0.5544,-0.0442 z m 30.3232,46.71642 -0.133,0.0992 c 0,0 0.456,0.4028 0.667,0.5888 0.211,0.1859 0.235,0.5295 0.701,0.8352 0.466,0.3055 0.583,0.6415 0.826,0.7061 0.243,0.0646 0.9,0.9662 1.134,1.2628 0.234,0.2959 0.636,0.5543 0.925,0.8394 0.289,0.2846 0.891,0.8944 1.414,1.4757 0.523,0.5806 0.834,0.8212 1.124,1.1058 0.289,0.2846 1.017,0.4638 1.017,0.4638 0,0 0.272,-0.0994 0.523,-0.554 0.25,-0.4542 0.041,-0.89 0.007,-1.0552 -0.035,-0.1654 -0.521,-0.5779 -0.61,-0.7317 -0.089,-0.154 -0.339,-0.5528 -0.593,-0.6722 -0.255,-0.1199 -0.56,-0.4769 -1.094,-1.1137 -0.535,-0.6358 0.013,0.0202 -1.055,-0.9647 -1.067,-0.9852 -0.863,-0.2863 -1.549,-0.5458 -0.686,-0.2598 -0.886,-0.3893 -1.23,-0.6628 -0.345,-0.273 -0.887,-1.1376 -1.317,-0.9907 -0.429,0.1471 -0.757,-0.086 -0.757,-0.086 z M 8.82916,81.2076 c 0.9429,1.7887 2.00034,3.4896 3.12164,5.1395 0.0871,-0.3605 0.1586,-0.0655 0.2944,-0.3336 0.1633,-0.3213 0.0914,-0.5768 0.3763,-0.8661 0.2844,-0.2887 0.509,-1.2514 0.5043,-1.8258 -0.0044,-0.5737 -0.2502,-0.2986 -0.22,-0.7076 0.0302,-0.4086 -0.5974,-0.1561 -0.8978,-0.4956 -0.3009,-0.3402 -0.3385,0.0744 -0.6159,-0.1555 -0.2774,-0.2299 -0.6768,0.016 -0.9337,-0.3903 -0.2318,-0.3667 -0.86754,-0.1652 -1.62924,-0.365 z M 71.7683,75.652 c -0.0391,0.6407 -0.4545,1.653 -0.4545,1.653 l -1.0061,0.7781 c 0,0 -0.3217,0.4232 -0.5311,0.5242 -0.2089,0.1007 -0.7038,0.4744 -0.7038,0.4744 0,0 -0.501,-0.0165 -0.2329,0.4449 0.2684,0.4616 0.4512,1.0818 0.4302,1.2583 -0.0204,0.1768 0.0347,0.515 0.1264,0.9559 0.0916,0.4406 0.053,1.0028 -0.1997,1.1703 -0.2524,0.1677 -0.5214,0.3348 -0.3861,0.7091 0.1356,0.3743 0.3743,1.5285 0.3743,1.5285 l 0.957,0.9586 c 0,0 0.1833,-0.2019 0.6242,-0.2936 0.4404,-0.0916 0.8073,-0.5657 0.8073,-0.5657 0,0 0.5019,-0.0019 0.3204,-0.5959 -0.1812,-0.5949 -0.0299,-1.3783 -0.1199,-1.5322 -0.0892,-0.1538 0.3095,-0.9615 0.2751,-1.1265 -0.0344,-0.1655 0.3367,-1.0752 0.2794,-1.3511 -0.0574,-0.2753 0.2589,-0.7769 0.2453,-1.1185 -0.0137,-0.3425 -0.1446,-1.14 -0.0803,-1.3832 0.0646,-0.2433 0.0881,-0.4613 0.0423,-0.6816 L 72.3913,76.7952 71.7682,75.652 Z"
           id="imagebot_5"
           inkscape:connector-curvature="0"
           style="fill:#ffa63a" />
      </g>
      <g
         id="g40"
         display="inline"
         style="display:inline"
         transform="translate(690.82683,766.26501)">
        <title
           id="title42">Layer 6</title>
        <path
           d="m 19.1824,19.7536 c -2.9077,2.8086 -5.5173,5.9106 -7.72,9.2658 0.4484,-0.1924 1.0114,-0.465 1.7096,-0.7736 1.1056,-0.4886 1.1904,-0.0685 1.6002,-0.5848 0.41,-0.5164 0.5419,-0.6472 0.5216,-1.1601 -0.0207,-0.5131 -0.4797,-0.6694 -0.2728,-1.747 0.2069,-1.0778 0.6434,-0.2259 2.0935,-1.131 1.4499,-0.9053 0.097,-1.2224 0.7031,-2.0382 0.6064,-0.816 0.4448,-0.6784 1.4161,-1.3979 0.8195,-0.607 0.2735,-0.1907 -0.0513,-0.4332 l 0,0 z m 51.8664,-7.9435 c -0.1367,0.0487 -0.2945,0.1798 -0.4495,0.4706 -0.4135,0.7758 -1.1011,1.3197 -2.1912,1.6039 -1.0903,0.2844 -1.1706,0.1243 -2.1369,0.7275 -0.9667,0.6033 -1.7421,0.2542 -1.3382,1.0898 0.4034,0.8358 0.7475,1.0954 0.7819,1.2606 0.0344,0.1652 -0.247,1.3729 -0.9904,0.8378 -0.7441,-0.5351 -2.3699,-2.8875 -1.5072,-1.2274 0.8624,1.6599 2.1039,2.0197 1.1147,2.5127 -0.9895,0.4932 -0.9863,0.1009 -1.1745,0.0249 -0.1879,-0.0758 -0.172,-0.8903 -0.3188,-1.3198 -0.147,-0.4291 -0.3075,-0.6625 -0.5736,-0.837 C 61.9992,16.7789 61.9799,16.437 61.5164,16.4185 61.0526,16.4 61.3843,16.08 60.668,16.229 c -0.7163,0.149 -1.3996,-0.1416 -1.0281,0.8159 0.3713,0.9573 0.3911,0.2548 1.0265,1.0997 0.6354,0.845 1.3182,0.0084 0.8498,0.7956 -0.4685,0.7873 -2.113,0.9065 -2.5561,0.7113 -0.4431,-0.1954 -0.253,0.1532 -1.0729,-0.1936 -0.8194,-0.347 -0.6566,-0.7914 -1.4028,-0.2337 -0.7461,0.5577 -0.8747,1.3405 -1.2628,1.1336 -0.388,-0.2068 -1.0271,0.6374 -1.3714,0.3645 -0.3445,-0.2733 -1.4527,-0.0459 -1.604,0.3306 -0.1518,0.3763 -0.8153,0.444 -1.6602,1.0796 -0.8449,0.6355 -0.6566,0.1785 -1.6187,1.3559 -0.9626,1.1773 -1.4632,2.1042 -1.9746,1.5782 -0.5118,-0.5256 -2.812,-1.1368 -2.0197,-1.4742 0.7923,-0.3371 1.1108,-0.7595 1.6318,-0.4656 0.5211,0.2938 1.186,0.0332 1.2383,-0.2653 0.0528,-0.2985 0.5003,-0.6717 -0.2298,-0.8646 -0.73,-0.1932 -0.7231,0.053 -1.85,-0.1148 -1.1272,-0.168 -0.0732,-0.2715 -1.5518,-0.194 -1.4784,0.0776 -2.0975,0.0894 -2.5059,0.0595 -0.4082,-0.03 -0.9383,0.1797 -1.5006,0.2392 -0.5627,0.0596 -0.964,0.0352 -1.4488,0.1935 -0.4842,0.1582 -0.7777,0.1046 -1.336,0.7381 -0.5583,0.6336 -1.0179,0.9426 -1.3783,1.4197 -0.3604,0.4772 -1.3755,1.4984 -1.6489,1.8428 -0.2735,0.3442 -1.226,1.4835 -1.2674,1.8371 -0.0414,0.3536 0.2433,0.5582 -0.1517,0.8703 -0.3951,0.312 -0.8477,0.4097 -1.167,0.5335 -0.1596,0.062 -0.1835,-0.0755 -0.1966,-0.1392 -0.0127,0.0112 -0.0559,0.0625 -0.1234,0.2562 -0.2159,0.6198 0.3166,2.5849 0.5347,2.252 0.2181,-0.3329 -0.1357,-1.1617 1.2484,-0.5872 1.3841,0.574 2.1257,0.2841 2.2308,1.067 0.1053,0.7828 0.9657,0.5519 1.1102,0.6944 0.1445,0.1421 0.6382,-0.3611 0.6382,-0.3611 0,0 1.0472,-1.0206 0.967,-1.4061 -0.0803,-0.3858 0.5178,-1.4145 0.5178,-1.4145 0,0 -0.622,-0.1789 -0.7366,-0.7299 -0.1146,-0.5508 0.0078,-0.7357 0.0031,-1.3096 -0.0044,-0.5736 -0.5936,0.114 0.8416,-1.277 1.4349,-1.3905 1.6957,-0.7061 1.6957,-0.7061 0,0 0.2677,0.2025 0.0611,0.5903 -0.2066,0.388 -0.534,1.3729 -0.6213,1.5058 -0.0874,0.1333 0.7099,0.8807 0.985,0.8235 0.2756,-0.0574 0.7889,-0.4146 1.1311,-0.4283 0.3422,-0.0135 0.8334,-0.3154 1.0216,-0.2396 0.1884,0.0757 0.647,0.3192 0.4287,0.6521 -0.2181,0.3327 -0.7675,0.7923 -1.2307,0.774 -0.464,-0.0182 -1.2831,-0.6528 -0.668,0.3691 0.615,1.0218 0.2357,1.3871 -0.1065,1.4008 -0.3417,0.0136 -1.1667,-0.4087 -0.8846,0.3948 0.2822,0.8032 -0.44,1.531 -0.6055,1.5654 -0.1654,0.0344 -0.4928,0.0671 -0.4928,0.0671 0,0 -0.5019,0.0216 -0.7771,0.0789 -0.2756,0.0574 -0.7755,0.4617 -0.8948,0.7166 -0.1197,0.2547 -0.3726,0.1469 -0.648,0.2042 -0.2754,0.0573 -0.0895,-0.3389 -0.6635,-0.3344 -0.5737,0.0043 -0.9238,-0.0318 -1.2084,0.2573 -0.2849,0.2891 -0.7648,0.4861 -1.0197,0.3668 -0.2547,-0.1194 0.0099,-0.5613 -0.3854,-0.2488 -0.3947,0.312 -0.5863,0.9689 -0.7401,1.0586 -0.0192,0.0111 -0.0236,0.0341 -0.0219,0.0377 -0.0241,0.0081 0.0412,0.0155 -0.1411,0.0695 -0.6497,0.1928 -0.881,0.3926 -1.1888,0.5713 -0.3078,0.1792 0.2474,0.7582 -0.3129,1.1046 -0.5603,0.3464 -0.2244,-0.2369 -0.7277,0.3849 -0.5029,0.6223 -0.4998,1.077 -0.7084,1.1779 -0.209,0.1012 -0.1537,0.2029 -0.6382,0.3611 -0.4845,0.1582 -0.4115,0.2268 -0.6759,0.3392 -0.2639,0.1124 0.0924,0.127 -0.5367,0.1427 -0.6292,0.0159 -1.001,0.3464 -0.845,0.5438 0.156,0.1974 2.2968,0.3667 0.7427,0.6325 -1.5541,0.2658 -0.9888,0.4262 -0.6125,0.5778 0.3765,0.1515 0.5917,0.3493 0.7687,0.3702 0.1769,0.0207 0.5857,0.6424 0.5857,0.6424 0,0 0.4314,-0.1548 0.2362,0.2883 -0.1951,0.4431 0.2174,0.4563 0.0449,1.0096 -0.1722,0.5532 -0.246,0.2172 -0.4435,0.3732 -0.1974,0.1557 -0.4559,0.6329 -1.131,0.4283 -0.6749,-0.2047 -1.1459,-0.2985 -1.8738,-0.2043 -0.7277,0.0937 -0.2524,-0.1193 -0.668,0.3691 -0.4156,0.4892 -0.4438,0.9642 -0.2854,1.4484 0.1582,0.4843 0.3658,1.1275 0.2691,1.4926 -0.0965,0.3648 -0.0312,0.6916 0.1818,1.1647 0.2135,0.4727 0.5857,0.6423 0.5857,0.6423 0,0 0.803,-0.0579 0.9797,-0.0369 0.1767,0.0207 0.4521,-0.2126 0.9499,-0.029 0.4982,0.1839 0.9581,0.2061 1.1647,-0.1819 0.2066,-0.3878 1.2512,-0.9925 1.5134,-1.3918 0.2617,-0.3994 0.4533,-0.5599 0.2193,-0.8563 -0.234,-0.2963 0.0742,-1.2338 0.3152,-1.4563 0.241,-0.2225 0.8231,-0.5061 0.8231,-0.5061 l 0.462,-1.1442 c 0,0 0.4211,-0.697 0.708,-0.6989 0.2869,-0.0022 1.9504,0.2119 1.6915,-0.4815 -0.2592,-0.6936 -0.0908,-0.9464 0.1318,-0.7053 0.2225,0.241 0.6438,0.0204 0.6438,0.0204 0,0 0.2117,-0.1445 0.4113,-0.0136 0.1996,0.1306 0.5464,0.8107 0.9114,0.9069 0.3651,0.0967 0.6884,0.1991 0.9318,0.2631 0.2433,0.0646 0.4246,-0.0986 0.9457,0.1955 0.5209,0.2942 1.0193,0.4137 1.1084,0.5673 0.0899,0.1537 0.5382,0.4635 0.5382,0.4635 0,0 0.4277,0.043 0.3634,0.2864 -0.0644,0.2432 -0.4855,1.0185 -0.7383,1.1858 -0.2527,0.1674 -1.0209,0.0865 -0.6997,0.2498 0.321,0.163 0.7772,0.3735 0.908,0.1736 0.1312,-0.1996 0.9353,-1.5254 0.9353,-1.5254 -0.0087,-0.0263 -0.0347,-0.1051 -0.0415,-0.2762 -0.0134,-0.3418 -0.1545,-0.7238 0.1555,-0.6159 0.3098,0.1082 0.5199,0.2794 0.5842,0.0362 0.0643,-0.2434 0.2089,-0.1525 -0.1011,-0.2604 -0.3101,-0.1081 -1.1674,-0.8893 -1.5096,-0.8756 -0.3422,0.0135 -1.2774,-0.3627 -1.2774,-0.3627 0,0 -0.2256,-0.1231 -0.7031,-0.4835 -0.4775,-0.3606 -0.5439,-0.24 -0.7347,-0.6027 -0.1902,-0.3627 -0.6187,-0.7849 0.0105,-0.8009 0.6293,-0.0159 1.0789,0.2901 1.6987,0.5062 0.6198,0.2161 0.5439,0.3397 1.1084,0.5673 0.5645,0.2276 0.6949,0.5534 1.0687,0.4182 0.3741,-0.1353 0.8702,0.0433 0.9733,0.5393 0.1032,0.496 0.3171,1.0058 0.4502,1.0933 0.1334,0.0875 0.5091,0.2643 0.6653,0.4616 0.156,0.1974 0.4979,0.679 0.7087,0.865 0.2113,0.1859 0.4069,0.3256 0.6295,0.5669 0.2225,0.241 0.1933,-0.0817 0.3815,-0.0056 0.1884,0.0758 0.3938,-0.0318 0.348,-0.2521 -0.0458,-0.2203 -0.069,-0.62 -0.069,-0.62 0,0 0.7305,-0.3842 0.4872,-0.4487 -0.2435,-0.0643 -1.0243,-0.5838 -1.0148,-0.8156 0.0093,-0.2318 -0.1469,-0.6734 0.1397,-0.6756 0.287,-0.0025 0.6661,0.4448 1.1805,-0.1222 0.5144,-0.5669 1.1722,-0.9327 1.0892,-0.2256 -0.0826,0.7069 0.2351,0.7487 0.3286,1.4767 0.0942,0.7279 0.3084,0.4463 0.7744,0.7518 0.4658,0.3056 0.7546,0.306 1.0529,0.3586 0.2986,0.0531 0.7279,-0.0855 1.1805,-0.1222 0.4523,-0.0366 0.6944,-0.3233 1.1031,-0.2932 0.4083,0.03 1.2525,-0.2994 1.4409,-0.2234 0.1884,0.0758 0.7851,-0.3952 0.9201,-0.0211 0.1354,0.3744 0.2555,-0.1267 0.2736,0.7892 0.0181,0.9158 -0.0887,1.5877 -0.0887,1.5877 -0.3655,1.2832 -0.5262,1.5979 -0.7904,1.7103 -0.2637,0.1123 -0.3854,0.3169 -0.8925,0.3649 -0.5075,0.0478 -1.1096,0.2234 -1.8602,0.2071 -0.7507,-0.0165 -1.9939,0.5915 -2.6135,0.3754 -0.6198,-0.2159 -1.3415,0.2079 -1.7526,-0.1088 -0.4107,-0.317 -0.9356,-0.1445 -1.202,-0.3189 -0.2661,-0.1745 -0.5034,-0.7645 -0.32,0.117 0.1834,0.8817 -0.3107,1.0601 -0.3292,1.5239 -0.0188,0.4636 0.202,0.1671 -0.4155,0.2381 -0.6176,0.0707 -0.7099,0.4583 -1.7289,-0.0193 -1.0192,-0.4778 -1.449,-0.4158 -1.9469,-0.5998 -0.4985,-0.1839 -0.777,0.6831 -1.4009,-0.1065 -0.6243,-0.79 -1.0851,0.0579 -1.2892,-0.6469 -0.204,-0.7051 -0.1293,-0.6527 -0.166,-1.105 -0.0361,-0.4524 0.4736,-0.9571 0.1639,-1.065 -0.31,-0.1079 -0.1455,-0.4329 -0.4967,-0.1872 -0.3514,0.2455 -0.8857,0.4057 -1.2922,0.6626 -0.4065,0.2572 0.9754,-0.2139 -1.139,0.3985 -2.1144,0.6122 -2.6497,0.9596 -2.6497,0.9596 0,0 -0.1937,-0.0693 -0.4235,0.2083 -0.2295,0.2776 -0.5364,0.6904 -0.9563,0.6053 -0.42,-0.0853 -0.637,0.0024 -0.9559,0.1264 -0.3193,0.1239 -0.6037,-0.1398 -0.9322,0.2158 -0.3286,0.3554 -0.7698,0.5541 -0.9582,0.4782 -0.1891,-0.0772 -0.5382,-0.4635 -0.5382,-0.4635 l -0.6171,1.2812 -0.4318,0.6574 -0.9605,0.8299 -0.0819,0.5325 c 0,0 -0.3478,0.5325 -0.2351,0.7966 0.1126,0.2642 0.2358,0.7673 0.2358,0.7673 0,0 -0.6183,0.8766 -0.9031,1.1657 -0.2849,0.2891 -0.6307,0.8699 -0.6307,0.8699 0,0 -0.2238,0.3997 -0.3661,0.5442 -0.1424,0.1443 -0.3438,0.5212 -0.4956,0.8978 -0.1517,0.3766 -0.3084,0.6481 -0.3842,0.8363 -0.0758,0.1881 -0.3236,0.637 -0.3627,1.2774 -0.0391,0.6408 -0.345,1.4643 -0.345,1.4643 l -0.0559,0.2702 c 0.2502,0.9253 0.2907,1.0996 0.4698,1.4074 0.1789,0.3075 0.2667,0.1689 0.3053,0.9084 0.0388,0.7389 0.0919,1.0374 0.0505,1.391 -0.0415,0.3532 -0.2347,1.0226 -0.2872,1.3213 -0.0532,0.2983 0.3849,0.7276 0.3849,0.7276 0,0 0.3058,0.6764 0.2298,0.8646 -0.0758,0.1884 0.1565,0.4692 0.1565,0.4692 0,0 0.7428,0.2593 1.0092,0.434 0.2661,0.1745 0.7049,0.4331 0.7944,0.5869 0.0897,0.1539 0.7106,0.8146 0.8,0.9684 0.0895,0.1538 0.6457,0.6689 0.7902,0.8114 0.1446,0.1426 0.8103,0.6465 0.8103,0.6465 0,0 0.8374,0.397 1.0487,0.5832 0.2111,0.1859 0.7483,0.1918 0.9477,0.3227 0.1998,0.1308 0.5698,-0.0199 0.8246,0.1 0.2549,0.1194 0.6369,-0.2347 0.8804,-0.1701 0.2432,0.0643 0.802,-0.2661 0.9443,-0.4106 0.1423,-0.1445 0.4456,-0.6277 0.7555,-0.52 0.3098,0.1077 0.4477,-0.0941 0.6797,-0.0849 0.2316,0.0093 0.4775,-0.3312 0.6979,-0.377 0.2205,-0.0459 0.7492,-0.3683 0.9144,-0.4026 0.1655,-0.0344 0.6245,-0.498 0.845,-0.5438 0.2201,-0.0458 0.4611,-0.3183 0.7593,-0.2657 0.2983,0.0526 0.1257,-0.2361 0.656,-0.1743 0.5302,0.0618 0.6609,-0.1359 0.8604,-0.0052 0.1999,0.131 0.389,-0.0901 0.6001,0.0959 0.211,0.1857 0.5126,0.2981 0.6136,0.5072 0.1007,0.2092 0.4766,0.3521 0.4766,0.3521 l 0.3438,-0.0275 c 0,0 0.3651,-0.4 0.5209,-0.2023 0.1559,0.1974 0.6438,0.0204 0.6438,0.0204 l 0.6276,0.4397 0.2124,0.1989 c 0,0 0.5202,0.825 0.5336,1.167 0.0137,0.3419 0.1418,1.0424 0.0109,1.242 -0.1308,0.1998 -0.0982,0.9517 -0.0982,0.9517 0,0 -0.1748,0.2549 0.4129,0.5926 0.5877,0.3379 1.0064,0.6718 1.2174,0.8575 0.2114,0.1861 0.7864,0.6897 0.9212,1.0639 0.1355,0.374 0.2974,0.5659 0.6211,1.016 0.3235,0.4501 0.6085,0.4663 0.7782,1.0061 0.1699,0.5393 0.2802,0.5117 0.3053,0.9084 0.0251,0.3973 -0.1297,0.4685 0.0928,0.7095 0.2225,0.2413 0.5421,0.7062 0.5219,0.8828 -0.0207,0.1767 0.0211,0.9201 0.0211,0.9201 l -0.04,0.3298 -0.3209,1.0748 -0.2091,0.5344 c -0.0299,0.4085 -0.1788,0.8674 -0.0091,1.4069 0.1695,0.5396 -0.1506,0.5825 0.4046,1.0417 0.5555,0.4595 0.9076,1.0389 1.2864,1.4775 0.3788,0.4384 0.6425,0.8818 0.7661,1.2009 0.1241,0.3192 0.3639,0.3896 0.5657,0.8073 0.2016,0.418 0.2777,0.6248 0.3351,0.9005 0.0573,0.2753 0.164,1.0205 0.309,1.1627 0.1443,0.1424 0.3078,0.6082 0.4087,0.8171 0.1009,0.2091 -0.1174,0.3072 0.2936,0.6242 0.4109,0.3168 0.6835,0.5043 0.9611,0.7341 0.2777,0.2298 0.203,0.1359 0.4488,0.4872 0.2454,0.3512 0.5092,0.5025 0.6332,0.8213 0.1238,0.319 0.3452,1.1514 0.5909,1.5027 0.2455,0.351 0.5638,0.68 0.5638,0.68 0,0 0.6694,0.283 0.8782,0.182 0.2086,-0.101 0.5615,-0.694 0.9265,-0.598 0.3651,0.097 0.5972,-0.142 0.8725,-0.2 0.2755,-0.057 0.4879,-0.4326 0.7635,-0.49 0.2755,-0.057 0.5715,-0.6003 0.8152,-0.5358 0.2432,0.0641 0.4697,-0.2013 0.688,-0.534 0.2185,-0.3325 0.3203,-0.5742 0.7243,-1.1182 0.4043,-0.544 0.3575,-0.5257 0.6307,-0.8699 0.2734,-0.3444 0.4948,-1.0271 0.8575,-1.2174 0.3626,-0.1904 0.3751,-0.6132 0.428,-0.9118 0.0531,-0.2986 0.0718,-0.4662 0.1914,-0.7212 0.1196,-0.2545 0.0648,0.0529 0.1913,-0.7212 0.1266,-0.7738 0.4199,-1.1339 0.6609,-1.3567 0.241,-0.2225 0.3377,-0.5835 0.4914,-0.6732 0.1537,-0.0897 0.462,0.0877 0.2487,-0.3853 -0.213,-0.4729 -0.25,-1.2212 -0.3943,-1.3636 -0.1449,-0.1427 -0.1811,0.4385 -0.2978,-0.3996 -0.1162,-0.8378 0.2877,-1.8002 0.2877,-1.8002 0,0 0.6204,-1.2194 0.8617,-1.442 0.2412,-0.2226 0.2704,-0.4041 0.6106,-0.7049 0.3395,-0.3002 1.056,-1.0113 0.9986,-1.2869 -0.0573,-0.2756 0.1209,-1.0705 0.0865,-1.236 -0.0344,-0.1652 -0.0876,-0.3224 -0.3924,-1.2363 -0.3052,-0.9134 -0.0254,-0.7358 -0.5393,-1.5485 -0.5138,-0.8128 -0.8019,-1.9095 -1.0792,-2.1391 -0.2779,-0.2298 -0.301,-0.9646 -0.3468,-1.1847 -0.0458,-0.2203 0.2233,-0.8579 0.3427,-1.1125 0.1194,-0.255 0.6469,-1.2892 0.6469,-1.2892 0,0 0.8231,-1.485 1.0829,-2.1711 0.2597,-0.6866 0.5328,-1.2976 0.7624,-1.5752 0.2298,-0.2776 0.7835,-0.9261 1.0545,-1.5571 0.2712,-0.631 0.8472,-1.841 0.8681,-2.0183 0.0205,-0.1764 0.3246,-0.8204 0.3246,-0.8204 0,0 0.4676,-0.841 0.4978,-1.2495 0.0297,-0.4087 0.147,-2.6707 0.0598,-2.5376 -0.0867,0.1332 -0.7492,0.3771 -0.9583,0.4781 -0.2085,0.1011 0.3927,0.1997 -1.2284,0.4222 -1.6205,0.2219 -2.3772,0.6638 -2.3772,0.6638 -0.5192,-0.0072 -0.7829,0.6485 -1.1088,-0.0884 -0.3256,-0.7365 -0.5374,-1.1716 -0.9823,-1.654 -0.4453,-0.4822 -0.7137,-0.6535 -1.3582,-1.2669 -0.6446,-0.613 -0.5329,-0.2734 -1.0883,-0.7322 -0.5553,-0.4594 -0.6222,-0.2761 -1.0465,-0.9349 -0.4244,-0.659 -0.5966,-0.3397 -1.1336,-1.2628 -0.5371,-0.9233 -0.7603,-0.9947 -1.0401,-1.5111 -0.28,-0.5164 -0.5586,-0.6308 -0.7721,-1.1035 -0.2133,-0.4731 -2.0055,-2.7622 -2.2053,-2.8932 -0.1998,-0.1306 -0.6473,-0.9315 -0.5578,-0.7775 0.0897,0.1537 0.9733,0.5393 0.9733,0.5393 0,0 0.3912,-0.2731 0.5566,-0.3075 0.1653,-0.0345 0.9592,0.4385 1.005,0.6586 0.0459,0.2205 1.431,1.0242 1.8665,1.7383 0.4359,0.7141 0.8781,1.1909 0.9786,1.3998 0.1004,0.209 0.8443,0.978 1.1336,1.2628 0.2889,0.285 1.1396,0.8101 1.3186,1.1179 0.1789,0.3078 1.4431,1.1908 1.5921,1.9071 0.149,0.7163 0.8453,1.5506 0.9464,1.7594 0.1012,0.2088 1.1564,0.2673 1.1564,0.2673 l 1.2484,-0.5872 c 0,0 1.7144,-1.6814 1.935,-1.7273 0.2201,-0.0457 1.8074,-1.2464 1.8074,-1.2464 0,0 0.5831,-0.7982 0.9986,-1.2869 0.4157,-0.4889 0.8163,-1.3424 0.8579,-1.6963 0.0411,-0.3536 0.2536,-0.4311 0.5911,-1.019 0.3377,-0.5876 0.8589,-1.2296 0.4046,-1.4801 -0.4545,-0.2502 -0.6517,-0.0753 -1.3171,-0.5118 -0.6656,-0.4362 -0.5871,-0.3424 -1.1219,-0.9786 -0.5348,-0.6358 -0.2888,-1.5459 -0.9435,-0.5473 -0.6543,0.9983 -0.2563,1.1221 -1.0485,1.4597 -0.7918,0.3369 -1.0264,0.9723 -1.5266,0.5015 -0.5001,-0.4708 -0.8167,-0.0469 -1.2095,-0.8277 -0.3922,-0.7805 -0.5591,-0.8084 -0.6826,-1.1273 -0.1236,-0.3193 -0.054,-0.3327 -0.6668,-1.0676 -0.6126,-0.7348 -0.5802,-2.086 -0.1558,-1.427 0.4246,0.659 0.8944,0.6978 1.714,1.0447 0.8192,0.3468 1.2369,0.6603 1.9093,0.5779 0.6725,-0.0827 1.2263,-0.2568 1.3593,-0.1698 0.1332,0.0875 0.1944,-0.1197 0.4929,-0.0671 0.2986,0.0531 0.3543,-0.2461 0.5563,0.1713 0.2018,0.418 0.8134,0.3711 1.1461,0.5892 0.3329,0.2181 0.3317,0.1056 1.071,0.0665 0.7395,-0.0387 1.7172,-0.2649 1.7172,-0.2649 l 1.0514,-0.2475 1.2024,-0.16 c 0,0 1.0038,0.327 1.2239,0.2813 0.2203,-0.0459 0.409,0.5321 1.0288,0.748 0.6198,0.2161 0.7274,0.2423 1.1381,0.5593 0.4115,0.317 0.3966,0.5157 0.9175,0.8096 0.5214,0.2943 1.1367,-0.294 1.2126,-0.4819 0.0752,-0.1883 0.5923,-0.5844 0.5744,-0.1207 -0.0188,0.4636 0.5942,0.151 0.6468,1.2326 0.0524,1.0808 -0.1259,0.8255 0.2988,1.4847 0.4244,0.6589 2.1155,2.6311 2.3084,3.2808 0.1928,0.6496 0.4539,0.3535 0.6351,0.9484 0.1813,0.5943 0.577,0.754 0.6687,1.1948 0.0917,0.4409 0.5016,0.4719 0.6253,0.7915 0.1243,0.3191 0.6591,-0.095 0.8129,-0.1842 0.154,-0.0897 0.7639,-0.9691 0.7639,-0.9691 0,0 0.3318,-0.1736 0.1615,-0.7133 -0.1698,-0.539 -0.1012,-0.4416 -0.2731,-1.268 -0.1719,-0.8264 -0.4889,-0.7634 -0.4955,-1.624 -0.0066,-0.8608 0.3092,-1.4373 0.3394,-1.8458 0.0299,-0.4085 0.3489,-1.1643 0.5574,-1.2654 0.2089,-0.1009 1.2804,-0.9703 1.4757,-1.4136 0.1952,-0.4429 0.5562,-0.9852 0.9054,-1.5175 0.349,-0.5323 1.0113,-1.2188 1.2112,-1.088 0.1996,0.1309 0.1138,0.0815 0.3894,0.0242 0.2757,-0.0573 0.8227,0.052 1.2197,0.0268 0.398,-0.0251 1.366,0.7639 1.635,1.2255 0.268,0.4616 0.134,0.3542 0.889,0.9447 0.755,0.5899 1.215,0.0553 1.399,0.9371 0.183,0.8817 0.165,0.8041 0.509,1.0775 0.345,0.2734 0.49,-0.7127 0.843,-0.671 0.3539,0.0417 0.3819,-0.1856 0.8409,0.6386 0.458,0.8245 0.616,0.7861 0.855,1.656 0.238,0.8701 -0.041,0.0532 0.108,0.7692 0.149,0.7165 0.103,0.801 0.35,1.4391 0.248,0.6388 0.681,0.7593 0.65,0.8808 0,0 0.134,-0.9911 -0.114,-1.6296 -0.247,-0.6381 -0.352,-1.6108 -0.134,-1.9435 0.218,-0.3332 0.432,-0.6599 0.801,0.0106 0.369,0.6701 0.377,0.0843 1.045,0.8076 0.668,0.7235 1.082,0.4832 1.217,0.8575 0.135,0.3743 0.416,0.3805 0.87,0.6307 0.454,0.2505 0.703,-0.2146 1.075,-0.637 0.373,-0.4225 1.33,-1.8761 1.282,-2.3836 -0.048,-0.5071 0.463,-0.5228 -0.682,-1.6062 -1.145,-1.0839 -1.216,-1.5219 -2.313,-2.0984 -1.097,-0.5766 -1.68,-0.4955 -1.169,-1.6364 0.509,-1.1409 0.711,-1.8781 1.209,-1.6941 0.498,0.1837 1.268,-0.032 1.498,1.0703 0.229,1.1018 0.25,2.3697 0.746,0.8869 0.434,-1.2974 0.649,-2.1291 0.582,-2.1337 -0.076,0.1245 0.382,-0.4846 0.382,-0.4846 -4.016,-13.9459 -13.1729,-25.0924 -24.8511,-31.8913 -0.0358,0.0149 -0.0788,0.0508 -0.1113,0.0615 -0.484,0.1581 -1.605,0.2721 -2.0251,0.1871 -0.4205,-0.085 -0.6067,-0.4408 -2.0052,0.0222 -1.3981,0.4634 -2.2246,0.6256 -2.0409,0.1274 0.184,-0.4979 0.4135,-1.0189 0.5673,-1.1084 0.154,-0.0894 0.4857,-0.4438 0.1872,-0.4966 -0.2981,-0.0532 -0.6232,-0.1528 -1.2956,-0.0706 -0.6729,0.0825 -0.5579,0.3537 -1.5723,0.4498 -1.0145,0.0961 0.4849,-0.5161 -1.542,-0.0371 -2.0271,0.4794 -2.4988,0.7726 -2.7191,0.8185 -0.1379,0.0287 -0.3265,-0.1253 -0.5544,-0.0442 z m 30.3232,46.7164 -0.133,0.0992 c 0,0 0.456,0.4028 0.667,0.5888 0.211,0.1859 0.235,0.5295 0.701,0.8352 0.466,0.3055 0.583,0.6415 0.826,0.7061 0.243,0.0646 0.9,0.9662 1.134,1.2628 0.234,0.2959 0.636,0.5543 0.925,0.8394 0.289,0.2846 0.891,0.8944 1.414,1.4757 0.523,0.5806 0.834,0.8212 1.124,1.1058 0.289,0.2846 1.017,0.4638 1.017,0.4638 0,0 0.272,-0.0994 0.523,-0.554 0.25,-0.4542 0.041,-0.89 0.007,-1.0552 -0.035,-0.1654 -0.521,-0.5779 -0.61,-0.7317 -0.089,-0.154 -0.339,-0.5528 -0.593,-0.6722 -0.255,-0.1199 -0.56,-0.4769 -1.094,-1.1137 -0.535,-0.6358 0.013,0.0202 -1.055,-0.9647 -1.067,-0.9852 -0.863,-0.2863 -1.549,-0.5458 -0.686,-0.2598 -0.886,-0.3893 -1.23,-0.6628 -0.345,-0.273 -0.887,-1.1376 -1.317,-0.9907 -0.429,0.1471 -0.757,-0.086 -0.757,-0.086 z M 8.82916,84.2076 c 0.9429,1.7887 2.00034,3.4896 3.12164,5.1395 0.0871,-0.3605 0.1586,-0.0655 0.2944,-0.3336 0.1633,-0.3213 0.0914,-0.5768 0.3763,-0.8661 0.2844,-0.2887 0.509,-1.2514 0.5043,-1.8258 -0.0044,-0.5737 -0.2502,-0.2986 -0.22,-0.7076 0.0302,-0.4086 -0.5974,-0.1561 -0.8978,-0.4956 -0.3009,-0.3402 -0.3385,0.0744 -0.6159,-0.1555 -0.2774,-0.2299 -0.6768,0.016 -0.9337,-0.3903 -0.2318,-0.3667 -0.86754,-0.1652 -1.62924,-0.365 z M 71.7683,78.652 c -0.0391,0.6407 -0.4545,1.653 -0.4545,1.653 l -1.0061,0.7781 c 0,0 -0.3217,0.4232 -0.5311,0.5242 -0.2089,0.1007 -0.7038,0.4744 -0.7038,0.4744 0,0 -0.501,-0.0165 -0.2329,0.4449 0.2684,0.4616 0.4512,1.0818 0.4302,1.2583 -0.0204,0.1768 0.0347,0.515 0.1264,0.9559 0.0916,0.4406 0.053,1.0028 -0.1997,1.1703 -0.2524,0.1677 -0.5214,0.3348 -0.3861,0.7091 0.1356,0.3743 0.3743,1.5285 0.3743,1.5285 l 0.957,0.9586 c 0,0 0.1833,-0.2019 0.6242,-0.2936 0.4404,-0.0916 0.8073,-0.5657 0.8073,-0.5657 0,0 0.5019,-0.0019 0.3204,-0.5959 -0.1812,-0.5949 -0.0299,-1.3783 -0.1199,-1.5322 -0.0892,-0.1538 0.3095,-0.9615 0.2751,-1.1265 -0.0344,-0.1655 0.3367,-1.0752 0.2794,-1.3511 -0.0574,-0.2753 0.2589,-0.7769 0.2453,-1.1185 -0.0137,-0.3425 -0.1446,-1.14 -0.0803,-1.3832 0.0646,-0.2433 0.0881,-0.4613 0.0423,-0.6816 L 72.3913,79.7952 71.7682,78.652 Z"
           id="imagebot_6"
           inkscape:connector-curvature="0"
           style="fill:url(#imagebot_11)" />
      </g>
      <path
         id="imagebot_7"
         d="m 800.15183,809.15101 a 54.2952,54.2952 0 0 1 -104.94685,27.8925 54.2952,54.2952 0 1 1 104.94685,-27.8925 z"
         style="opacity:0.2;fill:url(#imagebot_10-3)"
         inkscape:connector-curvature="0" />
    </g>
    <path
       style="fill:#000000"
       d="m 478.37851,874.50652 c -18.96863,-0.63542 -39.71631,-5.40522 -61.08327,-14.04271 -7.71132,-3.11725 -16.65739,-7.2729 -24.48986,-11.37604 -22.11757,-11.58661 -45.49715,-27.49253 -64.45899,-43.85366 -1.33352,-1.15062 -2.45139,-2.20174 -2.57342,-2.41974 -0.26628,-0.47573 -0.27863,-1.22749 -0.0281,-1.71232 0.30583,-0.59189 6.1503,-5.59139 11.80279,-10.0964 17.02832,-13.57148 36.09045,-26.1032 54.40935,-35.7695 32.58234,-17.19265 63.29001,-25.94868 91.00276,-25.94868 19.24967,0 40.19595,4.2799 61.96622,12.66143 24.63127,9.48301 50.85998,24.39001 75.52769,42.92593 8.17322,6.14156 19.19856,15.21614 19.72498,16.23495 0.24635,0.47682 0.23258,1.23132 -0.0311,1.70459 -0.55789,1.00113 -11.57452,10.07874 -19.0717,15.71491 -27.63081,20.77211 -55.96123,36.45185 -82.82395,45.83961 -21.16222,7.39561 -41.07565,10.76733 -59.87333,10.13763 z m 9.04937,-9.13334 c 9.58471,-0.60318 18.36005,-2.80038 26.75223,-6.6983 11.95897,-5.55467 21.7926,-14.07045 28.67146,-24.82921 1.27858,-1.99969 3.44456,-6.06954 4.39541,-8.2588 5.40168,-12.43719 6.41948,-26.17946 2.89505,-39.08827 -2.62837,-9.6268 -7.56216,-18.35139 -14.75915,-26.09914 -1.66466,-1.79207 -5.75448,-5.49552 -7.79838,-7.0617 -7.91927,-6.06823 -16.66874,-10.293 -26.36178,-12.72911 -10.11189,-2.54138 -21.11529,-2.91677 -31.49767,-1.07459 -13.17262,2.33727 -25.41542,8.23661 -35.10919,16.9178 -16.04436,14.36839 -23.4645,34.77192 -20.07984,55.21451 2.69482,16.27609 12.43417,31.16243 26.90974,41.13084 10.71018,7.3754 23.38783,11.70833 36.76307,12.56474 1.95658,0.12532 7.30294,0.13181 9.21905,0.0111 z"
       id="path3512"
       inkscape:connector-curvature="0" />
  </g>
</svg>
