<?xml version="1.0" encoding="UTF-8" standalone="no"?>
<!-- Generator: Adobe Illustrator 16.2.1, SVG Export Plug-In . SVG Version: 6.00 Build 0)  -->

<svg
   xmlns:dc="http://purl.org/dc/elements/1.1/"
   xmlns:cc="http://creativecommons.org/ns#"
   xmlns:rdf="http://www.w3.org/1999/02/22-rdf-syntax-ns#"
   xmlns:svg="http://www.w3.org/2000/svg"
   xmlns="http://www.w3.org/2000/svg"
   xmlns:sodipodi="http://sodipodi.sourceforge.net/DTD/sodipodi-0.dtd"
   xmlns:inkscape="http://www.inkscape.org/namespaces/inkscape"
   version="1.1"
   x="0px"
   y="0px"
   width="200px"
   height="200px"
   viewBox="0 0 200 200"
   enable-background="new 0 0 200 200"
   xml:space="preserve"
   id="svg2"
   inkscape:version="0.48.4 r9939"
   sodipodi:docname="power.svg"><metadata
     id="metadata522"><rdf:RDF><cc:Work
         rdf:about=""><dc:format>image/svg+xml</dc:format><dc:type
           rdf:resource="http://purl.org/dc/dcmitype/StillImage" /><dc:title /></cc:Work></rdf:RDF></metadata><defs
     id="defs520"><marker
       inkscape:stockid="Arrow1Lend"
       orient="auto"
       refY="0.0"
       refX="0.0"
       id="Arrow1Lend"
       style="overflow:visible;"><path
         id="path4099"
         d="M 0.0,0.0 L 5.0,-5.0 L -12.5,0.0 L 5.0,5.0 L 0.0,0.0 z "
         style="fill-rule:evenodd;stroke:#000000;stroke-width:1.0pt;"
         transform="scale(0.8) rotate(180) translate(12.5,0)" /></marker></defs><sodipodi:namedview
     pagecolor="#ffffff"
     bordercolor="#666666"
     borderopacity="1"
     objecttolerance="10"
     gridtolerance="10"
     guidetolerance="10"
     inkscape:pageopacity="0"
     inkscape:pageshadow="2"
     inkscape:window-width="1301"
     inkscape:window-height="744"
     id="namedview518"
     showgrid="false"
     inkscape:zoom="2.1205232"
     inkscape:cx="47.342164"
     inkscape:cy="100"
     inkscape:window-x="65"
     inkscape:window-y="24"
     inkscape:window-maximized="1"
     inkscape:current-layer="svg2" /><g
     inkscape:groupmode="layer"
     id="layer2"
     inkscape:label="Layer#1"
     style="display:inline"><path
       style="fill:none;stroke:#ffffff;stroke-width:1.20000005;stroke-linecap:butt;stroke-linejoin:miter;stroke-miterlimit:4;stroke-opacity:1;stroke-dasharray:none"
       d="M 78.761357,111.99623 103.67567,71.008172 98.451705,99.137231 119.34758,96.726169 94.835107,134.49947 99.255385,108.37963 z"
       id="path3259"
       inkscape:connector-curvature="0" /><path
       style="fill:#a500ff;fill-opacity:0;fill-rule:nonzero;stroke:#ffffff;stroke-width:1.79999995;stroke-linejoin:round;stroke-miterlimit:4;stroke-opacity:1;stroke-dasharray:none;stroke-dashoffset:0"
       d="m 49.358229,115.12941 c -2.029717,-4.44386 -2.996469,-16.26484 -1.884178,-23.038813 1.162979,-7.082664 3.900247,-13.912238 8.152272,-20.340188 0.847961,-1.281894 3.350043,-4.150757 5.560183,-6.375251 9.082725,-9.141713 19.875974,-14.202088 33.031392,-15.486646 8.137872,-0.794622 18.321632,0.85966 25.637792,4.164685 5.42087,2.448842 12.06096,7.017165 15.63129,10.754187 l 3.05444,3.197047 0,-4.125542 c 0,-3.083567 0.15799,-4.351109 0.62555,-5.018642 0.73653,-1.05155 1.4865,-1.134707 2.35957,-0.261631 0.52657,0.526571 0.63147,1.814907 0.63147,7.755583 0,5.005187 -0.14342,7.267539 -0.48221,7.606327 -0.34168,0.34168 -2.73832,0.482213 -8.22366,0.482213 -7.43322,0 -7.75928,-0.03333 -8.18945,-0.837116 -0.35668,-0.666465 -0.30794,-0.991895 0.23911,-1.596375 0.59886,-0.661736 1.39011,-0.773577 6.16014,-0.87072 l 5.47303,-0.111461 -4.01844,-4.060038 C 125.91108,59.686981 116.78846,54.998241 106.55524,53.315356 100.86457,52.379508 92.320364,52.721042 86.996931,54.09715 70.177625,58.444943 57.409391,70.017685 52.357327,85.493441 c -2.592182,7.940508 -2.920605,17.758099 -0.859207,25.684299 1.109879,4.26756 0.993725,5.05674 -0.744252,5.05674 -0.581639,0 -1.066115,-0.3836 -1.395639,-1.10507 z"
       id="path4718"
       inkscape:connector-curvature="0" /></g><path
     style="fill:#a500ff;fill-opacity:0;fill-rule:nonzero;stroke:#ffffff;stroke-width:1.79999995;stroke-linejoin:round;stroke-miterlimit:4;stroke-opacity:1;stroke-dasharray:none;stroke-dashoffset:0;display:inline"
     d="m 147.56697,81.678484 c 2.40508,4.252437 4.38682,15.94615 3.86236,22.790766 -0.54836,7.15653 -2.68696,14.19657 -6.36929,20.967 -0.73435,1.35019 -2.97992,4.42398 -4.99016,6.83064 -8.26123,9.89035 -18.5783,15.86193 -31.5741,18.27528 -8.03912,1.49288 -18.327552,0.72226 -25.901286,-1.94006 -5.611718,-1.97263 -12.620752,-5.9518 -16.499812,-9.36728 l -3.318561,-2.92196 0.355487,4.1102 c 0.265703,3.07209 0.217522,4.34854 -0.19078,5.05387 -0.643181,1.11111 -1.383193,1.25858 -2.328247,0.46398 -0.569985,-0.47924 -0.785507,-1.75375 -1.297399,-7.67233 -0.431284,-4.98657 -0.483338,-7.25286 -0.175001,-7.61958 0.310967,-0.36986 2.686581,-0.71637 8.15152,-1.18903 7.405573,-0.6405 7.73329,-0.63542 8.231122,0.12833 0.412781,0.63326 0.392264,0.96168 -0.100665,1.61105 -0.539613,0.71087 -1.318283,0.89048 -6.062201,1.39828 l -5.443069,0.58264 4.353337,3.69868 c 7.805953,6.6321 17.298659,10.51733 27.638827,11.31218 5.750128,0.44202 14.233138,-0.63447 19.418188,-2.46417 16.38212,-5.7809 28.10567,-18.4108 31.80544,-34.26432 1.89832,-8.13434 1.37957,-17.94371 -1.35714,-25.662805 -1.47348,-4.156052 -1.42576,-4.952305 0.30576,-5.102062 0.57947,-0.05012 1.0952,0.290309 1.48567,0.980701 z"
     id="path4718-5"
     inkscape:connector-curvature="0"
     inkscape:transform-center-x="8.0368741" /></svg>
