<?xml version="1.0" encoding="UTF-8" standalone="no"?>
<!-- Generator: Adobe Illustrator 16.2.1, SVG Export Plug-In . SVG Version: 6.00 Build 0)  -->

<svg
   xmlns:dc="http://purl.org/dc/elements/1.1/"
   xmlns:cc="http://creativecommons.org/ns#"
   xmlns:rdf="http://www.w3.org/1999/02/22-rdf-syntax-ns#"
   xmlns:svg="http://www.w3.org/2000/svg"
   xmlns="http://www.w3.org/2000/svg"
   xmlns:sodipodi="http://sodipodi.sourceforge.net/DTD/sodipodi-0.dtd"
   xmlns:inkscape="http://www.inkscape.org/namespaces/inkscape"
   version="1.1"
   x="0px"
   y="0px"
   width="200px"
   height="200px"
   viewBox="0 0 200 200"
   enable-background="new 0 0 200 200"
   xml:space="preserve"
   id="svg2"
   inkscape:version="0.48.4 r9939"
   sodipodi:docname="remotecontrol.svg"><metadata
     id="metadata522"><rdf:RDF><cc:Work
         rdf:about=""><dc:format>image/svg+xml</dc:format><dc:type
           rdf:resource="http://purl.org/dc/dcmitype/StillImage" /><dc:title /></cc:Work></rdf:RDF></metadata><defs
     id="defs520" /><sodipodi:namedview
     pagecolor="#ffffff"
     bordercolor="#666666"
     borderopacity="1"
     objecttolerance="10"
     gridtolerance="10"
     guidetolerance="10"
     inkscape:pageopacity="0"
     inkscape:pageshadow="2"
     inkscape:window-width="1301"
     inkscape:window-height="744"
     id="namedview518"
     showgrid="false"
     inkscape:zoom="5.9977454"
     inkscape:cx="43.147884"
     inkscape:cy="115.10042"
     inkscape:window-x="65"
     inkscape:window-y="24"
     inkscape:window-maximized="1"
     inkscape:current-layer="svg2" /><path
     style="fill:#a500ff;fill-opacity:0;fill-rule:nonzero;stroke:#ffffff;stroke-width:1.79999995;stroke-linejoin:round;stroke-miterlimit:4;stroke-opacity:1;stroke-dasharray:none;stroke-dashoffset:0"
     d="m 123.99884,173.34239 c -2.34856,-0.87102 -2.60665,-1.08323 -12.36762,-10.16932 -10.0778,-9.38101 -10.91424,-10.44257 -10.93049,-13.87234 -0.015,-3.15937 1.48337,-5.17853 12.84594,-17.31119 21.06104,-22.48842 23.44518,-24.92675 25.11408,-25.6849 1.92982,-0.87668 4.95027,-0.96164 6.7944,-0.19111 2.70647,1.13083 20.48903,17.71251 21.59404,20.13576 0.94444,2.07114 0.93722,5.18789 -0.0168,7.23319 -0.68489,1.46839 -5.41385,6.666 -22.91339,25.18417 -10.42362,11.03037 -13.00938,13.63638 -14.07944,14.18974 -1.62357,0.83957 -4.46995,1.06858 -6.04076,0.486 z m 4.75018,-3.63715 c 0.51297,-0.28461 3.04458,-2.79543 5.62581,-5.57961 2.58123,-2.78418 10.25294,-10.97531 17.04824,-18.20253 12.87906,-13.69765 13.61776,-14.68211 13.00133,-17.3268 -0.29211,-1.25324 -7.20754,-8.18996 -15.18625,-15.23299 -7.47314,-6.59675 -7.8775,-6.4998 -17.63622,4.22868 -2.30308,2.53194 -7.0807,7.69318 -10.61692,11.46942 -15.39921,16.4444 -16.202,17.35464 -16.61025,18.83317 -0.60115,2.17719 0.061,3.93836 2.25539,5.99866 10.99039,10.31892 16.90155,15.69235 17.56961,15.97135 1.20784,0.50443 3.49742,0.42423 4.54926,-0.15935 z"
     id="path3252"
     inkscape:connector-curvature="0" /><path
     style="fill:#a500ff;fill-opacity:0;fill-rule:nonzero;stroke:#ffffff;stroke-width:1.79999995;stroke-linejoin:round;stroke-miterlimit:4;stroke-opacity:1;stroke-dasharray:none;stroke-dashoffset:0"
     d="m 46.643924,141.25895 c -6.098559,-5.21456 -16.441102,-15.12514 -16.888543,-16.18319 -0.619442,-1.46478 -0.211263,-3.02719 1.245502,-4.76748 2.300163,-2.74785 29.114255,-31.541402 31.216993,-33.521487 1.221311,-1.150072 2.690858,-2.209076 3.26566,-2.353342 1.420397,-0.356497 3.341015,0.835547 8.059677,5.002282 l 3.817303,3.370807 -2.815358,3.014658 c -2.824813,3.024781 -3.15676,3.782718 -1.774047,4.050688 0.510337,0.0989 1.573977,-0.766674 3.382375,-2.752533 l 2.63793,-2.896809 4.13312,4.145667 c 2.27321,2.280119 4.23184,4.539059 4.35252,5.019859 0.282,1.12357 -0.52033,2.62564 -2.87427,5.38103 -2.96709,3.47311 -27.546739,29.67828 -30.247598,32.24796 -3.219074,3.06272 -4.176173,3.09355 -7.511264,0.24189 l 0,0 z m 7.307748,-4.83268 c 0.511526,-0.48056 0.930048,-1.18283 0.930048,-1.56062 0,-0.71817 -2.909304,-3.5933 -3.636017,-3.5933 -0.569277,0 -2.391639,1.85926 -2.391639,2.44007 0,0.63934 2.994504,3.58758 3.64388,3.58758 0.288024,0 0.942202,-0.39318 1.453728,-0.87373 l 0,0 z m 5.017304,-5.41713 c 1.136156,-1.0282 0.896908,-2.32417 -0.685567,-3.7136 -1.686785,-1.48102 -2.052026,-1.52266 -3.275329,-0.37343 -1.283699,1.20598 -1.168588,1.98196 0.515138,3.47261 1.629192,1.44238 2.382461,1.57669 3.445758,0.61442 l 0,0 z m -11.575557,-0.56965 c 1.402002,-1.10281 1.335947,-1.78327 -0.335346,-3.45457 -1.721101,-1.7211 -3.281175,-1.72614 -4.218989,-0.0136 -0.603624,1.10226 -0.582949,1.15434 1.076834,2.71245 0.930752,0.87373 1.855721,1.58861 2.055488,1.58861 0.199766,0 0.839672,-0.37479 1.422013,-0.83286 l 0,-10e-6 z m 16.730706,-4.79295 c 1.192218,-1.19222 0.987462,-2.15152 -0.804845,-3.77076 -1.823023,-1.64699 -1.916833,-1.67332 -3.074097,-0.86274 -1.530319,1.07188 -1.46228,2.19973 0.235095,3.89711 1.74062,1.74062 2.488481,1.89175 3.643847,0.73639 z m -11.031406,-0.97767 c 0.74933,-1.14362 0.483721,-1.83386 -1.392993,-3.62001 -1.068141,-1.01659 -1.395325,-1.12805 -2.338023,-0.79652 -0.636059,0.22369 -1.258278,0.84666 -1.482535,1.48433 -0.338658,0.96297 -0.217981,1.27268 0.975818,2.50437 1.667417,1.72033 3.283922,1.88353 4.237733,0.42783 l 0,0 z m -11.905802,-0.3946 c 1.112243,-1.18393 0.882427,-2.19737 -0.82388,-3.63313 -1.405872,-1.18297 -2.591813,-1.29957 -3.633103,-0.35721 -1.103703,0.99883 -0.896769,1.94379 0.772045,3.52552 1.778697,1.68587 2.457392,1.77148 3.684938,0.46482 l 0,0 z m 16.381349,-4.72544 c 1.275108,-1.1979 1.173878,-1.8565 -0.557959,-3.63006 -1.69689,-1.73777 -2.20645,-1.84784 -3.334118,-0.72017 -1.186963,1.18696 -0.985696,2.28487 0.703226,3.83608 1.774306,1.62964 1.968196,1.6609 3.188851,0.51415 z m -11.458288,-0.595 c 1.077366,-0.975 0.901499,-2.1386 -0.549492,-3.63564 -1.421954,-1.46708 -2.497365,-1.66391 -3.606584,-0.66008 -1.077366,0.97501 -0.9015,2.1386 0.549491,3.63565 1.421955,1.46708 2.497365,1.6639 3.606585,0.66007 z m 5.155148,-5.36261 c 1.186963,-1.18696 0.985696,-2.28486 -0.703226,-3.83608 -1.708466,-1.56916 -1.981698,-1.63373 -3.225798,-0.76233 -1.400841,0.98119 -1.163623,2.55841 0.613796,4.08102 1.774589,1.52019 2.239823,1.5928 3.315228,0.51739 z m 12.39102,-3.60573 c 1.362459,-1.52176 2.477198,-3.05088 2.477198,-3.39806 0,-1.23032 -1.460421,-0.60341 -3.444124,1.47844 -3.366048,3.5326 -3.56246,3.8254 -3.011455,4.48932 0.703285,0.84741 1.214743,0.51705 3.978381,-2.5697 z m 15.53712,1.36211 c 0,-0.91258 -5.002293,-5.79325 -5.937608,-5.79325 -0.828903,0 -1.228955,0.64953 -0.815024,1.32327 0.706514,1.14998 5.816352,5.55227 6.269362,5.40127 0.2658,-0.0886 0.48327,-0.50768 0.48327,-0.93129 z m -8.018612,-6.37775 c 0.542489,-0.54249 0.986345,-1.45486 0.986345,-2.02748 0,-0.57263 -0.443856,-1.485 -0.986345,-2.02749 -2.783796,-2.7838 -6.863892,1.24117 -4.167576,4.11127 1.158261,1.23291 2.901921,1.20936 4.167576,-0.0563 l 0,0 z m -4.840388,-6.079412 c 0,-1.03756 -5.15362,-5.904694 -6.065125,-5.727969 -0.79929,0.154968 -1.092122,0.752278 -0.657514,1.341175 0.163109,0.221014 1.516423,1.547088 3.007364,2.946832 2.68897,2.52449 3.715275,2.922264 3.715275,1.439962 z"
     id="path3254"
     inkscape:connector-curvature="0" /><path
     style="fill:#a500ff;fill-opacity:0;fill-rule:nonzero;stroke:#ffffff;stroke-width:1.79999995;stroke-linejoin:round;stroke-miterlimit:4;stroke-opacity:1;stroke-dasharray:none;stroke-dashoffset:0"
     d="m 95.869776,88.416935 c -3.16708,-5.341648 -9.45108,-10.432493 -15.57144,-12.614853 -1.94332,-0.692938 -2.511524,-1.077081 -2.511524,-1.697966 0,-0.700682 0.188244,-0.771875 1.484654,-0.561496 2.15629,0.349919 7.56768,3.070222 10.46056,5.258522 3.00807,2.27543 5.80458,5.394176 7.84559,8.749608 1.6513,2.714756 1.90315,3.945541 0.80369,3.927577 -0.44334,-0.0072 -1.37152,-1.138638 -2.51153,-3.061392 z"
     id="path3256"
     inkscape:connector-curvature="0" /><path
     style="fill:#a500ff;fill-opacity:0;fill-rule:nonzero;stroke:#ffffff;stroke-width:1.79999995;stroke-linejoin:round;stroke-miterlimit:4;stroke-opacity:1;stroke-dasharray:none;stroke-dashoffset:0"
     d="m 111.77881,93.155784 c -0.11667,-0.188788 -0.68898,-1.680633 -1.27179,-3.31521 -0.58281,-1.634578 -1.61491,-3.966523 -2.29355,-5.182101 -6.90195,-12.362598 -16.798366,-20.13897 -29.723186,-23.355775 -3.43189,-0.854149 -4.247745,-1.400741 -3.382588,-2.266207 0.897658,-0.897979 8.421788,1.331162 14.082908,4.172281 8.54734,4.289612 16.497956,12.321631 21.033436,21.248779 1.89263,3.72524 3.41646,7.826538 3.15809,8.49982 -0.23126,0.602663 -1.27374,0.731672 -1.60332,0.198413 l 0,0 z"
     id="path3258"
     inkscape:connector-curvature="0" /><path
     style="fill:#a500ff;fill-opacity:0;fill-rule:nonzero;stroke:#ffffff;stroke-width:1.79999995;stroke-linejoin:round;stroke-miterlimit:4;stroke-opacity:1;stroke-dasharray:none;stroke-dashoffset:0"
     d="m 127.75545,91.008725 c -0.18452,-0.287937 -0.91953,-2.295455 -1.63336,-4.46116 C 122.092,74.320575 114.13162,63.560143 103.55628,56.044273 95.843428,50.562766 88.445358,47.528898 78.793218,45.889212 c -4.036149,-0.685654 -5.01774,-1.192073 -4.096628,-2.113519 0.949236,-0.949581 10.975628,1.138277 17.064458,3.553438 10.558312,4.187997 21.143972,12.529185 27.756322,21.871167 4.29356,6.065966 9.28877,17.059808 9.45214,20.803031 0.0559,1.280527 -0.65859,1.872205 -1.21406,1.005396 l 0,0 z"
     id="path3262"
     inkscape:connector-curvature="0" /></svg>
