<?xml version="1.0" encoding="UTF-8" standalone="no"?>
<!-- Generator: Adobe Illustrator 16.2.1, SVG Export Plug-In . SVG Version: 6.00 Build 0)  -->

<svg
   xmlns:dc="http://purl.org/dc/elements/1.1/"
   xmlns:cc="http://creativecommons.org/ns#"
   xmlns:rdf="http://www.w3.org/1999/02/22-rdf-syntax-ns#"
   xmlns:svg="http://www.w3.org/2000/svg"
   xmlns="http://www.w3.org/2000/svg"
   xmlns:xlink="http://www.w3.org/1999/xlink"
   xmlns:sodipodi="http://sodipodi.sourceforge.net/DTD/sodipodi-0.dtd"
   xmlns:inkscape="http://www.inkscape.org/namespaces/inkscape"
   version="1.1"
   x="0px"
   y="0px"
   width="200px"
   height="200px"
   viewBox="0 0 200 200"
   enable-background="new 0 0 200 200"
   xml:space="preserve"
   id="svg2"
   inkscape:version="0.48.4 r9939"
   sodipodi:docname="wifi.svg"><metadata
     id="metadata522"><rdf:RDF><cc:Work
         rdf:about=""><dc:format>image/svg+xml</dc:format><dc:type
           rdf:resource="http://purl.org/dc/dcmitype/StillImage" /><dc:title /></cc:Work></rdf:RDF></metadata><defs
     id="defs520"><radialGradient
       r="498.64001"
       cy="492.48001"
       cx="451.42999"
       gradientTransform="matrix(0.0020696,-0.19999,0.27962,0.0028936,143.93714,372.50519)"
       gradientUnits="userSpaceOnUse"
       id="radialGradient5336"
       xlink:href="#radialGradient4459" /><radialGradient
       r="498.64001"
       gradientTransform="matrix(0.010348,-0.99995,1.3981,0.014468,-241.76,762.36)"
       cx="451.42999"
       cy="492.48001"
       gradientUnits="userSpaceOnUse"
       id="radialGradient4459"><stop
         offset="0"
         style="stop-color:#8a8a8a"
         id="stop4455" /><stop
         offset="1"
         style="stop-color:#000000"
         id="stop4457" /></radialGradient><radialGradient
       r="498.64001"
       cy="492.48001"
       cx="451.42999"
       gradientTransform="matrix(0.0020696,-0.19999,0.27962,0.0028936,172.50857,403.93376)"
       gradientUnits="userSpaceOnUse"
       id="radialGradient5274"
       xlink:href="#radialGradient4459" /><radialGradient
       r="498.64001"
       gradientTransform="matrix(0.010348,-0.99995,1.3981,0.014468,-241.76,762.36)"
       cx="451.42999"
       cy="492.48001"
       gradientUnits="userSpaceOnUse"
       id="radialGradient3227"><stop
         offset="0"
         style="stop-color:#8a8a8a"
         id="stop3229" /><stop
         offset="1"
         style="stop-color:#000000"
         id="stop3231" /></radialGradient><radialGradient
       r="498.64001"
       cy="492.48001"
       cx="451.42999"
       gradientTransform="matrix(0.0020696,-0.19999,0.27962,0.0028936,203.22286,432.50519)"
       gradientUnits="userSpaceOnUse"
       id="radialGradient5111"
       xlink:href="#radialGradient4459" /><radialGradient
       r="498.64001"
       gradientTransform="matrix(0.010348,-0.99995,1.3981,0.014468,-241.76,762.36)"
       cx="451.42999"
       cy="492.48001"
       gradientUnits="userSpaceOnUse"
       id="radialGradient3234"><stop
         offset="0"
         style="stop-color:#8a8a8a"
         id="stop3236" /><stop
         offset="1"
         style="stop-color:#000000"
         id="stop3238" /></radialGradient><radialGradient
       inkscape:collect="always"
       xlink:href="#radialGradient4459"
       id="radialGradient3703"
       gradientUnits="userSpaceOnUse"
       gradientTransform="matrix(0.0020696,-0.19999,0.27962,0.0028936,143.93714,372.50519)"
       cx="451.42999"
       cy="492.48001"
       r="498.64001" /><radialGradient
       inkscape:collect="always"
       xlink:href="#radialGradient4459"
       id="radialGradient3705"
       gradientUnits="userSpaceOnUse"
       gradientTransform="matrix(0.0020696,-0.19999,0.27962,0.0028936,172.50857,403.93376)"
       cx="451.42999"
       cy="492.48001"
       r="498.64001" /><radialGradient
       inkscape:collect="always"
       xlink:href="#radialGradient4459"
       id="radialGradient3707"
       gradientUnits="userSpaceOnUse"
       gradientTransform="matrix(0.0020696,-0.19999,0.27962,0.0028936,203.22286,432.50519)"
       cx="451.42999"
       cy="492.48001"
       r="498.64001" /></defs><sodipodi:namedview
     pagecolor="#ffffff"
     bordercolor="#666666"
     borderopacity="1"
     objecttolerance="10"
     gridtolerance="10"
     guidetolerance="10"
     inkscape:pageopacity="0"
     inkscape:pageshadow="2"
     inkscape:window-width="1301"
     inkscape:window-height="744"
     id="namedview518"
     showgrid="false"
     inkscape:zoom="3.5193124"
     inkscape:cx="76.657489"
     inkscape:cy="80.101778"
     inkscape:window-x="65"
     inkscape:window-y="24"
     inkscape:window-maximized="1"
     inkscape:current-layer="svg2" /><g
     inkscape:groupmode="layer"
     id="layer1"
     inkscape:label="Layer"><path
       id="blase"
       d="m 92.813564,123.45021 h 42.589296 c 0,0 6.754,-1.315 6.754,-8.2515 0,-6.9365 0,-25.453395 0,-25.453395 0,0 -0.2882,-7.6951 -7.6535,-7.6951 -7.3655,0 -24.9245,0 -24.9245,0 0,0 -9.2467,1.5281 -9.3644,11.1688 -0.1175,9.640695 0,18.592495 0,18.592495 0,0 -1.751696,10.7387 -7.400896,11.6387 z"
       inkscape:connector-curvature="0"
       style="fill:#ffffff" /><polygon
       id="w"
       points="271.857,223.5 216.424,223.5 184.857,420.602 152.878,223.5 101.5,223.5 152.878,492.5 206.96,492.5 238.938,294.923 268.331,492.5 319.179,492.5 376.494,223.5 323.235,223.5 297.723,414.723 "
       transform="matrix(0.1,0,0,0.1,48.456864,67.250215)"
       style="fill:#ffffff;stroke:#ffffff;stroke-width:10" /><rect
       id="istrich"
       x="87.756866"
       y="96.450203"
       width="4.5"
       height="20.1"
       style="fill:#ffffff" /><circle
       id="ipunk_x5F_weiss"
       cx="419.465"
       cy="239.05701"
       r="32.332001"
       sodipodi:cx="419.465"
       sodipodi:cy="239.05701"
       sodipodi:rx="32.332001"
       sodipodi:ry="32.332001"
       transform="matrix(0.1,0,0,0.1,48.456864,67.250215)"
       style="fill:#ffffff" /><polygon
       id="F"
       points="741,377 663,377 663,493 621,493 621,225 750,225 750,271 663,271 663,330 741,330 "
       transform="matrix(0.1,0,0,0.1,48.456864,67.250215)"
       style="fill:#0071bc" /><rect
       id="iblau"
       x="126.45687"
       y="96.350197"
       width="4.4000001"
       height="20.1"
       style="fill:#0071bc" /><circle
       id="ipunkt_x5F_blau"
       cx="803.44501"
       cy="240.409"
       r="32.331001"
       sodipodi:cx="803.44501"
       sodipodi:cy="240.409"
       sodipodi:rx="32.331001"
       sodipodi:ry="32.331001"
       transform="matrix(0.1,0,0,0.1,48.456864,67.250215)"
       style="fill:#0071bc" /><path
       id="schein"
       d="m 53.877964,104.80751 c 0,0 24.1789,-14.533295 89.778896,-3.3644 V 89.880615 c 0,0 0.1771,-10.417 -8.7916,-10.4107 -6.9403,0.005 -71.794896,0 -71.794896,0 0,0 -9.3734,-0.676 -9.1931,12.0332 0.1394,9.823795 7e-4,13.304395 7e-4,13.304395 z"
       inkscape:connector-curvature="0"
       style="opacity:0.2;fill:#ffffff" /></g></svg>
