<?xml version="1.0" encoding="UTF-8" standalone="no"?>
<!-- Created with Inkscape (http://www.inkscape.org/) -->

<svg
   xmlns:dc="http://purl.org/dc/elements/1.1/"
   xmlns:cc="http://creativecommons.org/ns#"
   xmlns:rdf="http://www.w3.org/1999/02/22-rdf-syntax-ns#"
   xmlns:svg="http://www.w3.org/2000/svg"
   xmlns="http://www.w3.org/2000/svg"
   xmlns:sodipodi="http://sodipodi.sourceforge.net/DTD/sodipodi-0.dtd"
   xmlns:inkscape="http://www.inkscape.org/namespaces/inkscape"
   width="1000"
   height="350"
   viewBox="0 0 1000 350.00001"
   id="svg2"
   version="1.1"
   inkscape:version="0.91 r13725"
   sodipodi:docname="contact2.svg">
  <defs
     id="defs4" />
  <sodipodi:namedview
     id="base"
     pagecolor="#ffffff"
     bordercolor="#666666"
     borderopacity="1.0"
     inkscape:pageopacity="0.0"
     inkscape:pageshadow="2"
     inkscape:zoom="0.74229785"
     inkscape:cx="750.35917"
     inkscape:cy="92.573291"
     inkscape:document-units="px"
     inkscape:current-layer="layer1"
     showgrid="false"
     units="px"
     inkscape:window-width="1307"
     inkscape:window-height="744"
     inkscape:window-x="59"
     inkscape:window-y="24"
     inkscape:window-maximized="1" />
  <metadata
     id="metadata7">
    <rdf:RDF>
      <cc:Work
         rdf:about="">
        <dc:format>image/svg+xml</dc:format>
        <dc:type
           rdf:resource="http://purl.org/dc/dcmitype/StillImage" />
        <dc:title></dc:title>
      </cc:Work>
    </rdf:RDF>
  </metadata>
  <g
     inkscape:label="Layer 1"
     inkscape:groupmode="layer"
     id="layer1"
     transform="translate(0,-702.36216)">
    <rect
       style="color:#000000;display:inline;overflow:visible;visibility:visible;fill:#aaffee;fill-opacity:1;fill-rule:nonzero;stroke:#000000;stroke-width:2;stroke-linecap:butt;stroke-linejoin:miter;stroke-miterlimit:4;stroke-dasharray:none;stroke-dashoffset:0;stroke-opacity:0.05479449;marker:none;enable-background:accumulate"
       id="rect11392"
       width="988.82141"
       height="337.46561"
       x="5.3886967"
       y="708.33148"
       rx="20" />
    <g
       id="g12008"
       transform="translate(0,2)">
      <g
         id="g11949">
        <polygon
           transform="matrix(0.60944321,0,0,0.5825461,738.61403,814.03094)"
           style="fill:#0a0a0a;fill-opacity:1;stroke:#000000;stroke-width:8.39147377px"
           points="52,16.861561 148,16.861561 196,100 148,183.13844 148,183.13844 52,183.13844 4,100 "
           id="polygon4" />
        <polygon
           transform="matrix(0.60944321,0,0,0.5825461,837.86896,868.01057)"
           style="fill:#2a2962;fill-opacity:1;stroke:#2a2962;stroke-width:8.39147377px;stroke-opacity:1"
           points="52,183.13844 4,100 52,16.861561 148,16.861561 196,100 148,183.13844 148,183.13844 "
           id="polygon4-9" />
        <polygon
           transform="matrix(0.60944321,0,0,0.5825461,837.51736,758.67222)"
           style="fill:#ea3b3b;fill-opacity:1;stroke:#ea3b3b;stroke-width:8.39147377px;stroke-opacity:1"
           points="4,100 52,16.861561 148,16.861561 196,100 148,183.13844 148,183.13844 52,183.13844 "
           id="polygon4-6" />
        <polygon
           transform="matrix(0.60944321,0,0,0.5825461,736.2548,704.05159)"
           style="fill:#ffad00;fill-opacity:1;stroke:#ffad00;stroke-width:8.39147377px;stroke-opacity:1"
           points="4,100 52,16.861561 148,16.861561 196,100 148,183.13844 148,183.13844 52,183.13844 "
           id="polygon4-3" />
        <polygon
           transform="matrix(0.60944321,0,0,0.5825461,637.46439,760.52587)"
           style="fill:#974563;fill-opacity:1;stroke:#974563;stroke-width:8.39147377px;stroke-opacity:1"
           points="148,16.861561 196,100 148,183.13844 148,183.13844 52,183.13844 4,100 52,16.861561 "
           id="polygon4-8" />
        <polygon
           transform="matrix(0.60944321,0,0,0.5825461,639.81934,869.76714)"
           style="fill:#00c9d8;fill-opacity:1;stroke:#00c9d8;stroke-width:8.39147377px;stroke-opacity:1"
           points="148,183.13844 148,183.13844 52,183.13844 4,100 52,16.861561 148,16.861561 196,100 "
           id="polygon4-5" />
        <polygon
           transform="matrix(0.60944321,0,0,0.5825461,738.60975,924.48485)"
           style="fill:#57b81f;fill-opacity:1;stroke:#57b81f;stroke-width:8.39147377px;stroke-opacity:1"
           points="4,100 52,16.861561 148,16.861561 196,100 148,183.13844 148,183.13844 52,183.13844 "
           id="polygon4-61" />
      </g>
      <text
         sodipodi:linespacing="125%"
         id="text11941"
         y="885.94525"
         x="758.2608"
         style="font-style:normal;font-variant:normal;font-weight:bold;font-stretch:normal;font-size:37.5px;line-height:125%;font-family:Arial;-inkscape-font-specification:'Arial Bold';letter-spacing:0px;word-spacing:0px;fill:#dbe3db;fill-opacity:1;stroke:none;stroke-width:1px;stroke-linecap:butt;stroke-linejoin:miter;stroke-opacity:1"
         xml:space="preserve"><tspan
           y="885.94525"
           x="758.2608"
           id="tspan11943"
           sodipodi:role="line">VGE</tspan></text>
      <text
         sodipodi:linespacing="125%"
         id="text11945"
         y="772.30023"
         x="765.40747"
         style="font-style:normal;font-variant:normal;font-weight:300;font-stretch:normal;font-size:35px;line-height:125%;font-family:'bubbleboddy light';-inkscape-font-specification:'bubbleboddy light, Light';letter-spacing:0px;word-spacing:0px;fill:#000000;fill-opacity:1;stroke:none;stroke-width:1px;stroke-linecap:butt;stroke-linejoin:miter;stroke-opacity:1"
         xml:space="preserve"><tspan
           y="772.30023"
           x="765.40747"
           id="tspan11947"
           sodipodi:role="line">Solar</tspan></text>
      <text
         sodipodi:linespacing="125%"
         id="text11945-1"
         y="828.71924"
         x="861.3645"
         style="font-style:normal;font-variant:normal;font-weight:300;font-stretch:normal;font-size:35px;line-height:125%;font-family:'bubbleboddy light';-inkscape-font-specification:'bubbleboddy light, Light';letter-spacing:0px;word-spacing:0px;fill:#ffccaa;fill-opacity:1;stroke:none;stroke-width:1px;stroke-linecap:butt;stroke-linejoin:miter;stroke-opacity:1"
         xml:space="preserve"><tspan
           y="828.71924"
           x="861.3645"
           id="tspan11947-5"
           sodipodi:role="line">CCTV</tspan></text>
      <text
         sodipodi:linespacing="125%"
         id="text11945-9"
         y="936.75665"
         x="872.6181"
         style="font-style:normal;font-variant:normal;font-weight:300;font-stretch:normal;font-size:35px;line-height:125%;font-family:'bubbleboddy light';-inkscape-font-specification:'bubbleboddy light, Light';letter-spacing:0px;word-spacing:0px;fill:#f9f9f9;fill-opacity:1;stroke:none;stroke-width:1px;stroke-linecap:butt;stroke-linejoin:miter;stroke-opacity:1"
         xml:space="preserve"><tspan
           y="936.75665"
           x="872.6181"
           id="tspan11947-8"
           sodipodi:role="line">WiFi</tspan></text>
      <text
         sodipodi:linespacing="125%"
         id="text11945-4"
         y="992.43958"
         x="748.02008"
         style="font-style:normal;font-variant:normal;font-weight:300;font-stretch:normal;font-size:30px;line-height:125%;font-family:'bubbleboddy light';-inkscape-font-specification:'bubbleboddy light, Light';letter-spacing:0px;word-spacing:0px;fill:#000000;fill-opacity:1;stroke:none;stroke-width:1px;stroke-linecap:butt;stroke-linejoin:miter;stroke-opacity:1"
         xml:space="preserve"><tspan
           y="992.43958"
           x="748.02008"
           id="tspan11947-81"
           sodipodi:role="line">Gadgets</tspan></text>
      <text
         sodipodi:linespacing="125%"
         id="text11945-0"
         y="934.59644"
         x="658.66382"
         style="font-style:normal;font-variant:normal;font-weight:300;font-stretch:normal;font-size:30px;line-height:125%;font-family:'bubbleboddy light';-inkscape-font-specification:'bubbleboddy light, Light';letter-spacing:0px;word-spacing:0px;fill:#000000;fill-opacity:1;stroke:none;stroke-width:1px;stroke-linecap:butt;stroke-linejoin:miter;stroke-opacity:1"
         xml:space="preserve"><tspan
           y="934.59644"
           x="658.66382"
           id="tspan11947-3"
           sodipodi:role="line">Energy</tspan></text>
      <text
         sodipodi:linespacing="125%"
         id="text11945-04"
         y="828.07947"
         x="674.6507"
         style="font-style:normal;font-variant:normal;font-weight:300;font-stretch:normal;font-size:35px;line-height:125%;font-family:'bubbleboddy light';-inkscape-font-specification:'bubbleboddy light, Light';letter-spacing:0px;word-spacing:0px;fill:#ffffff;fill-opacity:1;stroke:none;stroke-width:1px;stroke-linecap:butt;stroke-linejoin:miter;stroke-opacity:1"
         xml:space="preserve"><tspan
           y="828.07947"
           x="674.6507"
           id="tspan11947-4"
           sodipodi:role="line">DIY</tspan></text>
    </g>
    <g
       transform="matrix(4.161874,0,0,3.7130469,54.138588,677.43269)"
       id="g3">
      <polygon
         style="fill:none"
         points="30.7,59.1 30.7,59.1 30.7,59.1 "
         id="polygon5" />
      <g
         id="g7">
        <path
           style="fill:#f6b31a"
           inkscape:connector-curvature="0"
           d="m 80.5,27.4 c 3.1,0 5.7,-2.6 5.7,-5.7 0,-3.1 -2.6,-5.7 -5.7,-5.7 -3.1,0 -5.7,2.6 -5.7,5.7 0,3.1 2.5,5.7 5.7,5.7 z"
           id="path9" />
        <path
           style="fill:#f6b31a"
           inkscape:connector-curvature="0"
           d="m 87.2,43.8 c -3.1,0 -5.7,2.6 -5.7,5.7 0,3.1 2.6,5.7 5.7,5.7 3.1,0 5.7,-2.6 5.7,-5.7 0,-3.1 -2.6,-5.7 -5.7,-5.7 z"
           id="path11" />
        <path
           style="fill:#f6b31a"
           inkscape:connector-curvature="0"
           d="m 77.6,72.6 c -3.1,0 -5.7,2.6 -5.7,5.7 0,3.1 2.6,5.7 5.7,5.7 3.1,0 5.7,-2.6 5.7,-5.7 0,-3.1 -2.5,-5.7 -5.7,-5.7 z"
           id="path13" />
      </g>
      <g
         id="g15">
        <path
           style="fill:#ffffff"
           inkscape:connector-curvature="0"
           d="m 30.7,58.1 0,1 0,-1 c 3,0 5.9,-1.7 8.1,-4.8 2.3,-3.2 3.5,-7.4 3.5,-11.9 0,-9.2 -2.7,-12 -11.6,-12 -4.9,0 -7.8,0.8 -9.4,2.5 -1.6,1.7 -2.2,4.5 -2.2,9.5 0,9.2 5.2,16.7 11.6,16.7 z"
           id="path17" />
        <path
           style="fill:#ffffff"
           inkscape:connector-curvature="0"
           d="M 51.6,67.9 47.7,65.2 40,60.7 33.6,74.4 c -0.5,1.1 -1.6,1.8 -2.7,1.8 -1.2,0 -2.3,-0.7 -2.8,-1.8 l -6,-13.9 c -0.1,0.1 -0.2,0.1 -0.3,0.2 l -9.9,5.7 C 9,68.1 7.2,71.2 7.2,74.5 l 0,4.1 47.2,-0.1 0,-4.1 c -0.1,-2 -1.5,-4.8 -2.8,-6.5 z"
           id="path19" />
      </g>
      <g
         id="g21">
        <path
           style="fill:#1059a5"
           inkscape:connector-curvature="0"
           d="m 30.7,60.1 0,0 c 3.7,0 7.2,-2 9.7,-5.6 2.5,-3.5 3.9,-8.2 3.9,-13.1 0,-10.3 -3.6,-14 -13.6,-14 -5.5,0 -8.8,1 -10.8,3.2 -1.9,2.1 -2.8,5.4 -2.8,10.9 0,10.2 6.1,18.6 13.6,18.6 z M 19.1,41.4 c 0,-5 0.7,-7.8 2.2,-9.5 1.6,-1.7 4.5,-2.5 9.4,-2.5 8.8,0 11.5,2.8 11.6,12 0,4.5 -1.2,8.8 -3.5,11.9 -2.2,3.1 -5.1,4.8 -8.1,4.8 l 0,1 0,-1 c -6.4,0 -11.6,-7.5 -11.6,-16.7 z"
           id="path23" />
        <path
           style="fill:#1059a5"
           inkscape:connector-curvature="0"
           d="m 53.1,66.5 -4.3,-3 -8,-4.6 C 40.5,58.8 40.3,58.6 40,58.5 l -1,-0.5 -5.5,11.9 -1.6,-6.8 0,-0.1 1.7,-2.4 -5.7,0 1.7,2.4 0,0 -1.6,6.4 -5,-11.5 -0.9,0.4 c -0.5,0.2 -1,0.4 -1.5,0.7 l -9.9,5.7 C 7.2,66.7 5,70.5 5,74.5 l 0,6.1 51.2,-0.1 0,-6.1 c 0.1,-2.7 -1.6,-6 -3.1,-7.9 z m -31.1,-6 6,13.9 c 0.5,1.1 1.6,1.8 2.8,1.8 1.2,0 2.2,-0.7 2.7,-1.8 l 6.4,-13.7 7.7,4.5 3.9,2.7 c 1.4,1.7 2.7,4.5 2.7,6.5 l 0,4.1 -47.1,0 0,-4.1 c 0,-3.3 1.8,-6.4 4.7,-8.1 l 9.9,-5.7 c 0.1,0 0.2,-0.1 0.3,-0.1 z"
           id="path25" />
        <path
           style="fill:#1059a5"
           inkscape:connector-curvature="0"
           d="m 70.4,69.5 -17.9,-17.9 23.2,0 c 0.6,0 1,-0.4 1,-1 0,-0.6 -0.4,-1 -1,-1 l -23.2,0 19.1,-19.1 c 0.4,-0.4 0.4,-1 0,-1.4 -0.4,-0.4 -1,-0.4 -1.4,0 l -20.8,20.8 0,0 c -0.1,0.1 -0.2,0.2 -0.2,0.3 0,0.1 -0.1,0.2 -0.1,0.4 0,0.2 0,0.3 0.1,0.4 0,0.1 0.1,0.2 0.2,0.3 l 0,0 19.6,19.6 c 0.2,0.2 0.5,0.3 0.7,0.3 0.2,0 0.5,-0.1 0.7,-0.3 0.4,-0.4 0.4,-1 0,-1.4 z"
           id="path27" />
        <path
           style="fill:#1059a5"
           inkscape:connector-curvature="0"
           d="m 80.5,29.4 c 4.2,0 7.7,-3.5 7.7,-7.7 0,-4.2 -3.5,-7.7 -7.7,-7.7 -4.2,0 -7.7,3.5 -7.7,7.7 0,4.2 3.4,7.7 7.7,7.7 z m 5.7,-7.7 c 0,3.1 -2.6,5.7 -5.7,5.7 -3.1,0 -5.7,-2.6 -5.7,-5.7 0,-3.1 2.6,-5.7 5.7,-5.7 3.1,0 5.7,2.6 5.7,5.7 z"
           id="path29" />
        <path
           style="fill:#1059a5"
           inkscape:connector-curvature="0"
           d="m 87.2,41.8 c -4.2,0 -7.7,3.5 -7.7,7.7 0,4.2 3.5,7.7 7.7,7.7 4.2,0 7.7,-3.5 7.7,-7.7 0,-4.2 -3.5,-7.7 -7.7,-7.7 z m -5.7,7.7 c 0,-3.1 2.6,-5.7 5.7,-5.7 3.1,0 5.7,2.6 5.7,5.7 0,3.1 -2.6,5.7 -5.7,5.7 -3.2,0 -5.7,-2.6 -5.7,-5.7 z"
           id="path31" />
        <path
           style="fill:#1059a5"
           inkscape:connector-curvature="0"
           d="m 77.6,70.6 c -4.2,0 -7.7,3.5 -7.7,7.7 0,4.2 3.5,7.7 7.7,7.7 4.2,0 7.7,-3.5 7.7,-7.7 0,-4.2 -3.4,-7.7 -7.7,-7.7 z m 0,13.4 c -3.1,0 -5.7,-2.6 -5.7,-5.7 0,-3.1 2.6,-5.7 5.7,-5.7 3.1,0 5.7,2.6 5.7,5.7 0,3.1 -2.5,5.7 -5.7,5.7 z"
           id="path33" />
      </g>
    </g>
  </g>
</svg>
