<?xml version="1.0" encoding="UTF-8" standalone="no"?>
<!-- Created with Inkscape (http://www.inkscape.org/) -->

<svg
   xmlns:dc="http://purl.org/dc/elements/1.1/"
   xmlns:cc="http://creativecommons.org/ns#"
   xmlns:rdf="http://www.w3.org/1999/02/22-rdf-syntax-ns#"
   xmlns:svg="http://www.w3.org/2000/svg"
   xmlns="http://www.w3.org/2000/svg"
   xmlns:sodipodi="http://sodipodi.sourceforge.net/DTD/sodipodi-0.dtd"
   xmlns:inkscape="http://www.inkscape.org/namespaces/inkscape"
   width="300"
   height="105"
   viewBox="0 0 300 105"
   id="svg2"
   version="1.1"
   inkscape:version="0.91 r13725"
   sodipodi:docname="main.svg">
  <defs
     id="defs4" />
  <sodipodi:namedview
     id="base"
     pagecolor="#ffffff"
     bordercolor="#666666"
     borderopacity="1.0"
     inkscape:pageopacity="0.0"
     inkscape:pageshadow="2"
     inkscape:zoom="1.2855554"
     inkscape:cx="375"
     inkscape:cy="174.66107"
     inkscape:document-units="px"
     inkscape:current-layer="g3"
     showgrid="false"
     units="px"
     inkscape:window-width="1307"
     inkscape:window-height="744"
     inkscape:window-x="59"
     inkscape:window-y="24"
     inkscape:window-maximized="1" />
  <metadata
     id="metadata7">
    <rdf:RDF>
      <cc:Work
         rdf:about="">
        <dc:format>image/svg+xml</dc:format>
        <dc:type
           rdf:resource="http://purl.org/dc/dcmitype/StillImage" />
        <dc:title></dc:title>
      </cc:Work>
    </rdf:RDF>
  </metadata>
  <g
     inkscape:label="Layer 1"
     inkscape:groupmode="layer"
     id="layer1"
     transform="translate(0,-947.36216)">
    <g
       transform="translate(213.9158,503.18313)"
       id="g3">
      <g
         id="g5"
         transform="matrix(0.24236466,0,0,0.26592582,-193.69061,443.64633)"
         style="fill:#000000">
        <path
           inkscape:connector-curvature="0"
           d="m 203.805,303.261 c 11.283,0 105.451,-116.968 105.451,-175.209 C 309.256,69.813 262.043,22.6 203.805,22.6 145.563,22.6 98.352,69.813 98.352,128.052 c 0,58.24 94.578,175.209 105.453,175.209 z M 135.69,124.359 c 0,-37.618 30.494,-68.113 68.115,-68.113 37.617,0 68.113,30.495 68.113,68.113 0,37.618 -30.496,68.114 -68.113,68.114 -37.621,0 -68.115,-30.496 -68.115,-68.114 z"
           id="path7"
           style="fill:#000000" />
        <path
           inkscape:connector-curvature="0"
           d="m 391.088,222.666 c 0,-9.713 -7.9,-17.614 -17.613,-17.614 0,0 -47.016,0 -64.223,0 -1.34,0 -2.883,-0.071 -4.58,2.776 -3.389,5.688 -3.092,5.188 -6.273,10.453 -1.48,2.449 0.76,3.279 1.682,3.279 20.564,0 73.396,0 73.396,0 0.588,0 1.104,0.518 1.104,1.104 l 16.52,144.727 c 0,0.588 -0.516,1.105 -1.105,1.105 l -372.38,0 c -0.592,0 -1.105,-0.518 -1.105,-1.105 L 33.028,222.666 c 0,-0.588 0.516,-1.104 1.105,-1.104 0,0 54.619,0 72.826,0 1.5,0 3.875,-0.872 1.174,-5.269 -3.169,-5.157 -1.941,-3.646 -5.299,-9.354 -1.25,-2.125 -2.983,-1.888 -5.328,-1.888 -15.844,0 -63.373,0 -63.373,0 -9.709,0 -17.613,7.901 -17.613,17.614 L 0,367.393 c 0,9.713 7.902,17.613 17.615,17.613 l 372.377,0 c 9.715,0 17.613,-7.9 17.613,-17.613 L 391.088,222.666 Z"
           id="path9"
           style="fill:#000000" />
      </g>
      <text
         xml:space="preserve"
         style="font-style:normal;font-variant:normal;font-weight:bold;font-stretch:normal;font-size:30px;line-height:125%;font-family:Arial;-inkscape-font-specification:'Arial Bold';letter-spacing:0px;word-spacing:0px;fill:#000000;fill-opacity:1;stroke:none;stroke-width:1px;stroke-linecap:butt;stroke-linejoin:miter;stroke-opacity:1;"
         x="-94.901085"
         y="511.0632"
         id="text5335"
         sodipodi:linespacing="125%"><tspan
           sodipodi:role="line"
           id="tspan5337"
           x="-94.901085"
           y="511.0632">&lt; href =      &gt; </tspan></text>
      <polygon
         transform="matrix(0.09756455,0,0,0.10301594,9.1491063,453.81516)"
         style="fill:#000000"
         points="88.9,571.8 88.9,346.2 0,346.2 306,40.2 612,346.2 523.1,346.2 523.1,571.8 371,571.8 371,372 241,372 241,571.8 "
         id="polygon5403" />
    </g>
    <g
       transform="translate(213.9158,503.18313)"
       id="g11" />
    <g
       transform="translate(213.9158,503.18313)"
       id="g13" />
    <g
       transform="translate(213.9158,503.18313)"
       id="g15" />
    <g
       transform="translate(213.9158,503.18313)"
       id="g17" />
    <g
       transform="translate(213.9158,503.18313)"
       id="g19" />
    <g
       transform="translate(213.9158,503.18313)"
       id="g21" />
    <g
       transform="translate(213.9158,503.18313)"
       id="g23" />
    <g
       transform="translate(213.9158,503.18313)"
       id="g25" />
    <g
       transform="translate(213.9158,503.18313)"
       id="g27" />
    <g
       transform="translate(213.9158,503.18313)"
       id="g29" />
    <g
       transform="translate(213.9158,503.18313)"
       id="g31" />
    <g
       transform="translate(213.9158,503.18313)"
       id="g33" />
    <g
       transform="translate(213.9158,503.18313)"
       id="g35" />
    <g
       transform="translate(213.9158,503.18313)"
       id="g37" />
    <g
       transform="translate(213.9158,503.18313)"
       id="g39" />
  </g>
</svg>
