<?xml version="1.0" encoding="utf-8"?>
<!-- Generator: Adobe Illustrator 20.1.0, SVG Export Plug-In . SVG Version: 6.00 Build 0)  -->
<svg version="1.1" id="Bulk_icon" xmlns="http://www.w3.org/2000/svg" xmlns:xlink="http://www.w3.org/1999/xlink" x="0px" y="0px"
	 width="75px" height="75px" viewBox="0 0 75 75" style="enable-background:new 0 0 75 75;" xml:space="preserve">
<style type="text/css">
	.st0{fill:#FFFFFF;stroke:#868686;stroke-linejoin:round;stroke-opacity:0.2;}
	.st1{fill:none;enable-background:new    ;}
	.st2{fill:#AAB1BA;}
	.st3{fill:#ECF4F7;}
	.st4{fill:#FF7474;}
	.st5{fill:#FFD0A1;}
	.st6{fill:#50DD8E;}
	.st7{fill:#51565F;}
</style>
<circle class="st0" cx="37.5" cy="37.5" r="37"/>
<path class="st1" d="z"/>
<g transform="translate(1 9)">
	<path class="st2" d="M53,40.8c2.9,0,5.2,2.4,5.2,5.2s-2.4,5.2-5.2,5.2c-2.9,0-5.2-2.4-5.2-5.2S50.1,40.8,53,40.8z M23.2,40.8
		c2.9,0,5.2,2.4,5.2,5.2s-2.4,5.2-5.2,5.2S18,48.9,18,46C18,43.1,20.4,40.8,23.2,40.8z"/>
	<path class="st3" d="M23.2,44.3c1,0,1.7,0.8,1.7,1.7s-0.8,1.7-1.7,1.7S21.5,47,21.5,46S22.3,44.3,23.2,44.3z M53,44.3
		c1,0,1.7,0.8,1.7,1.7s-0.8,1.7-1.7,1.7S51.2,47,51.2,46S52,44.3,53,44.3z"/>
	<path class="st4" d="M25,33.8h3.5v-14H25V33.8z M25,16.3h3.5v-5.2H25V16.3z M40.7,16.3v3.5H28.5H25H12.7v-3.5H25h3.5H40.7z"/>
	<path class="st5" d="M40.7,12.8v3.5H28.5v-5.2H39C39.9,11.1,40.7,11.8,40.7,12.8z M40.7,19.8V32c0,1-0.8,1.7-1.7,1.7H28.5v-14H40.7
		z M25,19.8v14H14.5c-1,0-1.7-0.8-1.7-1.7V19.8H25z M25,11.1v5.2H12.7v-3.5c0-1,0.8-1.7,1.7-1.7L25,11.1z"/>
	<path class="st3" d="M53,30.3h-8.7v-14h9.6c1.9,0,3.5,1.6,3.5,3.5l0.9,10.5L53,30.3L53,30.3z"/>
	<g>
		<path class="st6" d="M61.7,37.3V46h-3.5c0-2.9-2.4-5.2-5.2-5.2c-2.9,0-5.2,2.4-5.2,5.2h-3.5v-8.7v-7H53h5.2l2.6,2.6
			c0.9,0.9,0.9,2.6,0.9,2.6V37.3z"/>
		<path class="st6" d="M44.2,37.3V46H28.5c0-2.9-2.4-5.2-5.2-5.2S18,43.1,18,46h-3.5c-1.9,0-3.5-1.6-3.5-3.5v-5.2H44.2z"/>
	</g>
</g>
<path class="st7" d="M56,60.7c-3.1,0-5.7-2.5-5.7-5.7s2.5-5.7,5.7-5.7c3,0,5.4,2.3,5.7,5.2h2.6v-7.9H63c-0.3,0-0.4-0.2-0.4-0.4
	c0-0.3,0.2-0.4,0.4-0.4h1.3v-1.3c0,0,0-1.6-0.8-2.3l-2.5-2.5h-5.1l0,0h-5.2c-0.3,0-0.4-0.2-0.4-0.4c0-0.3,0.2-0.4,0.4-0.4h5l1.7-3.2
	c0.1-0.2,0.3-0.3,0.6-0.2c0.2,0.1,0.3,0.3,0.3,0.3s0,0.2-0.1,0.2l-1.4,2.9h4l-0.9-10.1c0-1.7-1.4-3.1-3.1-3.1h-9.2V55
	c0,0.3-0.2,0.4-0.4,0.4H31.8c-0.3,3-2.7,5.2-5.7,5.2c-3.1,0-5.7-2.5-5.7-5.7s2.5-5.7,5.7-5.7c3,0,5.4,2.3,5.7,5.2h14.9V25.3
	c0-0.3,0.2-0.4,0.4-0.4h9.6c2.2,0,3.9,1.7,3.9,3.9l0.9,10.3l2.5,2.5c1,1,1,2.9,1,3v10.5c0,0.3-0.2,0.4-0.4,0.4h-3.1
	C61.4,58.4,58.9,60.7,56,60.7z M56,50.2c-2.6,0-4.8,2.2-4.8,4.8s2.2,4.8,4.8,4.8c2.6,0,4.8-2.2,4.8-4.8C60.8,52.4,58.6,50.2,56,50.2
	z M26.2,50.2c-2.6,0-4.8,2.2-4.8,4.8s2.2,4.8,4.8,4.8S31,57.6,31,55C31,52.4,28.9,50.2,26.2,50.2z M56,57.2c-1.2,0-2.2-1-2.2-2.2
	c0-1.2,1-2.2,2.2-2.2c1.2,0,2.2,1,2.2,2.2S57.2,57.2,56,57.2z M56,53.7c-0.7,0-1.3,0.6-1.3,1.3c0,0.7,0.6,1.3,1.3,1.3
	c0.7,0,1.3-0.6,1.3-1.3C57.3,54.3,56.7,53.7,56,53.7z M26.2,57.2c-1.2,0-2.2-1-2.2-2.2c0-1.2,1-2.2,2.2-2.2c1.2,0,2.2,1,2.2,2.2
	C28.4,56.2,27.5,57.2,26.2,57.2z M26.2,53.7c-0.7,0-1.3,0.6-1.3,1.3c0,0.7,0.6,1.3,1.3,1.3c0.7,0,1.3-0.6,1.3-1.3
	C27.5,54.3,26.9,53.7,26.2,53.7z M17.5,55.5c-2.2,0-3.9-1.7-3.9-3.9v-5.2c0-0.3,0.2-0.4,0.4-0.4h29.7c0.3,0,0.4,0.2,0.4,0.4
	c0,0.3-0.2,0.4-0.4,0.4H14.4v4.8c0,1.7,1.3,3.1,3.1,3.1c0.3,0,0.4,0.2,0.4,0.4C17.9,55.3,17.8,55.5,17.5,55.5z M42,43.2H31.5
	c-0.3,0-0.4-0.2-0.4-0.4v-14c0-0.3,0.2-0.4,0.4-0.4h12.2c0.3,0,0.4,0.2,0.4,0.4V41C44.2,42.3,43.2,43.2,42,43.2z M31.9,42.3H42
	c0.7,0,1.3-0.6,1.3-1.3V29.2H31.9V42.3z M28,43.2H17.5c-1.2,0-2.2-1-2.2-2.2V28.8c0-0.3,0.2-0.4,0.4-0.4H28c0.3,0,0.4,0.2,0.4,0.4
	v14C28.4,43,28.2,43.2,28,43.2z M16.2,29.2V41c0,0.7,0.6,1.3,1.3,1.3h10.1V29.2H16.2z M43.7,25.7H31.5c-0.3,0-0.4-0.2-0.4-0.4v-5.2
	c0-0.3,0.2-0.4,0.4-0.4H42c1.2,0,2.2,1,2.2,2.2v3.5C44.2,25.6,44,25.7,43.7,25.7z M31.9,24.9h11.4v-3.1c0-0.7-0.6-1.3-1.3-1.3H31.9
	V24.9z M28,25.7H15.7c-0.3,0-0.4-0.2-0.4-0.4v-3.5c0-1.2,1-2.2,2.2-2.2H28c0.3,0,0.4,0.2,0.4,0.4v5.2C28.4,25.6,28.2,25.7,28,25.7z
	 M16.2,24.9h11.4v-4.4H17.5c-0.7,0-1.3,0.6-1.3,1.3V24.9z M36.7,17c-0.3,0-0.4-0.2-0.4-0.4c0-1.7-1.4-3.1-3.1-3.1
	c-1.7,0-3.1,1.4-3.1,3.1c0,0.3-0.2,0.4-0.4,0.4s-0.4-0.2-0.4-0.4c0-1.7-1.4-3.1-3.1-3.1c-1.7,0-3.1,1.4-3.1,3.1
	c0,0.3-0.2,0.4-0.4,0.4s-0.4-0.2-0.4-0.4c0-2.2,1.7-3.9,3.9-3.9c1.5,0,2.9,0.9,3.5,2.1c0.6-1.2,2-2.1,3.5-2.1c2.2,0,3.9,1.7,3.9,3.9
	C37.2,16.8,37,17,36.7,17z"/>
</svg>
