<?xml version="1.0" encoding="UTF-8" standalone="no"?>
<!-- Generator: Adobe Illustrator 16.2.1, SVG Export Plug-In . SVG Version: 6.00 Build 0)  -->

<svg
   xmlns:dc="http://purl.org/dc/elements/1.1/"
   xmlns:cc="http://creativecommons.org/ns#"
   xmlns:rdf="http://www.w3.org/1999/02/22-rdf-syntax-ns#"
   xmlns:svg="http://www.w3.org/2000/svg"
   xmlns="http://www.w3.org/2000/svg"
   xmlns:sodipodi="http://sodipodi.sourceforge.net/DTD/sodipodi-0.dtd"
   xmlns:inkscape="http://www.inkscape.org/namespaces/inkscape"
   version="1.1"
   x="0px"
   y="0px"
   width="200px"
   height="200px"
   viewBox="0 0 200 200"
   enable-background="new 0 0 200 200"
   xml:space="preserve"
   id="svg2"
   inkscape:version="0.48.4 r9939"
   sodipodi:docname="cctv.svg"><metadata
     id="metadata522"><rdf:RDF><cc:Work
         rdf:about=""><dc:format>image/svg+xml</dc:format><dc:type
           rdf:resource="http://purl.org/dc/dcmitype/StillImage" /><dc:title /></cc:Work></rdf:RDF></metadata><defs
     id="defs520" /><sodipodi:namedview
     pagecolor="#ffffff"
     bordercolor="#666666"
     borderopacity="1"
     objecttolerance="10"
     gridtolerance="10"
     guidetolerance="10"
     inkscape:pageopacity="0"
     inkscape:pageshadow="2"
     inkscape:window-width="1301"
     inkscape:window-height="744"
     id="namedview518"
     showgrid="false"
     inkscape:zoom="1.7596562"
     inkscape:cx="100"
     inkscape:cy="131.879"
     inkscape:window-x="65"
     inkscape:window-y="24"
     inkscape:window-maximized="1"
     inkscape:current-layer="svg2" /><g
     inkscape:groupmode="layer"
     id="layer2"
     inkscape:label="Layer"><g
       transform="matrix(1.484836,0,0,1.5188787,33.390811,52.024778)"
       style="fill-rule:evenodd"
       id="g2412"><path
         inkscape:connector-curvature="0"
         id="path2410"
         d="m 79.17876,39.586775 5.93343,0 0,28.4732 -5.93343,0 0,-12.7468 -19.0405,0 c -1.44213,1.80977 -3.6644,2.97059 -6.15777,2.97059 -4.34617,0 -7.87073,-3.52447 -7.87073,-7.87055 0,-2.60504 1.26619,-4.91455 3.21663,-6.3472 l -1.08834,-8.11887 -26.7235,7.13818 -19.7165,-27.3149 60.4727,-15.7705 7.76389,30.125 -15.1391,4.04389 1.15954,8.65114 c 2.45928,0.670746 4.43934,2.50358 5.31255,4.87243 l 17.8112,0 0,-8.10574 -7e-5,1.3e-4 z"
         style="fill:#000000" /><path
         inkscape:connector-curvature="0"
         id="path1937"
         d="m 4.43716,43.343055 7.40127,-2.26301 -3.92967,-14.9207 -7.90875,2.10823 4.43715,15.0755 0,-2e-5 z"
         style="fill:#000000" /></g><path
       style="fill:#ffffff;fill-opacity:1;fill-rule:nonzero;stroke:#000000;stroke-width:0;stroke-miterlimit:4;stroke-opacity:1;stroke-dasharray:none"
       d="m 154.97161,137.77745 0,-9.62879 -14.11946,0 -14.11947,0 -1.60281,1.5356 c -0.88155,0.84458 -2.93109,1.88014 -4.55454,2.30126 -11.38253,2.95259 -19.3237,-10.69181 -11.57318,-19.88483 l 1.47598,-1.75069 -0.74816,-5.43939 c -0.41149,-2.99166 -0.88533,-5.576549 -1.05297,-5.744199 -0.16764,-0.16764 -8.66172,1.988229 -18.875727,4.790819 -10.214005,2.8026 -18.993808,5.21157 -19.510673,5.35329 -0.686309,0.18815 -4.904501,-5.36009 -15.640703,-20.57245 C 46.564376,77.281518 40.032145,67.824779 40.133828,67.723097 40.352144,67.50478 127.31036,44.300005 128.97018,44.017139 c 1.02892,-0.175347 1.66528,1.892856 6.85335,22.273872 3.14551,12.356942 5.61693,22.745142 5.49203,23.084889 -0.12489,0.339747 -5.009,1.899994 -10.85358,3.467221 -5.84458,1.56722 -10.7292,3.12747 -10.85469,3.46721 -0.1255,0.33975 0.10077,3.23189 0.50282,6.426969 l 0.73099,5.80925 2.29121,1.1935 c 1.26017,0.65644 3.08151,2.30958 4.04743,3.67365 l 1.75622,2.48015 13.01783,0 13.01782,0 0,-6.15196 0,-6.15196 4.52262,0.17044 4.52261,0.17044 0.15299,21.73771 0.15299,21.73772 -4.6756,0 -4.67561,0 0,-9.62879 0,0 z"
       id="path4774"
       inkscape:connector-curvature="0" /><path
       style="fill:#ffffff;fill-opacity:1;fill-rule:nonzero;stroke:#000000;stroke-width:0;stroke-miterlimit:4;stroke-opacity:1;stroke-dasharray:none"
       d="m 42.595136,111.02444 c -0.139467,-0.37094 -1.663661,-5.60071 -3.387099,-11.621701 l -3.133524,-10.94726 3.280633,-0.922208 c 1.804348,-0.507214 4.515932,-1.27483 6.025742,-1.705813 2.478419,-0.707477 2.773598,-0.68822 3.038353,0.198213 1.382005,4.627119 5.629751,21.859079 5.436088,22.052739 -0.135975,0.13598 -2.66809,1.00621 -5.626922,1.93386 -3.743816,1.17374 -5.456803,1.48153 -5.633271,1.01217 l 0,0 z"
       id="path4776"
       inkscape:connector-curvature="0" /></g></svg>