<?xml version="1.0" encoding="UTF-8" standalone="no"?>
<!-- Generator: Adobe Illustrator 16.2.1, SVG Export Plug-In . SVG Version: 6.00 Build 0)  -->

<svg
   xmlns:dc="http://purl.org/dc/elements/1.1/"
   xmlns:cc="http://creativecommons.org/ns#"
   xmlns:rdf="http://www.w3.org/1999/02/22-rdf-syntax-ns#"
   xmlns:svg="http://www.w3.org/2000/svg"
   xmlns="http://www.w3.org/2000/svg"
   xmlns:sodipodi="http://sodipodi.sourceforge.net/DTD/sodipodi-0.dtd"
   xmlns:inkscape="http://www.inkscape.org/namespaces/inkscape"
   version="1.1"
   x="0px"
   y="0px"
   width="200px"
   height="200px"
   viewBox="0 0 200 200"
   enable-background="new 0 0 200 200"
   xml:space="preserve"
   id="svg2"
   inkscape:version="0.48.4 r9939"
   sodipodi:docname="cleanenergy.svg"><metadata
     id="metadata522"><rdf:RDF><cc:Work
         rdf:about=""><dc:format>image/svg+xml</dc:format><dc:type
           rdf:resource="http://purl.org/dc/dcmitype/StillImage" /><dc:title /></cc:Work></rdf:RDF></metadata><defs
     id="defs520" /><sodipodi:namedview
     pagecolor="#ffffff"
     bordercolor="#666666"
     borderopacity="1"
     objecttolerance="10"
     gridtolerance="10"
     guidetolerance="10"
     inkscape:pageopacity="0"
     inkscape:pageshadow="2"
     inkscape:window-width="1301"
     inkscape:window-height="744"
     id="namedview518"
     showgrid="false"
     inkscape:zoom="4.9700864"
     inkscape:cx="66.94239"
     inkscape:cy="169.14794"
     inkscape:window-x="65"
     inkscape:window-y="24"
     inkscape:window-maximized="1"
     inkscape:current-layer="svg2" /><g
     id="g3314"
     transform="matrix(2.1427698,0,0,2.1349989,-111.7037,-114.4486)"><path
       inkscape:connector-curvature="0"
       id="path5290"
       d="m 94.210052,110.32315 c -2.491017,-0.95798 -4.817418,-3.10638 -5.987654,-5.52952 -0.811558,-1.68045 -0.971874,-2.47606 -0.973016,-4.828841 -0.0017,-3.421566 0.784935,-5.412408 3.021759,-7.647963 5.445829,-5.44274 14.255009,-4.107272 17.838119,2.704249 0.80938,1.538655 0.93355,2.196196 0.93355,4.943714 0,2.757441 -0.12281,3.402581 -0.94559,4.967461 -1.19983,2.282 -4.02868,4.83902 -6.15494,5.56352 -2.223891,0.75775 -5.503378,0.68454 -7.732228,-0.17262 l 0,0 z"
       style="fill:#ffffff;fill-opacity:1;fill-rule:nonzero;stroke:#000000;stroke-width:0;stroke-miterlimit:4;stroke-opacity:1;stroke-dasharray:none" /><path
       inkscape:connector-curvature="0"
       id="path5292"
       d="m 70.669014,104.4153 c -0.580986,-0.35888 -1.347055,-0.97979 -1.702375,-1.37981 -0.723659,-0.8147 -1.139658,-3.101453 -0.806026,-4.430746 0.352656,-1.405093 1.92389,-2.996215 3.393597,-3.43655 1.184216,-0.354799 1.614455,-0.305225 3.304668,0.380783 1.643993,0.667248 2.05908,1.02806 2.695771,2.343289 0.673432,1.391124 0.70921,1.735344 0.340236,3.273394 -0.226783,0.94534 -0.756998,2.04164 -1.178257,2.43621 -1.655459,1.55061 -4.282195,1.90392 -6.047614,0.81343 z"
       style="fill:#ffffff;fill-opacity:1;fill-rule:nonzero;stroke:#000000;stroke-width:0;stroke-miterlimit:4;stroke-opacity:1;stroke-dasharray:none" /><path
       inkscape:connector-curvature="0"
       id="path5294"
       d="m 78.518084,86.755964 c -2.581248,-0.754608 -4.4983,-3.633054 -4.018237,-6.033368 0.569797,-2.848987 3.75033,-4.928921 6.432613,-4.206657 2.298356,0.618883 3.997117,2.845791 3.997117,5.239827 0,3.075517 -3.543136,5.838741 -6.411493,5.000198 z"
       style="fill:#ffffff;fill-opacity:1;fill-rule:nonzero;stroke:#000000;stroke-width:0;stroke-miterlimit:4;stroke-opacity:1;stroke-dasharray:none" /><path
       inkscape:connector-curvature="0"
       id="path5296"
       d="m 96.714331,77.92186 c -1.987393,-0.551985 -3.686162,-2.891226 -3.686162,-5.075924 0,-2.013619 2.196388,-4.452375 4.357135,-4.837937 2.645986,-0.472148 5.297146,1.476913 5.704576,4.193845 0.5624,3.750343 -2.75411,6.725845 -6.375549,5.720016 z"
       style="fill:#ffffff;fill-opacity:1;fill-rule:nonzero;stroke:#000000;stroke-width:0;stroke-miterlimit:4;stroke-opacity:1;stroke-dasharray:none" /><path
       inkscape:connector-curvature="0"
       id="path5298"
       d="m 77.54223,123.11565 c -1.795049,-0.90186 -2.82392,-2.63735 -2.82392,-4.76335 0,-1.60247 0.133538,-1.88836 1.538176,-3.293 1.404638,-1.40463 1.690524,-1.53817 3.292999,-1.53817 4.184595,0 6.767958,4.52493 4.405194,7.71599 -1.730028,2.33651 -4.112005,3.03431 -6.412449,1.87853 l 0,0 z"
       style="fill:#ffffff;fill-opacity:1;fill-rule:nonzero;stroke:#000000;stroke-width:0;stroke-miterlimit:4;stroke-opacity:1;stroke-dasharray:none" /><path
       inkscape:connector-curvature="0"
       id="path5300"
       d="m 96.762085,131.82109 c -0.560782,-0.16981 -1.47541,-0.74544 -2.032506,-1.27917 -2.82003,-2.70176 -1.768025,-7.07859 2.013898,-8.37876 1.178359,-0.4051 1.523787,-0.36885 3.275243,0.34372 2.25893,0.91904 3.22152,2.28399 3.2194,4.56509 -0.003,3.23468 -3.35633,5.69379 -6.476035,4.74912 z"
       style="fill:#ffffff;fill-opacity:1;fill-rule:nonzero;stroke:#000000;stroke-width:0;stroke-miterlimit:4;stroke-opacity:1;stroke-dasharray:none" /><path
       inkscape:connector-curvature="0"
       id="path5304"
       d="m 122.25334,104.27817 c -2.24176,-1.5302 -3.00257,-4.12962 -1.89303,-6.467805 1.2519,-2.638174 3.62671,-3.421462 6.50887,-2.146832 2.15404,0.952617 3.13192,2.368274 3.1295,4.530527 -0.004,3.71259 -4.6786,6.17743 -7.74534,4.08411 z"
       style="fill:#ffffff;fill-opacity:1;fill-rule:nonzero;stroke:#000000;stroke-width:0;stroke-miterlimit:4;stroke-opacity:1;stroke-dasharray:none" /><path
       inkscape:connector-curvature="0"
       id="path5306"
       d="m 114.66564,86.635791 c -2.22655,-1.007968 -3.76392,-3.906846 -3.1388,-5.918559 1.7814,-5.732811 10.0262,-4.782286 10.02114,1.155315 -0.003,3.653632 -3.69272,6.207195 -6.88234,4.763244 z"
       style="fill:#ffffff;fill-opacity:1;fill-rule:nonzero;stroke:#000000;stroke-width:0;stroke-miterlimit:4;stroke-opacity:1;stroke-dasharray:none" /><path
       inkscape:connector-curvature="0"
       id="path5304-8"
       d="m 114.19473,122.2693 c -2.24176,-1.5302 -3.00257,-4.12962 -1.89303,-6.46781 1.2519,-2.63817 3.62671,-3.42146 6.50887,-2.14683 2.15404,0.95262 3.13193,2.36828 3.12951,4.53053 -0.004,3.71259 -4.67861,6.17743 -7.74535,4.08411 z"
       style="fill:#ffffff;fill-opacity:1;fill-rule:nonzero;stroke:#000000;stroke-width:0;stroke-miterlimit:4;stroke-opacity:1;stroke-dasharray:none" /></g></svg>