<?xml version="1.0" encoding="UTF-8" standalone="no"?>
<!-- Generator: Adobe Illustrator 18.1.1, SVG Export Plug-In . SVG Version: 6.00 Build 0)  -->

<svg
   xmlns:dc="http://purl.org/dc/elements/1.1/"
   xmlns:cc="http://creativecommons.org/ns#"
   xmlns:rdf="http://www.w3.org/1999/02/22-rdf-syntax-ns#"
   xmlns:svg="http://www.w3.org/2000/svg"
   xmlns="http://www.w3.org/2000/svg"
   xmlns:sodipodi="http://sodipodi.sourceforge.net/DTD/sodipodi-0.dtd"
   xmlns:inkscape="http://www.inkscape.org/namespaces/inkscape"
   version="1.1"
   id="Layer_1"
   x="0px"
   y="0px"
   width="512px"
   height="512px"
   viewBox="242 -242 512 512"
   enable-background="new 242 -242 512 512"
   xml:space="preserve"
   inkscape:version="0.48.4 r9939"
   sodipodi:docname="manage_account.svg"><metadata
     id="metadata13"><rdf:RDF><cc:Work
         rdf:about=""><dc:format>image/svg+xml</dc:format><dc:type
           rdf:resource="http://purl.org/dc/dcmitype/StillImage" /><dc:title /></cc:Work></rdf:RDF></metadata><defs
     id="defs11" /><sodipodi:namedview
     pagecolor="#ffffff"
     bordercolor="#666666"
     borderopacity="1"
     objecttolerance="10"
     gridtolerance="10"
     guidetolerance="10"
     inkscape:pageopacity="0"
     inkscape:pageshadow="2"
     inkscape:window-width="1301"
     inkscape:window-height="744"
     id="namedview9"
     showgrid="false"
     inkscape:zoom="0.4609375"
     inkscape:cx="256"
     inkscape:cy="256"
     inkscape:window-x="65"
     inkscape:window-y="24"
     inkscape:window-maximized="1"
     inkscape:current-layer="Layer_1" /><g
     id="g3"
     style="fill:#afe9c6"><path
       d="M498-242c-141.4,0-256,114.6-256,256s114.6,256,256,256S754,155.4,754,14S639.4-242,498-242z"
       id="path5"
       fill="#FFFFFF"
       style="fill:#afe9c6" /></g><path
     d="m 557.67967,-4.8355937 c -7.5,7.5 -19.9,7.5 -27.4,0 l -30.7,-30.6999993 c -7.5,-7.5 -7.5,-19.900002 0,-27.400002 l 50.4,-50.399985 c -13.4,-4.1 -28.1,-5 -43.4,-1.9 -34.2,6.9 -61.5,34.899985 -67.7,69.199987 -3.3,18.6 -0.8,36.2999991 6.1,51.6999994 1.4,3.2 0.8,7.0000006 -1.9,9.3000006 l -134.9,115.500003 c -8.1,6.9 -8.5,18.8 -1,26.3 l 30.7,30.7 c 7.5,7.5 19.4,7.1 26.3,-1 l 0,0 115.6,-134.800003 c 2.3,-2.7 6,-3.4 9.3,-1.9 15.4,6.899999 33.3,9.499999 51.9,6.099999 34.3,-6.299999 62.2,-33.599999 69,-67.799999 3,-15.2 2.1,-29.9 -2,-43.200002 l -50.3,50.3000013 z"
     id="path7"
     inkscape:connector-curvature="0"
     style="fill:#5baf42" /><g
     transform="translate(328.88707,-205.13547)"
     enable-background="new    "
     id="g7"><path
       style="fill:#055642"
       inkscape:connector-curvature="0"
       d="m 311.037,137.43 h -62.561 c -11.381,0 -19.111,-6.943 -19.111,-18.539 0,-16.177 3.793,-41.015 24.766,-41.015 2.22,0 11.597,9.95 25.626,9.95 14.029,0 23.406,-9.95 25.626,-9.95 20.973,0 24.766,24.838 24.766,41.015 -10e-4,11.595 -7.731,18.539 -19.112,18.539 z m -31.28,-54.973 c -15.175,0 -27.486,-12.312 -27.486,-27.486 0,-15.174 12.312,-27.486 27.486,-27.486 15.174,0 27.486,12.312 27.486,27.486 0,15.174 -12.311,27.486 -27.486,27.486 z"
       id="path9" /></g></svg>