<?xml version="1.0" encoding="UTF-8" standalone="no"?>
<!-- Generator: Adobe Illustrator 16.2.1, SVG Export Plug-In . SVG Version: 6.00 Build 0)  -->

<svg
   xmlns:dc="http://purl.org/dc/elements/1.1/"
   xmlns:cc="http://creativecommons.org/ns#"
   xmlns:rdf="http://www.w3.org/1999/02/22-rdf-syntax-ns#"
   xmlns:svg="http://www.w3.org/2000/svg"
   xmlns="http://www.w3.org/2000/svg"
   xmlns:sodipodi="http://sodipodi.sourceforge.net/DTD/sodipodi-0.dtd"
   xmlns:inkscape="http://www.inkscape.org/namespaces/inkscape"
   version="1.1"
   x="0px"
   y="0px"
   width="200px"
   height="200px"
   viewBox="0 0 200 200"
   enable-background="new 0 0 200 200"
   xml:space="preserve"
   id="svg2"
   inkscape:version="0.48.4 r9939"
   sodipodi:docname="base.svg"><metadata
     id="metadata522"><rdf:RDF><cc:Work
         rdf:about=""><dc:format>image/svg+xml</dc:format><dc:type
           rdf:resource="http://purl.org/dc/dcmitype/StillImage" /><dc:title></dc:title></cc:Work></rdf:RDF></metadata><defs
     id="defs520" /><sodipodi:namedview
     pagecolor="#ffffff"
     bordercolor="#666666"
     borderopacity="1"
     objecttolerance="10"
     gridtolerance="10"
     guidetolerance="10"
     inkscape:pageopacity="0"
     inkscape:pageshadow="2"
     inkscape:window-width="1301"
     inkscape:window-height="744"
     id="namedview518"
     showgrid="false"
     inkscape:zoom="2.4234129"
     inkscape:cx="66.988704"
     inkscape:cy="100"
     inkscape:window-x="65"
     inkscape:window-y="24"
     inkscape:window-maximized="1"
     inkscape:current-layer="svg2" /><g
     id="Layer_1"
     display="none"><g
       display="inline"
       id="g5"><circle
         fill="#FFFFFF"
         cx="101.779"
         cy="101.031"
         r="77.344"
         id="circle7" /><circle
         fill="#282828"
         cx="100"
         cy="100"
         r="100"
         id="circle9" /><circle
         fill="none"
         stroke="#FFFFFF"
         stroke-width="4"
         stroke-miterlimit="10"
         cx="100"
         cy="100"
         r="87"
         id="circle11" /><g
         id="g13"><path
           fill="#73C6DC"
           d="M96.006,105.24c17.248,7.467,28.49-16.684,28.49-32.422c0-15.191-11.688-24.102-26.867-17.402     c2.349-3.918,7.176-10.957,13.32-14.562l-7.701-3.592c-4.262,4.447-7.538,13.381-9.039,18.014     C80.523,49.09,67.53,57.752,67.53,72.818C67.53,88.557,79.641,112.455,96.006,105.24z M87.645,59.631     c-9.579,9.504-10.15,24.773-2.438,38.451c-7.133-6.541-10.831-14.365-10.831-23.559C74.376,65.717,80.217,59.773,87.645,59.631z"
           id="path15" /><path
           fill="#73C6DC"
           d="M95.996,50.195c0,0,0.625-7.586-3.667-11.877c-4.3-4.295-11.876-3.662-11.876-3.662     s-0.634,7.588,3.662,11.881C88.405,50.826,95.996,50.195,95.996,50.195z"
           id="path17" /><path
           fill="#FFFFFF"
           d="M154,115.91v-9.27H59.269c-11.722,0-21.27,9.541-21.27,21.27c0,11.725,9.547,21.27,21.27,21.27H154v-9.27     c-1.352,0-4.631-4.207-4.631-12S152.648,115.91,154,115.91z M59.269,129.438h80.965c0.168,3.896,0.855,7.494,2.133,10.473H59.269     c-6.615,0-12.001-5.387-12.001-12c0-6.611,5.386-11.994,12.001-11.994h83.098c-1.277,2.971-1.965,6.576-2.133,10.463     l-80.965,0.004c-0.842,0-1.532,0.682-1.532,1.527C57.737,128.752,58.427,129.438,59.269,129.438z"
           id="path19" /></g></g></g><g
     id="Layer_3"
     display="none"><circle
       display="inline"
       fill="#FFFFFF"
       cx="101.779"
       cy="101.031"
       r="77.344"
       id="circle22" /><circle
       display="inline"
       fill="#282828"
       cx="100"
       cy="100"
       r="100"
       id="circle24" /><circle
       display="inline"
       fill="none"
       stroke="#FFFFFF"
       stroke-width="4"
       stroke-miterlimit="10"
       cx="100"
       cy="100"
       r="87"
       id="circle26" /><g
       display="inline"
       id="g28"><ellipse
         fill="#73C6DC"
         cx="97.748"
         cy="82.357"
         rx="9.809"
         ry="19.863"
         id="ellipse30" /><path
         fill="#FFFFFF"
         d="M61.165,106.816v23.867c0,20.064,16.266,36.33,36.331,36.33c20.066,0,36.33-16.266,36.33-36.33v-23.34    C124.549,112.008,99.19,120.998,61.165,106.816z"
         id="path32" /><path
         fill="#FFFFFF"
         d="M102.172,56.043c-0.031-6.096,8.172-6.508,8.172-6.508c24.775,0,21.537-21.535,21.537-21.535h-7.35    c0,17.785-15.875,15.871-15.875,15.871c-13.383,0-16.206,7.414-16.623,12.291c-17.473,2.646-30.868,17.684-30.868,35.877v10.139    c11.695,4.754,43.392,14.799,72.661-0.014V92.039C133.826,73.562,120.02,58.346,102.172,56.043z M103.779,90.592    c0,3.477-2.822,6.297-6.283,6.297c-3.472,0-6.287-2.82-6.287-6.297V73.389c0-3.467,2.815-6.287,6.287-6.287    c3.471,0,6.283,2.82,6.283,6.287V90.592z"
         id="path34" /></g></g><g
     id="Layer_4"
     display="none"><g
       display="inline"
       id="g37"><circle
         fill="#FFFFFF"
         cx="101.779"
         cy="101.031"
         r="77.344"
         id="circle39" /><circle
         fill="#282828"
         cx="100"
         cy="100"
         r="100"
         id="circle41" /><circle
         fill="none"
         stroke="#FFFFFF"
         stroke-width="4"
         stroke-miterlimit="10"
         cx="100"
         cy="100"
         r="87"
         id="circle43" /><rect
         x="36.924"
         y="92.168"
         fill="#FFFFFF"
         width="17.069"
         height="57.783"
         id="rect45" /><path
         fill="#FFFFFF"
         d="M108.023,125.721c0,0-6.18-1.984-8.516-3.434c-2.067-1.133-6.453-3.748-10.052-6.482h10.052h11.297    c0,0,0.869,0.059,1.887-0.164c1.371-0.326,3.031-1.168,3.031-3.443c0-3.951,0-9.85,0-9.85s-0.654-3.283-3.031-4.479    c-0.545-0.275-1.164-0.443-1.887-0.443c-1.117,0-5.537,0-11.297,0c-10.233,0-24.719,0-32.621,0c-3.461,0-5.668,0-5.668,0v42.021    c0,0,33.5,10.516,45.32,10.516c0,0,29.539,1.318,49.25-21.682c0.008,0-5.141-15.197-11.051-17.488    c-0.072-0.029-0.146-0.049-0.219-0.072c-2.371,1.387-4.791,2.748-7.242,4.123C131.727,120.68,123.254,129.881,108.023,125.721z"
         id="path47" /><path
         fill="#73C6DC"
         d="M114.227,118.994c-1.203,0.27-2.324,0.27-2.709,0.258h-9.585c0.005,0.012,0.017,0.012,0.023,0.012    l0.146,0.082c1.418,0.875,5.432,2.334,7.699,3.072c2.207,0.594,4.355,0.896,6.383,0.896c9.047,0,14.643-5.873,19.133-10.592    c2.613-2.746,4.703-4.932,7.25-5.504c8.246-9.818,15.514-20.564,16.922-29.195c1.43-8.762,0.168-15.824-3.77-20.988    c-3.971-5.207-10.268-8.209-19.273-9.174c-0.725-0.072-1.484-0.113-2.254-0.113c-7.785,0-16.611,3.773-21.758,10.91    c-5.145-7.137-13.972-10.91-21.766-10.91c-0.766,0-1.531,0.041-2.254,0.119c-8.989,0.965-15.294,3.961-19.27,9.168    c-3.932,5.164-5.204,12.223-3.775,20.988c0.791,4.834,3.439,10.318,7.07,15.945h39.146c1.215,0,2.379,0.27,3.445,0.82    c3.762,1.902,4.756,6.371,4.861,6.869l0.068,0.338v10.201C119.961,115.641,117.824,118.188,114.227,118.994z M153.875,81.328    c0,0-1.525-22.855-21.834-25.906C132.029,55.422,156.41,51.863,153.875,81.328z"
         id="path49" /><path
         d="M135.723,108.801c-1.498,0.273-3.213,2.033-5.367,4.295c2.449-1.375,4.871-2.736,7.238-4.123    C136.98,108.768,136.355,108.695,135.723,108.801z"
         id="path51" /></g></g><g
     id="Layer_5"
     display="none"><g
       display="inline"
       id="g54"><circle
         fill="#FFFFFF"
         cx="100.63"
         cy="100.648"
         r="77.344"
         id="circle56" /><circle
         fill="#282828"
         cx="100"
         cy="100"
         r="100"
         id="circle58" /><circle
         fill="none"
         stroke="#FFFFFF"
         stroke-width="4"
         stroke-miterlimit="10"
         cx="98.851"
         cy="99.617"
         r="87"
         id="circle60" /><path
         fill="#FFFFFF"
         d="M92.541,98.719h10.622v11.797h53.689c0,0-0.873-26.299-1.18-34.535    c-0.289-7.824-3.092-12.664-11.801-12.664h-18.926c-2.934-5.529-6.092-11.477-7.062-13.301c-1.949-3.686-2.617-4.398-6.957-4.398    H84.777c-4.34,0-5.008,0.713-6.959,4.398c-0.969,1.824-4.127,7.771-7.059,13.301H51.83c-8.708,0-11.476,4.84-11.798,12.664    c-0.324,7.824-1.181,34.535-1.181,34.535h53.69V98.719z M83.986,56.92c1.354-2.549,1.814-3.043,4.816-3.043h18.096    c3.004,0,3.467,0.494,4.818,3.043c0.506,0.957,1.877,3.541,3.395,6.396h-34.52C82.107,60.461,83.478,57.877,83.986,56.92z     M103.162,128.219H92.541v-11.801H41.8c0,0,0.736,10.607,1.181,19.602c0.184,3.729,1.281,9.898,10.615,9.898h88.51    c9.336,0,10.41-6.172,10.617-9.898c0.512-9.25,1.18-19.602,1.18-19.602h-50.74V128.219z"
         id="path62" /><rect
         x="88.474"
         y="95.73"
         fill="#282828"
         width="19.374"
         height="36.346"
         id="rect64" /><rect
         x="92.978"
         y="99.506"
         fill="#73C6DC"
         width="10.344"
         height="28.787"
         id="rect66" /></g></g><g
     id="Layer_6"
     display="none"><g
       display="inline"
       id="g69"><circle
         fill="#FFFFFF"
         cx="100.63"
         cy="100.648"
         r="77.344"
         id="circle71" /><circle
         fill="#282828"
         cx="100"
         cy="100"
         r="100"
         id="circle73" /><circle
         fill="none"
         stroke="#FFFFFF"
         stroke-width="4"
         stroke-miterlimit="10"
         cx="98.851"
         cy="99.617"
         r="87"
         id="circle75" /><path
         fill="#FFFFFF"
         d="M97.601,92.617c17.965,0,32.5-14.553,32.5-32.5s-14.535-32.5-32.5-32.5c-17.947,0-32.5,14.553-32.5,32.5    S79.654,92.617,97.601,92.617z M89.476,43.867c4.672,4.686,8.125,16.25,32.5,16.25c0,13.441-10.934,24.375-24.375,24.375    c-13.441,0-24.375-10.934-24.375-24.375C73.226,60.117,82.683,54.396,89.476,43.867z"
         id="path77" /><polygon
         fill="#73C6DC"
         points="97.601,100.742 89.476,108.867 97.601,141.367 105.727,108.867   "
         id="polygon79" /><path
         fill="#FFFFFF"
         d="M130.102,100.742H109.09l5.635,5.633l-12.807,51.242h28.184h8.125c4.49,0,8.125-3.635,8.125-8.125v-32.5    C146.352,108.02,139.082,100.742,130.102,100.742z"
         id="path81" /><path
         fill="#FFFFFF"
         d="M86.113,100.742H65.101c-8.967,0-16.25,7.277-16.25,16.25v32.5c0,4.49,3.635,8.125,8.125,8.125h8.125    h28.189l-12.812-51.242L86.113,100.742z"
         id="path83" /></g></g><g
     id="Layer_7"
     display="none"><circle
       display="inline"
       fill="#FFFFFF"
       cx="101.779"
       cy="101.031"
       r="77.344"
       id="circle86" /><circle
       display="inline"
       fill="#282828"
       cx="100"
       cy="100"
       r="100"
       id="circle88" /><circle
       display="inline"
       fill="none"
       stroke="#FFFFFF"
       stroke-width="4"
       stroke-miterlimit="10"
       cx="100"
       cy="100"
       r="87"
       id="circle90" /><path
       display="inline"
       fill="#FFFFFF"
       d="M37.793,54.621c0,29.289,0,58.58,0,87.871c41.84,14.436,80.883-14.438,122.715,0   c0-29.291,0-58.582,0-87.871C118.672,40.186,79.633,69.059,37.793,54.621z M83.357,80.754c0.391-1.277,0.587-1.916,0.979-3.193   c0.391,1.125,0.581,1.688,0.974,2.816c1.269-0.256,1.9-0.389,3.164-0.66c-1.023,0.963-1.536,1.443-2.557,2.396   c0.39,1.123,0.583,1.684,0.975,2.805c-1.023-0.529-1.533-0.797-2.555-1.34c-1.026,0.941-1.536,1.408-2.558,2.334   c0.392-1.271,0.585-1.908,0.976-3.182c-1.024-0.553-1.533-0.834-2.558-1.408C81.46,81.107,82.093,80.994,83.357,80.754z    M72.978,72.35c0.39-1.242,0.584-1.865,0.976-3.115c0.391,1.158,0.587,1.734,0.979,2.889c1.265-0.158,1.896-0.248,3.163-0.441   c-1.026,0.9-1.535,1.346-2.559,2.223c0.392,1.15,0.586,1.725,0.978,2.875c-1.024-0.6-1.536-0.906-2.558-1.529   c-1.025,0.861-1.534,1.289-2.56,2.125c0.391-1.238,0.588-1.861,0.978-3.104c-1.024-0.641-1.537-0.963-2.557-1.633   C71.081,72.547,71.709,72.484,72.978,72.35z M72.978,91.748c0.39-1.242,0.584-1.865,0.976-3.115   c0.391,1.156,0.587,1.734,0.979,2.889c1.265-0.16,1.896-0.248,3.163-0.441c-1.026,0.898-1.535,1.346-2.559,2.221   c0.392,1.15,0.586,1.725,0.978,2.873c-1.024-0.6-1.536-0.904-2.558-1.527c-1.025,0.861-1.534,1.287-2.56,2.123   c0.391-1.236,0.588-1.857,0.978-3.102c-1.024-0.639-1.537-0.963-2.557-1.629C71.081,91.943,71.709,91.885,72.978,91.748z    M63.843,82.85c0.39-1.205,0.589-1.807,0.98-3.014c0.391,1.197,0.587,1.793,0.977,2.986c1.266-0.033,1.898-0.064,3.165-0.146   c-1.027,0.809-1.536,1.207-2.559,1.986c0.39,1.189,0.586,1.783,0.976,2.967c-1.023-0.695-1.536-1.051-2.557-1.777   c-1.025,0.758-1.535,1.129-2.559,1.852c0.391-1.195,0.585-1.795,0.978-2.996c-1.024-0.75-1.537-1.131-2.562-1.92   C61.948,82.84,62.578,82.852,63.843,82.85z M52.679,71.973c0.393-1.137,0.587-1.705,0.979-2.848   c0.391,1.264,0.582,1.891,0.977,3.148c1.265,0.172,1.896,0.244,3.164,0.354c-1.025,0.654-1.54,0.971-2.558,1.584   c0.389,1.252,0.584,1.877,0.976,3.127c-1.023-0.859-1.537-1.297-2.558-2.197c-1.024,0.586-1.536,0.867-2.555,1.408   c0.39-1.125,0.583-1.689,0.975-2.822c-1.024-0.928-1.535-1.404-2.559-2.379C50.782,71.633,51.416,71.758,52.679,71.973z    M52.679,91.371c0.393-1.137,0.587-1.705,0.979-2.848c0.391,1.262,0.582,1.893,0.977,3.146c1.265,0.176,1.896,0.246,3.164,0.354   c-1.025,0.658-1.54,0.977-2.558,1.59c0.389,1.25,0.584,1.875,0.976,3.121c-1.023-0.855-1.537-1.295-2.558-2.195   c-1.024,0.586-1.536,0.869-2.555,1.41c0.39-1.127,0.583-1.691,0.975-2.824c-1.024-0.928-1.535-1.404-2.559-2.379   C50.782,91.031,51.416,91.156,52.679,91.371z M154.051,133.443c-37.643-8.316-72.154,13.488-109.798,5.176c0-2.791,0-4.188,0-6.98   c37.643,8.316,72.157-13.49,109.798-5.176C154.051,129.254,154.051,130.65,154.051,133.443z M154.051,120.006   c-37.643-8.316-72.154,13.488-109.798,5.174c0-2.682,0-4.027,0-6.711c37.643,8.316,72.157-13.488,109.798-5.172   C154.051,115.98,154.051,117.322,154.051,120.006z M154.051,106.838c-37.643-8.318-72.156,13.492-109.798,5.172   c0-2.734,0-4.1,0-6.834c37.645,8.314,72.157-13.49,109.798-5.174C154.051,102.734,154.051,104.104,154.051,106.838z    M154.051,93.541c-19.762-4.555-36.609-1.645-56.117,2.875c0-2.953,0-4.428,0-7.381c19.508-4.518,36.355-7.432,56.117-2.875   C154.051,89.117,154.051,90.588,154.051,93.541z M154.051,79.701c-19.762-4.553-36.609-1.643-56.117,2.877c0-2.676,0-4.016,0-6.689   c19.504-4.521,36.355-7.432,56.117-2.875C154.051,75.689,154.051,77.027,154.051,79.701z M154.051,66.555   C134.289,62,117.441,64.91,97.934,69.43c0-3.227,0-4.836,0-8.061c19.508-4.521,36.355-7.434,56.117-2.875   C154.051,61.719,154.051,63.328,154.051,66.555z"
       id="path92" /><polygon
       display="inline"
       fill="#73C6DC"
       points="47.353,70.473 51.294,74.137 49.792,78.484 53.728,76.314 57.667,79.699    56.164,74.883 59.71,72.416 54.904,71.814 53.726,67.049 51.814,71.299  "
       id="polygon94" /><polygon
       display="inline"
       fill="#73C6DC"
       points="47.623,89.797 51.564,93.461 50.062,97.809 53.998,95.639 57.938,99.023    56.435,94.207 59.98,91.74 55.175,91.139 53.996,86.373 52.085,90.623  "
       id="polygon96" /><polygon
       display="inline"
       fill="#73C6DC"
       points="58.411,81.672 62.654,84.982 61.535,89.443 65.268,86.941 69.485,89.971    67.571,85.303 70.89,82.539 66.051,82.357 64.464,77.709 62.928,82.109  "
       id="polygon98" /><polygon
       display="inline"
       fill="#73C6DC"
       points="77.636,79.877 82.279,82.578 81.463,86.91 85.132,84.168 89.727,86.607    87.389,82.385 90.61,79.441 85.591,79.754 83.594,75.521 82.341,79.834  "
       id="polygon100" /><polygon
       display="inline"
       fill="#73C6DC"
       points="66.889,91.598 71.914,94.154 71.351,98.762 74.998,95.648 79.955,97.93    77.235,93.633 80.401,90.33 75.184,90.975 72.817,86.641 71.797,91.26  "
       id="polygon102" /><polygon
       display="inline"
       fill="#73C6DC"
       points="67.059,71.957 71.795,74.826 71.19,79.52 74.702,76.514 79.378,79.1    76.858,74.561 79.915,71.334 74.949,71.734 72.766,67.176 71.727,71.859  "
       id="polygon104" /></g><g
     id="Layer_8"
     display="none"><circle
       display="inline"
       fill="#FFFFFF"
       cx="101.779"
       cy="101.031"
       r="77.344"
       id="circle107" /><circle
       display="inline"
       fill="#282828"
       cx="100"
       cy="100"
       r="100"
       id="circle109" /><circle
       display="inline"
       fill="none"
       stroke="#FFFFFF"
       stroke-width="4"
       stroke-miterlimit="10"
       cx="100"
       cy="100"
       r="87"
       id="circle111" /><circle
       display="inline"
       fill="#73C6DC"
       cx="88.037"
       cy="73.004"
       r="29.375"
       id="circle113" /><circle
       display="inline"
       fill="#73C6DC"
       cx="109.867"
       cy="104.535"
       r="29.375"
       id="circle115" /><path
       display="inline"
       fill="#FFFFFF"
       d="M87.42,62.668c5.727,0,10.371,4.639,10.371,10.371c0,5.721-4.645,10.365-10.371,10.365   S77.049,78.76,77.049,73.039C77.049,67.307,81.693,62.668,87.42,62.668z"
       id="path117" /><path
       display="inline"
       fill="#FFFFFF"
       d="M109.961,104.992c3.67,0,6.643,2.973,6.643,6.652c0,3.672-2.973,6.645-6.643,6.645   c-3.68,0-6.654-2.973-6.654-6.645C103.307,107.965,106.281,104.992,109.961,104.992z"
       id="path119" /><path
       display="inline"
       fill="#FFFFFF"
       d="M146.416,89.791c8.348-40.9-24.873-59.619-61.756-53.725   c-36.883,5.879-35.496,28.188-37.668,38.84c-4.318,26.672,23.148,56.492,23.148,56.492l-1.564,31.008h44.73l3.422-14.264   c0,0,1.938,3.256,13.494,4.24c11.564,0.984,10.148-13.133,10.148-13.133s7.697-3.396,7.697-5.938c0-2.543-4.557-5.836-4.557-5.836   s4.904,0.887,6.668-1.18c1.76-2.061-2.162-9.504-2.162-9.504s6.041-0.148,9.594-4.07C161.17,108.82,146.416,97.246,146.416,89.791z    M82.535,95.379c0,0-0.254-2.762-0.375-4.141c-1.113-0.301-2.188-0.689-3.213-1.15c-1.217,1.031-3.654,3.094-3.654,3.094   s-0.414,0.229-0.623,0.344c-0.205,0.109-4.08-0.344-4.08-0.344l-6.662-7.869v-4.699c0,0,2.561-2.172,3.84-3.254   c-0.275-1.051-0.443-2.125-0.518-3.238c-1.68-0.766-5.033-2.297-5.033-2.297l-1.348-3.914l0.154-0.637l4.301-9.375l4.551-1.191   c0,0,2.895,1.318,4.338,1.982c0.883-0.717,1.834-1.365,2.842-1.936c-0.146-1.746-0.428-5.234-0.428-5.234l3.328-3.328l10.268-0.826   l3.33,3.326c0,0,0.213,2.654,0.32,3.973c1.34,0.363,2.613,0.844,3.826,1.43c1.113-0.957,3.34-2.859,3.34-2.859h4.711l6.711,7.824   v4.697c0,0-2.725,2.334-4.086,3.502c0.197,0.949,0.311,1.928,0.354,2.918c1.725,0.99,5.152,2.977,5.152,2.977l1.197,4.547   l-5.15,8.922l-4.553,1.195c0,0-2.672-1.543-4.01-2.309c-0.756,0.586-1.561,1.105-2.4,1.586c0.158,1.783,0.482,5.342,0.482,5.342   l-3.322,3.336l-10.262,0.932L82.535,95.379z M124.391,121.645l-2.926,0.766c0,0-1.703-0.992-2.568-1.482   c-0.482,0.379-0.998,0.705-1.541,1.018c0.105,1.145,0.311,3.43,0.311,3.43l-2.129,2.129l-6.582,0.602l-2.131-2.127   c0,0-0.162-1.775-0.24-2.664c-0.717-0.189-1.396-0.447-2.061-0.74c-0.781,0.662-2.342,1.988-2.342,1.988s-0.27,0.148-0.396,0.217   c-0.131,0.078-2.621-0.217-2.621-0.217l-4.27-5.057v-3.01c0,0,1.641-1.395,2.463-2.094c-0.178-0.672-0.283-1.361-0.334-2.076   c-1.078-0.482-3.229-1.473-3.229-1.473l-0.863-2.508l0.094-0.414l2.758-6.008l2.924-0.768c0,0,1.854,0.846,2.777,1.277   c0.566-0.465,1.182-0.879,1.822-1.242c-0.086-1.121-0.268-3.359-0.268-3.359l2.131-2.139l6.592-0.525l2.131,2.129   c0,0,0.139,1.697,0.205,2.551c0.863,0.234,1.672,0.543,2.455,0.922c0.705-0.611,2.139-1.844,2.139-1.844h3.025l4.311,5.023v3.018   c0,0-1.752,1.498-2.621,2.25c0.129,0.611,0.197,1.229,0.225,1.869c1.102,0.637,3.309,1.914,3.309,1.914l0.758,2.922   L124.391,121.645z"
       id="path121" /></g><g
     id="Layer_9"
     display="none"><g
       display="inline"
       id="g124"><circle
         fill="#FFFFFF"
         cx="101.529"
         cy="100.947"
         r="77.344"
         id="circle126" /><circle
         fill="#282828"
         cx="100"
         cy="100"
         r="100"
         id="circle128" /><circle
         fill="none"
         stroke="#FFFFFF"
         stroke-width="4"
         stroke-miterlimit="10"
         cx="99.75"
         cy="99.916"
         r="87"
         id="circle130" /><g
         id="g132"><rect
           x="69.68"
           y="114.627"
           fill="#FFFFFF"
           width="41.482"
           height="4.85"
           id="rect134" /><rect
           x="69.68"
           y="102.348"
           fill="#FFFFFF"
           width="51.182"
           height="4.85"
           id="rect136" /><rect
           x="69.68"
           y="128.809"
           fill="#FFFFFF"
           width="25.594"
           height="4.848"
           id="rect138" /><rect
           x="69.68"
           y="89.42"
           fill="#FFFFFF"
           width="41.482"
           height="4.852"
           id="rect140" /><rect
           x="69.68"
           y="65.176"
           fill="#FFFFFF"
           width="30.641"
           height="16.697"
           id="rect142" /><path
           fill="#73C6DC"
           d="M117.406,124.471c-7.471,0-13.541,6.059-13.541,13.561c0,7.467,6.07,13.529,13.541,13.529     c7.486,0,13.557-6.062,13.557-13.529C130.963,130.537,124.893,124.471,117.406,124.471z"
           id="path144" /><polygon
           fill="#73C6DC"
           points="137.234,142.744 117.418,158.398 128.393,172.277 133.615,158.529 148.205,156.623    "
           id="polygon146" /><polygon
           fill="#73C6DC"
           points="82.574,148.992 96.324,154.221 98.225,168.805 112.105,157.832 96.449,138.014    "
           id="polygon148" /><path
           fill="#FFFFFF"
           d="M139.82,58.83l-22.264-20.746v-0.168H53.75v122.391h38.596l-0.42-3.234l-7.078-2.785H59.766V43.93h51.756     l-0.105,21.012h22.344v74.857l4.1-2.906l1.91,2.383V58.928h-0.045L139.82,58.83z M117.457,58.928l0.062-12.66l13.584,12.66     H117.457z"
           id="path150" /></g></g></g><g
     id="Layer_10"
     display="none"><g
       display="inline"
       id="g153"><circle
         fill="#FFFFFF"
         cx="101.779"
         cy="101.031"
         r="77.344"
         id="circle155" /><circle
         fill="#282828"
         cx="100"
         cy="100"
         r="100"
         id="circle157" /><circle
         fill="none"
         stroke="#FFFFFF"
         stroke-width="4"
         stroke-miterlimit="10"
         cx="100"
         cy="100"
         r="87"
         id="circle159" /><g
         id="g161"><path
           fill="#FFFFFF"
           d="M137.389,112.469c-1.221,3.021-4.121,4.986-7.385,4.986c-3.283,0-6.186-1.965-7.426-5.004     c-3.102-7.607-7.805-12.791-12.369-17.795c-1.141-1.262-2.281-2.521-3.402-3.82c-0.059,0.018-0.1,0.037-0.16,0.057     c-4.441,1.342-7.865,7.229-5.805,12.01c1.402,3.283,11.229,2.664,10.389,9.729c-0.701,5.781,6.865,7.307,9.547,7.023     c2.682-0.32,6.805,4.404,4.723,6.486c-2.061,2.082-5.963,2.162-5.363,7.525c0.16,1.561,4.885,1.359,4.885,3.723     c0,2.383-2.443,5.084-0.562,7.824c0.402,0.602,0.822,1.062,1.262,1.424c-9.047,8.322-21.113,13.426-34.346,13.426     c-27.959,0-50.696-22.732-50.696-50.693c0-8.486,2.103-16.492,5.805-23.537c-0.02,9.107,4.844,16.67,7.124,18.953     c7.446,7.426,18.234,5.082,19.615,11.309c1.4,6.203-7.405,6.223-6.824,10.969c0.6,4.762,12.068,6.023,9.506,10.406     c-3.382,5.824,2.282,6.244,0.641,13.43c-0.88,3.924,4.784,4.684,6.885,1.701c1.602-2.281,1.281-5.084,4.503-8.508     c3.943-4.201,13.089-4.881,12.069-11.826c-1.741-11.527-12.95-13.33-17.834-16.033c-5.543-3.041-4.182-10.346-5.382-13.83     c-1.683-4.941-7.387,1.383-10.429-1.5c-5.004-4.723,0.9-11.408,5.104-11.27c8.867,0.281,11.588,8.908,14.851,8.605     c3.183-0.279,5.245-4.721,5.805-7.082c1.181-5.145-2.002-2.844-3.282-5.523c-1.722-3.584,6.044-7.006,9.046-9.648     c0.461-0.402,0.802-0.781,0.981-1.141c0.9-1.762-0.28-3.102-2.281-4.324c-4.003-2.422-11.309-4.342-11.648-8.125     c-0.2-2.322,4.243-3.441,9.307-3.645c0.84,0.043,1.661,0.123,2.502,0.203c0.42-2.383,1.101-4.727,2.021-6.967     c-2.421-0.318-4.884-0.479-7.386-0.479c-31.902,0-57.861,25.957-57.861,57.861s25.959,57.861,57.861,57.861     c31.904,0,57.865-25.959,57.865-57.861c0-4.324-0.482-8.547-1.402-12.592C143.914,101.18,140.072,105.926,137.389,112.469z"
           id="path163" /><path
           fill="#73C6DC"
           d="M102.611,70.305c2.895,16.412,18.027,21.465,25.537,39.889c0.678,1.66,3.014,1.668,3.689,0.008     c8.324-20.434,26.027-24.422,26.027-45.684c0-16.285-13.973-29.312-30.584-27.74C110.947,38.32,99.76,54.148,102.611,70.305z      M129.994,49.799c8.129,0,14.719,6.592,14.719,14.719s-6.59,14.717-14.719,14.717s-14.717-6.59-14.717-14.717     S121.865,49.799,129.994,49.799z"
           id="path165" /></g></g></g><g
     id="Layer_11"
     display="none"><circle
       display="inline"
       fill="#FFFFFF"
       cx="101.779"
       cy="101.031"
       r="77.344"
       id="circle168" /><circle
       display="inline"
       fill="#282828"
       cx="100"
       cy="100"
       r="100"
       id="circle170" /><circle
       display="inline"
       fill="none"
       stroke="#FFFFFF"
       stroke-width="4"
       stroke-miterlimit="10"
       cx="100"
       cy="100"
       r="87"
       id="circle172" /><path
       display="inline"
       fill="#73C6DC"
       d="M115.127,139.572l8.559-6.053l-3.062-7.309l-10.316,1.855   c-0.732-0.855-1.529-1.666-2.406-2.4l1.771-10.316l-7.336-3.004l-5.973,8.6c-1.141-0.092-2.275-0.076-3.398,0.021l-6.052-8.557   l-7.312,3.062l1.859,10.316c-0.858,0.732-1.666,1.529-2.401,2.406l-10.318-1.77l-3.002,7.332l8.598,5.973   c-0.092,1.143-0.075,2.277,0.023,3.4l-8.558,6.053l3.062,7.311l10.317-1.861c0.731,0.859,1.528,1.668,2.405,2.404l-1.771,10.316   l7.335,3.002l5.974-8.596c1.141,0.09,2.275,0.074,3.398-0.025l6.051,8.559l7.311-3.062l-1.857-10.316   c0.857-0.73,1.668-1.529,2.402-2.406l10.316,1.77l3.002-7.334l-8.598-5.975C115.242,141.83,115.227,140.695,115.127,139.572z    M103.91,145.104c-2.071,5.064-7.857,7.488-12.922,5.414c-5.062-2.072-7.486-7.857-5.415-12.922   c2.073-5.064,7.859-7.486,12.923-5.414C103.559,134.254,105.982,140.039,103.91,145.104z"
       id="path174" /><path
       display="inline"
       fill="#FFFFFF"
       d="M158.617,85.842l9.32-5.49l-2.527-7.791l-10.77,1.027   c-0.689-0.963-1.461-1.846-2.289-2.668l2.713-10.486l-7.299-3.725l-6.898,8.354c-1.15-0.189-2.32-0.295-3.502-0.289l-5.49-9.324   l-7.793,2.529l1.025,10.771c-0.959,0.688-1.844,1.459-2.666,2.289l-10.488-2.715l-3.721,7.299l8.35,6.9   c-0.188,1.148-0.293,2.318-0.285,3.5l-9.322,5.49l2.525,7.793l10.773-1.027c0.689,0.961,1.457,1.846,2.289,2.666l-2.715,10.488   l7.297,3.723l6.902-8.352c1.148,0.188,2.316,0.291,3.5,0.287l5.492,9.322l7.791-2.525l-1.025-10.771   c0.961-0.689,1.844-1.461,2.664-2.289l10.488,2.713l3.725-7.297l-8.354-6.9C158.518,88.193,158.625,87.025,158.617,85.842z    M140.615,95.672c-5.379,1.744-11.154-1.203-12.896-6.58c-1.746-5.379,1.201-11.154,6.58-12.9   c5.377-1.744,11.154,1.205,12.898,6.582C148.941,88.152,145.996,93.928,140.615,95.672z"
       id="path176" /><path
       display="inline"
       fill="#FFFFFF"
       d="M62.162,105.719l2.729,12.285h9.528l2.73-12.287c1.31-0.42,2.566-0.953,3.771-1.576   l10.633,6.766l6.739-6.738l-6.766-10.633c0.623-1.205,1.155-2.459,1.574-3.771l12.286-2.727v-9.529L93.1,74.777   c-0.419-1.311-0.953-2.566-1.576-3.77l6.766-10.635l-6.737-6.738L80.92,60.402c-1.206-0.623-2.463-1.158-3.772-1.576l-2.729-12.285   h-9.528l-2.729,12.287c-1.31,0.418-2.566,0.953-3.771,1.574l-10.632-6.766l-6.738,6.738l6.764,10.633   c-0.621,1.205-1.155,2.461-1.574,3.771l-12.285,2.729v9.529l12.287,2.729c0.42,1.311,0.952,2.566,1.575,3.771l-6.766,10.633   l6.739,6.736l10.632-6.764C59.597,104.766,60.853,105.299,62.162,105.719z M69.656,70.361c6.576,0,11.909,5.332,11.909,11.91   s-5.333,11.91-11.909,11.91c-6.578,0-11.911-5.332-11.911-11.91S63.078,70.361,69.656,70.361z"
       id="path178" /></g><g
     id="Layer_12"
     display="none"><circle
       display="inline"
       fill="#FFFFFF"
       cx="101.779"
       cy="101.031"
       r="77.344"
       id="circle181" /><circle
       display="inline"
       fill="#282828"
       cx="100"
       cy="100"
       r="100"
       id="circle183" /><circle
       display="inline"
       fill="none"
       stroke="#FFFFFF"
       stroke-width="4"
       stroke-miterlimit="10"
       cx="100"
       cy="100"
       r="87"
       id="circle185" /><path
       display="inline"
       fill="#FFFFFF"
       d="M120.271,59.629v-2.621c0-2.969-2.41-5.383-5.379-5.383h-8.834   c0.736-1.326,1.15-2.975,1.15-4.645c0-5.5-4.477-9.984-9.973-9.984S87.27,41.48,87.27,46.98c0,1.67,0.418,3.318,1.154,4.645h-7.245   c-2.973,0-5.381,2.414-5.381,5.383v2.621H63.794c-4.508,0-8.16,3.652-8.16,8.162v80.467c0,4.508,3.652,8.16,8.16,8.16h68.47   c4.508,0,8.164-3.652,8.164-8.16V67.791c0-4.51-3.656-8.162-8.164-8.162H120.271z M91.3,46.98c0-3.273,2.661-5.953,5.933-5.953   c3.279,0,5.941,2.68,5.941,5.953c0,1.879-0.871,3.488-2.238,4.654h-7.399C92.173,50.463,91.3,48.859,91.3,46.98z M132.266,143.398   c0,2.773-2.246,5.02-5.018,5.02H68.813c-2.771,0-5.02-2.246-5.02-5.02v-70.59c0-2.771,2.248-5.018,5.02-5.018h6.976   c0,2.209,1.791,3.998,3.996,3.998h36.486c2.209,0,3.996-1.789,3.996-3.998h6.977c2.768,0,5.02,2.248,5.02,5.018v70.59H132.266z"
       id="path187" /><circle
       display="inline"
       fill="#73C6DC"
       cx="78.845"
       cy="87.913"
       r="7.093"
       id="circle189" /><path
       display="inline"
       fill="#73C6DC"
       d="M119.195,83.953H95.008c-2.227,0-4.033,1.773-4.033,3.998s1.804,4.002,4.033,4.002h24.191   c2.229,0,4.029-1.777,4.029-4.002C123.225,85.727,121.42,83.953,119.195,83.953z"
       id="path191" /><circle
       display="inline"
       fill="#73C6DC"
       cx="78.845"
       cy="108.028"
       r="7.093"
       id="circle193" /><path
       display="inline"
       fill="#73C6DC"
       d="M119.195,103.943H95.008c-2.227,0-4.033,1.857-4.033,4.082s1.804,4.076,4.033,4.076   h24.191c2.229,0,4.029-1.852,4.029-4.076C123.225,105.801,121.42,103.943,119.195,103.943z"
       id="path195" /><circle
       display="inline"
       fill="#73C6DC"
       cx="78.845"
       cy="129.53"
       r="7.091"
       id="circle197" /><path
       display="inline"
       fill="#73C6DC"
       d="M119.195,125.432H95.008c-2.227,0-4.033,1.857-4.033,4.082s1.804,4.076,4.033,4.076   h24.191c2.229,0,4.029-1.852,4.029-4.076C123.225,127.289,121.42,125.432,119.195,125.432z"
       id="path199" /></g><g
     id="Layer_13"
     display="none"><circle
       display="inline"
       fill="#282828"
       cx="100"
       cy="100"
       r="100"
       id="circle202" /><circle
       display="inline"
       fill="none"
       stroke="#FFFFFF"
       stroke-width="4"
       stroke-miterlimit="10"
       cx="100"
       cy="100"
       r="87"
       id="circle204" /><path
       display="inline"
       fill="#73C6DC"
       d="M106.619,99.641h30c3.314,0,6-2.684,6-6v-30c0-3.312-2.686-6-6-6h-30   c-3.314,0-6,2.688-6,6v30C100.619,96.958,103.307,99.641,106.619,99.641z M111.166,76.231h8.041v-8.039   c0-1.336,1.082-2.414,2.412-2.414c1.334,0,2.414,1.082,2.414,2.414v8.039h8.039c1.332,0,2.414,1.078,2.414,2.41   s-1.082,2.414-2.414,2.414h-8.039v8.039c0,1.332-1.08,2.41-2.414,2.41c-1.33,0-2.412-1.082-2.412-2.41v-8.039h-8.041   c-1.332,0-2.41-1.082-2.41-2.414S109.834,76.231,111.166,76.231z"
       id="path206" /><path
       display="inline"
       fill="#73C6DC"
       d="M57.953,148.613h30c3.314,0,6-2.688,6-6v-30c0-3.316-2.686-6-6-6h-30   c-3.314,0-6,2.684-6,6v30C51.953,145.922,54.639,148.613,57.953,148.613z M63.857,118.516c0.943-0.945,2.469-0.945,3.41,0   l5.684,5.688l5.686-5.688c0.943-0.941,2.471-0.941,3.412,0c0.941,0.945,0.941,2.469,0,3.41l-5.686,5.688l5.686,5.684   c0.941,0.941,0.941,2.469-0.002,3.41c-0.941,0.941-2.467,0.945-3.41,0l-5.686-5.684l-5.684,5.684c-0.941,0.941-2.469,0.941-3.41,0   s-0.941-2.469,0-3.41l5.684-5.684l-5.684-5.688C62.912,120.984,62.916,119.457,63.857,118.516z"
       id="path208" /><path
       display="inline"
       fill="#FFFFFF"
       d="M57.953,99.641h30c3.314,0,6-2.684,6-6v-30c0-3.312-2.686-6-6-6h-30c-3.314,0-6,2.688-6,6   v30C51.953,96.958,54.639,99.641,57.953,99.641z M63.953,76.641h18c1.104,0,2,0.898,2,2c0,1.105-0.896,2-2,2h-18   c-1.104,0-2-0.895-2-2C61.953,77.54,62.85,76.641,63.953,76.641z"
       id="path210" /><path
       display="inline"
       fill="#FFFFFF"
       d="M106.619,148.613h30c3.314,0,6-2.688,6-6v-30c0-3.316-2.686-6-6-6h-30   c-3.312,0-6,2.684-6,6v30C100.619,145.922,103.307,148.613,106.619,148.613z M121.619,140.125c-1.656,0-3-1.34-3-3   c0-1.656,1.344-3,3-3c1.658,0,3,1.344,3,3C124.619,138.785,123.279,140.125,121.619,140.125z M121.619,118.125c1.658,0,3,1.344,3,3   c0,1.66-1.342,3-3,3c-1.656,0-3-1.34-3-3C118.619,119.469,119.963,118.125,121.619,118.125z M112.619,127.375h18   c1.104,0,2,0.898,2,2c0,1.105-0.896,2-2,2h-18c-1.105,0-2-0.895-2-2C110.619,128.273,111.514,127.375,112.619,127.375z"
       id="path212" /></g><g
     id="Layer_14"
     display="none"><circle
       display="inline"
       fill="#FFFFFF"
       cx="100.631"
       cy="100.648"
       r="77.344"
       id="circle215" /><circle
       display="inline"
       fill="#282828"
       cx="100"
       cy="100"
       r="100"
       id="circle217" /><circle
       display="inline"
       fill="none"
       stroke="#FFFFFF"
       stroke-width="4"
       stroke-miterlimit="10"
       cx="98.852"
       cy="99.617"
       r="87"
       id="circle219" /><path
       display="inline"
       fill="#FFFFFF"
       d="M111.639,125.814l33.227,0.027c0.006-6.242-3.436-11.676-8.525-14.52l0.012-11.873   l4.316,0.004c0.004-2.574-5.543-4.666-12.389-4.672s-12.395,2.076-12.396,4.652l4.318,0.004l-0.01,11.873   C115.094,114.143,111.643,119.572,111.639,125.814z"
       id="path221" /><polygon
       display="inline"
       fill="#FFFFFF"
       points="130.18,156.549 130.762,155.768 130.762,154.506 130.77,146.135 130.777,138.705    130.783,132.236 130.785,128.959 125.711,128.955 125.709,130.939 125.703,137.172 125.701,140.266 125.693,149.561    125.688,155.764 125.852,155.986 128.221,159.174  "
       id="polygon223" /><path
       display="inline"
       fill="#73C6DC"
       d="M82.125,113.008c-19.672,14.367-19.672,30.857,38.186,43.586v-16.201   c0,0-48.217-8.988-30.471-24.551c17.742-15.562-20.828-26.748-20.828-26.748S94.805,103.748,82.125,113.008z"
       id="path225" /><path
       display="inline"
       fill="#FFFFFF"
       d="M54.309,62.852l24.311,0.02c0.004-4.565-2.514-8.544-6.236-10.624l0.008-8.686   l3.158,0.002c0.002-1.884-4.057-3.414-9.064-3.418c-5.01-0.002-9.07,1.52-9.07,3.403l3.156,0.002l-0.008,8.687   C56.836,54.313,54.312,58.285,54.309,62.852z"
       id="path227" /><polygon
       display="inline"
       fill="#FFFFFF"
       points="64.598,71.162 64.598,73.428 64.59,80.229 64.586,84.766 64.707,84.928    66.441,87.262 67.875,85.342 68.301,84.77 68.301,83.846 68.307,77.721 68.311,72.285 68.316,67.551 68.316,65.155 64.605,65.151    64.602,66.604  "
       id="polygon229" /></g><g
     id="Layer_15"
     display="none"><circle
       display="inline"
       fill="#FFFFFF"
       cx="100.631"
       cy="100.648"
       r="77.344"
       id="circle232" /><circle
       display="inline"
       fill="#282828"
       cx="100"
       cy="100"
       r="100"
       id="circle234" /><circle
       display="inline"
       fill="none"
       stroke="#FFFFFF"
       stroke-width="4"
       stroke-miterlimit="10"
       cx="98.852"
       cy="99.617"
       r="87"
       id="circle236" /><path
       display="inline"
       fill="#73C6DC"
       d="M53.043,98.354c8.623,0,15.596-6.973,15.596-15.596c0-8.605-6.973-15.596-15.596-15.596   c-8.607,0-15.598,6.99-15.598,15.596C37.445,91.381,44.436,98.354,53.043,98.354z"
       id="path238" /><path
       display="inline"
       fill="#FFFFFF"
       d="M92.061,98.086c0.008,1.672,1.383,3.898,2.219,4.732c0.834,0.834,2.234,0.834,3.346,0.834   c1.115,0,2.512,0,3.348-0.834s2.215-3.061,2.221-4.732c0.008-1.945-3.398-2.227-5.568-2.227   C95.457,95.859,92.055,96.141,92.061,98.086z"
       id="path240" /><path
       display="inline"
       fill="#FFFFFF"
       d="M97.629,91.129c9.988,0,18.09-8.098,18.09-18.09c0-9.99-8.102-18.09-18.094-18.09   c-9.988,0-18.086,8.1-18.086,18.09C79.539,83.031,87.637,91.129,97.629,91.129z"
       id="path242" /><path
       display="inline"
       fill="#73C6DC"
       d="M140.598,98.354c8.607,0,15.598-6.973,15.598-15.596c0-8.605-6.99-15.596-15.598-15.596   c-8.623,0-15.596,6.99-15.596,15.596C125.002,91.381,131.975,98.354,140.598,98.354z"
       id="path244" /><path
       display="inline"
       fill="#73C6DC"
       d="M147.52,103.559h-11.004c0.717,1.24,1.26,2.602,1.582,4.031l4.576,21.344h22.178v-8.045   C164.852,111.312,157.096,103.559,147.52,103.559z"
       id="path246" /><path
       display="inline"
       fill="#73C6DC"
       d="M58.723,103.559H46.121c-9.576,0-17.332,7.754-17.332,17.33v8.045h23.777l4.574-21.311   C57.465,106.178,58.01,104.799,58.723,103.559z"
       id="path248" /><path
       display="inline"
       fill="#FFFFFF"
       d="M125.539,99.758l-16.084-2.367l-7.965,18.277l-1.031-9.01   c-0.027-0.283-0.268-0.502-0.553-0.502h-4.553c-0.289,0-0.527,0.223-0.555,0.51l-0.934,9.23l-8.066-18.506l-16.084,2.367   c-4.561,0.67-8.236,4.082-9.242,8.582l-4.422,20.594h83.152l-4.42-20.594C133.777,103.84,130.1,100.428,125.539,99.758z"
       id="path250" /></g><g
     id="Layer_16"
     display="none"><g
       display="inline"
       id="g253"><circle
         fill="#282828"
         cx="100"
         cy="100"
         r="100"
         id="circle255" /><circle
         fill="none"
         stroke="#FFFFFF"
         stroke-width="4"
         stroke-miterlimit="10"
         cx="100"
         cy="100"
         r="87"
         id="circle257" /><rect
         x="35.924"
         y="86.166"
         fill="#FFFFFF"
         width="14.416"
         height="5.188"
         id="rect259" /><path
         fill="#FFFFFF"
         d="M70.234,104.617c0,0-4.902-1.283-4.902-3.799c0-2.398,3.172-3.41,3.172-8.309    c0-3.982-1.209-6.344-5.189-6.344c-3.982,0-5.189,2.361-5.189,6.344c0,4.898,3.17,5.91,3.17,8.309c0,2.516-4.9,3.799-4.9,3.799    c-0.289,0-0.289,4.037-0.289,4.037h14.416C70.521,108.654,70.521,104.617,70.234,104.617z"
         id="path261" /><rect
         x="35.924"
         y="94.814"
         fill="#FFFFFF"
         width="14.416"
         height="5.191"
         id="rect263" /><path
         fill="#73C6DC"
         d="M76.289,74.344H30.156c-3.17,0-5.766,2.596-5.766,5.768v34.598c0,3.172,2.596,5.766,5.766,5.766h46.133    c3.17,0,5.766-2.594,5.766-5.766V80.111C82.055,76.939,79.459,74.344,76.289,74.344z M76.289,114.709H30.156V80.111h46.133    V114.709z"
         id="path265" /><rect
         x="35.924"
         y="103.465"
         fill="#FFFFFF"
         width="14.416"
         height="5.189"
         id="rect267" /><rect
         x="112.033"
         y="58.564"
         fill="#FFFFFF"
         width="14.416"
         height="5.191"
         id="rect269" /><path
         fill="#FFFFFF"
         d="M146.344,77.018c0,0-4.902-1.281-4.902-3.799c0-2.4,3.172-3.408,3.172-8.311    c0-3.98-1.209-6.344-5.189-6.344c-3.982,0-5.189,2.363-5.189,6.344c0,4.902,3.17,5.91,3.17,8.311c0,2.518-4.9,3.799-4.9,3.799    c-0.289,0-0.289,4.037-0.289,4.037h14.416C146.631,81.055,146.631,77.018,146.344,77.018z"
         id="path271" /><rect
         x="112.033"
         y="67.215"
         fill="#FFFFFF"
         width="14.416"
         height="5.189"
         id="rect273" /><path
         fill="#FFFFFF"
         d="M152.398,46.744h-46.133c-3.17,0-5.766,2.594-5.766,5.766v34.6c0,3.172,2.596,5.768,5.766,5.768h46.133    c3.17,0,5.766-2.596,5.766-5.768v-34.6C158.164,49.338,155.568,46.744,152.398,46.744z M152.398,87.109h-46.133v-34.6h46.133    V87.109z"
         id="path275" /><rect
         x="112.033"
         y="75.865"
         fill="#FFFFFF"
         width="14.416"
         height="5.189"
         id="rect277" /><rect
         x="112.033"
         y="114.201"
         fill="#FFFFFF"
         width="14.416"
         height="5.189"
         id="rect279" /><path
         fill="#FFFFFF"
         d="M146.344,132.654c0,0-4.902-1.283-4.902-3.801c0-2.398,3.172-3.408,3.172-8.309    c0-3.98-1.209-6.344-5.189-6.344c-3.982,0-5.189,2.363-5.189,6.344c0,4.9,3.17,5.91,3.17,8.309c0,2.518-4.9,3.801-4.9,3.801    c-0.289,0-0.289,4.035-0.289,4.035h14.416C146.631,136.689,146.631,132.654,146.344,132.654z"
         id="path281" /><rect
         x="112.033"
         y="122.85"
         fill="#FFFFFF"
         width="14.416"
         height="5.191"
         id="rect283" /><path
         fill="#FFFFFF"
         d="M152.398,102.381h-46.133c-3.17,0-5.766,2.594-5.766,5.766v34.598c0,3.172,2.596,5.768,5.766,5.768h46.133    c3.17,0,5.766-2.596,5.766-5.768v-34.598C158.164,104.975,155.568,102.381,152.398,102.381z M152.398,142.744h-46.133v-34.598    h46.133V142.744z"
         id="path285" /><rect
         x="112.033"
         y="131.502"
         fill="#FFFFFF"
         width="14.416"
         height="5.188"
         id="rect287" /><line
         fill="none"
         stroke="#73C6DC"
         stroke-width="4"
         stroke-miterlimit="10"
         x1="79.537"
         y1="96.096"
         x2="91.18"
         y2="96.096"
         id="line289" /><line
         fill="none"
         stroke="#73C6DC"
         stroke-width="3.4417"
         stroke-miterlimit="10"
         x1="89.932"
         y1="69.248"
         x2="98.551"
         y2="69.248"
         id="line291" /><line
         fill="none"
         stroke="#73C6DC"
         stroke-width="3.634"
         stroke-miterlimit="10"
         x1="88.941"
         y1="126.209"
         x2="98.551"
         y2="126.209"
         id="line293" /><line
         fill="none"
         stroke="#73C6DC"
         stroke-width="4.542"
         stroke-miterlimit="10"
         x1="91.178"
         y1="67.535"
         x2="91.178"
         y2="127.043"
         id="line295" /></g></g><g
     id="Layer_17"
     display="none"><g
       display="inline"
       id="g298"><circle
         fill="#282828"
         cx="100"
         cy="100"
         r="100"
         id="circle300" /><circle
         fill="none"
         stroke="#FFFFFF"
         stroke-width="4"
         stroke-miterlimit="10"
         cx="100"
         cy="100"
         r="87"
         id="circle302" /><path
         fill="#FFFFFF"
         d="M134.182,51.467h-13.348v-1.629c0-1.936-1.576-3.51-3.514-3.51h-9.195v-6.352    c0-1.938-1.574-3.512-3.51-3.512H92.242c-1.934,0-3.508,1.574-3.508,3.512v6.352h-9.199c-1.934,0-3.51,1.574-3.51,3.51v1.627    H62.68c-2.762,0-5.008,2.246-5.008,5.008v97.275c0,2.76,2.246,5.004,5.008,5.004h71.504c2.76,0,5.006-2.244,5.006-5.004V56.475    C139.188,53.711,136.941,51.467,134.182,51.467z M93.457,40.727c0-0.205,0.168-0.369,0.375-0.369h9.195    c0.203,0,0.373,0.164,0.373,0.369v4.719h-9.939v-4.719H93.457z M132.752,151.363c0,0.389-0.314,0.701-0.701,0.701h-67.24    c-0.387,0-0.703-0.312-0.703-0.701V59.574c0-0.391,0.316-0.703,0.703-0.703h11.652v5.354c0,1.896,1.543,3.439,3.441,3.439h37.045    c1.898,0,3.443-1.543,3.443-3.439v-5.354h11.654c0.387,0,0.703,0.312,0.703,0.703v91.789H132.752z"
         id="path304" /><path
         fill="#73C6DC"
         d="M97.73,122.689L97.73,122.689c0.004,0,0.012,0,0.018,0c0.002,0,0.006,0,0.012,0c0,0,0.002,0,0.004,0h0.002    c0.006,0,0.01,0,0.01,0c0.008,0,0.012,0,0.02,0l0,0c6.854,0.104,11.02-5.896,11.129-15.787    c0.068-6.859-4.188-10.783-11.115-10.971V95.93c-0.01,0-0.021,0-0.031,0c-0.004,0-0.01,0-0.014,0s-0.01,0-0.014,0    c-0.01,0-0.02,0-0.029,0v0.002c-6.93,0.188-11.186,4.111-11.115,10.971C86.711,116.793,90.877,122.793,97.73,122.689z"
         id="path306" /><path
         fill="#73C6DC"
         d="M113.486,129.035c-0.518-0.865-1.289-1.484-2.16-1.84l-5.877-2.707l-2.826-2.383l-4.854,4.826    l-4.865-4.826l-2.826,2.383l-5.879,2.707c-0.869,0.355-1.641,0.975-2.158,1.84l-8.58,14.344c-0.42,0.703-0.629,1.492-0.633,2.283    h49.873c-0.004-0.791-0.217-1.58-0.635-2.283L113.486,129.035z"
         id="path308" /><path
         fill="#FFFFFF"
         d="M122.395,87.748c0,1.65-1.508,2.986-3.367,2.986H76.793c-1.859,0-3.367-1.336-3.367-2.986l0,0    c0-1.648,1.508-2.984,3.367-2.984h42.234C120.887,84.764,122.395,86.1,122.395,87.748L122.395,87.748z"
         id="path310" /><path
         fill="#FFFFFF"
         d="M122.395,76.564c0,1.65-1.508,2.986-3.367,2.986H76.793c-1.859,0-3.367-1.336-3.367-2.986l0,0    c0-1.648,1.508-2.984,3.367-2.984h42.234C120.887,73.58,122.395,74.916,122.395,76.564L122.395,76.564z"
         id="path312" /></g></g><g
     id="Layer_18"
     display="none"><circle
       display="inline"
       fill="#FFFFFF"
       cx="100.631"
       cy="100.648"
       r="77.344"
       id="circle315" /><circle
       display="inline"
       fill="#282828"
       cx="100"
       cy="100"
       r="100"
       id="circle317" /><circle
       display="inline"
       fill="none"
       stroke="#FFFFFF"
       stroke-width="4"
       stroke-miterlimit="10"
       cx="98.852"
       cy="99.617"
       r="87"
       id="circle319" /><path
       display="inline"
       fill="#FFFFFF"
       d="M46.145,131.135c0,2.02,1.646,3.67,3.672,3.67h6.447c2.025,0,3.668-1.65,3.668-3.67   v-21.939L48.77,120.4l-2.625-2.674V131.135z"
       id="path321" /><path
       display="inline"
       fill="#FFFFFF"
       d="M69.277,131.277c0,1.951,1.576,3.527,3.525,3.527h6.738c1.949,0,3.521-1.576,3.521-3.527   v-26.727l-9.197-9.24l-4.588,4.643V131.277z"
       id="path323" /><path
       display="inline"
       fill="#FFFFFF"
       d="M102.678,134.801c1.943,0,3.52-1.578,3.52-3.523V95.371l-14.031,13.873v22.033   c0,1.949,1.576,3.523,3.525,3.523H102.678L102.678,134.801z"
       id="path325" /><path
       display="inline"
       fill="#FFFFFF"
       d="M115.305,86.125v45.152c0,1.951,1.578,3.527,3.523,3.527h6.98   c1.953,0,3.527-1.576,3.527-3.527V89.838l-8.855-8.807L115.305,86.125z"
       id="path327" /><path
       display="inline"
       fill="#73C6DC"
       d="M70.332,91.436c1.924-1.924,5.035-1.924,6.961,0l8.299,8.299   c1.174,1.174,2.764,1.83,4.426,1.83c1.656,0,3.25-0.656,4.424-1.83l26.064-26.066l4.24,4.238c0.648,0.65,1.621,0.844,2.461,0.504   c0.846-0.346,1.406-1.16,1.422-2.074l0.213-14.76c0.02-1.072-0.395-2.105-1.148-2.865c-0.75-0.764-1.775-1.191-2.836-1.191h-15.01   c-0.924,0-1.746,0.551-2.102,1.4c-0.354,0.85-0.156,1.828,0.504,2.475l3.617,3.623L93.512,83.377   c-0.924,0.92-2.174,1.443-3.48,1.443c-1.305,0-2.555-0.518-3.48-1.441l-9.242-9.244c-1.922-1.92-5.031-1.92-6.961,0l-26.59,26.578   c-0.975,0.975-1.525,2.299-1.525,3.678c0,1.381,0.547,2.701,1.525,3.68l1.496,1.506c1.926,1.92,5.037,1.92,6.961,0L70.332,91.436z"
       id="path329" /><path
       display="inline"
       fill="#FFFFFF"
       d="M141.268,43c-2.869,0-5.289,2.328-5.289,5.199v93.736H42.051   c-2.875,0-5.199,2.295-5.199,5.166c0,2.877,2.324,5.164,5.199,5.164h99.25c2.871,0,5.256-2.328,5.256-5.197V48.199   C146.557,45.328,144.139,43,141.268,43z"
       id="path331" /></g><g
     id="Layer_19"
     display="none"><circle
       display="inline"
       fill="#282828"
       cx="100"
       cy="100"
       r="100"
       id="circle334" /><circle
       display="inline"
       fill="none"
       stroke="#FFFFFF"
       stroke-width="4"
       stroke-miterlimit="10"
       cx="100"
       cy="100"
       r="87"
       id="circle336" /><g
       display="inline"
       id="g338"><path
         fill="#FFFFFF"
         d="M134.916,143.131l0.838-10.025L122.65,97.471h7.266v5.75h3.547V88.18h-3.547v5.752h-8.566l-8.494-23.09    c0.908-2.041,1.426-4.287,1.426-6.668c0-8.387-6.248-15.219-14.314-16.318V28.23h-4.443v19.625    c-8.072,1.09-14.32,7.932-14.32,16.318c0,3.355,1.008,6.467,2.732,9.076l-7.607,20.678h-8.92v-5.754h-3.551v15.041h3.551v-5.748    h7.619l-13.104,35.635l0.828,10.023l-4.875,21.723l10.963-19.213l7.885-7.385l22.109-56.592l22.113,56.592l7.881,7.385    l10.963,19.213L134.916,143.131z M98,75.641c-6.309,0-11.436-5.111-11.436-11.439c0-6.307,5.127-11.422,11.436-11.422    c6.314,0,11.432,5.115,11.432,11.422C109.432,70.529,104.314,75.641,98,75.641z"
         id="path340" /></g><g
       display="inline"
       id="g342"><path
         fill="#73C6DC"
         d="M98,58.738c3.111,0,5.629,2.518,5.629,5.627c0,3.111-2.518,5.635-5.629,5.635    c-3.109,0-5.629-2.523-5.629-5.635C92.371,61.256,94.891,58.738,98,58.738z"
         id="path344" /></g></g><g
     id="Layer_20"
     display="none"><circle
       display="inline"
       fill="#282828"
       cx="100"
       cy="100"
       r="100"
       id="circle347" /><circle
       display="inline"
       fill="none"
       stroke="#FFFFFF"
       stroke-width="4"
       stroke-miterlimit="10"
       cx="100"
       cy="100"
       r="87"
       id="circle349" /><g
       display="inline"
       id="g351"><path
         fill="#FFFFFF"
         d="M134.916,143.131l0.838-10.025L122.65,97.471h7.266v5.75h3.547V88.18h-3.547v5.752h-8.566l-8.494-23.09    c0.908-2.041,1.426-4.287,1.426-6.668c0-8.387-6.248-15.219-14.314-16.318V28.23h-4.443v19.625    c-8.072,1.09-14.32,7.932-14.32,16.318c0,3.355,1.008,6.467,2.732,9.076l-7.607,20.678h-8.92v-5.754h-3.551v15.041h3.551v-5.748    h7.619l-13.104,35.635l0.828,10.023l-4.875,21.723l10.963-19.213l7.885-7.385l22.109-56.592l22.113,56.592l7.881,7.385    l10.963,19.213L134.916,143.131z M98,75.641c-6.309,0-11.436-5.111-11.436-11.439c0-6.307,5.127-11.422,11.436-11.422    c6.314,0,11.432,5.115,11.432,11.422C109.432,70.529,104.314,75.641,98,75.641z"
         id="path353" /></g><g
       display="inline"
       id="g355"><path
         fill="#FED915"
         d="M98,58.738c3.111,0,5.629,2.518,5.629,5.627c0,3.111-2.518,5.635-5.629,5.635    c-3.109,0-5.629-2.523-5.629-5.635C92.371,61.256,94.891,58.738,98,58.738z"
         id="path357" /></g></g><g
     id="Layer_21"
     display="none"><circle
       display="inline"
       fill="#282828"
       cx="100"
       cy="100"
       r="100"
       id="circle360" /><circle
       display="inline"
       fill="none"
       stroke="#FFFFFF"
       stroke-width="4"
       stroke-miterlimit="10"
       cx="100"
       cy="100"
       r="87"
       id="circle362" /><path
       display="inline"
       fill="#FFFFFF"
       d="M57.75,140.906V67.434h64.287v43.215c2.354-0.609,4.807-0.969,7.348-0.969   c0.621,0,1.227,0.055,1.838,0.094V54.576c0-4.058-3.291-7.347-9.186-7.347h-11.199c0.115,0.577,0.182,1.172,0.182,1.781   c0,5.145-4.098,9.239-9.131,9.239H77.9c-5.033,0-9.127-4.095-9.127-9.128c0-0.649,0.064-1.282,0.189-1.893H54.078   c-2.223,0-5.512,3.289-5.512,7.347v88.166c0,4.059,3.289,7.348,7.348,7.348h46.248c-1.164-2.865-1.871-5.957-2.072-9.184H57.75z"
       id="path364" /><path
       display="inline"
       fill="#FFFFFF"
       d="M105.508,111.516v-1.836c0-1.014-0.822-1.836-1.836-1.836H65.098   c-1.016,0-1.836,0.822-1.836,1.836v1.836c0,1.016,0.82,1.838,1.836,1.838h38.574C104.686,113.354,105.508,112.531,105.508,111.516z   "
       id="path366" /><path
       display="inline"
       fill="#FFFFFF"
       d="M77.9,54.576h23.99c3.012,0,5.453-2.442,5.453-5.455v-0.11   c0-3.013-2.441-5.455-5.453-5.455h-2.83c-1.51,0-2.736-1.225-2.736-2.736v-0.092c0-3.51-2.848-6.355-6.355-6.355H89.82   c-3.51,0-6.354,2.846-6.354,6.355v0.092c0,1.512-1.225,2.736-2.736,2.736H77.9c-3.014,0-5.455,2.442-5.455,5.455v0.11   C72.445,52.135,74.887,54.576,77.9,54.576z M89.895,38.046c1.523,0,2.756,1.233,2.756,2.755s-1.232,2.755-2.756,2.755   c-1.521,0-2.754-1.233-2.754-2.755S88.373,38.046,89.895,38.046z"
       id="path368" /><path
       display="inline"
       fill="#FFFFFF"
       d="M114.691,96.823v-1.837c0-1.015-0.822-1.837-1.836-1.837H65.098   c-1.016,0-1.836,0.822-1.836,1.837v1.837c0,1.015,0.82,1.837,1.836,1.837h47.758C113.869,98.66,114.691,97.838,114.691,96.823z"
       id="path370" /><path
       display="inline"
       fill="#FFFFFF"
       d="M65.098,124.375c-1.016,0-1.836,0.822-1.836,1.836v1.836c0,1.016,0.82,1.84,1.836,1.84   h34.898c1.016,0,1.838-0.824,1.838-1.84v-1.836c0-1.014-0.822-1.836-1.838-1.836H65.098z"
       id="path372" /><path
       display="inline"
       fill="#FFFFFF"
       d="M114.691,78.455c0-1.015-0.822-1.838-1.836-1.838H65.098   c-1.016,0-1.836,0.823-1.836,1.838v1.837c0,1.014,0.82,1.837,1.836,1.837h47.758c1.014,0,1.836-0.823,1.836-1.837V78.455z"
       id="path374" /><path
       display="inline"
       fill="#73C6DC"
       d="M129.385,115.191c-13.188,0-23.877,10.689-23.877,23.879   c0,13.188,10.689,23.877,23.877,23.877c13.189,0,23.879-10.689,23.879-23.877S142.572,115.191,129.385,115.191z M144.988,134.164   l-14.693,16.531c-0.723,0.812-1.732,1.23-2.748,1.23c-0.805,0-1.617-0.262-2.293-0.805l-9.184-7.348   c-1.584-1.266-1.842-3.578-0.574-5.162c1.268-1.586,3.578-1.842,5.164-0.572l6.461,5.166l12.377-13.924   c1.348-1.516,3.668-1.654,5.186-0.305C146.199,130.324,146.336,132.645,144.988,134.164z"
       id="path376" /></g><g
     id="Layer_22"
     display="none"><circle
       display="inline"
       fill="#282828"
       cx="100"
       cy="100"
       r="100"
       id="circle379" /><circle
       display="inline"
       fill="none"
       stroke="#FFFFFF"
       stroke-width="4"
       stroke-miterlimit="10"
       cx="100"
       cy="100"
       r="87"
       id="circle381" /><path
       display="inline"
       fill="#FFFFFF"
       d="M57.75,140.906V67.434h64.287v43.215c2.354-0.609,4.807-0.969,7.348-0.969   c0.621,0,1.227,0.055,1.838,0.094V54.576c0-4.058-3.291-7.347-9.186-7.347h-11.199c0.115,0.577,0.182,1.172,0.182,1.781   c0,5.145-4.098,9.239-9.131,9.239H77.9c-5.033,0-9.127-4.095-9.127-9.128c0-0.649,0.064-1.282,0.189-1.893H54.078   c-2.223,0-5.512,3.289-5.512,7.347v88.166c0,4.059,3.289,7.348,7.348,7.348h46.248c-1.164-2.865-1.871-5.957-2.072-9.184H57.75z"
       id="path383" /><path
       display="inline"
       fill="#FFFFFF"
       d="M105.508,111.516v-1.836c0-1.014-0.822-1.836-1.836-1.836H65.098   c-1.016,0-1.836,0.822-1.836,1.836v1.836c0,1.016,0.82,1.838,1.836,1.838h38.574C104.686,113.354,105.508,112.531,105.508,111.516z   "
       id="path385" /><path
       display="inline"
       fill="#FFFFFF"
       d="M77.9,54.576h23.99c3.012,0,5.453-2.442,5.453-5.455v-0.11   c0-3.013-2.441-5.455-5.453-5.455h-2.83c-1.51,0-2.736-1.225-2.736-2.736v-0.092c0-3.51-2.848-6.355-6.355-6.355H89.82   c-3.51,0-6.354,2.846-6.354,6.355v0.092c0,1.512-1.225,2.736-2.736,2.736H77.9c-3.014,0-5.455,2.442-5.455,5.455v0.11   C72.445,52.135,74.887,54.576,77.9,54.576z M89.895,38.046c1.523,0,2.756,1.233,2.756,2.755s-1.232,2.755-2.756,2.755   c-1.521,0-2.754-1.233-2.754-2.755S88.373,38.046,89.895,38.046z"
       id="path387" /><path
       display="inline"
       fill="#FFFFFF"
       d="M114.691,96.823v-1.837c0-1.015-0.822-1.837-1.836-1.837H65.098   c-1.016,0-1.836,0.822-1.836,1.837v1.837c0,1.015,0.82,1.837,1.836,1.837h47.758C113.869,98.66,114.691,97.838,114.691,96.823z"
       id="path389" /><path
       display="inline"
       fill="#FFFFFF"
       d="M65.098,124.375c-1.016,0-1.836,0.822-1.836,1.836v1.836c0,1.016,0.82,1.84,1.836,1.84   h34.898c1.016,0,1.838-0.824,1.838-1.84v-1.836c0-1.014-0.822-1.836-1.838-1.836H65.098z"
       id="path391" /><path
       display="inline"
       fill="#FFFFFF"
       d="M114.691,78.455c0-1.015-0.822-1.838-1.836-1.838H65.098   c-1.016,0-1.836,0.823-1.836,1.838v1.837c0,1.014,0.82,1.837,1.836,1.837h47.758c1.014,0,1.836-0.823,1.836-1.837V78.455z"
       id="path393" /><path
       display="inline"
       fill="#E100EA"
       d="M129.385,115.191c-13.188,0-23.877,10.689-23.877,23.879   c0,13.188,10.689,23.877,23.877,23.877c13.189,0,23.879-10.689,23.879-23.877S142.572,115.191,129.385,115.191z M144.988,134.164   l-14.693,16.531c-0.723,0.812-1.732,1.23-2.748,1.23c-0.805,0-1.617-0.262-2.293-0.805l-9.184-7.348   c-1.584-1.266-1.842-3.578-0.574-5.162c1.268-1.586,3.578-1.842,5.164-0.572l6.461,5.166l12.377-13.924   c1.348-1.516,3.668-1.654,5.186-0.305C146.199,130.324,146.336,132.645,144.988,134.164z"
       id="path395" /></g><g
     id="Layer_23"
     display="none"><circle
       display="inline"
       fill="#282828"
       cx="100"
       cy="100"
       r="100"
       id="circle398" /><circle
       display="inline"
       fill="none"
       stroke="#FFFFFF"
       stroke-width="4"
       stroke-miterlimit="10"
       cx="100"
       cy="100"
       r="87"
       id="circle400" /><path
       display="inline"
       fill="#FFFFFF"
       d="M151.586,53.83h-45.84c0.502-0.942,0.859-1.966,0.859-3.109   c0-3.712-3.012-6.723-6.729-6.723c-3.709,0-6.719,3.011-6.719,6.723c0,1.144,0.354,2.162,0.859,3.109H48.184   c-3.412,0-6.184,2.782-6.184,6.188v68.192c0,3.406,2.771,6.191,6.184,6.191h37.469l-7.273,25.672   c-0.506,1.777,0.566,3.516,2.383,3.85l2.9,0.549c1.818,0.34,3.719-0.844,4.217-2.609l7.791-27.469h8.428l7.797,27.461   c0.494,1.773,2.402,2.957,4.223,2.613l2.879-0.555c1.818-0.33,2.889-2.066,2.383-3.852l-7.273-25.66h37.48   c3.393,0,6.178-2.785,6.178-6.191V60.019C157.764,56.619,154.984,53.83,151.586,53.83z M145.998,122.342H53.76V64.613h92.238   V122.342z"
       id="path402" /><path
       display="inline"
       fill="#73C6DC"
       d="M64.629,112.652c2.646,0,4.795-2.152,4.795-4.797c0-0.48-0.139-0.914-0.273-1.35   c6.127-4.939,16.947-13.647,21.877-17.446c0.781,0.546,1.686,0.939,2.709,0.939c0.846,0,1.605-0.277,2.293-0.666   c3.17,2.696,8.561,7.277,12.393,10.53c-0.051,0.278-0.164,0.53-0.164,0.818c0,2.65,2.15,4.799,4.799,4.799   c2.662,0,4.807-2.148,4.807-4.799c0-0.468-0.141-0.893-0.266-1.323l12.385-11.179c0.67,0.344,1.389,0.597,2.197,0.597   c2.645,0,4.787-2.147,4.787-4.799c0-2.641-2.143-4.788-4.787-4.788c-2.652,0-4.795,2.147-4.795,4.788   c0,0.638,0.137,1.229,0.361,1.784c-3.461,3.122-8.807,7.945-12.137,10.955c-0.75-0.485-1.594-0.838-2.553-0.838   c-1.123,0-2.119,0.45-2.936,1.1c-3.168-2.685-8.285-7.034-11.922-10.126c0.191-0.521,0.336-1.061,0.336-1.643   c0-2.646-2.154-4.787-4.795-4.787s-4.795,2.146-4.795,4.793c0,0.585,0.143,1.128,0.332,1.643l-21.99,17.106   c-0.77-0.523-1.656-0.902-2.658-0.902c-2.648,0-4.793,2.146-4.793,4.793C59.836,110.5,61.98,112.652,64.629,112.652z"
       id="path404" /></g><g
     id="Layer_24"
     display="none"><circle
       display="inline"
       fill="#282828"
       cx="100"
       cy="100"
       r="100"
       id="circle407" /><circle
       display="inline"
       fill="none"
       stroke="#FFFFFF"
       stroke-width="4"
       stroke-miterlimit="10"
       cx="100"
       cy="100"
       r="87"
       id="circle409" /><path
       display="inline"
       fill="#FFFFFF"
       d="M151.586,53.83h-45.84c0.502-0.942,0.859-1.966,0.859-3.109   c0-3.712-3.012-6.723-6.729-6.723c-3.709,0-6.719,3.011-6.719,6.723c0,1.144,0.354,2.162,0.859,3.109H48.184   c-3.412,0-6.184,2.782-6.184,6.188v68.192c0,3.406,2.771,6.191,6.184,6.191h37.469l-7.273,25.672   c-0.506,1.777,0.566,3.516,2.383,3.85l2.9,0.549c1.818,0.34,3.719-0.844,4.217-2.609l7.791-27.469h8.428l7.797,27.461   c0.494,1.773,2.402,2.957,4.223,2.613l2.879-0.555c1.818-0.33,2.889-2.066,2.383-3.852l-7.273-25.66h37.48   c3.393,0,6.178-2.785,6.178-6.191V60.019C157.764,56.619,154.984,53.83,151.586,53.83z M145.998,122.342H53.76V64.613h92.238   V122.342z"
       id="path411" /><path
       display="inline"
       fill="#28C123"
       d="M64.629,112.652c2.646,0,4.795-2.152,4.795-4.797c0-0.48-0.139-0.914-0.273-1.35   c6.127-4.939,16.947-13.647,21.877-17.446c0.781,0.546,1.686,0.939,2.709,0.939c0.846,0,1.605-0.277,2.293-0.666   c3.17,2.696,8.561,7.277,12.393,10.53c-0.051,0.278-0.164,0.53-0.164,0.818c0,2.65,2.15,4.799,4.799,4.799   c2.662,0,4.807-2.148,4.807-4.799c0-0.468-0.141-0.893-0.266-1.323l12.385-11.179c0.67,0.344,1.389,0.597,2.197,0.597   c2.645,0,4.787-2.147,4.787-4.799c0-2.641-2.143-4.788-4.787-4.788c-2.652,0-4.795,2.147-4.795,4.788   c0,0.638,0.137,1.229,0.361,1.784c-3.461,3.122-8.807,7.945-12.137,10.955c-0.75-0.485-1.594-0.838-2.553-0.838   c-1.123,0-2.119,0.45-2.936,1.1c-3.168-2.685-8.285-7.034-11.922-10.126c0.191-0.521,0.336-1.061,0.336-1.643   c0-2.646-2.154-4.787-4.795-4.787s-4.795,2.146-4.795,4.793c0,0.585,0.143,1.128,0.332,1.643l-21.99,17.106   c-0.77-0.523-1.656-0.902-2.658-0.902c-2.648,0-4.793,2.146-4.793,4.793C59.836,110.5,61.98,112.652,64.629,112.652z"
       id="path413" /></g><g
     id="Layer_25"
     display="none"><circle
       display="inline"
       fill="#282828"
       cx="100"
       cy="100"
       r="100"
       id="circle416" /><circle
       display="inline"
       fill="none"
       stroke="#FFFFFF"
       stroke-width="4"
       stroke-miterlimit="10"
       cx="100"
       cy="100"
       r="87"
       id="circle418" /><path
       display="inline"
       fill="#FFFFFF"
       d="M111.797,76.729l-2.557-23.345l18.652-13.636c-9.014-3.161-18.869-2.23-26.576,3.413   C89.77,51.614,86.867,67.88,93.588,81.749l-49.141,60.298l19.348,15.775l47.721-58.556c9.662,4.278,20.686,3.757,29.119-2.424   c7.709-5.636,11.551-14.736,11.283-24.306l-18.645,13.666L111.797,76.729z"
       id="path420" /><polygon
       display="inline"
       fill="#73C6DC"
       points="129.895,47.313 117.764,56.213 119.379,71.171 133.162,77.241 145.311,68.345    143.666,53.402  "
       id="polygon422" /></g><g
     id="Layer_26"
     display="none"><circle
       display="inline"
       fill="#282828"
       cx="100"
       cy="100"
       r="100"
       id="circle425" /><circle
       display="inline"
       fill="none"
       stroke="#FFFFFF"
       stroke-width="4"
       stroke-miterlimit="10"
       cx="100"
       cy="100"
       r="87"
       id="circle427" /><path
       display="inline"
       fill="#FFFFFF"
       d="M111.797,76.729l-2.557-23.345l18.652-13.636c-9.014-3.161-18.869-2.23-26.576,3.413   C89.77,51.614,86.867,67.88,93.588,81.749l-49.141,60.298l19.348,15.775l47.721-58.556c9.662,4.278,20.686,3.757,29.119-2.424   c7.709-5.636,11.551-14.736,11.283-24.306l-18.645,13.666L111.797,76.729z"
       id="path429" /><polygon
       display="inline"
       fill="#1975FF"
       points="129.895,47.313 117.764,56.213 119.379,71.171 133.162,77.241 145.311,68.345    143.666,53.402  "
       id="polygon431" /></g><g
     id="Layer_27"
     display="none"><circle
       display="inline"
       fill="#282828"
       cx="100"
       cy="100"
       r="100"
       id="circle434" /><circle
       display="inline"
       fill="none"
       stroke="#FFFFFF"
       stroke-width="4"
       stroke-miterlimit="10"
       cx="100"
       cy="100"
       r="87"
       id="circle436" /><polygon
       display="inline"
       fill="#FFFFFF"
       points="48.301,88.186 32,104.488 48.301,120.797 48.301,110.084 61.889,110.084    61.889,98.898 48.301,98.898  "
       id="polygon438" /><path
       display="inline"
       fill="#73C6DC"
       d="M73.012,87.959l25.15,11.088c0.232,0.102,0.48,0.152,0.73,0.152   c0.248,0,0.494-0.055,0.729-0.158l25.096-11.205c1.426-0.637,1.42-2.656-0.006-3.287l-25.15-11.088   c-0.232-0.1-0.482-0.152-0.73-0.15c-0.248,0-0.496,0.051-0.729,0.154L73.004,84.672C71.58,85.309,71.586,87.33,73.012,87.959z"
       id="path440" /><polygon
       display="inline"
       fill="#FFFFFF"
       points="93.396,67.369 104.58,67.369 104.58,53.781 115.295,53.781 98.99,37.48    82.682,53.781 93.396,53.781  "
       id="polygon442" /><path
       display="inline"
       fill="#73C6DC"
       d="M97.211,132.525l-0.062-28.361c-0.004-0.721-0.43-1.367-1.092-1.65L72.152,92.297   c-1.188-0.508-2.508,0.363-2.506,1.658l0.064,28.359c0.002,0.719,0.43,1.367,1.09,1.65l23.906,10.217   C95.893,134.689,97.213,133.818,97.211,132.525z"
       id="path444" /><polygon
       display="inline"
       fill="#FFFFFF"
       points="166,104.473 149.699,88.162 149.699,98.877 136.111,98.877 136.111,110.061    149.699,110.061 149.699,120.775  "
       id="polygon446" /><polygon
       display="inline"
       fill="#FFFFFF"
       points="104.604,141.592 93.418,141.592 93.418,155.18 82.705,155.18 99.008,171.48    115.316,155.18 104.604,155.18  "
       id="polygon448" /><path
       display="inline"
       fill="#73C6DC"
       d="M126.918,92.021c-0.232,0.002-0.475,0.049-0.709,0.15l-23.855,10.332   c-0.66,0.285-1.086,0.938-1.084,1.654l0.061,28.361c0.002,1.035,0.854,1.797,1.803,1.795c0.234-0.002,0.475-0.047,0.711-0.15   l23.857-10.33c0.658-0.287,1.084-0.938,1.082-1.656l-0.062-28.361C128.717,92.783,127.867,92.02,126.918,92.021z"
       id="path450" /></g><g
     id="Layer_27_copy"
     display="none"><circle
       display="inline"
       fill="#282828"
       cx="100"
       cy="100"
       r="100"
       id="circle453" /><circle
       display="inline"
       fill="none"
       stroke="#FFFFFF"
       stroke-width="4"
       stroke-miterlimit="10"
       cx="100"
       cy="100"
       r="87"
       id="circle455" /><polygon
       display="inline"
       fill="#FFFFFF"
       points="48.301,88.186 32,104.488 48.301,120.797 48.301,110.084 61.889,110.084    61.889,98.898 48.301,98.898  "
       id="polygon457" /><path
       display="inline"
       fill="#F38019"
       d="M73.012,87.959l25.15,11.088c0.232,0.102,0.48,0.152,0.73,0.152   c0.248,0,0.494-0.055,0.729-0.158l25.096-11.205c1.426-0.637,1.42-2.656-0.006-3.287l-25.15-11.088   c-0.232-0.1-0.482-0.152-0.73-0.15c-0.248,0-0.496,0.051-0.729,0.154L73.004,84.672C71.58,85.309,71.586,87.33,73.012,87.959z"
       id="path459" /><polygon
       display="inline"
       fill="#FFFFFF"
       points="93.396,67.369 104.58,67.369 104.58,53.781 115.295,53.781 98.99,37.48    82.682,53.781 93.396,53.781  "
       id="polygon461" /><path
       display="inline"
       fill="#F38019"
       d="M97.211,132.525l-0.062-28.361c-0.004-0.721-0.43-1.367-1.092-1.65L72.152,92.297   c-1.188-0.508-2.508,0.363-2.506,1.658l0.064,28.359c0.002,0.719,0.43,1.367,1.09,1.65l23.906,10.217   C95.893,134.689,97.213,133.818,97.211,132.525z"
       id="path463" /><polygon
       display="inline"
       fill="#FFFFFF"
       points="166,104.473 149.699,88.162 149.699,98.877 136.111,98.877 136.111,110.061    149.699,110.061 149.699,120.775  "
       id="polygon465" /><polygon
       display="inline"
       fill="#FFFFFF"
       points="104.604,141.592 93.418,141.592 93.418,155.18 82.705,155.18 99.008,171.48    115.316,155.18 104.604,155.18  "
       id="polygon467" /><path
       display="inline"
       fill="#F38019"
       d="M126.918,92.021c-0.232,0.002-0.475,0.049-0.709,0.15l-23.855,10.332   c-0.66,0.285-1.086,0.938-1.084,1.654l0.061,28.361c0.002,1.035,0.854,1.797,1.803,1.795c0.234-0.002,0.475-0.047,0.711-0.15   l23.857-10.33c0.658-0.287,1.084-0.938,1.082-1.656l-0.062-28.361C128.717,92.783,127.867,92.02,126.918,92.021z"
       id="path469" /></g><g
     id="Layer_29"
     display="none"><g
       display="inline"
       id="g472"><circle
         fill="#282828"
         cx="100"
         cy="100"
         r="100"
         id="circle474" /><circle
         fill="none"
         stroke="#FFFFFF"
         stroke-width="4"
         stroke-miterlimit="10"
         cx="100"
         cy="100"
         r="87"
         id="circle476" /><g
         id="g478"><path
           fill="#FFFFFF"
           d="M157.27,140.441l-34.738-34.754l-4.508,2.736l-6.797-6.588c10.703-15.014,9.373-35.996-4.09-49.463     c-15.033-15.014-39.352-15.008-54.359,0c-15.006,15.01-15.006,39.334,0,54.357c6.125,6.123,13.814,9.707,21.775,10.832     l-0.049,20.176h0.049c0.059,3.184,2.619,5.744,5.797,5.734c3.191,0.006,5.754-2.562,5.807-5.729l0.059,0.006l0.049-20.314     c5.666-0.941,11.148-3.158,16.008-6.631l6.385,6.143l-2.576,5.189l34.758,34.744c0,0,7.555,0.098,12.107-5.113     C157.502,146.562,157.27,140.441,157.27,140.441z M80.346,140.426c-1.412,0-2.572-1.145-2.572-2.576     c0.004-1.42,1.135-2.576,2.562-2.576c1.426,0,2.586,1.15,2.59,2.58C82.926,139.275,81.771,140.422,80.346,140.426z      M86.277,108.402l0.049-18.516L97.59,78.574l-8.455-14.625l-2.453-0.006l0.004,12.268H74.703V63.953l-2.449-0.01l-8.441,14.631     L74.752,89.58h-0.131l-0.053,19.047c-5.697-1.043-11.148-3.744-15.559-8.15c-11.561-11.564-11.551-30.301,0.014-41.865     c11.523-11.555,30.301-11.57,41.875-0.004c11.531,11.568,11.541,30.299-0.023,41.873     C96.719,104.635,91.623,107.23,86.277,108.402z"
           id="path480" /></g><circle
         fill="#282828"
         cx="79.648"
         cy="81.229"
         r="25.172"
         id="circle482" /><path
         fill="#73C6DC"
         d="M73.645,138.721V88.828L61.836,77.301l9.52-16.502l2.764,0.01v13.824h13.514l-0.004-13.834l2.768,0.006    l9.535,16.496L86.721,89.096l0.264,49.09c0,0,3.012,11.809-6.498,12.309C80.486,150.494,72.582,152.061,73.645,138.721z"
         id="path484" /><circle
         fill="#282828"
         cx="80.208"
         cy="143.406"
         r="2.692"
         id="circle486" /></g></g><g
     id="Layer_29_copy"><circle
       fill="#282828"
       cx="100"
       cy="100"
       r="100"
       id="circle489" /><circle
       fill="none"
       stroke="#FFFFFF"
       stroke-width="4"
       stroke-miterlimit="10"
       cx="100"
       cy="100"
       r="87"
       id="circle491" /><circle
       fill="#282828"
       cx="79.648"
       cy="81.229"
       r="25.172"
       id="circle497" /><circle
       fill="#282828"
       cx="80.208"
       cy="143.406"
       r="2.692"
       id="circle501" /></g><g
     inkscape:groupmode="layer"
     id="layer1"
     inkscape:label="Layer"><path
       style="fill:#0099b0"
       inkscape:connector-curvature="0"
       d="m 165.66352,83.046297 -16.439,-3.057 c -0.4,-0.075 -0.838,-0.451 -0.973,-0.837 l -5.039,-11.756001 c -0.188,-0.363 -0.152,-0.933 0.08,-1.271 l 9.578,-13.96 c 0.229,-0.336 0.184,-0.847 -0.105,-1.136 l -11.963,-11.963 c -0.289,-0.289 -0.799,-0.336 -1.135,-0.105 l -14.205,9.748 c -0.336,0.231 -0.912,0.272 -1.277,0.092 l -11.396,-4.665 c -0.387,-0.128 -0.764,-0.561 -0.84,-0.962 l -3.165,-17.003 c -0.074,-0.401 -0.469,-0.729 -0.877,-0.729 H 90.987523 c -0.407,0 -0.802,0.328 -0.876,0.729 l -3.164,17.003 c -0.076,0.401 -0.452,0.834 -0.84,0.962 l -11.397,4.665 c -0.366,0.18 -0.942,0.139 -1.277,-0.092 l -14.204,-9.748 c -0.337,-0.231 -0.848,-0.184 -1.136,0.105 l -11.964,11.963 c -0.288,0.289 -0.336,0.8 -0.105,1.136 l 9.579,13.96 c 0.23,0.338 0.266,0.908 0.079,1.271 l -5.04,11.756001 c -0.134,0.386 -0.571,0.762 -0.973,0.837 l -16.438,3.057 c -0.402,0.076 -0.729,0.47 -0.729,0.878 l 0.001,16.919003 c 0,0.408 0.328,0.805 0.729,0.878 l 16.035,2.984 c 0.401,0.073 0.83,0.454 0.952,0.843 l 5.006,12.505 c 0.179,0.367 0.137,0.941 -0.095,1.277 l -9.108,13.273 c -0.23,0.336 -0.183,0.848 0.105,1.137 l 11.965,11.963 c 0.288,0.287 0.799,0.334 1.136,0.105 l 13.038,-8.949 c 0.336,-0.23 0.899,-0.248 1.25,-0.043 l 5.75,3.07 c 0.364,0.186 0.789,0.029 0.945,-0.348 l 11.856,-28.647 c 0.157,-0.377 0,-0.858 -0.348,-1.071 l -1.439,-0.881 c -0.266,-0.162 -0.627,-0.441 -0.91,-0.697 -5.191,-3.324 -8.635,-9.139004 -8.635,-15.761003 0,-10.334 8.378,-18.711001 18.711,-18.711001 10.332997,0 18.709997,8.377001 18.709997,18.711001 0,6.621999 -3.443,12.437003 -8.635,15.761003 -0.281,0.256 -0.643,0.535 -0.908,0.697 l -1.439,0.881 c -0.346,0.213 -0.504,0.694 -0.348,1.071 l 11.855,28.648 c 0.156,0.377 0.58,0.533 0.945,0.348 l 5.75,-3.07 c 0.352,-0.205 0.914,-0.188 1.25,0.043 l 13.039,8.949 c 0.336,0.229 0.848,0.182 1.135,-0.105 l 11.965,-11.963 c 0.289,-0.289 0.336,-0.801 0.105,-1.137 l -9.109,-13.273 c -0.23,-0.336 -0.273,-0.91 -0.094,-1.277 l 5.006,-12.505 c 0.123,-0.389 0.549,-0.77 0.951,-0.843 l 16.035,-2.984 c 0.4,-0.073 0.729,-0.47 0.729,-0.878 l 0.002,-16.919003 c 0.001,-0.409 -0.327,-0.803 -0.727,-0.879"
       id="path3" /><path
       d="m 105.76222,92.446953 c 0.007,2.029837 -1.33538,3.71571 -2.96764,3.725216 l -6.681425,0.03899 c -1.632267,0.0093 -2.98793,-1.660649 -2.995573,-3.690477 l -0.05137,-13.640579 c -1.899573,1.269598 -3.590097,3.146934 -4.908297,5.644608 -2.949779,5.579076 -2.845423,13.061975 0.233004,18.524759 1.676076,2.95386 3.881943,4.99798 6.312915,6.13409 0.50148,0.24068 0.85194,0.83405 0.810959,1.51092 l -1.98344,33.89714 c -0.122936,2.03059 1.134739,3.68777 2.767008,3.67825 l 6.681409,-0.0389 c 1.63228,-0.009 2.87741,-1.68127 2.73919,-3.71034 l 0,0 -2.21693,-33.87267 c -0.0461,-0.67636 0.27813,-1.27369 0.79954,-1.52033 2.4223,-1.16436 4.64529,-3.2478 6.28811,-6.23453 3.02619,-5.511854 3.06335,-12.982062 0.061,-18.512941 -1.33687,-2.455136 -3.04144,-4.312705 -4.93957,-5.546648 l 0.0513,13.613478 z"
       id="path7"
       inkscape:connector-curvature="0"
       style="fill:#ffffff;fill-opacity:1" /></g><g
     id="Layer_2"
     display="none"><circle
       display="inline"
       fill="#FFFFFF"
       cx="101.779"
       cy="101.031"
       r="77.344"
       id="circle504" /><circle
       display="inline"
       fill="#282828"
       cx="100"
       cy="100"
       r="100"
       id="circle506" /><circle
       display="inline"
       fill="none"
       stroke="#FFFFFF"
       stroke-width="4"
       stroke-miterlimit="10"
       cx="100"
       cy="100"
       r="87"
       id="circle508" /><g
       display="inline"
       id="g510"><path
         fill="#73C6DC"
         d="M60.238,127.146c13.427,0.262,25.062,2.27,33.649,5.809c0.146,0.061,0.301,0.088,0.455,0.088    c0.233,0,0.466-0.066,0.664-0.201c0.333-0.223,0.532-0.596,0.532-0.994l0.005-64.184c0-0.49-0.3-0.93-0.755-1.111L60.704,52.988    c-0.368-0.145-0.785-0.1-1.112,0.125c-0.329,0.221-0.525,0.59-0.525,0.988v71.852C59.066,126.604,59.588,127.135,60.238,127.146z"
         id="path512" /><path
         fill="#FFFFFF"
         d="M157.891,64.389c-0.305-0.225-0.695-0.295-1.059-0.188l-12.055,3.605    c-0.506,0.152-0.852,0.617-0.852,1.145v62.006c0,0,0.053,0.977-0.977,0.977c-1.18,0-1.955,0-1.955,0    c-9.725,0-27.799,1.01-39.572,7.771l-2.338,1.338l-2.336-1.338c-11.775-6.762-29.848-7.771-39.573-7.771c0,0-1.991,0-2.494,0    c-0.464,0-0.436-0.557-0.436-0.557V68.951c0-0.527-0.347-0.992-0.854-1.145l-12.056-3.605c-0.361-0.107-0.754-0.037-1.057,0.188    c-0.302,0.225-0.481,0.58-0.481,0.957v75.018c0,0.338,0.144,0.66,0.393,0.887c0.25,0.227,0.584,0.338,0.92,0.305    c3.584-0.35,9.186-0.771,15.521-0.771c13.92,0,25.106,2.031,32.355,5.881c1.065,0.559,7.239,3.885,10.099,3.885    c2.857,0,9.031-3.324,10.098-3.885c7.248-3.85,18.434-5.881,32.355-5.881c6.336,0,11.938,0.422,15.52,0.771    c0.336,0.033,0.672-0.078,0.922-0.305s0.391-0.549,0.391-0.887V65.346C158.371,64.969,158.193,64.613,157.891,64.389z"
         id="path514" /><path
         fill="#73C6DC"
         d="M103.16,132.842c0.201,0.135,0.434,0.201,0.668,0.201c0.152,0,0.309-0.027,0.453-0.088    c8.586-3.539,20.223-5.547,33.648-5.809c0.652-0.012,1.174-0.543,1.174-1.193V54.102c0-0.398-0.197-0.77-0.525-0.988    c-0.328-0.225-0.744-0.27-1.113-0.125l-34.086,13.564c-0.453,0.182-0.754,0.621-0.754,1.111l0.004,64.184    C102.629,132.246,102.83,132.619,103.16,132.842z"
         id="path516" /></g></g></svg>