<?xml version="1.0" encoding="UTF-8"?>
<!-- Generator: Adobe Illustrator 16.0.0, SVG Export Plug-In . SVG Version: 6.00 Build 0)  -->
<!DOCTYPE svg PUBLIC "-//W3C//DTD SVG 1.1//EN" "http://www.w3.org/Graphics/SVG/1.1/DTD/svg11.dtd">
<svg version="1.1" id="Layer_1" xmlns:sketch="http://www.bohemiancoding.com/sketch/ns" xmlns="http://www.w3.org/2000/svg" xmlns:xlink="http://www.w3.org/1999/xlink" x="0px" y="0px" width="193px" height="193px" viewBox="0 0 193 193" enable-background="new 0 0 193 193" xml:space="preserve">
<title>clock</title>
<desc>Created with Sketch Beta.</desc>
<g id="XMLID_121_-Clipped">
	<g id="XMLID_2_">
	</g>
</g>
<g id="XMLID_117_-Clipped">
	<g id="XMLID_6_">
	</g>
</g>
<g id="XMLID_741_-Clipped">
	<g id="XMLID_8_">
	</g>
</g>
<g id="XMLID_10_">
</g>
<g>
	<path fill="#94D040" d="M-288-9.796l-7.172-7.17l-7.17,7.17l2.276,2.277v6.853h9.786v-6.853L-288-9.796z M-288-9.796"/>
	<g>
		<path fill="#94D040" d="M-263.386-55.323c0-13.401-8.146-24.898-19.759-29.809c-3.871-1.637-8.126-2.543-12.593-2.543    c-17.867,0-32.351,14.483-32.351,32.352c0,17.866,14.483,32.35,32.351,32.35C-277.869-22.973-263.386-37.457-263.386-55.323    L-263.386-55.323z M-263.386-55.323"/>
		<path fill="#94D040" d="M-219.426,55.525c0.077-0.021,0.154-0.044,0.23-0.066c0.123-0.032,0.24-0.066,0.359-0.103    c0.084-0.026,0.169-0.057,0.253-0.085c0.117-0.04,0.233-0.078,0.35-0.121c0.088-0.031,0.174-0.068,0.261-0.103    c0.111-0.042,0.224-0.087,0.332-0.132c0.088-0.038,0.177-0.081,0.266-0.119c0.104-0.048,0.212-0.095,0.314-0.146    c0.087-0.041,0.172-0.088,0.261-0.134c0.103-0.054,0.207-0.104,0.312-0.161c0.081-0.044,0.161-0.093,0.241-0.137    c0.104-0.064,0.212-0.123,0.316-0.187c0.074-0.046,0.146-0.095,0.221-0.144c0.109-0.068,0.219-0.139,0.325-0.211    c0.067-0.049,0.134-0.096,0.2-0.143c0.112-0.08,0.221-0.158,0.33-0.242c0.063-0.049,0.127-0.099,0.19-0.148    c0.107-0.084,0.215-0.172,0.318-0.259c0.024-0.022,0.053-0.042,0.076-0.063c0.043-0.035,0.08-0.071,0.12-0.106    c0.097-0.084,0.19-0.169,0.282-0.252c0.074-0.071,0.147-0.141,0.221-0.213c0.076-0.07,0.151-0.146,0.225-0.223    c0.084-0.086,0.167-0.173,0.248-0.259c0.057-0.062,0.114-0.126,0.171-0.188c0.09-0.102,0.181-0.204,0.266-0.308    c0.046-0.054,0.089-0.105,0.132-0.157c0.094-0.117,0.185-0.231,0.272-0.351c0.036-0.046,0.07-0.095,0.105-0.14    c0.093-0.124,0.181-0.248,0.267-0.376c0.034-0.047,0.065-0.096,0.097-0.144c0.084-0.127,0.166-0.254,0.244-0.382    c0.035-0.057,0.069-0.113,0.104-0.172c0.07-0.119,0.142-0.241,0.21-0.362c0.041-0.074,0.079-0.151,0.119-0.228    c0.055-0.105,0.111-0.21,0.163-0.318c0.049-0.097,0.096-0.196,0.14-0.297c0.04-0.085,0.081-0.173,0.118-0.259    c0.054-0.124,0.104-0.246,0.152-0.368c0.025-0.069,0.054-0.135,0.081-0.201c0.053-0.143,0.102-0.286,0.151-0.431    c0.018-0.052,0.035-0.102,0.053-0.154c0.05-0.153,0.098-0.312,0.142-0.468c0.014-0.045,0.025-0.087,0.038-0.129    c0.043-0.16,0.083-0.323,0.121-0.484c0.01-0.042,0.021-0.088,0.03-0.133c0.034-0.155,0.066-0.313,0.094-0.471    c0.01-0.054,0.021-0.11,0.029-0.164c0.026-0.146,0.047-0.292,0.067-0.438c0.01-0.072,0.018-0.144,0.027-0.218    c0.015-0.128,0.027-0.26,0.04-0.389c0.008-0.093,0.015-0.187,0.022-0.281c0.006-0.112,0.013-0.226,0.019-0.337    c0.004-0.115,0.007-0.229,0.01-0.342c0-0.061,0.002-0.121,0.002-0.184c0-0.039-0.002-0.077-0.002-0.113    c0-0.123-0.005-0.246-0.008-0.367c-0.003-0.098-0.008-0.19-0.013-0.283c-0.005-0.12-0.017-0.241-0.027-0.361    c-0.008-0.098-0.016-0.194-0.025-0.291c-0.012-0.111-0.027-0.224-0.042-0.334c-0.014-0.104-0.026-0.208-0.042-0.311    c-0.015-0.102-0.037-0.201-0.054-0.303c-0.021-0.112-0.039-0.223-0.063-0.333c-0.019-0.092-0.042-0.183-0.063-0.273    c-0.028-0.118-0.052-0.234-0.082-0.35c-0.022-0.087-0.051-0.174-0.076-0.263c-0.032-0.117-0.063-0.235-0.102-0.35    c-0.026-0.09-0.059-0.176-0.088-0.265c-0.038-0.113-0.075-0.226-0.117-0.339c-0.034-0.091-0.071-0.184-0.107-0.276    c-0.042-0.104-0.082-0.209-0.126-0.315c-0.042-0.094-0.085-0.188-0.128-0.281c-0.044-0.1-0.091-0.199-0.137-0.299    c-0.045-0.092-0.094-0.184-0.141-0.276c-0.051-0.097-0.1-0.195-0.155-0.293c-0.046-0.087-0.097-0.173-0.146-0.26    c-0.059-0.1-0.115-0.2-0.175-0.3c-0.049-0.078-0.103-0.156-0.153-0.234c-0.066-0.104-0.13-0.206-0.201-0.308    c-0.051-0.075-0.103-0.146-0.153-0.22c-0.074-0.105-0.15-0.209-0.229-0.311c-0.052-0.069-0.107-0.139-0.164-0.206    c-0.078-0.103-0.159-0.204-0.243-0.303c-0.022-0.027-0.042-0.057-0.068-0.083l-41.72-48.861c-2.594-3.035-6.274-4.583-9.977-4.574    V-0.92h5.619c3.685,0,6.681,2.997,6.681,6.681v28.495c3.599,2.249,5.993,6.245,5.993,10.801c0,4.341-2.175,8.171-5.492,10.469    h-7.021c2.063-0.501,3.596-2.354,3.596-4.571V6.883c0-2.603-2.108-4.711-4.709-4.711h-70.649c-2.601,0-4.71,2.108-4.71,4.711    v44.071c0,2.217,1.533,4.07,3.595,4.571h-7.02c-3.318-2.298-5.494-6.128-5.494-10.469c0-4.555,2.396-8.55,5.994-10.801V5.761    c0-3.684,2.997-6.681,6.681-6.681h5.62v-18.136h-0.566v0.027c-3.508,0.143-6.95,1.688-9.409,4.568L-377.529,34.4    c-0.023,0.026-0.044,0.056-0.067,0.085c-0.083,0.097-0.164,0.198-0.244,0.301c-0.054,0.068-0.109,0.138-0.163,0.206    c-0.077,0.102-0.153,0.208-0.228,0.313c-0.052,0.073-0.105,0.145-0.154,0.218c-0.068,0.102-0.136,0.204-0.202,0.308    c-0.049,0.078-0.102,0.157-0.152,0.234c-0.06,0.101-0.116,0.201-0.174,0.301c-0.05,0.087-0.102,0.173-0.149,0.261    c-0.053,0.096-0.102,0.196-0.153,0.292c-0.047,0.092-0.096,0.184-0.142,0.277c-0.046,0.098-0.09,0.197-0.136,0.299    c-0.043,0.095-0.087,0.188-0.127,0.28c-0.043,0.105-0.083,0.212-0.127,0.315c-0.036,0.095-0.074,0.186-0.107,0.277    c-0.041,0.112-0.078,0.224-0.116,0.338c-0.031,0.088-0.061,0.175-0.09,0.265c-0.036,0.114-0.069,0.233-0.102,0.352    c-0.024,0.087-0.052,0.174-0.074,0.26c-0.03,0.115-0.057,0.232-0.083,0.351c-0.022,0.092-0.045,0.183-0.064,0.274    c-0.021,0.109-0.042,0.222-0.062,0.333c-0.019,0.102-0.039,0.199-0.054,0.303c-0.016,0.101-0.029,0.206-0.042,0.31    c-0.013,0.11-0.03,0.222-0.042,0.333c-0.01,0.098-0.018,0.195-0.026,0.293c-0.01,0.119-0.021,0.24-0.027,0.359    c-0.004,0.093-0.008,0.188-0.01,0.283c-0.005,0.122-0.009,0.244-0.009,0.369c-0.001,0.036-0.002,0.073-0.002,0.111    c0,0.063,0.003,0.123,0.003,0.186c0.002,0.114,0.005,0.225,0.009,0.34c0.005,0.112,0.012,0.225,0.018,0.338    c0.006,0.094,0.014,0.188,0.023,0.28c0.011,0.132,0.024,0.261,0.039,0.391c0.01,0.072,0.019,0.145,0.027,0.216    c0.021,0.146,0.043,0.293,0.068,0.438c0.008,0.055,0.019,0.11,0.029,0.165c0.029,0.157,0.061,0.314,0.094,0.47    c0.011,0.045,0.022,0.091,0.032,0.135c0.038,0.161,0.078,0.323,0.121,0.482c0.013,0.043,0.025,0.085,0.037,0.129    c0.044,0.157,0.092,0.314,0.141,0.47c0.018,0.051,0.035,0.102,0.053,0.152c0.05,0.146,0.1,0.288,0.153,0.433    c0.025,0.065,0.053,0.13,0.079,0.199c0.05,0.123,0.099,0.247,0.152,0.369c0.039,0.086,0.078,0.174,0.119,0.26    c0.045,0.1,0.092,0.198,0.139,0.295c0.053,0.109,0.108,0.215,0.165,0.321c0.04,0.074,0.079,0.152,0.12,0.225    c0.067,0.122,0.138,0.243,0.208,0.363c0.035,0.059,0.068,0.115,0.104,0.172c0.078,0.129,0.162,0.254,0.245,0.383    c0.032,0.048,0.063,0.097,0.095,0.142c0.087,0.13,0.177,0.253,0.269,0.376c0.034,0.048,0.068,0.095,0.103,0.142    c0.089,0.117,0.181,0.231,0.275,0.349c0.042,0.054,0.086,0.104,0.128,0.157c0.089,0.104,0.178,0.207,0.269,0.309    c0.057,0.062,0.113,0.126,0.17,0.188c0.082,0.089,0.164,0.174,0.248,0.26c0.074,0.075,0.149,0.151,0.225,0.224    c0.074,0.07,0.146,0.142,0.221,0.211c0.093,0.085,0.187,0.17,0.282,0.253c0.041,0.034,0.079,0.071,0.12,0.108    c0.025,0.02,0.051,0.04,0.076,0.06c0.104,0.088,0.212,0.175,0.319,0.26c0.063,0.049,0.125,0.101,0.189,0.148    c0.107,0.084,0.219,0.163,0.329,0.242c0.068,0.046,0.134,0.096,0.202,0.143c0.106,0.072,0.215,0.143,0.326,0.212    c0.072,0.048,0.146,0.098,0.22,0.142c0.104,0.064,0.21,0.124,0.317,0.187c0.08,0.044,0.16,0.094,0.241,0.138    c0.104,0.057,0.208,0.108,0.311,0.161c0.086,0.047,0.172,0.093,0.261,0.135c0.103,0.05,0.209,0.096,0.315,0.144    c0.088,0.038,0.175,0.082,0.265,0.12c0.108,0.044,0.221,0.089,0.33,0.131c0.087,0.034,0.173,0.071,0.26,0.103    c0.117,0.045,0.234,0.081,0.352,0.121c0.083,0.028,0.167,0.06,0.253,0.086c0.117,0.036,0.237,0.069,0.357,0.104    c0.078,0.021,0.155,0.045,0.232,0.067h-19.426v7.523H-200v-7.523h-19.426V55.525z M-219.426,55.525"/>
	</g>
</g>
<path opacity="0.4" fill="#FFFFFF" d="M-318.318,63.444l44.861-142.255c0,0-8.46-9.051-23.415-8.854c0,0-28.53-0.59-31.481,33.646  l1.956,34.963c0,0-6.678-0.728-15.237,11.668L-377.529,34.4c0,0-10.011,11.276,5.416,20.75l-18.232,0.378v7.523L-318.318,63.444z"/>
<g>
	<path fill="#94D040" d="M171.531,138.521h-31.805c-5.085,0-9.258,4.173-9.258,9.258v14.763c0,5.085,4.173,9.258,9.258,9.258h31.771   c5.085,0,9.257-4.173,9.257-9.258v-14.763C180.789,142.694,176.616,138.521,171.531,138.521L171.531,138.521z M171.531,138.521"/>
	<g>
		<path fill="#94D040" d="M52.028,138.521h-31.77c-5.085,0-9.258,4.173-9.258,9.258v14.763c0,5.085,4.172,9.258,9.258,9.258h31.77    c5.083,0,9.256-4.173,9.256-9.258v-14.763C61.32,142.694,57.147,138.521,52.028,138.521L52.028,138.521z M52.028,138.521"/>
		<path fill="#94D040" d="M40.771,122.427h50.529v8.029h9.222v-8.029h50.53v8.029h9.223v-12.623c0-2.56-2.068-4.594-4.629-4.594    h-55.158V95.496h26.932c2.7,0,5.33-0.386,7.748-1.613c6.138-3.156,9.258-8.241,9.258-15.079V34.866    c0-9.784-7.015-16.901-16.797-16.901H63.95c-9.469,0-16.623,7.047-16.657,16.482v44.533c0,1.683,0.245,3.402,0.7,5.015    c2.034,6.873,8.171,11.466,15.395,11.501c5.681,0.035,11.362,0.035,17.078,0H91.23v17.744H36.142    c-2.559,0-4.628,2.067-4.628,4.594v12.623h9.222v-8.029H40.771z M126.929,27.468c2.453,0,4.453,1.998,4.453,4.454    c0,2.455-2,4.454-4.453,4.454c-2.455,0-4.453-1.999-4.453-4.454C122.476,29.466,124.474,27.468,126.929,27.468L126.929,27.468z     M111.604,27.468c2.456,0,4.453,1.998,4.453,4.454c0,2.455-1.997,4.454-4.453,4.454c-2.454,0-4.454-1.999-4.454-4.454    C107.15,29.466,109.15,27.468,111.604,27.468L111.604,27.468z M96.279,27.468c2.457,0,4.455,1.998,4.455,4.454    c0,2.455-1.998,4.454-4.455,4.454c-2.453,0-4.453-1.999-4.453-4.454C91.826,29.466,93.826,27.468,96.279,27.468L96.279,27.468z     M80.536,86.273H64.09c-4.735,0-7.609-2.875-7.609-7.575V47.105c0-0.421,0.034-0.842,0.07-1.368h78.688v33.032    c0,4.594-2.946,7.541-7.504,7.541C112.025,86.273,96.279,86.273,80.536,86.273L80.536,86.273z M80.536,86.273"/>
	</g>
	<path fill="#94D040" d="M111.78,138.521H79.975c-5.083,0-9.259,4.173-9.259,9.258v14.763c0,5.085,4.176,9.258,9.259,9.258h31.77   c5.086,0,9.259-4.173,9.259-9.258v-14.763C121.036,142.694,116.864,138.521,111.78,138.521L111.78,138.521z M111.78,138.521"/>
</g>
<path opacity="0.5" fill="#FFFFFF" d="M108.333,18.333L52.028,171.8l-34.362-0.134c0,0-6.666-2.582-6.666-9.124S11,161,11,161  v-13.221c0,0-0.5-10.779,12.5-9.279l8.5-125l64.5-3L108.333,18.333z"/>
</svg>