<?xml version="1.0" encoding="UTF-8" standalone="no"?>
<!-- Generator: Adobe Illustrator 16.2.1, SVG Export Plug-In . SVG Version: 6.00 Build 0)  -->

<svg
   xmlns:dc="http://purl.org/dc/elements/1.1/"
   xmlns:cc="http://creativecommons.org/ns#"
   xmlns:rdf="http://www.w3.org/1999/02/22-rdf-syntax-ns#"
   xmlns:svg="http://www.w3.org/2000/svg"
   xmlns="http://www.w3.org/2000/svg"
   xmlns:sodipodi="http://sodipodi.sourceforge.net/DTD/sodipodi-0.dtd"
   xmlns:inkscape="http://www.inkscape.org/namespaces/inkscape"
   version="1.1"
   x="0px"
   y="0px"
   width="200px"
   height="200px"
   viewBox="0 0 200 200"
   enable-background="new 0 0 200 200"
   xml:space="preserve"
   id="svg2"
   inkscape:version="0.48.4 r9939"
   sodipodi:docname="greengadgets.svg"><metadata
     id="metadata522"><rdf:RDF><cc:Work
         rdf:about=""><dc:format>image/svg+xml</dc:format><dc:type
           rdf:resource="http://purl.org/dc/dcmitype/StillImage" /><dc:title /></cc:Work></rdf:RDF></metadata><defs
     id="defs520" /><sodipodi:namedview
     pagecolor="#ffffff"
     bordercolor="#666666"
     borderopacity="1"
     objecttolerance="10"
     gridtolerance="10"
     guidetolerance="10"
     inkscape:pageopacity="0"
     inkscape:pageshadow="2"
     inkscape:window-width="1301"
     inkscape:window-height="744"
     id="namedview518"
     showgrid="false"
     inkscape:zoom="4.9770594"
     inkscape:cx="138.74025"
     inkscape:cy="100"
     inkscape:window-x="65"
     inkscape:window-y="24"
     inkscape:window-maximized="1"
     inkscape:current-layer="svg2" /><g
     inkscape:groupmode="layer"
     id="layer1"
     inkscape:label="Layer"><g
       id="g26"
       transform="matrix(0.68642479,0,0,0.71030488,32.18986,28.618916)"><path
         d="m 171.531,138.521 h -31.805 c -5.085,0 -9.258,4.173 -9.258,9.258 v 14.763 c 0,5.085 4.173,9.258 9.258,9.258 h 31.771 c 5.085,0 9.257,-4.173 9.257,-9.258 v -14.763 c 0.035,-5.085 -4.138,-9.258 -9.223,-9.258 l 0,0 z m 0,0"
         id="path28"
         inkscape:connector-curvature="0"
         style="fill:#94d040" /><g
         id="g30"><path
           d="m 52.028,138.521 h -31.77 c -5.085,0 -9.258,4.173 -9.258,9.258 v 14.763 c 0,5.085 4.172,9.258 9.258,9.258 h 31.77 c 5.083,0 9.256,-4.173 9.256,-9.258 v -14.763 c 0.036,-5.085 -4.137,-9.258 -9.256,-9.258 l 0,0 z m 0,0"
           id="path32-9"
           inkscape:connector-curvature="0"
           style="fill:#94d040" /><path
           d="M 40.771,122.427 H 91.3 v 8.029 h 9.222 v -8.029 h 50.53 v 8.029 h 9.223 v -12.623 c 0,-2.56 -2.068,-4.594 -4.629,-4.594 H 100.488 V 95.496 h 26.932 c 2.7,0 5.33,-0.386 7.748,-1.613 6.138,-3.156 9.258,-8.241 9.258,-15.079 V 34.866 c 0,-9.784 -7.015,-16.901 -16.797,-16.901 H 63.95 c -9.469,0 -16.623,7.047 -16.657,16.482 V 78.98 c 0,1.683 0.245,3.402 0.7,5.015 2.034,6.873 8.171,11.466 15.395,11.501 5.681,0.035 11.362,0.035 17.078,0 H 91.23 V 113.24 H 36.142 c -2.559,0 -4.628,2.067 -4.628,4.594 v 12.623 h 9.222 v -8.029 h 0.035 z m 86.158,-94.959 c 2.453,0 4.453,1.998 4.453,4.454 0,2.455 -2,4.454 -4.453,4.454 -2.455,0 -4.453,-1.999 -4.453,-4.454 0,-2.456 1.998,-4.454 4.453,-4.454 l 0,0 z m -15.325,0 c 2.456,0 4.453,1.998 4.453,4.454 0,2.455 -1.997,4.454 -4.453,4.454 -2.454,0 -4.454,-1.999 -4.454,-4.454 0,-2.456 2,-4.454 4.454,-4.454 l 0,0 z m -15.325,0 c 2.457,0 4.455,1.998 4.455,4.454 0,2.455 -1.998,4.454 -4.455,4.454 -2.453,0 -4.453,-1.999 -4.453,-4.454 0,-2.456 2,-4.454 4.453,-4.454 l 0,0 z M 80.536,86.273 H 64.09 c -4.735,0 -7.609,-2.875 -7.609,-7.575 V 47.105 c 0,-0.421 0.034,-0.842 0.07,-1.368 h 78.688 v 33.032 c 0,4.594 -2.946,7.541 -7.504,7.541 -15.71,-0.037 -31.456,-0.037 -47.199,-0.037 l 0,0 z m 0,0"
           id="path34-7"
           inkscape:connector-curvature="0"
           style="fill:#94d040" /></g><path
         d="M 111.78,138.521 H 79.975 c -5.083,0 -9.259,4.173 -9.259,9.258 v 14.763 c 0,5.085 4.176,9.258 9.259,9.258 h 31.77 c 5.086,0 9.259,-4.173 9.259,-9.258 v -14.763 c 0.032,-5.085 -4.14,-9.258 -9.224,-9.258 l 0,0 z m 0,0"
         id="path36"
         inkscape:connector-curvature="0"
         style="fill:#94d040" /></g></g></svg>