<?xml version="1.0" encoding="UTF-8"?>
<!-- Generator: Adobe Illustrator 18.1.1, SVG Export Plug-In . SVG Version: 6.00 Build 0)  -->
<!DOCTYPE svg PUBLIC "-//W3C//DTD SVG 1.1//EN" "http://www.w3.org/Graphics/SVG/1.1/DTD/svg11.dtd">
<svg version="1.1" id="Layer_1" xmlns="http://www.w3.org/2000/svg" xmlns:xlink="http://www.w3.org/1999/xlink" x="0px" y="0px" width="512px" height="512px" viewBox="242 -242 512 512" enable-background="new 242 -242 512 512" xml:space="preserve">
<g>
	<path fill="#FFFFFF" d="M498-242c-141.4,0-256,114.6-256,256s114.6,256,256,256S754,155.4,754,14S639.4-242,498-242z"/>
</g>
<path fill="#5BAF42" d="M598.9-28.7c-7.5,7.5-19.9,7.5-27.4,0l-30.7-30.7c-7.5-7.5-7.5-19.9,0-27.4l50.4-50.4  c-13.4-4.1-28.1-5-43.4-1.9c-34.2,6.9-61.5,34.9-67.7,69.2c-3.3,18.6-0.8,36.3,6.1,51.7c1.4,3.2,0.8,7-1.9,9.3L349.4,106.6  c-8.1,6.9-8.5,18.8-1,26.3l30.7,30.7c7.5,7.5,19.4,7.1,26.3-1l0,0L521,27.8c2.3-2.7,6-3.4,9.3-1.9c15.4,6.9,33.3,9.5,51.9,6.1  c34.3-6.3,62.2-33.6,69-67.8c3-15.2,2.1-29.9-2-43.2L598.9-28.7z"/>
</svg>