<?xml version="1.0" encoding="UTF-8" standalone="no"?>
<!-- Generator: Adobe Illustrator 16.0.0, SVG Export Plug-In . SVG Version: 6.00 Build 0)  -->

<svg
   xmlns:dc="http://purl.org/dc/elements/1.1/"
   xmlns:cc="http://creativecommons.org/ns#"
   xmlns:rdf="http://www.w3.org/1999/02/22-rdf-syntax-ns#"
   xmlns:svg="http://www.w3.org/2000/svg"
   xmlns="http://www.w3.org/2000/svg"
   xmlns:sodipodi="http://sodipodi.sourceforge.net/DTD/sodipodi-0.dtd"
   xmlns:inkscape="http://www.inkscape.org/namespaces/inkscape"
   version="1.1"
   id="Layer_1"
   x="0px"
   y="0px"
   width="512px"
   height="512px"
   viewBox="0 0 512 512"
   enable-background="new 0 0 512 512"
   xml:space="preserve"
   inkscape:version="0.48.4 r9939"
   sodipodi:docname="key.svg"><metadata
     id="metadata9"><rdf:RDF><cc:Work
         rdf:about=""><dc:format>image/svg+xml</dc:format><dc:type
           rdf:resource="http://purl.org/dc/dcmitype/StillImage" /><dc:title /></cc:Work></rdf:RDF></metadata><defs
     id="defs7" /><sodipodi:namedview
     pagecolor="#ffffff"
     bordercolor="#666666"
     borderopacity="1"
     objecttolerance="10"
     gridtolerance="10"
     guidetolerance="10"
     inkscape:pageopacity="0"
     inkscape:pageshadow="2"
     inkscape:window-width="1301"
     inkscape:window-height="744"
     id="namedview5"
     showgrid="false"
     inkscape:zoom="0.4609375"
     inkscape:cx="256"
     inkscape:cy="256"
     inkscape:window-x="65"
     inkscape:window-y="24"
     inkscape:window-maximized="1"
     inkscape:current-layer="Layer_1" /><path
     d="m 340.64107,330.70921 0.1602,-41.48791 -129.72299,-0.61608 c -11.01749,39.87052 -44.34392,68.9393 -84.1524,68.79096 -48.554161,-0.26506 -87.778587,-43.80886 -87.571809,-97.21516 0.206519,-53.48271 39.765808,-96.65792 88.354539,-96.4306 39.7739,0.18608 72.89163,29.62379 83.5749,69.54753 l 255.4117,1.22366 c 13.822,0.0555 25.08814,12.56226 25.02051,27.77576 -0.0587,15.20498 -11.42103,27.60588 -25.23411,27.54065 l -0.1602,41.4879 c -0.0295,7.6404 -5.67581,13.8028 -12.61706,13.77033 l -25.12732,-0.11755 c -6.95016,-0.0227 -12.54867,-6.23776 -12.51026,-13.88789 l 0.15965,-41.4873 -25.16215,-0.15623 -0.13428,41.5351 c -0.0295,7.64039 -5.67581,13.8028 -12.61706,13.77032 l -25.12732,-0.11755 c -6.97553,-0.0705 -12.5392,-6.24688 -12.54454,-13.92594 z M 127.49501,219.06805 c -20.82375,-0.0974 -37.797801,18.42815 -37.886311,41.34931 -0.0882,22.84537 16.776441,41.56715 37.530771,41.66364 20.78947,0.0594 37.76352,-18.46621 37.88631,-41.34932 0.0882,-22.84536 -16.77644,-41.56715 -37.53077,-41.66363 z"
     id="path3"
     inkscape:connector-curvature="0" /></svg>