<?xml version="1.0" encoding="UTF-8"?>
<!-- Generator: Adobe Illustrator 16.2.1, SVG Export Plug-In . SVG Version: 6.00 Build 0)  -->
<!DOCTYPE svg PUBLIC "-//W3C//DTD SVG 1.1//EN" "http://www.w3.org/Graphics/SVG/1.1/DTD/svg11.dtd">
<svg version="1.1" xmlns="http://www.w3.org/2000/svg" xmlns:xlink="http://www.w3.org/1999/xlink" x="0px" y="0px" width="200px" height="200px" viewBox="0 0 200 200" enable-background="new 0 0 200 200" xml:space="preserve">
<g id="Layer_24">
	<circle fill="#282828" cx="100" cy="100" r="100"/>
	<circle fill="none" stroke="#FFFFFF" stroke-width="4" stroke-miterlimit="10" cx="100" cy="100" r="87"/>
	<path fill="#FFFFFF" d="M151.586,53.83h-45.84c0.502-0.942,0.859-1.966,0.859-3.109c0-3.712-3.012-6.723-6.729-6.723   c-3.709,0-6.719,3.011-6.719,6.723c0,1.144,0.354,2.162,0.859,3.109H48.184c-3.412,0-6.184,2.782-6.184,6.188v68.192   c0,3.406,2.771,6.191,6.184,6.191h37.469l-7.273,25.672c-0.506,1.777,0.566,3.516,2.383,3.85l2.9,0.549   c1.818,0.34,3.719-0.844,4.217-2.609l7.791-27.469h8.428l7.797,27.461c0.494,1.773,2.402,2.957,4.223,2.613l2.879-0.555   c1.818-0.33,2.889-2.066,2.383-3.852l-7.273-25.66h37.48c3.393,0,6.178-2.785,6.178-6.191V60.019   C157.764,56.619,154.984,53.83,151.586,53.83z M145.998,122.342H53.76V64.613h92.238V122.342z"/>
	<path fill="#28C123" d="M64.629,112.652c2.646,0,4.795-2.152,4.795-4.797c0-0.48-0.139-0.914-0.273-1.35   c6.127-4.939,16.947-13.647,21.877-17.446c0.781,0.546,1.686,0.939,2.709,0.939c0.846,0,1.605-0.277,2.293-0.666   c3.17,2.696,8.561,7.277,12.393,10.53c-0.051,0.278-0.164,0.53-0.164,0.818c0,2.65,2.15,4.799,4.799,4.799   c2.662,0,4.807-2.148,4.807-4.799c0-0.468-0.141-0.893-0.266-1.323l12.385-11.179c0.67,0.344,1.389,0.597,2.197,0.597   c2.645,0,4.787-2.147,4.787-4.799c0-2.641-2.143-4.788-4.787-4.788c-2.652,0-4.795,2.147-4.795,4.788   c0,0.638,0.137,1.229,0.361,1.784c-3.461,3.122-8.807,7.945-12.137,10.955c-0.75-0.485-1.594-0.838-2.553-0.838   c-1.123,0-2.119,0.45-2.936,1.1c-3.168-2.685-8.285-7.034-11.922-10.126c0.191-0.521,0.336-1.061,0.336-1.643   c0-2.646-2.154-4.787-4.795-4.787s-4.795,2.146-4.795,4.793c0,0.585,0.143,1.128,0.332,1.643l-21.99,17.106   c-0.77-0.523-1.656-0.902-2.658-0.902c-2.648,0-4.793,2.146-4.793,4.793C59.836,110.5,61.98,112.652,64.629,112.652z"/>
</g>

</svg>
