<?xml version="1.0" encoding="UTF-8" standalone="no"?>
<!-- Created with Inkscape (http://www.inkscape.org/) -->

<svg
   xmlns:dc="http://purl.org/dc/elements/1.1/"
   xmlns:cc="http://creativecommons.org/ns#"
   xmlns:rdf="http://www.w3.org/1999/02/22-rdf-syntax-ns#"
   xmlns:svg="http://www.w3.org/2000/svg"
   xmlns="http://www.w3.org/2000/svg"
   xmlns:sodipodi="http://sodipodi.sourceforge.net/DTD/sodipodi-0.dtd"
   xmlns:inkscape="http://www.inkscape.org/namespaces/inkscape"
   width="512"
   height="512"
   id="svg2"
   version="1.1"
   inkscape:version="0.48.4 r9939"
   sodipodi:docname="scale.svg">
  <defs
     id="defs4" />
  <sodipodi:namedview
     id="base"
     pagecolor="#ffffff"
     bordercolor="#666666"
     borderopacity="1.0"
     inkscape:pageopacity="0.0"
     inkscape:pageshadow="2"
     inkscape:zoom="0.5"
     inkscape:cx="218.10157"
     inkscape:cy="-43.713319"
     inkscape:document-units="px"
     inkscape:current-layer="layer1"
     showgrid="false"
     inkscape:window-width="1301"
     inkscape:window-height="744"
     inkscape:window-x="65"
     inkscape:window-y="24"
     inkscape:window-maximized="1" />
  <metadata
     id="metadata7">
    <rdf:RDF>
      <cc:Work
         rdf:about="">
        <dc:format>image/svg+xml</dc:format>
        <dc:type
           rdf:resource="http://purl.org/dc/dcmitype/StillImage" />
        <dc:title></dc:title>
      </cc:Work>
    </rdf:RDF>
  </metadata>
  <g
     inkscape:label="Layer 1"
     inkscape:groupmode="layer"
     id="layer1"
     transform="translate(0,-540.36218)">
    <path
       style="fill:#4d4d4d;fill-opacity:1"
       d="m 77.978175,780.36218 0,-52 3.199301,0 3.199302,0 0,52 0,52 -3.199302,0 -3.199301,0 0,-52 z"
       id="path3074"
       inkscape:connector-curvature="0" />
    <path
       style="fill:#4d4d4d;fill-opacity:1"
       d="m 128.73211,797.86218 0,-34.5 3,0 3,0 0,34.5 0,34.5 -3,0 -3,0 0,-34.5 z"
       id="path3076"
       inkscape:connector-curvature="0" />
    <path
       style="fill:#4d4d4d;fill-opacity:1"
       d="m 89.454205,811.91593 0,-20.44626 3,0 3,0 0,20.44626 0,20.44625 -3,0 -3,0 0,-20.44625 z"
       id="path3076-3"
       inkscape:connector-curvature="0" />
    <path
       style="fill:#4d4d4d;fill-opacity:1"
       d="m 99.530483,811.68429 0,-20.44626 2.999997,0 3,0 0,20.44626 0,20.44625 -3,0 -2.999997,0 0,-20.44625 z"
       id="path3076-3-7"
       inkscape:connector-curvature="0" />
    <path
       style="fill:#4d4d4d;fill-opacity:1"
       d="m 109.60676,811.50752 0,-20.44626 3,0 3,0 0,20.44626 0,20.44625 -3,0 -3,0 0,-20.44625 z"
       id="path3076-3-8"
       inkscape:connector-curvature="0"
       inkscape:transform-center-x="-1.0606602"
       inkscape:transform-center-y="-1.767767" />
    <path
       style="fill:#4d4d4d;fill-opacity:1"
       d="m 119.1527,811.50752 0,-20.44626 3,0 3,0 0,20.44626 0,20.44625 -3,0 -3,0 0,-20.44625 z"
       id="path3076-3-3"
       inkscape:connector-curvature="0" />
    <path
       style="fill:#4d4d4d;fill-opacity:1"
       d="m 138.24457,811.50752 0,-20.44626 3,0 3,0 0,20.44626 0,20.44625 -3,0 -3,0 0,-20.44625 z"
       id="path3076-3-1"
       inkscape:connector-curvature="0" />
    <path
       style="fill:#4d4d4d;fill-opacity:1"
       d="m 148.32085,811.59591 0,-20.44626 3,0 3,0 0,20.44626 0,20.44625 -3,0 -3,0 0,-20.44625 z"
       id="path3076-3-7-4"
       inkscape:connector-curvature="0" />
    <path
       style="fill:#4d4d4d;fill-opacity:1"
       d="m 158.39713,811.41914 0,-20.44626 3,0 3,0 0,20.44626 0,20.44625 -3,0 -3,0 0,-20.44625 z"
       id="path3076-3-8-0"
       inkscape:connector-curvature="0"
       inkscape:transform-center-x="-1.0606602"
       inkscape:transform-center-y="-1.767767" />
    <path
       style="fill:#4d4d4d;fill-opacity:1"
       d="m 167.94307,811.41914 0,-20.44626 3,0 3,0 0,20.44626 0,20.44625 -3,0 -3,0 0,-20.44625 z"
       id="path3076-3-3-2"
       inkscape:connector-curvature="0" />
    <path
       style="fill:#4d4d4d;fill-opacity:1"
       d="m 177.703,779.45371 0,-52 3.1993,0 3.1993,0 0,52 0,52 -3.1993,0 -3.1993,0 0,-52 z"
       id="path3074-9"
       inkscape:connector-curvature="0" />
    <path
       style="fill:#4d4d4d;fill-opacity:1"
       d="m 228.45693,797.54469 0,-34.5 3,0 3,0 0,34.5 0,34.5 -3,0 -3,0 0,-34.5 z"
       id="path3076-7"
       inkscape:connector-curvature="0" />
    <path
       style="fill:#4d4d4d;fill-opacity:1"
       d="m 189.17903,811.27841 0,-20.44626 3,0 3,0 0,20.44626 0,20.44625 -3,0 -3,0 0,-20.44625 z"
       id="path3076-3-81"
       inkscape:connector-curvature="0" />
    <path
       style="fill:#4d4d4d;fill-opacity:1"
       d="m 199.2553,811.3668 0,-20.44626 3,0 3,0 0,20.44626 0,20.44625 -3,0 -3,0 0,-20.44625 z"
       id="path3076-3-7-8"
       inkscape:connector-curvature="0" />
    <path
       style="fill:#4d4d4d;fill-opacity:1"
       d="m 209.33158,811.19003 0,-20.44626 3,0 3,0 0,20.44626 0,20.44625 -3,0 -3,0 0,-20.44625 z"
       id="path3076-3-8-8"
       inkscape:connector-curvature="0"
       inkscape:transform-center-x="-1.0606602"
       inkscape:transform-center-y="-1.767767" />
    <path
       style="fill:#4d4d4d;fill-opacity:1"
       d="m 218.87752,811.19003 0,-20.44626 3,0 3,0 0,20.44626 0,20.44625 -3,0 -3,0 0,-20.44625 z"
       id="path3076-3-3-9"
       inkscape:connector-curvature="0" />
    <path
       style="fill:#4d4d4d;fill-opacity:1"
       d="m 237.96939,811.19003 0,-20.44626 3,0 3,0 0,20.44626 0,20.44625 -3,0 -3,0 0,-20.44625 z"
       id="path3076-3-1-1"
       inkscape:connector-curvature="0" />
    <path
       style="fill:#4d4d4d;fill-opacity:1"
       d="m 248.04567,811.27842 0,-20.44626 3,0 3,0 0,20.44626 0,20.44625 -3,0 -3,0 0,-20.44625 z"
       id="path3076-3-7-4-2"
       inkscape:connector-curvature="0" />
    <path
       style="fill:#4d4d4d;fill-opacity:1"
       d="m 258.12195,811.10165 0,-20.44626 3,0 3,0 0,20.44626 0,20.44625 -3,0 -3,0 0,-20.44625 z"
       id="path3076-3-8-0-9"
       inkscape:connector-curvature="0"
       inkscape:transform-center-x="-1.0606602"
       inkscape:transform-center-y="-1.767767" />
    <path
       style="fill:#4d4d4d;fill-opacity:1"
       d="m 267.66789,811.10165 0,-20.44626 3,0 3,0 0,20.44626 0,20.44625 -3,0 -3,0 0,-20.44625 z"
       id="path3076-3-3-2-0"
       inkscape:connector-curvature="0" />
    <path
       style="fill:#4d4d4d;fill-opacity:1"
       d="m 277.703,779.20371 0,-52 3.1993,0 3.1993,0 0,52 0,52 -3.1993,0 -3.1993,0 0,-52 z"
       id="path3074-2"
       inkscape:connector-curvature="0" />
    <path
       style="fill:#4d4d4d;fill-opacity:1"
       d="m 328.45693,797.29469 0,-34.5 3,0 3,0 0,34.5 0,34.5 -3,0 -3,0 0,-34.5 z"
       id="path3076-2"
       inkscape:connector-curvature="0" />
    <path
       style="fill:#4d4d4d;fill-opacity:1"
       d="m 289.17903,811.02841 0,-20.44626 3,0 3,0 0,20.44626 0,20.44625 -3,0 -3,0 0,-20.44625 z"
       id="path3076-3-5"
       inkscape:connector-curvature="0" />
    <path
       style="fill:#4d4d4d;fill-opacity:1"
       d="m 299.2553,811.1168 0,-20.44626 3,0 3,0 0,20.44626 0,20.44625 -3,0 -3,0 0,-20.44625 z"
       id="path3076-3-7-5"
       inkscape:connector-curvature="0" />
    <path
       style="fill:#4d4d4d;fill-opacity:1"
       d="m 309.33158,810.94003 0,-20.44626 3,0 3,0 0,20.44626 0,20.44625 -3,0 -3,0 0,-20.44625 z"
       id="path3076-3-8-3"
       inkscape:connector-curvature="0"
       inkscape:transform-center-x="-1.0606602"
       inkscape:transform-center-y="-1.767767" />
    <path
       style="fill:#4d4d4d;fill-opacity:1"
       d="m 318.87752,810.94003 0,-20.44626 3,0 3,0 0,20.44626 0,20.44625 -3,0 -3,0 0,-20.44625 z"
       id="path3076-3-3-0"
       inkscape:connector-curvature="0" />
    <path
       style="fill:#4d4d4d;fill-opacity:1"
       d="m 337.96939,810.94003 0,-20.44626 3,0 3,0 0,20.44626 0,20.44625 -3,0 -3,0 0,-20.44625 z"
       id="path3076-3-1-5"
       inkscape:connector-curvature="0" />
    <path
       style="fill:#4d4d4d;fill-opacity:1"
       d="m 348.04567,811.02842 0,-20.44626 3,0 3,0 0,20.44626 0,20.44625 -3,0 -3,0 0,-20.44625 z"
       id="path3076-3-7-4-3"
       inkscape:connector-curvature="0" />
    <path
       style="fill:#4d4d4d;fill-opacity:1"
       d="m 358.12195,810.85165 0,-20.44626 3,0 3,0 0,20.44626 0,20.44625 -3,0 -3,0 0,-20.44625 z"
       id="path3076-3-8-0-4"
       inkscape:connector-curvature="0"
       inkscape:transform-center-x="-1.0606602"
       inkscape:transform-center-y="-1.767767" />
    <path
       style="fill:#4d4d4d;fill-opacity:1"
       d="m 367.66789,810.85165 0,-20.44626 3,0 3,0 0,20.44626 0,20.44625 -3,0 -3,0 0,-20.44625 z"
       id="path3076-3-3-2-8"
       inkscape:connector-curvature="0" />
    <path
       style="fill:#4d4d4d;fill-opacity:1"
       d="m 377.89841,779.47378 0,-52 3.1993,0 3.1993,0 0,52 0,52 -3.1993,0 -3.1993,0 0,-52 z"
       id="path3074-4-7"
       inkscape:connector-curvature="0" />
    <path
       sodipodi:type="star"
       style="fill:#4d4d4d;fill-opacity:1"
       id="path3274"
       sodipodi:sides="3"
       sodipodi:cx="286"
       sodipodi:cy="474"
       sodipodi:r1="128.01562"
       sodipodi:r2="64.007812"
       sodipodi:arg1="-1.5551726"
       sodipodi:arg2="-0.50797505"
       inkscape:flatsided="false"
       inkscape:rounded="0"
       inkscape:randomized="0"
       d="m 288,346 53.92563,96.86603 53.92562,96.86602 L 285,538 174.14875,536.26795 231.07437,441.13397 z"
       transform="matrix(0.42264974,0,0,0.41155839,60.544825,713.96298)"
       inkscape:transform-center-x="-0.26121271"
       inkscape:transform-center-y="-4.788531" />
    <rect
       style="fill:#4d4d4d;fill-opacity:1"
       id="rect3282"
       width="42"
       height="40"
       x="160"
       y="384"
       transform="translate(0,540.36218)"
       rx="5.9000001"
       ry="4" />
  </g>
</svg>
