<?xml version="1.0" encoding="windows-1252"?>
<!-- Generator: Adobe Illustrator 16.0.0, SVG Export Plug-In . SVG Version: 6.00 Build 0)  -->
<!DOCTYPE svg PUBLIC "-//W3C//DTD SVG 1.1//EN" "http://www.w3.org/Graphics/SVG/1.1/DTD/svg11.dtd">
<svg version="1.1" id="Capa_1" xmlns="http://www.w3.org/2000/svg" xmlns:xlink="http://www.w3.org/1999/xlink" x="0px" y="0px" width="485.215px" height="485.215px" viewBox="0 0 485.215 485.215" style="enable-background:new 0 0 485.215 485.215;" xml:space="preserve">
<g>
	<path d="M242.606,0.001C108.628,0.001,0,108.63,0,242.607c0,133.976,108.628,242.606,242.606,242.606   c133.978,0,242.608-108.631,242.608-242.606C485.215,108.63,376.584,0.001,242.606,0.001z M212.279,60.652h60.648v151.631h-60.648   V60.652L212.279,60.652z M242.606,403.358c-88.609,0-160.692-72.088-160.692-160.751c0-63.673,37.848-121.36,96.368-147.066   l3.673-1.601v55.144c-32.28,20.851-51.531,55.319-51.531,93.523c0,61.897,50.346,112.241,112.183,112.241   c61.895,0,112.243-50.344,112.243-112.241c0-38.205-19.308-72.673-51.59-93.523V93.94l3.668,1.601   c58.581,25.706,96.432,83.398,96.432,147.069C403.359,331.271,331.215,403.358,242.606,403.358z"/>
</g>
<g>
</g>
<g>
</g>
<g>
</g>
<g>
</g>
<g>
</g>
<g>
</g>
<g>
</g>
<g>
</g>
<g>
</g>
<g>
</g>
<g>
</g>
<g>
</g>
<g>
</g>
<g>
</g>
<g>
</g>
</svg>