<svg id="Layer_1" data-name="Layer 1" xmlns="http://www.w3.org/2000/svg" viewBox="0 0 500 500">
  <defs>
    <style>
      .cls-1 {
        fill: #0072bc;
      }

      .cls-2 {
        fill: #fff;
      }
    </style>
  </defs>
  <title>panel</title>
  <circle class="cls-1" cx="250" cy="250" r="250"/>
  <path class="cls-2" d="M260.31,5344.36c130.19,0,236.11,105.92,236.11,236.11S390.5,5816.58,260.31,5816.58,24.2,5710.66,24.2,5580.47s105.92-236.11,236.11-236.11" transform="translate(-10.31 -5330.47)"/>
  <path class="cls-1" d="M292.46,5466.27H228.33l-1.84,15.29h67.77Zm77.73,15.29-7.38-15.29H298.68c0.29,1.45,1.47,7.08,3.18,15.29h68.33Zm-152.94,76.56-5.32,44H308.5l-5.2-44H217.25Zm1.28-10.63H302l-3.46-29.35H222.07ZM308,5511.07h76.44l-11.78-24.45H302.9C304.36,5493.67,306.1,5502.06,308,5511.07Zm19.2,91.08H428.36l-21.25-44H317.79C322.57,5581,326.54,5599.76,327.17,5602.15Zm-11.61-54.65H402l-14.17-29.35H309.44C311.45,5527.76,313.54,5537.8,315.56,5547.5Zm-104.47-29.35h-78.3l-14.16,29.35h86.22Zm83.78-31.52h-69l-2.95,24.45h74.82Zm133.55,142.75v-16H92.2v16H240.72v45.44A83.62,83.62,0,0,0,203.14,5695v0.16H203v19H317.67v-4.28h0v-14.53h0v-0.14h-0.16a83.6,83.6,0,0,0-37.61-20.28v-45.48H428.41Zm-225.82-71.24H113.5l-21.24,44h101Zm19.52-91.86H157.8l-7.38,15.29h68.43Zm-4.32,20.35H148l-11.78,24.45h76.38Z" transform="translate(-10.31 -5330.47)"/>
</svg>