<?xml version="1.0" encoding="UTF-8" standalone="no"?>
<svg xmlns:dc="http://purl.org/dc/elements/1.1/" xmlns:cc="http://creativecommons.org/ns#" xmlns:rdf="http://www.w3.org/1999/02/22-rdf-syntax-ns#" xmlns:svg="http://www.w3.org/2000/svg" xmlns="http://www.w3.org/2000/svg" xmlns:xlink="http://www.w3.org/1999/xlink" version="1.1" id="svg4403" viewBox="0 0 486.99781 192.854" height="54.427685mm" width="137.4416mm">
  <defs id="defs4405">
    <radialGradient r="498.64001" gradientTransform="matrix(0.010348,-0.99995,1.3981,0.014468,-241.76,762.36)" cx="451.42999" cy="492.48001" gradientUnits="userSpaceOnUse" id="radialGradient4459">
      <stop offset="0" style="stop-color:#8a8a8a" id="stop4455"/>
      <stop offset="1" style="stop-color:#000000" id="stop4457"/>
    </radialGradient>
    <radialGradient r="498.64001" cy="492.48001" cx="451.42999" gradientTransform="matrix(0.0020696,-0.19999,0.27962,0.0028936,203.22286,432.50519)" gradientUnits="userSpaceOnUse" id="radialGradient5111" xlink:href="#radialGradient4459"/>
    <radialGradient r="498.64001" cy="492.48001" cx="451.42999" gradientTransform="matrix(0.0020696,-0.19999,0.27962,0.0028936,172.50857,403.93376)" gradientUnits="userSpaceOnUse" id="radialGradient5274" xlink:href="#radialGradient4459"/>
    <radialGradient r="498.64001" cy="492.48001" cx="451.42999" gradientTransform="matrix(0.0020696,-0.19999,0.27962,0.0028936,143.93714,372.50519)" gradientUnits="userSpaceOnUse" id="radialGradient5336" xlink:href="#radialGradient4459"/>
  </defs>
  <metadata id="metadata4408">
    <rdf:RDF>
      <cc:Work rdf:about="">
        <dc:format>image/svg+xml</dc:format>
        <dc:type rdf:resource="http://purl.org/dc/dcmitype/StillImage"/>
        <dc:title/>
      </cc:Work>
    </rdf:RDF>
  </metadata>
  <g transform="translate(-84.147141,-170.93519)" id="layer1">
    <rect x="87.147133" y="173.9352" width="211.42" height="126.854" style="fill:#ffffff;stroke:#000000;stroke-width:6;stroke-linecap:round;stroke-linejoin:round" id="rect5284"/>
    <rect x="87.147133" y="173.9352" width="211.42" height="126.854" style="fill:#ffffff;stroke-width:0" id="rect5286"/>
    <path d="m 93.43114,180.79119 12.4286,0 12.4286,0 12.4286,0 12.4286,0 12.4286,0 12.4286,0 12.4286,0 12.4286,0 12.4286,0 12.4286,0 12.4286,0 12.4286,0 12.4286,0 12.4286,0 12.4286,0 12.4286,0 0,113.142 -12.4286,0 -12.4286,0 -12.4286,0 -12.4286,0 -12.4286,0 -12.4286,0 -12.4286,0 -12.4286,0 -12.4286,0 -12.4286,0 -12.4286,0 -12.4286,0 -12.4286,0 -12.4286,0 -12.4286,0 -12.4286,0 z" style="fill:url(#radialGradient5336);stroke:#ffffff;stroke-width:0.60000002;stroke-linecap:round;stroke-linejoin:round" id="path5288"/>
    <path d="m 93.43114,180.79119 12.4286,0 12.4286,0 12.4286,0 12.4286,0 12.4286,0 12.4286,0 12.4286,0 12.4286,0 12.4286,0 12.4286,0 12.4286,0 12.4286,0 12.4286,0 12.4286,0 12.4286,0 0,113.142 -12.4286,0 -12.4286,0 -12.4286,0 -12.4286,0 -12.4286,0 -12.4286,0 -12.4286,0 -12.4286,0 -12.4286,0 -12.4286,0 -12.4286,0 -12.4286,0 -12.4286,0 -12.4286,0 -12.4286,0 z" style="fill:none;stroke:#ffffff;stroke-width:0.60000002;stroke-linecap:round;stroke-linejoin:round" id="path5290"/>
    <path d="m 93.43114,180.79119 12.4286,0 12.4286,0 12.4286,0 12.4286,0 12.4286,0 12.4286,0 12.4286,0 12.4286,0 12.4286,0 12.4286,0 12.4286,0 12.4286,0 12.4286,0 12.4286,0 0,113.142 -12.4286,0 -12.4286,0 -12.4286,0 -12.4286,0 -12.4286,0 -12.4286,0 -12.4286,0 -12.4286,0 -12.4286,0 -12.4286,0 -12.4286,0 -12.4286,0 -12.4286,0 -12.4286,0 z" style="fill:none;stroke:#ffffff;stroke-width:0.60000002;stroke-linecap:round;stroke-linejoin:round" id="path5292"/>
    <path d="m 93.43114,180.79119 12.4286,0 12.4286,0 12.4286,0 12.4286,0 12.4286,0 12.4286,0 12.4286,0 12.4286,0 12.4286,0 12.4286,0 12.4286,0 12.4286,0 12.4286,0 0,113.142 -12.4286,0 -12.4286,0 -12.4286,0 -12.4286,0 -12.4286,0 -12.4286,0 -12.4286,0 -12.4286,0 -12.4286,0 -12.4286,0 -12.4286,0 -12.4286,0 -12.4286,0 z" style="fill:none;stroke:#ffffff;stroke-width:0.60000002;stroke-linecap:round;stroke-linejoin:round" id="path5294"/>
    <path d="m 93.43114,180.79119 12.4286,0 12.4286,0 12.4286,0 12.4286,0 12.4286,0 12.4286,0 12.4286,0 12.4286,0 12.4286,0 12.4286,0 12.4286,0 12.4286,0 0,113.142 -12.4286,0 -12.4286,0 -12.4286,0 -12.4286,0 -12.4286,0 -12.4286,0 -12.4286,0 -12.4286,0 -12.4286,0 -12.4286,0 -12.4286,0 -12.4286,0 z" style="fill:none;stroke:#ffffff;stroke-width:0.60000002;stroke-linecap:round;stroke-linejoin:round" id="path5296"/>
    <path d="m 93.43114,180.79119 12.4286,0 12.4286,0 12.4286,0 12.4286,0 12.4286,0 12.4286,0 12.4286,0 12.4286,0 12.4286,0 12.4286,0 12.4286,0 0,113.142 -12.4286,0 -12.4286,0 -12.4286,0 -12.4286,0 -12.4286,0 -12.4286,0 -12.4286,0 -12.4286,0 -12.4286,0 -12.4286,0 -12.4286,0 z" style="fill:none;stroke:#ffffff;stroke-width:0.60000002;stroke-linecap:round;stroke-linejoin:round" id="path5298"/>
    <path d="m 93.43114,180.79119 12.4286,0 12.4286,0 12.4286,0 12.4286,0 12.4286,0 12.4286,0 12.4286,0 12.4286,0 12.4286,0 12.4286,0 0,113.142 -12.4286,0 -12.4286,0 -12.4286,0 -12.4286,0 -12.4286,0 -12.4286,0 -12.4286,0 -12.4286,0 -12.4286,0 -12.4286,0 z" style="fill:none;stroke:#ffffff;stroke-width:0.60000002;stroke-linecap:round;stroke-linejoin:round" id="path5300"/>
    <path d="m 93.43114,180.79119 12.4286,0 12.4286,0 12.4286,0 12.4286,0 12.4286,0 12.4286,0 12.4286,0 12.4286,0 12.4286,0 0,113.142 -12.4286,0 -12.4286,0 -12.4286,0 -12.4286,0 -12.4286,0 -12.4286,0 -12.4286,0 -12.4286,0 -12.4286,0 z" style="fill:none;stroke:#ffffff;stroke-width:0.60000002;stroke-linecap:round;stroke-linejoin:round" id="path5302"/>
    <path d="m 93.43114,180.79119 12.4286,0 12.4286,0 12.4286,0 12.4286,0 12.4286,0 12.4286,0 12.4286,0 12.4286,0 0,113.142 -12.4286,0 -12.4286,0 -12.4286,0 -12.4286,0 -12.4286,0 -12.4286,0 -12.4286,0 -12.4286,0 z" style="fill:none;stroke:#ffffff;stroke-width:0.60000002;stroke-linecap:round;stroke-linejoin:round" id="path5304"/>
    <path d="m 93.43114,180.79119 12.4286,0 12.4286,0 12.4286,0 12.4286,0 12.4286,0 12.4286,0 12.4286,0 0,113.142 -12.4286,0 -12.4286,0 -12.4286,0 -12.4286,0 -12.4286,0 -12.4286,0 -12.4286,0 z" style="fill:none;stroke:#ffffff;stroke-width:0.60000002;stroke-linecap:round;stroke-linejoin:round" id="path5306"/>
    <path d="m 93.43114,180.79119 12.4286,0 12.4286,0 12.4286,0 12.4286,0 12.4286,0 12.4286,0 0,113.142 -12.4286,0 -12.4286,0 -12.4286,0 -12.4286,0 -12.4286,0 -12.4286,0 z" style="fill:none;stroke:#ffffff;stroke-width:0.60000002;stroke-linecap:round;stroke-linejoin:round" id="path5308"/>
    <path d="m 93.43114,180.79119 12.4286,0 12.4286,0 12.4286,0 12.4286,0 12.4286,0 0,113.142 -12.4286,0 -12.4286,0 -12.4286,0 -12.4286,0 -12.4286,0 z" style="fill:none;stroke:#ffffff;stroke-width:0.60000002;stroke-linecap:round;stroke-linejoin:round" id="path5310"/>
    <path d="m 93.43114,180.79119 12.4286,0 12.4286,0 12.4286,0 12.4286,0 0,113.142 -12.4286,0 -12.4286,0 -12.4286,0 -12.4286,0 z" style="fill:none;stroke:#ffffff;stroke-width:0.60000002;stroke-linecap:round;stroke-linejoin:round" id="path5312"/>
    <path d="m 93.43114,180.79119 12.4286,0 12.4286,0 12.4286,0 0,113.142 -12.4286,0 -12.4286,0 -12.4286,0 z" style="fill:none;stroke:#ffffff;stroke-width:0.60000002;stroke-linecap:round;stroke-linejoin:round" id="path5314"/>
    <path d="m 93.43114,180.79119 12.4286,0 12.4286,0 0,113.142 -12.4286,0 -12.4286,0 z" style="fill:none;stroke:#ffffff;stroke-width:0.60000002;stroke-linecap:round;stroke-linejoin:round" id="path5316"/>
    <path d="m 93.43114,180.79119 12.4286,0 0,113.142 -12.4286,0 z" style="fill:none;stroke:#ffffff;stroke-width:0.60000002;stroke-linecap:round;stroke-linejoin:round" id="path5318"/>
    <circle transform="matrix(-0.12449995,0.99221961,-0.99221961,-0.12449995,0,0)" r="1.071429" cy="-111.93962" cx="164.82463" id="circle5322" style="fill:#999999;stroke:#666666;stroke-width:0.60000026;stroke-linecap:round;stroke-linejoin:round"/>
    <path id="path5324" d="m 91.457927,176.93865 -1.790702,1.12553" style="fill:none;stroke:#666666;stroke-width:0.40000015"/>
    <path id="path5326" d="m 300.71429,237.3622 70,0" style="fill:none;fill-rule:evenodd;stroke:#000000;stroke-width:4;stroke-linecap:butt;stroke-linejoin:miter;stroke-miterlimit:4;stroke-dasharray:none;stroke-opacity:1"/>
    <circle r="15" cy="237.36221" cx="385.71429" id="circle5328" style="opacity:1;fill:#ffffff;fill-opacity:1;stroke:#000000;stroke-width:2;stroke-miterlimit:4;stroke-dasharray:none;stroke-opacity:1"/>
    <g id="text5330" style="font-style:normal;font-weight:normal;font-size:40px;line-height:125%;font-family:Sans;text-align:center;letter-spacing:0px;word-spacing:0px;text-anchor:middle;fill:#000000;fill-opacity:1;stroke:none;stroke-width:1px;stroke-linecap:butt;stroke-linejoin:miter;stroke-opacity:1">
      <path id="path4492" style="font-size:11.25px" d="m 377.82758,239.68939 q -0.27466,0.57129 -0.7306,0.81848 -0.45043,0.2472 -1.1206,0.2472 -1.1261,0 -1.65894,-0.75806 -0.52734,-0.75806 -0.52734,-2.29614 0,-3.10913 2.18628,-3.10913 0.67566,0 1.1261,0.24719 0.45044,0.24719 0.7251,0.78552 l 0.011,0 q 0,-0.0549 -0.005,-0.17029 0,-0.12085 -0.005,-0.24719 0,-0.13184 0,-0.24719 0,-0.11536 0,-0.1648 l 0,-2.30163 0.98877,0 0,6.92688 q 0,0.21423 0,0.41198 0.005,0.19776 0.011,0.36255 0.005,0.1648 0.011,0.28565 0.005,0.11535 0.011,0.16479 l -0.94482,0 q -0.011,-0.0549 -0.022,-0.15381 -0.006,-0.10437 -0.0165,-0.2362 -0.006,-0.13184 -0.011,-0.27466 -0.005,-0.14832 -0.005,-0.29114 l -0.022,0 z m -2.99927,-2.02148 q 0,0.61523 0.0769,1.05469 0.0769,0.43945 0.24719,0.72509 0.17029,0.28015 0.43396,0.41199 0.26368,0.13184 0.6427,0.13184 0.39002,0 0.68665,-0.12635 0.30212,-0.12634 0.49988,-0.40649 0.20325,-0.28565 0.30762,-0.74158 0.10437,-0.45593 0.10437,-1.11511 0,-0.63171 -0.10437,-1.06567 -0.10437,-0.43946 -0.30762,-0.70862 -0.20325,-0.26917 -0.49988,-0.38452 -0.29114,-0.12085 -0.67566,-0.12085 -0.36255,0 -0.62622,0.12634 -0.26367,0.12634 -0.43945,0.40649 -0.17578,0.28015 -0.26367,0.73059 -0.0824,0.44495 -0.0824,1.08216 z"/>
      <path id="path4494" style="font-size:11.25px" d="m 381.09052,237.64594 q 0,0.51086 0.0714,0.93933 0.0769,0.42846 0.25268,0.74157 0.17578,0.30762 0.46143,0.47791 0.29114,0.17029 0.71411,0.17029 0.52734,0 0.87891,-0.28565 0.35705,-0.28564 0.43945,-0.8789 l 0.99975,0.0659 q -0.0494,0.36805 -0.21423,0.70862 -0.16479,0.34058 -0.45044,0.59876 -0.28015,0.25818 -0.68664,0.41748 -0.4065,0.15381 -0.93934,0.15381 -0.69763,0 -1.18652,-0.23621 -0.48889,-0.23621 -0.79651,-0.64819 -0.30212,-0.41748 -0.43945,-0.97779 -0.13733,-0.56579 -0.13733,-1.22497 0,-0.59876 0.0989,-1.05469 0.0989,-0.46143 0.27466,-0.802 0.18127,-0.34607 0.42297,-0.57678 0.2417,-0.23621 0.52185,-0.37354 0.28564,-0.14282 0.59875,-0.20325 0.31311,-0.0659 0.63172,-0.0659 0.49988,0 0.88989,0.13732 0.39002,0.13733 0.67017,0.37903 0.28564,0.23621 0.46142,0.56031 0.17578,0.32409 0.2472,0.69763 l -1.01624,0.0769 q -0.0769,-0.49438 -0.39001,-0.78552 -0.31312,-0.29114 -0.8899,-0.29114 -0.42297,0 -0.70862,0.14282 -0.28015,0.13733 -0.45593,0.42298 -0.17578,0.28015 -0.25268,0.70862 -0.0714,0.42846 -0.0714,1.00525 z"/>
      <path id="path4496" style="font-size:11.25px" d="m 385.70477,238.09637 0,-0.8789 2.74658,0 0,0.8789 -2.74658,0 z"/>
      <path id="path4498" style="font-size:11.25px" d="m 390.47284,237.64594 q 0,0.51086 0.0714,0.93933 0.0769,0.42846 0.25269,0.74157 0.17578,0.30762 0.46142,0.47791 0.29114,0.17029 0.71411,0.17029 0.52735,0 0.87891,-0.28565 0.35706,-0.28564 0.43945,-0.8789 l 0.99976,0.0659 q -0.0494,0.36805 -0.21424,0.70862 -0.16479,0.34058 -0.45043,0.59876 -0.28016,0.25818 -0.68665,0.41748 -0.40649,0.15381 -0.93933,0.15381 -0.69763,0 -1.18652,-0.23621 -0.4889,-0.23621 -0.79651,-0.64819 -0.30213,-0.41748 -0.43946,-0.97779 -0.13733,-0.56579 -0.13733,-1.22497 0,-0.59876 0.0989,-1.05469 0.0989,-0.46143 0.27466,-0.802 0.18127,-0.34607 0.42297,-0.57678 0.2417,-0.23621 0.52185,-0.37354 0.28565,-0.14282 0.59876,-0.20325 0.31311,-0.0659 0.63171,-0.0659 0.49988,0 0.8899,0.13732 0.39001,0.13733 0.67016,0.37903 0.28565,0.23621 0.46143,0.56031 0.17578,0.32409 0.24719,0.69763 l -1.01624,0.0769 q -0.0769,-0.49438 -0.39001,-0.78552 -0.31311,-0.29114 -0.88989,-0.29114 -0.42298,0 -0.70862,0.14282 -0.28015,0.13733 -0.45593,0.42298 -0.17579,0.28015 -0.25269,0.70862 -0.0714,0.42846 -0.0714,1.00525 z"/>
      <path id="path4500" style="font-size:11.25px" d="m 397.63043,240.60126 q -0.22522,0.0604 -0.46142,0.0934 -0.23072,0.0385 -0.53833,0.0385 -1.18653,0 -1.18653,-1.34582 l 0,-3.96607 -0.68664,0 0,-0.7196 0.72509,0 0.29114,-1.32935 0.65918,0 0,1.32935 1.09864,0 0,0.7196 -1.09864,0 0,3.75183 q 0,0.42847 0.13733,0.60425 0.14282,0.17029 0.48889,0.17029 0.14283,0 0.27466,-0.022 0.13733,-0.022 0.29663,-0.0549 l 0,0.73059 z"/>
    </g>
    <path style="fill:none;fill-rule:evenodd;stroke:#000000;stroke-width:4;stroke-linecap:butt;stroke-linejoin:miter;stroke-miterlimit:4;stroke-dasharray:none;stroke-opacity:1" d="m 401.22446,237.3622 70,0" id="path5334"/>
    <rect id="rect5222" style="fill:#ffffff;stroke:#000000;stroke-width:6;stroke-linecap:round;stroke-linejoin:round" height="126.854" width="211.42" y="205.36375" x="115.71857"/>
    <rect id="rect5224" style="fill:#ffffff;stroke-width:0" height="126.854" width="211.42" y="205.36375" x="115.71857"/>
    <path id="path5226" style="fill:url(#radialGradient5274);stroke:#ffffff;stroke-width:0.60000002;stroke-linecap:round;stroke-linejoin:round" d="m 122.00257,212.21976 12.4286,0 12.4286,0 12.4286,0 12.4286,0 12.4286,0 12.4286,0 12.4286,0 12.4286,0 12.4286,0 12.4286,0 12.4286,0 12.4286,0 12.4286,0 12.4286,0 12.4286,0 12.4286,0 0,113.142 -12.4286,0 -12.4286,0 -12.4286,0 -12.4286,0 -12.4286,0 -12.4286,0 -12.4286,0 -12.4286,0 -12.4286,0 -12.4286,0 -12.4286,0 -12.4286,0 -12.4286,0 -12.4286,0 -12.4286,0 -12.4286,0 z"/>
    <path id="path5228" style="fill:none;stroke:#ffffff;stroke-width:0.60000002;stroke-linecap:round;stroke-linejoin:round" d="m 122.00257,212.21976 12.4286,0 12.4286,0 12.4286,0 12.4286,0 12.4286,0 12.4286,0 12.4286,0 12.4286,0 12.4286,0 12.4286,0 12.4286,0 12.4286,0 12.4286,0 12.4286,0 12.4286,0 0,113.142 -12.4286,0 -12.4286,0 -12.4286,0 -12.4286,0 -12.4286,0 -12.4286,0 -12.4286,0 -12.4286,0 -12.4286,0 -12.4286,0 -12.4286,0 -12.4286,0 -12.4286,0 -12.4286,0 -12.4286,0 z"/>
    <path id="path5230" style="fill:none;stroke:#ffffff;stroke-width:0.60000002;stroke-linecap:round;stroke-linejoin:round" d="m 122.00257,212.21976 12.4286,0 12.4286,0 12.4286,0 12.4286,0 12.4286,0 12.4286,0 12.4286,0 12.4286,0 12.4286,0 12.4286,0 12.4286,0 12.4286,0 12.4286,0 12.4286,0 0,113.142 -12.4286,0 -12.4286,0 -12.4286,0 -12.4286,0 -12.4286,0 -12.4286,0 -12.4286,0 -12.4286,0 -12.4286,0 -12.4286,0 -12.4286,0 -12.4286,0 -12.4286,0 -12.4286,0 z"/>
    <path id="path5232" style="fill:none;stroke:#ffffff;stroke-width:0.60000002;stroke-linecap:round;stroke-linejoin:round" d="m 122.00257,212.21976 12.4286,0 12.4286,0 12.4286,0 12.4286,0 12.4286,0 12.4286,0 12.4286,0 12.4286,0 12.4286,0 12.4286,0 12.4286,0 12.4286,0 12.4286,0 0,113.142 -12.4286,0 -12.4286,0 -12.4286,0 -12.4286,0 -12.4286,0 -12.4286,0 -12.4286,0 -12.4286,0 -12.4286,0 -12.4286,0 -12.4286,0 -12.4286,0 -12.4286,0 z"/>
    <path id="path5234" style="fill:none;stroke:#ffffff;stroke-width:0.60000002;stroke-linecap:round;stroke-linejoin:round" d="m 122.00257,212.21976 12.4286,0 12.4286,0 12.4286,0 12.4286,0 12.4286,0 12.4286,0 12.4286,0 12.4286,0 12.4286,0 12.4286,0 12.4286,0 12.4286,0 0,113.142 -12.4286,0 -12.4286,0 -12.4286,0 -12.4286,0 -12.4286,0 -12.4286,0 -12.4286,0 -12.4286,0 -12.4286,0 -12.4286,0 -12.4286,0 -12.4286,0 z"/>
    <path id="path5236" style="fill:none;stroke:#ffffff;stroke-width:0.60000002;stroke-linecap:round;stroke-linejoin:round" d="m 122.00257,212.21976 12.4286,0 12.4286,0 12.4286,0 12.4286,0 12.4286,0 12.4286,0 12.4286,0 12.4286,0 12.4286,0 12.4286,0 12.4286,0 0,113.142 -12.4286,0 -12.4286,0 -12.4286,0 -12.4286,0 -12.4286,0 -12.4286,0 -12.4286,0 -12.4286,0 -12.4286,0 -12.4286,0 -12.4286,0 z"/>
    <path id="path5238" style="fill:none;stroke:#ffffff;stroke-width:0.60000002;stroke-linecap:round;stroke-linejoin:round" d="m 122.00257,212.21976 12.4286,0 12.4286,0 12.4286,0 12.4286,0 12.4286,0 12.4286,0 12.4286,0 12.4286,0 12.4286,0 12.4286,0 0,113.142 -12.4286,0 -12.4286,0 -12.4286,0 -12.4286,0 -12.4286,0 -12.4286,0 -12.4286,0 -12.4286,0 -12.4286,0 -12.4286,0 z"/>
    <path id="path5240" style="fill:none;stroke:#ffffff;stroke-width:0.60000002;stroke-linecap:round;stroke-linejoin:round" d="m 122.00257,212.21976 12.4286,0 12.4286,0 12.4286,0 12.4286,0 12.4286,0 12.4286,0 12.4286,0 12.4286,0 12.4286,0 0,113.142 -12.4286,0 -12.4286,0 -12.4286,0 -12.4286,0 -12.4286,0 -12.4286,0 -12.4286,0 -12.4286,0 -12.4286,0 z"/>
    <path id="path5242" style="fill:none;stroke:#ffffff;stroke-width:0.60000002;stroke-linecap:round;stroke-linejoin:round" d="m 122.00257,212.21976 12.4286,0 12.4286,0 12.4286,0 12.4286,0 12.4286,0 12.4286,0 12.4286,0 12.4286,0 0,113.142 -12.4286,0 -12.4286,0 -12.4286,0 -12.4286,0 -12.4286,0 -12.4286,0 -12.4286,0 -12.4286,0 z"/>
    <path id="path5244" style="fill:none;stroke:#ffffff;stroke-width:0.60000002;stroke-linecap:round;stroke-linejoin:round" d="m 122.00257,212.21976 12.4286,0 12.4286,0 12.4286,0 12.4286,0 12.4286,0 12.4286,0 12.4286,0 0,113.142 -12.4286,0 -12.4286,0 -12.4286,0 -12.4286,0 -12.4286,0 -12.4286,0 -12.4286,0 z"/>
    <path id="path5246" style="fill:none;stroke:#ffffff;stroke-width:0.60000002;stroke-linecap:round;stroke-linejoin:round" d="m 122.00257,212.21976 12.4286,0 12.4286,0 12.4286,0 12.4286,0 12.4286,0 12.4286,0 0,113.142 -12.4286,0 -12.4286,0 -12.4286,0 -12.4286,0 -12.4286,0 -12.4286,0 z"/>
    <path id="path5248" style="fill:none;stroke:#ffffff;stroke-width:0.60000002;stroke-linecap:round;stroke-linejoin:round" d="m 122.00257,212.21976 12.4286,0 12.4286,0 12.4286,0 12.4286,0 12.4286,0 0,113.142 -12.4286,0 -12.4286,0 -12.4286,0 -12.4286,0 -12.4286,0 z"/>
    <path id="path5250" style="fill:none;stroke:#ffffff;stroke-width:0.60000002;stroke-linecap:round;stroke-linejoin:round" d="m 122.00257,212.21976 12.4286,0 12.4286,0 12.4286,0 12.4286,0 0,113.142 -12.4286,0 -12.4286,0 -12.4286,0 -12.4286,0 z"/>
    <path id="path5252" style="fill:none;stroke:#ffffff;stroke-width:0.60000002;stroke-linecap:round;stroke-linejoin:round" d="m 122.00257,212.21976 12.4286,0 12.4286,0 12.4286,0 0,113.142 -12.4286,0 -12.4286,0 -12.4286,0 z"/>
    <path id="path5254" style="fill:none;stroke:#ffffff;stroke-width:0.60000002;stroke-linecap:round;stroke-linejoin:round" d="m 122.00257,212.21976 12.4286,0 12.4286,0 0,113.142 -12.4286,0 -12.4286,0 z"/>
    <path id="path5256" style="fill:none;stroke:#ffffff;stroke-width:0.60000002;stroke-linecap:round;stroke-linejoin:round" d="m 122.00257,212.21976 12.4286,0 0,113.142 -12.4286,0 z"/>
    <circle transform="matrix(-0.12449995,0.99221961,-0.99221961,-0.12449995,0,0)" style="fill:#999999;stroke:#666666;stroke-width:0.60000026;stroke-linecap:round;stroke-linejoin:round" id="circle5260" cx="192.45154" cy="-144.20161" r="1.071429"/>
    <path style="fill:none;stroke:#666666;stroke-width:0.40000015" d="m 120.02936,208.36722 -1.7907,1.12553" id="path5262"/>
    <path style="fill:none;fill-rule:evenodd;stroke:#000000;stroke-width:4;stroke-linecap:butt;stroke-linejoin:miter;stroke-miterlimit:4;stroke-dasharray:none;stroke-opacity:1" d="m 329.28571,268.79077 70,0" id="path5264"/>
    <circle style="opacity:1;fill:#ffffff;fill-opacity:1;stroke:#000000;stroke-width:2;stroke-miterlimit:4;stroke-dasharray:none;stroke-opacity:1" id="circle5266" cx="414.28571" cy="268.79077" r="15"/>
    <g id="text5268" style="font-style:normal;font-weight:normal;font-size:40px;line-height:125%;font-family:Sans;text-align:center;letter-spacing:0px;word-spacing:0px;text-anchor:middle;fill:#000000;fill-opacity:1;stroke:none;stroke-width:1px;stroke-linecap:butt;stroke-linejoin:miter;stroke-opacity:1">
      <path id="path4481" style="font-size:11.25px" d="m 406.39899,271.11795 q -0.27466,0.57129 -0.73059,0.81848 -0.45044,0.24719 -1.12061,0.24719 -1.1261,0 -1.65894,-0.75805 -0.52734,-0.75806 -0.52734,-2.29614 0,-3.10914 2.18628,-3.10914 0.67566,0 1.1261,0.2472 0.45044,0.24719 0.7251,0.78552 l 0.011,0 q 0,-0.0549 -0.005,-0.17029 0,-0.12085 -0.005,-0.24719 0,-0.13184 0,-0.24719 0,-0.11536 0,-0.1648 l 0,-2.30163 0.98877,0 0,6.92688 q 0,0.21423 0,0.41198 0.005,0.19776 0.011,0.36255 0.006,0.1648 0.011,0.28565 0.005,0.11535 0.011,0.16479 l -0.94483,0 q -0.011,-0.0549 -0.022,-0.15381 -0.005,-0.10437 -0.0165,-0.2362 -0.005,-0.13184 -0.011,-0.27466 -0.005,-0.14832 -0.005,-0.29114 l -0.022,0 z m -2.99927,-2.02148 q 0,0.61523 0.0769,1.05468 0.0769,0.43946 0.2472,0.7251 0.17028,0.28015 0.43396,0.41199 0.26367,0.13183 0.6427,0.13183 0.39001,0 0.68664,-0.12634 0.30213,-0.12634 0.49988,-0.40649 0.20325,-0.28565 0.30762,-0.74158 0.10437,-0.45593 0.10437,-1.11511 0,-0.63172 -0.10437,-1.06568 -0.10437,-0.43945 -0.30762,-0.70861 -0.20325,-0.26917 -0.49988,-0.38453 -0.29114,-0.12084 -0.67566,-0.12084 -0.36255,0 -0.62622,0.12634 -0.26367,0.12634 -0.43945,0.40649 -0.17578,0.28015 -0.26367,0.73059 -0.0824,0.44495 -0.0824,1.08216 z"/>
      <path id="path4483" style="font-size:11.25px" d="m 409.66193,269.07449 q 0,0.51087 0.0714,0.93933 0.0769,0.42847 0.25268,0.74158 0.17578,0.30762 0.46143,0.47791 0.29114,0.17028 0.71411,0.17028 0.52734,0 0.87891,-0.28564 0.35705,-0.28564 0.43945,-0.87891 l 0.99976,0.0659 q -0.0494,0.36804 -0.21424,0.70862 -0.16479,0.34058 -0.45044,0.59876 -0.28015,0.25817 -0.68664,0.41748 -0.4065,0.1538 -0.93933,0.1538 -0.69764,0 -1.18653,-0.2362 -0.48889,-0.23621 -0.79651,-0.6482 -0.30212,-0.41748 -0.43945,-0.97778 -0.13733,-0.56579 -0.13733,-1.22497 0,-0.59876 0.0989,-1.05469 0.0989,-0.46143 0.27466,-0.802 0.18127,-0.34607 0.42297,-0.57679 0.2417,-0.2362 0.52185,-0.37353 0.28565,-0.14282 0.59876,-0.20325 0.31311,-0.0659 0.63171,-0.0659 0.49988,0 0.88989,0.13733 0.39002,0.13733 0.67017,0.37903 0.28564,0.23621 0.46142,0.5603 0.17579,0.3241 0.2472,0.69764 l -1.01624,0.0769 q -0.0769,-0.49438 -0.39001,-0.78552 -0.31311,-0.29114 -0.8899,-0.29114 -0.42297,0 -0.70861,0.14282 -0.28016,0.13733 -0.45594,0.42298 -0.17578,0.28015 -0.25268,0.70861 -0.0714,0.42847 -0.0714,1.00525 z"/>
      <path id="path4485" style="font-size:11.25px" d="m 414.27618,269.52493 0,-0.8789 2.74659,0 0,0.8789 -2.74659,0 z"/>
      <path id="path4487" style="font-size:11.25px" d="m 419.04425,269.07449 q 0,0.51087 0.0714,0.93933 0.0769,0.42847 0.25269,0.74158 0.17578,0.30762 0.46142,0.47791 0.29114,0.17028 0.71411,0.17028 0.52735,0 0.87891,-0.28564 0.35706,-0.28564 0.43945,-0.87891 l 0.99976,0.0659 q -0.0494,0.36804 -0.21423,0.70862 -0.1648,0.34058 -0.45044,0.59876 -0.28015,0.25817 -0.68665,0.41748 -0.40649,0.1538 -0.93933,0.1538 -0.69763,0 -1.18652,-0.2362 -0.48889,-0.23621 -0.79651,-0.6482 -0.30213,-0.41748 -0.43946,-0.97778 -0.13732,-0.56579 -0.13732,-1.22497 0,-0.59876 0.0989,-1.05469 0.0989,-0.46143 0.27466,-0.802 0.18128,-0.34607 0.42297,-0.57679 0.2417,-0.2362 0.52186,-0.37353 0.28564,-0.14282 0.59875,-0.20325 0.31311,-0.0659 0.63171,-0.0659 0.49988,0 0.8899,0.13733 0.39001,0.13733 0.67016,0.37903 0.28565,0.23621 0.46143,0.5603 0.17578,0.3241 0.24719,0.69764 l -1.01623,0.0769 q -0.0769,-0.49438 -0.39002,-0.78552 -0.31311,-0.29114 -0.88989,-0.29114 -0.42298,0 -0.70862,0.14282 -0.28015,0.13733 -0.45593,0.42298 -0.17578,0.28015 -0.25269,0.70861 -0.0714,0.42847 -0.0714,1.00525 z"/>
      <path id="path4489" style="font-size:11.25px" d="m 426.20184,272.02982 q -0.22522,0.0604 -0.46142,0.0934 -0.23072,0.0385 -0.53833,0.0385 -1.18653,0 -1.18653,-1.34582 l 0,-3.96607 -0.68664,0 0,-0.7196 0.7251,0 0.29113,-1.32935 0.65918,0 0,1.32935 1.09864,0 0,0.7196 -1.09864,0 0,3.75183 q 0,0.42847 0.13733,0.60425 0.14282,0.17029 0.48889,0.17029 0.14283,0 0.27466,-0.022 0.13733,-0.022 0.29663,-0.0549 l 0,0.7306 z"/>
    </g>
    <path id="path5272" d="m 429.79589,268.79077 73.21429,0" style="fill:none;fill-rule:evenodd;stroke:#000000;stroke-width:4.09080601;stroke-linecap:butt;stroke-linejoin:miter;stroke-miterlimit:4;stroke-dasharray:none;stroke-opacity:1"/>
    <rect x="146.43286" y="233.9352" width="211.42" height="126.854" style="fill:#ffffff;stroke:#000000;stroke-width:6;stroke-linecap:round;stroke-linejoin:round" id="rect5069"/>
    <rect x="146.43286" y="233.9352" width="211.42" height="126.854" style="fill:#ffffff;stroke-width:0" id="rect5071"/>
    <path d="m 152.71686,240.79119 12.4286,0 12.4286,0 12.4286,0 12.4286,0 12.4286,0 12.4286,0 12.4286,0 12.4286,0 12.4286,0 12.4286,0 12.4286,0 12.4286,0 12.4286,0 12.4286,0 12.4286,0 12.4286,0 0,113.142 -12.4286,0 -12.4286,0 -12.4286,0 -12.4286,0 -12.4286,0 -12.4286,0 -12.4286,0 -12.4286,0 -12.4286,0 -12.4286,0 -12.4286,0 -12.4286,0 -12.4286,0 -12.4286,0 -12.4286,0 -12.4286,0 z" style="fill:url(#radialGradient5111);stroke:#ffffff;stroke-width:0.60000002;stroke-linecap:round;stroke-linejoin:round" id="path5073"/>
    <path d="m 152.71686,240.79119 12.4286,0 12.4286,0 12.4286,0 12.4286,0 12.4286,0 12.4286,0 12.4286,0 12.4286,0 12.4286,0 12.4286,0 12.4286,0 12.4286,0 12.4286,0 12.4286,0 12.4286,0 0,113.142 -12.4286,0 -12.4286,0 -12.4286,0 -12.4286,0 -12.4286,0 -12.4286,0 -12.4286,0 -12.4286,0 -12.4286,0 -12.4286,0 -12.4286,0 -12.4286,0 -12.4286,0 -12.4286,0 -12.4286,0 z" style="fill:none;stroke:#ffffff;stroke-width:0.60000002;stroke-linecap:round;stroke-linejoin:round" id="path5075"/>
    <path d="m 152.71686,240.79119 12.4286,0 12.4286,0 12.4286,0 12.4286,0 12.4286,0 12.4286,0 12.4286,0 12.4286,0 12.4286,0 12.4286,0 12.4286,0 12.4286,0 12.4286,0 12.4286,0 0,113.142 -12.4286,0 -12.4286,0 -12.4286,0 -12.4286,0 -12.4286,0 -12.4286,0 -12.4286,0 -12.4286,0 -12.4286,0 -12.4286,0 -12.4286,0 -12.4286,0 -12.4286,0 -12.4286,0 z" style="fill:none;stroke:#ffffff;stroke-width:0.60000002;stroke-linecap:round;stroke-linejoin:round" id="path5077"/>
    <path d="m 152.71686,240.79119 12.4286,0 12.4286,0 12.4286,0 12.4286,0 12.4286,0 12.4286,0 12.4286,0 12.4286,0 12.4286,0 12.4286,0 12.4286,0 12.4286,0 12.4286,0 0,113.142 -12.4286,0 -12.4286,0 -12.4286,0 -12.4286,0 -12.4286,0 -12.4286,0 -12.4286,0 -12.4286,0 -12.4286,0 -12.4286,0 -12.4286,0 -12.4286,0 -12.4286,0 z" style="fill:none;stroke:#ffffff;stroke-width:0.60000002;stroke-linecap:round;stroke-linejoin:round" id="path5079"/>
    <path d="m 152.71686,240.79119 12.4286,0 12.4286,0 12.4286,0 12.4286,0 12.4286,0 12.4286,0 12.4286,0 12.4286,0 12.4286,0 12.4286,0 12.4286,0 12.4286,0 0,113.142 -12.4286,0 -12.4286,0 -12.4286,0 -12.4286,0 -12.4286,0 -12.4286,0 -12.4286,0 -12.4286,0 -12.4286,0 -12.4286,0 -12.4286,0 -12.4286,0 z" style="fill:none;stroke:#ffffff;stroke-width:0.60000002;stroke-linecap:round;stroke-linejoin:round" id="path5081"/>
    <path d="m 152.71686,240.79119 12.4286,0 12.4286,0 12.4286,0 12.4286,0 12.4286,0 12.4286,0 12.4286,0 12.4286,0 12.4286,0 12.4286,0 12.4286,0 0,113.142 -12.4286,0 -12.4286,0 -12.4286,0 -12.4286,0 -12.4286,0 -12.4286,0 -12.4286,0 -12.4286,0 -12.4286,0 -12.4286,0 -12.4286,0 z" style="fill:none;stroke:#ffffff;stroke-width:0.60000002;stroke-linecap:round;stroke-linejoin:round" id="path5083"/>
    <path d="m 152.71686,240.79119 12.4286,0 12.4286,0 12.4286,0 12.4286,0 12.4286,0 12.4286,0 12.4286,0 12.4286,0 12.4286,0 12.4286,0 0,113.142 -12.4286,0 -12.4286,0 -12.4286,0 -12.4286,0 -12.4286,0 -12.4286,0 -12.4286,0 -12.4286,0 -12.4286,0 -12.4286,0 z" style="fill:none;stroke:#ffffff;stroke-width:0.60000002;stroke-linecap:round;stroke-linejoin:round" id="path5085"/>
    <path d="m 152.71686,240.79119 12.4286,0 12.4286,0 12.4286,0 12.4286,0 12.4286,0 12.4286,0 12.4286,0 12.4286,0 12.4286,0 0,113.142 -12.4286,0 -12.4286,0 -12.4286,0 -12.4286,0 -12.4286,0 -12.4286,0 -12.4286,0 -12.4286,0 -12.4286,0 z" style="fill:none;stroke:#ffffff;stroke-width:0.60000002;stroke-linecap:round;stroke-linejoin:round" id="path5087"/>
    <path d="m 152.71686,240.79119 12.4286,0 12.4286,0 12.4286,0 12.4286,0 12.4286,0 12.4286,0 12.4286,0 12.4286,0 0,113.142 -12.4286,0 -12.4286,0 -12.4286,0 -12.4286,0 -12.4286,0 -12.4286,0 -12.4286,0 -12.4286,0 z" style="fill:none;stroke:#ffffff;stroke-width:0.60000002;stroke-linecap:round;stroke-linejoin:round" id="path5089"/>
    <path d="m 152.71686,240.79119 12.4286,0 12.4286,0 12.4286,0 12.4286,0 12.4286,0 12.4286,0 12.4286,0 0,113.142 -12.4286,0 -12.4286,0 -12.4286,0 -12.4286,0 -12.4286,0 -12.4286,0 -12.4286,0 z" style="fill:none;stroke:#ffffff;stroke-width:0.60000002;stroke-linecap:round;stroke-linejoin:round" id="path5091"/>
    <path d="m 152.71686,240.79119 12.4286,0 12.4286,0 12.4286,0 12.4286,0 12.4286,0 12.4286,0 0,113.142 -12.4286,0 -12.4286,0 -12.4286,0 -12.4286,0 -12.4286,0 -12.4286,0 z" style="fill:none;stroke:#ffffff;stroke-width:0.60000002;stroke-linecap:round;stroke-linejoin:round" id="path5093"/>
    <path d="m 152.71686,240.79119 12.4286,0 12.4286,0 12.4286,0 12.4286,0 12.4286,0 0,113.142 -12.4286,0 -12.4286,0 -12.4286,0 -12.4286,0 -12.4286,0 z" style="fill:none;stroke:#ffffff;stroke-width:0.60000002;stroke-linecap:round;stroke-linejoin:round" id="path5095"/>
    <path d="m 152.71686,240.79119 12.4286,0 12.4286,0 12.4286,0 12.4286,0 0,113.142 -12.4286,0 -12.4286,0 -12.4286,0 -12.4286,0 z" style="fill:none;stroke:#ffffff;stroke-width:0.60000002;stroke-linecap:round;stroke-linejoin:round" id="path5097"/>
    <path d="m 152.71686,240.79119 12.4286,0 12.4286,0 12.4286,0 0,113.142 -12.4286,0 -12.4286,0 -12.4286,0 z" style="fill:none;stroke:#ffffff;stroke-width:0.60000002;stroke-linecap:round;stroke-linejoin:round" id="path5099"/>
    <path d="m 152.71686,240.79119 12.4286,0 12.4286,0 0,113.142 -12.4286,0 -12.4286,0 z" style="fill:none;stroke:#ffffff;stroke-width:0.60000002;stroke-linecap:round;stroke-linejoin:round" id="path5101"/>
    <path d="m 152.71686,240.79119 12.4286,0 0,113.142 -12.4286,0 z" style="fill:none;stroke:#ffffff;stroke-width:0.60000002;stroke-linecap:round;stroke-linejoin:round" id="path5103"/>
    <circle transform="matrix(-0.12449995,0.99221961,-0.99221961,-0.12449995,0,0)" r="1.071429" cy="-178.23407" cx="216.97675" id="circle5107" style="fill:#999999;stroke:#666666;stroke-width:0.60000026;stroke-linecap:round;stroke-linejoin:round"/>
    <path id="path5109" d="m 150.74365,236.93865 -1.7907,1.12553" style="fill:none;stroke:#666666;stroke-width:0.40000015"/>
    <path id="path5113" d="m 360,297.3622 70,0" style="fill:none;fill-rule:evenodd;stroke:#000000;stroke-width:4;stroke-linecap:butt;stroke-linejoin:miter;stroke-miterlimit:4;stroke-dasharray:none;stroke-opacity:1"/>
    <circle r="15" cy="297.36221" cx="445" id="path5175" style="opacity:1;fill:#ffffff;fill-opacity:1;stroke:#000000;stroke-width:2;stroke-miterlimit:4;stroke-dasharray:none;stroke-opacity:1"/>
    <g id="text5177" style="font-style:normal;font-weight:normal;font-size:40px;line-height:125%;font-family:Sans;text-align:center;letter-spacing:0px;word-spacing:0px;text-anchor:middle;fill:#000000;fill-opacity:1;stroke:none;stroke-width:1px;stroke-linecap:butt;stroke-linejoin:miter;stroke-opacity:1">
      <path id="path4470" style="font-size:11.25px" d="m 437.11328,299.68939 q -0.27466,0.57129 -0.73059,0.81848 -0.45044,0.2472 -1.12061,0.2472 -1.12609,0 -1.65893,-0.75806 -0.52734,-0.75806 -0.52734,-2.29614 0,-3.10913 2.18627,-3.10913 0.67566,0 1.1261,0.24719 0.45044,0.24719 0.7251,0.78552 l 0.011,0 q 0,-0.0549 -0.006,-0.17029 0,-0.12085 -0.005,-0.24719 0,-0.13184 0,-0.24719 0,-0.11536 0,-0.1648 l 0,-2.30163 0.98877,0 0,6.92688 q 0,0.21423 0,0.41198 0.005,0.19776 0.011,0.36255 0.005,0.1648 0.011,0.28565 0.006,0.11535 0.011,0.16479 l -0.94482,0 q -0.011,-0.0549 -0.022,-0.15381 -0.005,-0.10437 -0.0165,-0.2362 -0.005,-0.13184 -0.011,-0.27466 -0.006,-0.14832 -0.006,-0.29114 l -0.022,0 z m -2.99927,-2.02148 q 0,0.61523 0.0769,1.05469 0.0769,0.43945 0.24719,0.72509 0.17029,0.28015 0.43396,0.41199 0.26367,0.13184 0.6427,0.13184 0.39002,0 0.68665,-0.12635 0.30212,-0.12634 0.49987,-0.40649 0.20325,-0.28565 0.30762,-0.74158 0.10437,-0.45593 0.10437,-1.11511 0,-0.63171 -0.10437,-1.06567 -0.10437,-0.43946 -0.30762,-0.70862 -0.20324,-0.26917 -0.49987,-0.38452 -0.29114,-0.12085 -0.67566,-0.12085 -0.36255,0 -0.62622,0.12634 -0.26368,0.12634 -0.43946,0.40649 -0.17578,0.28015 -0.26367,0.73059 -0.0824,0.44495 -0.0824,1.08216 z"/>
      <path id="path4472" style="font-size:11.25px" d="m 440.37622,297.64594 q 0,0.51086 0.0714,0.93933 0.0769,0.42846 0.25269,0.74157 0.17578,0.30762 0.46142,0.47791 0.29114,0.17029 0.71411,0.17029 0.52735,0 0.87891,-0.28565 0.35706,-0.28564 0.43945,-0.8789 l 0.99976,0.0659 q -0.0494,0.36805 -0.21423,0.70862 -0.1648,0.34058 -0.45044,0.59876 -0.28015,0.25818 -0.68665,0.41748 -0.40649,0.15381 -0.93933,0.15381 -0.69763,0 -1.18652,-0.23621 -0.48889,-0.23621 -0.79651,-0.64819 -0.30213,-0.41748 -0.43946,-0.97779 -0.13732,-0.56579 -0.13732,-1.22497 0,-0.59876 0.0989,-1.05469 0.0989,-0.46143 0.27466,-0.802 0.18128,-0.34607 0.42297,-0.57678 0.2417,-0.23621 0.52186,-0.37354 0.28564,-0.14282 0.59875,-0.20325 0.31311,-0.0659 0.63171,-0.0659 0.49988,0 0.8899,0.13732 0.39001,0.13733 0.67016,0.37903 0.28565,0.23621 0.46143,0.56031 0.17578,0.32409 0.24719,0.69763 l -1.01623,0.0769 q -0.0769,-0.49438 -0.39002,-0.78552 -0.31311,-0.29114 -0.88989,-0.29114 -0.42298,0 -0.70862,0.14282 -0.28015,0.13733 -0.45593,0.42298 -0.17578,0.28015 -0.25269,0.70862 -0.0714,0.42846 -0.0714,1.00525 z"/>
      <path id="path4474" style="font-size:11.25px" d="m 444.99048,298.09637 0,-0.8789 2.74658,0 0,0.8789 -2.74658,0 z"/>
      <path id="path4476" style="font-size:11.25px" d="m 449.75854,297.64594 q 0,0.51086 0.0714,0.93933 0.0769,0.42846 0.25268,0.74157 0.17578,0.30762 0.46143,0.47791 0.29114,0.17029 0.71411,0.17029 0.52734,0 0.8789,-0.28565 0.35706,-0.28564 0.43946,-0.8789 l 0.99975,0.0659 q -0.0494,0.36805 -0.21423,0.70862 -0.16479,0.34058 -0.45044,0.59876 -0.28015,0.25818 -0.68664,0.41748 -0.4065,0.15381 -0.93934,0.15381 -0.69763,0 -1.18652,-0.23621 -0.48889,-0.23621 -0.79651,-0.64819 -0.30212,-0.41748 -0.43945,-0.97779 -0.13733,-0.56579 -0.13733,-1.22497 0,-0.59876 0.0989,-1.05469 0.0989,-0.46143 0.27466,-0.802 0.18127,-0.34607 0.42297,-0.57678 0.2417,-0.23621 0.52185,-0.37354 0.28564,-0.14282 0.59875,-0.20325 0.31311,-0.0659 0.63172,-0.0659 0.49988,0 0.88989,0.13732 0.39002,0.13733 0.67017,0.37903 0.28564,0.23621 0.46142,0.56031 0.17578,0.32409 0.24719,0.69763 l -1.01623,0.0769 q -0.0769,-0.49438 -0.39002,-0.78552 -0.31311,-0.29114 -0.88989,-0.29114 -0.42297,0 -0.70862,0.14282 -0.28015,0.13733 -0.45593,0.42298 -0.17578,0.28015 -0.25268,0.70862 -0.0714,0.42846 -0.0714,1.00525 z"/>
      <path id="path4478" style="font-size:11.25px" d="m 456.91614,300.60126 q -0.22522,0.0604 -0.46143,0.0934 -0.23071,0.0385 -0.53833,0.0385 -1.18652,0 -1.18652,-1.34582 l 0,-3.96607 -0.68665,0 0,-0.7196 0.7251,0 0.29114,-1.32935 0.65918,0 0,1.32935 1.09863,0 0,0.7196 -1.09863,0 0,3.75183 q 0,0.42847 0.13733,0.60425 0.14282,0.17029 0.48889,0.17029 0.14282,0 0.27466,-0.022 0.13733,-0.022 0.29663,-0.0549 l 0,0.73059 z"/>
    </g>
    <path style="fill:none;fill-rule:evenodd;stroke:#000000;stroke-width:4.09624958;stroke-linecap:butt;stroke-linejoin:miter;stroke-miterlimit:4;stroke-dasharray:none;stroke-opacity:1" d="m 460.51018,297.3622 73.40926,0" id="path5181"/>
    <path id="path5338" d="m 469.49818,237.39574 62.66308,59.66954" style="fill:none;fill-rule:evenodd;stroke:#000000;stroke-width:5.09566641;stroke-linecap:butt;stroke-linejoin:miter;stroke-miterlimit:4;stroke-dasharray:none;stroke-opacity:1"/>
    <path id="path5340" d="m 501.36729,268.32903 30,0" style="fill:none;fill-rule:evenodd;stroke:#000000;stroke-width:5;stroke-linecap:butt;stroke-linejoin:miter;stroke-miterlimit:4;stroke-dasharray:none;stroke-opacity:1"/>
    <rect ry="1.3550364" y="249.74258" x="529.85498" height="35.239227" width="40.289989" id="rect5400" style="opacity:1;fill:#ffffff;fill-opacity:1;stroke:#000000;stroke-width:2;stroke-miterlimit:4;stroke-dasharray:none;stroke-opacity:1"/>
    <path id="path5402" d="m 530,252.3622 40,30" style="fill:none;fill-rule:evenodd;stroke:#000000;stroke-width:1px;stroke-linecap:butt;stroke-linejoin:miter;stroke-opacity:1"/>
    <g id="text5404" style="font-style:normal;font-weight:normal;font-size:40px;line-height:125%;font-family:Sans;text-align:center;letter-spacing:0px;word-spacing:0px;text-anchor:middle;fill:#000000;fill-opacity:1;stroke:none;stroke-width:1px;stroke-linecap:butt;stroke-linejoin:miter;stroke-opacity:1">
      <path id="path4508" style="font-size:12.5px" d="m 539.34161,276.3002 q -0.30517,0.63477 -0.81176,0.90943 -0.50049,0.27465 -1.24512,0.27465 -1.25122,0 -1.84326,-0.84228 -0.58594,-0.84229 -0.58594,-2.55127 0,-3.45459 2.4292,-3.45459 0.75073,0 1.25122,0.27466 0.50049,0.27466 0.80566,0.8728 l 0.0122,0 q 0,-0.061 -0.006,-0.18921 0,-0.13428 -0.006,-0.27466 0,-0.14648 0,-0.27466 0,-0.12817 0,-0.1831 l 0,-2.55737 1.09864,0 0,7.69653 q 0,0.23804 0,0.45776 0.006,0.21973 0.0122,0.40283 0.006,0.18311 0.0122,0.31739 0.006,0.12817 0.0122,0.1831 l -1.04981,0 q -0.0122,-0.061 -0.0244,-0.1709 -0.006,-0.11596 -0.0183,-0.26245 -0.006,-0.14648 -0.0122,-0.30517 -0.006,-0.1648 -0.006,-0.32349 l -0.0244,0 z m -3.33252,-2.24609 q 0,0.68359 0.0855,1.17187 0.0854,0.48828 0.27466,0.80567 0.18921,0.31128 0.48218,0.45776 0.29297,0.14648 0.71411,0.14648 0.43335,0 0.76294,-0.14038 0.33569,-0.14038 0.55542,-0.45166 0.22583,-0.31738 0.3418,-0.82397 0.11596,-0.50659 0.11596,-1.23901 0,-0.70191 -0.11596,-1.18409 -0.11597,-0.48828 -0.3418,-0.78735 -0.22583,-0.29907 -0.55542,-0.42725 -0.32349,-0.13427 -0.75073,-0.13427 -0.40283,0 -0.6958,0.14038 -0.29297,0.14038 -0.48828,0.45166 -0.19532,0.31128 -0.29297,0.81177 -0.0916,0.49438 -0.0916,1.20239 z"/>
      <path id="path4510" style="font-size:12.5px" d="m 542.9671,274.02969 q 0,0.56763 0.0794,1.0437 0.0854,0.47608 0.28076,0.82398 0.19531,0.3418 0.51269,0.53101 0.32349,0.1892 0.79346,0.1892 0.58594,0 0.97656,-0.31738 0.39673,-0.31738 0.48829,-0.97656 l 1.11084,0.0732 q -0.0549,0.40894 -0.23804,0.78735 -0.18311,0.37842 -0.50049,0.66529 -0.31128,0.28686 -0.76294,0.46387 -0.45166,0.17089 -1.0437,0.17089 -0.77515,0 -1.31836,-0.26245 -0.54321,-0.26245 -0.88501,-0.72021 -0.33569,-0.46387 -0.48828,-1.08643 -0.15259,-0.62866 -0.15259,-1.36108 0,-0.66529 0.10986,-1.17188 0.10987,-0.51269 0.30518,-0.89111 0.20142,-0.38452 0.46997,-0.64087 0.26856,-0.26245 0.57983,-0.41504 0.31739,-0.15869 0.66529,-0.22583 0.3479,-0.0732 0.7019,-0.0732 0.55542,0 0.98877,0.15259 0.43335,0.15258 0.74463,0.42114 0.31738,0.26245 0.5127,0.62256 0.19531,0.36011 0.27465,0.77514 l -1.12915,0.0854 q -0.0855,-0.54931 -0.43335,-0.8728 -0.3479,-0.32349 -0.98877,-0.32349 -0.46997,0 -0.78735,0.1587 -0.31128,0.15258 -0.50659,0.46997 -0.19531,0.31128 -0.28076,0.78735 -0.0794,0.47607 -0.0794,1.11694 z"/>
    </g>
    <g id="text5408" style="font-style:normal;font-weight:normal;font-size:40px;line-height:125%;font-family:Sans;text-align:center;letter-spacing:0px;word-spacing:0px;text-anchor:middle;fill:#000000;fill-opacity:1;stroke:none;stroke-width:1px;stroke-linecap:butt;stroke-linejoin:miter;stroke-opacity:1">
      <path id="path4503" style="font-size:12.5px" d="m 552.64111,262.332 q -0.99487,0 -1.49536,-0.5249 -0.50049,-0.5249 -0.50049,-1.44043 0,-0.65308 0.24414,-1.06812 0.25025,-0.42114 0.64698,-0.65918 0.40283,-0.23803 0.91552,-0.32959 0.5127,-0.0915 1.04371,-0.10376 l 1.48315,-0.0244 0,-0.36011 q 0,-0.40893 -0.0854,-0.6958 -0.0855,-0.28686 -0.26245,-0.46387 -0.177,-0.177 -0.44556,-0.25634 -0.26245,-0.0854 -0.62256,-0.0854 -0.31738,0 -0.57373,0.0488 -0.25634,0.0427 -0.44555,0.16479 -0.18921,0.11597 -0.30518,0.32349 -0.11597,0.20141 -0.15259,0.51269 l -1.14746,-0.10376 q 0.061,-0.39062 0.23194,-0.71411 0.17089,-0.32959 0.48217,-0.56763 0.31739,-0.23803 0.78736,-0.36621 0.47607,-0.13427 1.14746,-0.13427 1.24512,0 1.87378,0.57373 0.62866,0.56762 0.62866,1.64795 l 0,2.84423 q 0,0.48829 0.12817,0.73853 0.12818,0.24414 0.48828,0.24414 0.0916,0 0.18311,-0.0122 0.0916,-0.0122 0.177,-0.0305 l 0,0.68359 q -0.20752,0.0488 -0.41504,0.0732 -0.20141,0.0244 -0.43335,0.0244 -0.31128,0 -0.53711,-0.0793 -0.21972,-0.0854 -0.3601,-0.25024 -0.14038,-0.1709 -0.21363,-0.41504 -0.0732,-0.25025 -0.0915,-0.57984 l -0.0366,0 q -0.177,0.31739 -0.39063,0.57373 -0.20751,0.25635 -0.48828,0.43946 -0.28076,0.177 -0.64087,0.27465 -0.354,0.0977 -0.81787,0.0977 z m 0.25025,-0.82397 q 0.5249,0 0.91552,-0.18921 0.39673,-0.19532 0.65308,-0.49439 0.26245,-0.29907 0.39063,-0.65307 0.12817,-0.35401 0.12817,-0.67749 l 0,-0.54322 -1.20239,0.0244 q -0.40283,0.006 -0.76905,0.061 -0.3601,0.0488 -0.63476,0.20142 -0.27466,0.15259 -0.43945,0.42724 -0.1587,0.27466 -0.1587,0.72022 0,0.53711 0.28687,0.83008 0.29297,0.29297 0.83008,0.29297 z"/>
      <path id="path4505" style="font-size:12.5px" d="m 558.75073,258.87741 q 0,0.56763 0.0793,1.0437 0.0855,0.47608 0.28076,0.82398 0.19531,0.34179 0.5127,0.531 0.32348,0.18921 0.79345,0.18921 0.58594,0 0.97656,-0.31738 0.39673,-0.31738 0.48829,-0.97656 l 1.11084,0.0732 q -0.0549,0.40893 -0.23804,0.78735 -0.18311,0.37842 -0.50049,0.66529 -0.31128,0.28686 -0.76294,0.46386 -0.45166,0.1709 -1.0437,0.1709 -0.77515,0 -1.31836,-0.26245 -0.54321,-0.26245 -0.88501,-0.72022 -0.33569,-0.46386 -0.48828,-1.08642 -0.15259,-0.62866 -0.15259,-1.36109 0,-0.66528 0.10986,-1.17187 0.10987,-0.5127 0.30518,-0.89111 0.20142,-0.38452 0.46997,-0.64087 0.26856,-0.26245 0.57984,-0.41504 0.31738,-0.15869 0.66528,-0.22583 0.3479,-0.0732 0.7019,-0.0732 0.55542,0 0.98877,0.15258 0.43335,0.15259 0.74463,0.42115 0.31738,0.26245 0.5127,0.62256 0.19531,0.3601 0.27465,0.77514 l -1.12915,0.0855 q -0.0854,-0.54932 -0.43335,-0.8728 -0.3479,-0.32349 -0.98876,-0.32349 -0.46998,0 -0.78736,0.15869 -0.31128,0.15259 -0.50659,0.46997 -0.19531,0.31128 -0.28076,0.78736 -0.0793,0.47607 -0.0793,1.11694 z"/>
    </g>
  </g>
</svg>