<?xml version="1.0" encoding="UTF-8" standalone="no"?>
<!-- Generator: Adobe Illustrator 16.2.1, SVG Export Plug-In . SVG Version: 6.00 Build 0)  -->

<svg
   xmlns:dc="http://purl.org/dc/elements/1.1/"
   xmlns:cc="http://creativecommons.org/ns#"
   xmlns:rdf="http://www.w3.org/1999/02/22-rdf-syntax-ns#"
   xmlns:svg="http://www.w3.org/2000/svg"
   xmlns="http://www.w3.org/2000/svg"
   xmlns:sodipodi="http://sodipodi.sourceforge.net/DTD/sodipodi-0.dtd"
   xmlns:inkscape="http://www.inkscape.org/namespaces/inkscape"
   version="1.1"
   x="0px"
   y="0px"
   width="200px"
   height="200px"
   viewBox="0 0 200 200"
   enable-background="new 0 0 200 200"
   xml:space="preserve"
   id="svg2"
   inkscape:version="0.48.4 r9939"
   sodipodi:docname="solar.svg"><metadata
     id="metadata522"><rdf:RDF><cc:Work
         rdf:about=""><dc:format>image/svg+xml</dc:format><dc:type
           rdf:resource="http://purl.org/dc/dcmitype/StillImage" /><dc:title /></cc:Work></rdf:RDF></metadata><defs
     id="defs520" /><sodipodi:namedview
     pagecolor="#ffffff"
     bordercolor="#666666"
     borderopacity="1"
     objecttolerance="10"
     gridtolerance="10"
     guidetolerance="10"
     inkscape:pageopacity="0"
     inkscape:pageshadow="2"
     inkscape:window-width="1301"
     inkscape:window-height="744"
     id="namedview518"
     showgrid="false"
     inkscape:zoom="4.1300719"
     inkscape:cx="131.00452"
     inkscape:cy="119.33861"
     inkscape:window-x="65"
     inkscape:window-y="24"
     inkscape:window-maximized="1"
     inkscape:current-layer="layer1" />
<g inkscape:groupmode="layer"
     id="layer1"
     inkscape:label="Layer"><path
       style="opacity:1;fill:#ffffff;fill-opacity:1;fill-rule:nonzero;stroke:#d9d9d9;stroke-width:2;stroke-miterlimit:4;stroke-opacity:1;stroke-dasharray:none"
       d="m 44.922379,117.2216 c -0.0024,-0.24072 1.361573,-5.23018 3.031045,-11.08769 l 3.035406,-10.650021 13.679813,0 13.679814,0 -0.331883,2.480142 c -0.182535,1.364078 -0.805767,6.353539 -1.38496,11.087689 l -1.053079,8.60755 -15.325898,0 c -8.429244,0 -15.32786,-0.19695 -15.330258,-0.43767 z"
       id="path4060"
       inkscape:connector-curvature="0" /><path
       style="fill:#ffffff;fill-opacity:1;fill-rule:nonzero;stroke:#d9d9d9;stroke-width:2;stroke-miterlimit:4;stroke-opacity:1;stroke-dasharray:none"
       d="m 81.921501,114.01201 c 0.177762,-2.006 0.467849,-5.7481 0.644638,-8.31577 0.17679,-2.56768 0.470797,-5.91587 0.653349,-7.440428 l 0.331914,-2.771923 13.018104,0 13.018104,0 0.33231,3.355486 c 0.18277,1.845515 0.48195,5.850215 0.66484,8.899335 0.18289,3.04911 0.47612,6.52861 0.65162,7.7322 l 0.3191,2.18836 -14.97859,0 -14.978593,0 0.323204,-3.64726 z"
       id="path4062"
       inkscape:connector-curvature="0" /><path
       style="fill:#ffffff;fill-opacity:1;fill-rule:nonzero;stroke:#d9d9d9;stroke-width:2;stroke-miterlimit:4;stroke-opacity:1;stroke-dasharray:none"
       d="m 116.49084,110.21885 c -0.53289,-4.09224 -1.13403,-9.0817 -1.33587,-11.087694 l -0.36696,-3.647267 13.65096,0.0048 13.65097,0.0048 2.79884,9.769891 c 1.53936,5.37343 2.94865,10.36074 3.13176,11.0829 l 0.33293,1.31301 -15.44686,0 -15.44687,0 -0.9689,-7.44042 z"
       id="path4064"
       inkscape:connector-curvature="0" /><path
       style="fill:#ffffff;fill-opacity:1;fill-rule:nonzero;stroke:#d9d9d9;stroke-width:2;stroke-miterlimit:4;stroke-opacity:1;stroke-dasharray:none"
       d="m 113.24462,83.958524 c -0.37765,-3.129355 -0.83423,-6.548618 -1.01461,-7.59836 l -0.32796,-1.908623 12.08881,0.157934 12.08881,0.157935 1.95597,6.710972 c 1.07578,3.691035 1.96853,7.039226 1.9839,7.440426 0.0215,0.562662 -2.95783,0.729453 -13.03018,0.729453 l -13.05811,0 -0.68663,-5.689737 z"
       id="path4066"
       inkscape:connector-curvature="0" /><path
       style="fill:#ffffff;fill-opacity:1;fill-rule:nonzero;stroke:#d9d9d9;stroke-width:2;stroke-miterlimit:4;stroke-opacity:1;stroke-dasharray:none"
       d="m 84.028942,86.876338 c 0.0019,-1.524558 0.172148,-4.9384 0.378276,-7.586316 l 0.374777,-4.814393 11.876543,0 11.876542,0 0.004,2.771923 c 0.002,1.524558 0.17215,4.9384 0.37828,7.586316 l 0.37477,4.814393 -12.633092,0 -12.633094,0 0.0035,-2.771923 2e-6,0 z"
       id="path4068"
       inkscape:connector-curvature="0" /><path
       style="fill:#ffffff;fill-opacity:1;fill-rule:nonzero;stroke:#d9d9d9;stroke-width:2;stroke-miterlimit:4;stroke-opacity:1;stroke-dasharray:none"
       d="m 54.867291,82.207836 2.169925,-7.440426 12.049308,-0.157773 12.049307,-0.157773 -0.280508,1.324899 c -0.154279,0.728694 -0.592737,4.147883 -0.97435,7.598198 l -0.693842,6.2733 -13.244883,0 -13.244882,0 2.169925,-7.440425 z"
       id="path4070"
       inkscape:connector-curvature="0" /><path
       style="fill:#ffffff;fill-opacity:1;fill-rule:nonzero;stroke:#d9d9d9;stroke-width:2;stroke-miterlimit:4;stroke-opacity:1;stroke-dasharray:none"
       d="m 58.557615,69.369455 c 0.15817,-0.56168 0.972117,-3.319014 1.808771,-6.12741 l 1.52119,-5.106174 10.485371,0 c 9.436219,0 10.485372,0.09823 10.485372,0.981713 0,0.539942 -0.296959,3.297276 -0.659909,6.127409 l -0.659909,5.145696 -11.634234,0 c -10.800737,0 -11.613632,-0.07316 -11.346652,-1.021234 z"
       id="path4072"
       inkscape:connector-curvature="0" /><path
       style="fill:#ffffff;fill-opacity:1;fill-rule:nonzero;stroke:#d9d9d9;stroke-width:2;stroke-miterlimit:4;stroke-opacity:1;stroke-dasharray:none"
       d="m 85.401219,66.803709 c 0.206203,-1.972839 0.374914,-4.730173 0.374914,-6.127409 l 0,-2.540429 10.795911,0 10.795916,0 0,3.419928 c 0,1.880961 0.16699,4.638295 0.3711,6.127409 l 0.3711,2.707481 -11.541928,0 -11.541927,0 0.374914,-3.58698 z"
       id="path4074"
       inkscape:connector-curvature="0" /><path
       style="fill:#ffffff;fill-opacity:1;fill-rule:nonzero;stroke:#d9d9d9;stroke-width:2;stroke-miterlimit:4;stroke-opacity:1;stroke-dasharray:none"
       d="m 111.25957,68.202329 c -0.18837,-1.203598 -0.5208,-3.960932 -0.73874,-6.127409 l -0.39623,-3.939049 10.56,0 10.56001,0 1.14847,3.939049 c 0.63166,2.166477 1.40942,4.923811 1.72836,6.127409 l 0.57989,2.18836 -11.54963,0 -11.54964,0 -0.34249,-2.18836 z"
       id="path4076"
       inkscape:connector-curvature="0" /><path
       style="fill:#ffffff;fill-opacity:1;fill-rule:nonzero;stroke:#d9d9d9;stroke-width:2;stroke-miterlimit:4;stroke-opacity:1;stroke-dasharray:none"
       d="m 109.41244,53.029697 c -0.18846,-1.203598 -0.4564,-2.91052 -0.59542,-3.793158 l -0.25276,-1.604798 9.82908,0 9.82908,0 0.95224,3.39377 c 0.52373,1.866573 0.95224,3.573495 0.95224,3.793158 0,0.219664 -4.58365,0.399388 -10.1859,0.399388 l -10.18591,0 -0.34265,-2.18836 z"
       id="path4078"
       inkscape:connector-curvature="0" /><path
       style="fill:#ffffff;fill-opacity:1;fill-rule:nonzero;stroke:#d9d9d9;stroke-width:2;stroke-miterlimit:4;stroke-opacity:1;stroke-dasharray:none"
       d="m 86.367664,52.737915 c 0.01729,-5.382938 -0.535802,-5.106174 10.20438,-5.106174 10.740186,0 10.187086,-0.276764 10.204376,5.106174 l 0.008,2.480142 -10.212346,0 -10.212349,0 0.008,-2.480142 z"
       id="path4080"
       inkscape:connector-curvature="0" /><path
       style="fill:#ffffff;fill-opacity:1;fill-rule:nonzero;stroke:#d9d9d9;stroke-width:2;stroke-miterlimit:4;stroke-opacity:1;stroke-dasharray:none"
       d="m 63.017184,54.44863 c 0,-0.423184 0.404079,-2.130106 0.897952,-3.793158 l 0.897952,-3.023731 9.937284,0 c 9.182488,0 9.915862,0.07757 9.655233,1.021235 -0.15513,0.561679 -0.451519,2.2686 -0.658645,3.793158 l -0.376592,2.771923 -10.176592,0 c -8.034202,0 -10.176592,-0.161981 -10.176592,-0.769427 z"
       id="path4082"
       inkscape:connector-curvature="0" /><rect
       style="fill:#ffffff;fill-opacity:1;fill-rule:nonzero;stroke:#d9d9d9;stroke-width:2;stroke-miterlimit:4;stroke-opacity:1;stroke-dasharray:none"
       id="rect4086"
       width="17.506884"
       height="40.265831"
       x="87.534416"
       y="123.55328" /></g></svg>
