<?xml version="1.0" encoding="UTF-8" standalone="no"?>
<svg
   xmlns:dc="http://purl.org/dc/elements/1.1/"
   xmlns:cc="http://creativecommons.org/ns#"
   xmlns:rdf="http://www.w3.org/1999/02/22-rdf-syntax-ns#"
   xmlns:svg="http://www.w3.org/2000/svg"
   xmlns="http://www.w3.org/2000/svg"
   xmlns:sodipodi="http://sodipodi.sourceforge.net/DTD/sodipodi-0.dtd"
   xmlns:inkscape="http://www.inkscape.org/namespaces/inkscape"
   version="1.1"
   id="svg27183"
   height="200"
   width="200"
   inkscape:version="0.48.4 r9939"
   sodipodi:docname="tools.svg">
  <sodipodi:namedview
     pagecolor="#ffffff"
     bordercolor="#666666"
     borderopacity="1"
     objecttolerance="10"
     gridtolerance="10"
     guidetolerance="10"
     inkscape:pageopacity="0"
     inkscape:pageshadow="2"
     inkscape:window-width="1301"
     inkscape:window-height="744"
     id="namedview7"
     showgrid="false"
     fit-margin-top="0"
     fit-margin-left="0"
     fit-margin-right="0"
     fit-margin-bottom="0"
     inkscape:zoom="1.6718163"
     inkscape:cx="200"
     inkscape:cy="90.87451"
     inkscape:window-x="65"
     inkscape:window-y="24"
     inkscape:window-maximized="1"
     inkscape:current-layer="svg27183" />
  <defs
     id="defs27185" />
  <metadata
     id="metadata27188">
    <rdf:RDF>
      <cc:Work
         rdf:about="">
        <dc:format>image/svg+xml</dc:format>
        <dc:type
           rdf:resource="http://purl.org/dc/dcmitype/StillImage" />
        <dc:title></dc:title>
      </cc:Work>
    </rdf:RDF>
  </metadata>
  <g
     transform="matrix(0.50000001,0,0,0.50047634,-2.5000015,-324.08472)"
     id="layer1"
     mask="none">
    <path
       style="fill:#e12d0e;fill-opacity:1"
       d="M 122.3125 0 C 122.21451 0.014815333 122.12147 0.052051563 122.09375 0.09375 C 121.97875 0.26680971 119.78145 3.8247011 117.1875 8 C 114.1214 12.935152 112.32235 15.53729 112.0625 15.4375 C 111.8427 15.353055 109.0817 15.116976 105.9375 14.90625 C 101.3471 14.598557 99.1321 14.594108 94.65625 14.90625 C 91.5906 15.120104 88.741 15.383108 88.3125 15.46875 C 87.58315 15.614559 87.2241 15.135972 82.8125 8 C 80.2206 3.8075047 77.99495 0.26322656 77.875 0.125 C 77.38365 -0.44114885 67.48385 2.4482813 61.21875 5 C 54.5513 7.7155946 45.1007 12.855769 45.09375 13.75 C 45.08875 14.014572 45.96615 17.98659 47.0625 22.59375 C 48.158799 27.200915 49.0625 31.135787 49.0625 31.34375 C 49.0625 31.551713 47.922799 32.611871 46.53125 33.6875 C 43.27655 36.203395 36.26345 43.242194 33.75 46.5 C 32.67535 47.892821 31.58035 49.002617 31.3125 49 C 31.04465 48.996997 26.9414 48.116403 22.21875 47.03125 L 13.65625 45.0625 L 13.125 45.75 C 12.1996 46.946088 8.64845 53.373846 7.09375 56.6875 C 4.9767005 61.199605 2.7168501 67.457698 1.25 72.8125 C 0.56344999 75.31887 1.4456029e-19 77.449908 0 77.5625 C 0 77.675097 3.5313004 79.969107 7.84375 82.65625 L 15.6875 87.53125 L 15.5 89.375 C 14.6786 97.594753 14.70645 104.45514 15.59375 110.78125 L 15.84375 112.53125 L 9.53125 116.4375 C 6.0607504 118.58925 2.4988501 120.81993 1.625 121.375 L 0.03125 122.375 L 1.0625 126.28125 C 2.45345 131.55664 4.6292005 137.68304 6.75 142.375 C 8.54365 146.34339 12.24765 153.11627 13.34375 154.4375 L 13.96875 155.1875 L 22.84375 153.0625 L 31.75 150.9375 L 32.5 151.9375 C 36.6638 157.2367 42.05645 162.71371 46.84375 166.53125 C 48.495499 167.84837 49.33675 168.72146 49.25 169.03125 C 48.836 170.50982 45.375 185.96189 45.375 186.34375 C 45.375 187.25377 55.494 192.67908 61.9375 195.21875 C 66.93575 197.18883 75.94455 199.96427 77.4375 200 C 77.9128 200.01151 79.14785 198.23804 82.9375 192.15625 L 87.8125 184.3125 L 89.21875 184.53125 C 92.5739 185.02352 96.40705 185.27855 99.96875 185.28125 C 103.44165 185.28125 104.8515 185.18813 110.875 184.53125 L 112.6875 184.34375 L 117.21875 191.65625 C 119.6987 195.67788 121.89665 199.21945 122.125 199.53125 C 122.52485 200.07722 122.69515 200.07265 126.21875 199.125 C 131.1962 197.78638 137.043 195.72423 141.90625 193.59375 C 147.24845 191.25347 155.16065 186.90156 155.15625 186.3125 C 155.15625 186.18798 154.2154 182.10192 153.0625 177.25 L 150.96875 168.4375 L 154.0625 165.90625 C 157.9222 162.75944 163.19075 157.47077 166.1875 153.75 C 167.4436 152.19041 168.66615 150.9375 168.90625 150.9375 C 169.1464 150.9375 173.19885 151.84013 177.90625 152.9375 C 182.61355 154.03487 186.5259 154.90625 186.59375 154.90625 C 186.92185 154.90625 190.12325 149.18615 192.28125 144.71875 C 195.1924 138.69217 197.3161 133.0098 199 126.84375 C 199.96605 123.30628 200.1729 122.21202 199.875 122.03125 C 199.6624 121.90224 196.10105 119.67888 191.96875 117.09375 C 185.97355 113.34325 184.4753 112.26354 184.53125 111.78125 C 185.47125 103.67404 185.42845 93.174332 184.4375 88.28125 C 184.2828 87.517313 184.6631 87.225335 191.84375 82.75 C 196.00875 80.154214 199.57165 77.92763 199.75 77.8125 C 200.4283 77.374608 197.55785 67.587343 194.75 60.75 C 192.72765 55.825418 188.25895 47.060955 186.625 44.8125 C 186.5975 44.774414 182.49695 45.692079 177.53125 46.875 L 168.5 49.03125 L 167.59375 47.875 C 163.1159 42.250272 158.5001 37.609374 153.09375 33.25 C 151.87095 32.263977 150.875 31.404708 150.875 31.34375 C 150.875 31.282757 151.7787 27.37944 152.875 22.65625 C 153.97135 17.93309 154.875 13.839869 154.875 13.59375 C 154.875 12.729387 145.81835 7.8348839 139.15625 5.09375 C 132.7962 2.4769422 123.78236 -0.22222999 122.3125 0 z M 96.78125 30.65625 C 101.74026 30.558002 108.31254 30.829878 111.3125 31.34375 C 130.6111 34.649511 147.772 45.87169 158.3125 62.0625 C 162.15175 67.959748 166.0879 77.23237 167.6875 84.15625 C 171.32055 99.882898 169.3426 116.73273 162.15625 131.125 C 151.7012 152.06338 131.4302 166.15812 107.65625 169.03125 C 104.08745 169.46254 94.9552 169.37971 91.25 168.875 C 67.87465 165.69085 48.111499 151.55191 38 130.8125 C 32.81415 120.17601 30.83825 111.68479 30.84375 99.96875 C 30.84925 88.219247 32.72415 80.10267 37.90625 69.3125 C 41.23955 62.371849 44.852101 57.234597 50.5625 51.375 C 61.71635 39.929702 76.71985 32.630636 92.5625 30.90625 C 93.662263 30.786545 95.128247 30.688999 96.78125 30.65625 z M 137.40625 54.1875 L 137.1875 54.34375 L 137.5625 54.34375 L 137.40625 54.1875 z "
       transform="matrix(2,0,0,1.9980965,5.0000029,647.55253)"
       id="path3919" />
  </g>
</svg>
