<?xml version="1.0" encoding="UTF-8" standalone="no"?>
<svg
   xmlns:dc="http://purl.org/dc/elements/1.1/"
   xmlns:cc="http://creativecommons.org/ns#"
   xmlns:rdf="http://www.w3.org/1999/02/22-rdf-syntax-ns#"
   xmlns:svg="http://www.w3.org/2000/svg"
   xmlns="http://www.w3.org/2000/svg"
   version="1.1"
   id="svg27183"
   height="410"
   width="410">
  <defs
     id="defs27185" />
  <metadata
     id="metadata27188">
    <rdf:RDF>
      <cc:Work
         rdf:about="">
        <dc:format>image/svg+xml</dc:format>
        <dc:type
           rdf:resource="http://purl.org/dc/dcmitype/StillImage" />
        <dc:title></dc:title>
      </cc:Work>
    </rdf:RDF>
  </metadata>
  <g
     transform="translate(0,-642.36218)"
     id="layer1">
    <path
       id="path3919"
       d="m 170.8729,1031.5209 9.7801,-15.6805 2.7932,0.4094 c 6.7103,0.9836 14.3764,1.5315 21.4998,1.5369 6.9458,0 9.7263,-0.1863 21.7733,-1.4988 l 3.6799,-0.4009 9.0183,14.6102 c 4.9599,8.0356 9.3917,15.1199 9.8484,15.7429 0.7997,1.0909 1.0998,1.0602 8.147,-0.8333 9.9549,-2.6747 21.6579,-6.7963 31.3844,-11.0532 10.6844,-4.6761 26.5538,-13.3768 26.545,-14.5538 0,-0.2488 -1.8899,-8.3842 -4.1957,-18.0788 l -4.1922,-17.62659 6.1889,-5.04111 c 7.7194,-6.28763 18.2565,-16.83192 24.25,-24.26637 2.5122,-3.11622 4.9606,-5.66586 5.4408,-5.66586 0.4803,0 8.5761,1.79399 17.9909,3.98665 9.4146,2.19266 17.2288,3.98666 17.3645,3.98666 0.6562,0 7.029,-11.44088 11.345,-20.36717 5.8223,-12.04169 10.1086,-23.40434 13.4764,-35.7247 1.9321,-7.0682 2.33,-9.27953 1.7342,-9.64072 -0.4252,-0.25778 -7.535,-4.69489 -15.7996,-9.86022 -11.9904,-7.49387 -14.9984,-9.63556 -14.8865,-10.59923 1.88,-16.19899 1.7976,-37.20043 -0.1843,-46.97728 -0.3094,-1.52642 0.4576,-2.09782 14.8189,-11.03997 8.33,-5.18663 15.4372,-9.61844 15.7939,-9.84848 1.3566,-0.87495 -4.3743,-20.43504 -9.99,-34.09671 -4.0447,-9.83979 -12.9892,-27.37062 -16.2571,-31.86325 -0.055,-0.0761 -8.2264,1.79542 -18.1578,4.15901 l -18.057,4.29742 -1.84,-2.30905 c -8.9557,-11.23875 -18.1672,-20.53447 -28.9799,-29.24492 -2.4456,-1.97017 -4.4466,-3.68185 -4.4466,-3.80365 0,-0.12187 1.794,-7.94307 3.9866,-17.38046 2.1927,-9.43733 3.9867,-17.56115 3.9867,-18.05292 0,-1.72708 -18.0825,-11.50377 -31.4067,-16.98082 -13.5681,-5.57721 -33.2213,-11.34768 -34.1083,-10.0146 -0.23,0.34579 -4.6629,7.4545 -9.8508,15.79715 -6.1322,9.86091 -9.7123,15.06115 -10.232,14.86176 -0.4396,-0.16873 -5.9443,-0.6513 -12.2327,-1.07235 -9.1808,-0.6148 -13.6295,-0.61259 -22.5812,0.0111 -6.1313,0.4273 -11.8492,0.91699 -12.7062,1.08811 -1.4587,0.29134 -2.16,-0.66141 -10.9832,-14.91977 -5.1838,-8.37701 -9.6213,-15.45688 -9.8612,-15.73307 -0.9827,-1.13122 -20.8019,4.68775 -33.3321,9.78633 -13.3349,5.42602 -32.256898,15.65018 -32.270798,17.43694 -0.01,0.52864 1.7865,8.49299 3.9792,17.69854 2.192598,9.20556 3.986598,17.07736 3.986598,17.49289 0,0.41553 -2.2769,2.51395 -5.059998,4.66316 -6.5094,5.027 -20.5504,19.06794 -25.5773,25.57735 -2.1493,2.78299 -4.3461,5.05569 -4.8818,5.05046 -0.5357,-0.006 -8.7021,-1.78354 -18.1474,-3.95178 l -17.1732,-3.94225 -1.0418,1.34512 c -1.8508,2.3899 -8.9415,15.27073 -12.0509,21.89173 -4.234099,9.01562 -8.770399,21.49265 -11.7040992,32.19206 -1.3731,5.00797 -2.4965,9.28945 -2.4965,9.51442 0,0.22498 7.0568002,4.80201 15.6816992,10.17118 l 15.6816,9.76214 -0.3681,3.67999 c -1.6428,16.42386 -1.5807,30.11118 0.1939,42.75136 l 0.491,3.49814 -12.6201,7.81708 c -6.940999,4.2994 -14.049999,8.72451 -15.7976992,9.83359 l -3.1777,2.01652 2.066,7.82819 c 2.7819,10.54073 7.0881002,22.75132 11.3296992,32.1263 3.5873,7.92923 11.0074,21.49792 13.1996,24.13787 l 1.2267,1.47715 17.7866,-4.23157 17.7866,-4.23157 1.5334,1.94957 c 8.3276,10.58832 19.1002,21.54966 28.6748,29.17748 3.303498,2.63174 4.969398,4.36192 4.795898,4.98092 -0.828,2.95432 -7.710898,33.8535 -7.710898,34.6165 0,1.8183 20.232998,12.6402 33.119998,17.7147 9.9965,3.9364 27.9872,9.4902 30.9731,9.5616 0.9506,0.023 3.4275,-3.4991 11.0068,-15.6511 z m 16.6133,-46.55826 c -46.7507,-6.36223 -86.2797,-34.57542 -106.502698,-76.01477 -10.3717,-21.25274 -14.3101,-38.23004 -14.2991,-61.63981 0.011,-23.47664 3.7469,-39.69318 14.1111,-61.25298 6.6666,-13.86809 13.9395,-24.15231 25.360298,-35.86035 22.3077,-22.86881 52.258,-37.46563 83.9433,-40.91112 8.7981,-0.95673 29.5317,-0.44779 37.5316,0.92123 38.5972,6.60523 72.9139,29.00598 93.9949,61.35678 7.6785,11.78327 15.5515,30.32529 18.7507,44.15987 7.2661,31.42336 3.2943,65.05894 -11.0784,93.81608 -20.9101,41.8369 -61.4546,70.0151 -109.0025,75.75589 -7.1376,0.86176 -25.3988,0.67763 -32.8092,-0.33082 z m 80.3508,-47.52192 c 1.122,-1.23984 1.0212,-1.36726 -9.1049,-11.50655 -8.6538,-8.66497 -10.2395,-10.53552 -10.2395,-12.07829 0,-1.52683 1.3784,-3.20653 8.4251,-10.26673 11.3075,-11.32929 9.7106,-11.44834 22.8819,1.70585 10.1274,10.11431 10.164,10.14299 11.3077,8.87921 1.1263,-1.24461 1.0933,-1.47307 -1.8015,-12.44708 l -2.9488,-11.1792 -5.8527,-5.94515 -5.8528,-5.94515 -11.0862,-2.58888 -11.0861,-2.58887 -34.9881,-34.88018 -34.9879,-34.88016 -2.0166,-8.41231 c -3.6986,-15.42872 -3.0032,-13.98998 -9.784,-20.24687 l -6.0508,-5.58334 -10.9795,-3.06744 c -10.8821,-3.04026 -10.9902,-3.05686 -12.1857,-1.87429 -1.1977,1.18449 -1.1321,1.26798 9.0465,11.51056 8.5669,8.6206 10.2531,10.61205 10.2531,12.1089 0,1.48624 -1.4878,3.28192 -8.7321,10.53912 -6.5857,6.59752 -9.1092,8.74765 -10.2667,8.74765 -1.1664,0 -3.9871,-2.44922 -11.756,-10.20806 -10.232,-10.21864 -11.565,-11.11736 -12.5774,-8.47916 -0.2041,0.53198 0.9416,6.02976 2.546,12.21728 l 2.9174,11.25004 5.901,5.83065 5.9012,5.83064 11.1537,2.61921 11.1538,2.6192 34.8884,35.00663 34.8885,35.00662 2.5979,11.15684 2.5979,11.15685 6.1405,5.66143 6.1403,5.66143 10.5393,2.91984 c 5.7966,1.60591 10.8414,2.93865 11.2109,2.96165 0.3693,0.023 1.1821,-0.52235 1.8062,-1.21189 z m -114.4108,-7.40249 c 3.5896,-1.66094 6.2163,-4.06922 26.371,-24.17707 l 22.3842,-22.3324 -3.6479,-3.6864 -3.648,-3.68641 -9.31,9.18931 c -8.476,8.36592 -9.5051,9.18932 -11.4852,9.18932 -1.6193,0 -2.5,-0.41297 -3.4463,-1.61604 -2.6668,-3.3902 -2.0176,-4.54071 8.6132,-15.2633 l 8.5256,-8.59937 -3.8383,-3.77984 -3.8384,-3.77985 -9.6371,9.15922 c -10.3907,9.87559 -11.5461,10.50364 -14.3966,7.82565 -0.9599,-0.90174 -1.4196,-2.02929 -1.4196,-3.48205 0,-1.94825 0.8571,-3.01203 9.1973,-11.41499 l 9.1971,-9.26653 -3.6852,-3.64681 -3.6853,-3.64679 -22.0959,22.06868 c -24.1361,24.1063 -25.0934,25.31711 -26.4675,33.47777 -0.9612,5.70807 0.077,9.97366 3.55,14.59449 2.9659,3.94551 8.952,9.73487 12.4592,12.04977 5.6371,3.72057 13.3654,4.03408 20.3037,0.82364 z m 71.1464,-105.41698 -21.1599,-20.76621 -2.9234,2.85332 -2.9232,2.85332 21.0112,21.01786 21.0113,21.01787 3.072,-3.10497 3.0719,-3.10497 z m 25.6168,-15.80557 15.3366,-15.79911 7.2765,-2.37847 7.2766,-2.37849 6.4057,-9.31943 c 3.5232,-5.12569 6.4998,-9.60194 6.6149,-9.94721 0.1151,-0.34527 -2.8269,-3.44949 -6.5379,-6.89828 l -6.7471,-6.27049 -9.4706,6.78802 -9.4706,6.78802 -2.3571,6.7515 -2.3572,6.7515 -16.0954,16.09351 -16.0953,16.09353 4.7343,4.76225 c 2.6039,2.61925 5.0528,4.76227 5.4421,4.76227 0.3893,0 7.6093,-7.10961 16.0445,-15.79912 z"
       style="fill:#e12d0e;fill-opacity:1" />
  </g>
</svg>
