<svg id="Layer_1" data-name="Layer 1" xmlns="http://www.w3.org/2000/svg" viewBox="0 0 99.99 102.99"><defs><style>.cls-1{fill:#4fbdc1;}.cls-1,.cls-2{stroke:#777;stroke-miterlimit:10;stroke-width:3px;}.cls-2{fill:#f3e60e;}</style></defs><title>Untitled-1</title><path class="cls-1" d="M58.81,42.75A17.25,17.25,0,1,0,76,60,17.22,17.22,0,0,0,58.81,42.75h0Z" transform="translate(-10.01 -8.5)"/><path class="cls-2" d="M58.68,10a7.88,7.88,0,1,0,5.64,2.37A7.88,7.88,0,0,0,58.68,10h0Z" transform="translate(-10.01 -8.5)"/><path class="cls-2" d="M58.84,94.21a7.88,7.88,0,1,0,5.56,2.32,7.88,7.88,0,0,0-5.56-2.32h0Z" transform="translate(-10.01 -8.5)"/><path class="cls-2" d="M100.63,52.11a7.88,7.88,0,1,0,5.56,2.32,7.88,7.88,0,0,0-5.56-2.32h0Z" transform="translate(-10.01 -8.5)"/><path class="cls-2" d="M19.35,52.11a7.88,7.88,0,1,0,5.58,2.32,7.88,7.88,0,0,0-5.58-2.32h0Z" transform="translate(-10.01 -8.5)"/><path class="cls-2" d="M87.52,23.82h0a7.89,7.89,0,0,0,0,15.79h0a7.89,7.89,0,0,0,0-15.79h0Z" transform="translate(-10.01 -8.5)"/><path class="cls-2" d="M87.52,80.71a8.05,8.05,0,1,0,8,8.05,8,8,0,0,0-8-8.05h0Z" transform="translate(-10.01 -8.5)"/><path class="cls-2" d="M29.84,81.05h0a7.89,7.89,0,0,0,0,15.79h0a7.89,7.89,0,0,0,0-15.79h0Z" transform="translate(-10.01 -8.5)"/><path class="cls-2" d="M29.84,23.16a8.13,8.13,0,0,0,0,16.26h0a8.13,8.13,0,0,0,0-16.26h0Z" transform="translate(-10.01 -8.5)"/><line class="cls-1" x1="48.81" y1="34.25" x2="48.81" y2="17.29"/><line class="cls-1" x1="48.81" y1="86.41" x2="48.81" y2="69.45"/><line class="cls-1" x1="66.73" y1="51.5" x2="83.69" y2="51.5"/><line class="cls-1" x1="17.23" y1="51.5" x2="31.62" y2="51.5"/><line class="cls-1" x1="60.97" y1="40.99" x2="72.96" y2="29"/><line class="cls-1" x1="25.96" y1="75.99" x2="37.47" y2="64.49"/><line class="cls-1" x1="59.97" y1="63" x2="71.96" y2="74.99"/><line class="cls-1" x1="24.96" y1="28" x2="36.47" y2="39.5"/></svg>