<?xml version="1.0" encoding="iso-8859-1"?>
<!-- Generator: Adobe Illustrator 16.0.0, SVG Export Plug-In . SVG Version: 6.00 Build 0)  -->
<!DOCTYPE svg PUBLIC "-//W3C//DTD SVG 1.1//EN" "http://www.w3.org/Graphics/SVG/1.1/DTD/svg11.dtd">
<svg version="1.1" id="Capa_1" xmlns="http://www.w3.org/2000/svg" xmlns:xlink="http://www.w3.org/1999/xlink" x="0px" y="0px"
	 width="26.878px" height="26.878px" viewBox="0 0 26.878 26.878" style="enable-background:new 0 0 26.878 26.878;"
	 xml:space="preserve">
<g>
	<g>
		<path d="M22.841,19.217c-2.291,2.619-5.648,4.282-9.402,4.282s-7.112-1.663-9.403-4.282c-1.923,1.379-3.097,3.178-3.097,5.153
			c0,4.327,5.596,1.741,12.5,1.741c6.902,0,12.5,2.586,12.5-1.741C25.939,22.395,24.765,20.596,22.841,19.217z"/>
		<path d="M13.439,22c6.074,0,11-4.926,11-11c0-6.075-4.926-11-11-11c-6.075,0-11,4.925-11,11C2.439,17.074,7.364,22,13.439,22z
			 M13.439,5.5c3.037,0,5.5,2.465,5.5,5.5s-2.463,5.5-5.5,5.5c-3.038,0-5.5-2.465-5.5-5.5S10.401,5.5,13.439,5.5z"/>
		<path d="M13.439,15c2.208,0,4-1.793,4-4s-1.792-4-4-4c-2.209,0-4,1.793-4,4S11.23,15,13.439,15z M14.438,8.994
			c0.556,0,1.007,0.451,1.007,1.007s-0.451,1.008-1.007,1.008c-0.557,0-1.008-0.452-1.008-1.008S13.881,8.994,14.438,8.994z"/>
	</g>
</g>
<g>
</g>
<g>
</g>
<g>
</g>
<g>
</g>
<g>
</g>
<g>
</g>
<g>
</g>
<g>
</g>
<g>
</g>
<g>
</g>
<g>
</g>
<g>
</g>
<g>
</g>
<g>
</g>
<g>
</g>
</svg>
