<?xml version="1.0" encoding="UTF-8"?>
<!-- Generator: Adobe Illustrator 15.0.0, SVG Export Plug-In . SVG Version: 6.00 Build 0)  -->
<!DOCTYPE svg PUBLIC "-//W3C//DTD SVG 1.1//EN" "http://www.w3.org/Graphics/SVG/1.1/DTD/svg11.dtd">
<svg version="1.1" id="Ebene_1" xmlns="http://www.w3.org/2000/svg" xmlns:xlink="http://www.w3.org/1999/xlink" x="0px" y="0px" width="1024px" height="768px" viewBox="0 0 1024 768" enable-background="new 0 0 1024 768" xml:space="preserve">
<path id="blau_Hintergrund" fill="#0071BC" stroke="#0071BC" stroke-width="6" stroke-miterlimit="10" d="M146.118,115H862.7  c0,0,93.3-10.831,93.3,116.415c0,106.987,0,246.368,0,246.368S954.467,579,857.117,579s-710.999,0-710.999,0S46,570.013,46,468.904  c0-101.11,0-235.841,0-235.841S36.151,115,146.118,115z"/>
<path id="blase" fill="#FFFFFF" d="M443.567,562H869.46c0,0,67.54-13.15,67.54-82.515c0-69.365,0-254.534,0-254.534  S934.118,148,860.465,148c-73.655,0-249.245,0-249.245,0s-92.467,15.281-93.644,111.688c-1.175,96.407,0,185.925,0,185.925  S500.059,553,443.567,562z"/>
<polygon id="w" fill="#FFFFFF" stroke="#FFFFFF" points="152.878,492.5 206.96,492.5 238.938,294.923 268.331,492.5 319.179,492.5   376.494,223.5 323.235,223.5 297.723,414.723 271.857,223.5 216.424,223.5 184.857,420.602 152.878,223.5 101.5,223.5 "/>
<rect id="istrich" x="393" y="292" fill="#FFFFFF" width="45" height="201"/>
<circle id="ipunk_x5F_weiss" fill="#FFFFFF" cx="419.465" cy="239.057" r="32.332"/>
<polygon id="F" fill="#0071BC" points="621,493 621,225 750,225 750,271 663,271 663,330 741,330 741,377 663,377 663,493 "/>
<rect id="iblau" x="780" y="291" fill="#0071BC" width="44" height="201"/>
<circle id="ipunkt_x5F_blau" fill="#0071BC" cx="803.445" cy="240.409" r="32.331"/>
<path id="schein" opacity="0.2" fill="#FFFFFF" d="M54.211,375.573c0,0,241.789-145.333,897.789-33.644V226.304  c0,0,1.771-104.17-87.916-104.107c-69.403,0.049-717.949,0-717.949,0s-93.734-6.76-91.931,120.332  C55.598,340.767,54.211,375.573,54.211,375.573z"/>
</svg>