<?xml version="1.0" encoding="UTF-8" standalone="no"?>
<!-- Generator: Adobe Illustrator 16.2.1, SVG Export Plug-In . SVG Version: 6.00 Build 0)  -->

<svg
   xmlns:dc="http://purl.org/dc/elements/1.1/"
   xmlns:cc="http://creativecommons.org/ns#"
   xmlns:rdf="http://www.w3.org/1999/02/22-rdf-syntax-ns#"
   xmlns:svg="http://www.w3.org/2000/svg"
   xmlns="http://www.w3.org/2000/svg"
   xmlns:sodipodi="http://sodipodi.sourceforge.net/DTD/sodipodi-0.dtd"
   xmlns:inkscape="http://www.inkscape.org/namespaces/inkscape"
   version="1.1"
   x="0px"
   y="0px"
   width="200px"
   height="200px"
   viewBox="0 0 200 200"
   enable-background="new 0 0 200 200"
   xml:space="preserve"
   id="svg2"
   inkscape:version="0.48.4 r9939"
   sodipodi:docname="base.svg"><metadata
     id="metadata522"><rdf:RDF><cc:Work
         rdf:about=""><dc:format>image/svg+xml</dc:format><dc:type
           rdf:resource="http://purl.org/dc/dcmitype/StillImage" /><dc:title></dc:title></cc:Work></rdf:RDF></metadata><defs
     id="defs520" /><sodipodi:namedview
     pagecolor="#ffffff"
     bordercolor="#666666"
     borderopacity="1"
     objecttolerance="10"
     gridtolerance="10"
     guidetolerance="10"
     inkscape:pageopacity="0"
     inkscape:pageshadow="2"
     inkscape:window-width="1301"
     inkscape:window-height="744"
     id="namedview518"
     showgrid="false"
     inkscape:zoom="1.7136117"
     inkscape:cx="100"
     inkscape:cy="146.68502"
     inkscape:window-x="65"
     inkscape:window-y="24"
     inkscape:window-maximized="1"
     inkscape:current-layer="layer1" /><g
     inkscape:groupmode="layer"
     id="layer1"
     inkscape:label="Layer"><g
       transform="matrix(0.377043,0,0,0.38523685,-39.733736,-60.087166)"
       id="layer1-0"><path
         d="m 225.4375,120.5 c -28.39805,0 -54.49374,11.49013 -73.5625,30.21875 l 21.15625,21.125 C 186.42608,158.71247 204.79404,150.5 225.4375,150.5 c 21.07203,0 39.78209,8.54388 53.21875,22.15625 l 21.125,-21.125 C 280.66836,132.3241 254.24255,120.5 225.4375,120.5 z"
         transform="translate(146.64809,300.77309)"
         id="path3793"
         style="font-size:medium;font-style:normal;font-variant:normal;font-weight:normal;font-stretch:normal;text-indent:0;text-align:start;text-decoration:none;line-height:normal;letter-spacing:normal;word-spacing:normal;text-transform:none;direction:ltr;block-progression:tb;writing-mode:lr-tb;text-anchor:start;baseline-shift:baseline;color:#000000;fill:#000000;fill-opacity:1;stroke:none;stroke-width:1.01280868;marker:none;visibility:visible;display:inline;overflow:visible;enable-background:accumulate;font-family:Sans;-inkscape-font-specification:Sans"
         inkscape:connector-curvature="0" /><path
         d="m 372.05336,495.71009 c -15.91445,0 -30.47712,13.01383 -30.47712,30.471 0,17.45718 14.56267,30.471 30.47712,30.471 15.91446,0 30.46488,-13.01382 30.46488,-30.471 0,-17.45717 -14.55042,-30.471 -30.46488,-30.471 z"
         id="path3789"
         style="font-size:medium;font-style:normal;font-variant:normal;font-weight:normal;font-stretch:normal;text-indent:0;text-align:start;text-decoration:none;line-height:normal;letter-spacing:normal;word-spacing:normal;text-transform:none;direction:ltr;block-progression:tb;writing-mode:lr-tb;text-anchor:start;baseline-shift:baseline;color:#000000;fill:#000000;fill-opacity:1;fill-rule:nonzero;stroke:none;stroke-width:1;marker:none;visibility:visible;display:inline;overflow:visible;enable-background:accumulate;font-family:Sans;-inkscape-font-specification:Sans"
         inkscape:connector-curvature="0" /><path
         d="m 225.46875,60.5 c -44.9975,0 -86.11886,18.242473 -116.0625,47.875 l 21.15625,21.09375 c 24.26306,-24.00839 57.66092,-38.9375 94.90625,-38.9375 37.61358,0 71.28178,15.22933 95.5625,39.65625 l 21.125,-21.15625 C 312.19677,79.002856 270.80502,60.5 225.46875,60.5 z"
         transform="translate(146.64809,300.77309)"
         id="path3797"
         style="font-size:medium;font-style:normal;font-variant:normal;font-weight:normal;font-stretch:normal;text-indent:0;text-align:start;text-decoration:none;line-height:normal;letter-spacing:normal;word-spacing:normal;text-transform:none;direction:ltr;block-progression:tb;writing-mode:lr-tb;text-anchor:start;baseline-shift:baseline;color:#000000;fill:#000000;fill-opacity:1;stroke:none;stroke-width:1.03394938;marker:none;visibility:visible;display:inline;overflow:visible;enable-background:accumulate;font-family:Sans;-inkscape-font-specification:Sans"
         inkscape:connector-curvature="0" /><path
         d="M 225.46875,0.53125 C 163.91062,0.53125 107.74973,25.480521 66.9375,66 l 21.15625,21.125 c 35.10739,-34.905172 83.49852,-56.59375 137.375,-56.59375 54.18812,0 102.82123,21.926707 137.9375,57.1875 L 384.5,66.5625 C 343.68121,25.711691 287.31103,0.53125 225.46875,0.53125 z"
         transform="translate(146.64809,300.77309)"
         id="path3803"
         style="font-size:medium;font-style:normal;font-variant:normal;font-weight:normal;font-stretch:normal;text-indent:0;text-align:start;text-decoration:none;line-height:normal;letter-spacing:normal;word-spacing:normal;text-transform:none;direction:ltr;block-progression:tb;writing-mode:lr-tb;text-anchor:start;baseline-shift:baseline;color:#000000;fill:#000000;fill-opacity:1;stroke:none;stroke-width:1.07882667;marker:none;visibility:visible;display:inline;overflow:visible;enable-background:accumulate;font-family:Sans;-inkscape-font-specification:Sans"
         inkscape:connector-curvature="0" /></g><path
       style="opacity:0.12000002;fill:#ffffff;fill-opacity:0;fill-rule:nonzero;stroke:#000000;stroke-width:2;stroke-miterlimit:4;stroke-opacity:1;stroke-dasharray:none"
       d="m 70.702268,270.51152 c -1.253326,-0.73517 -3.083801,-2.33624 -4.067722,-3.55793 -1.519177,-1.88629 -1.822662,-2.81792 -2.012524,-6.17801 -0.176546,-3.12443 0.02271,-4.43715 0.947226,-6.24041 2.995732,-5.84315 9.296572,-8.16394 15.0594,-5.54683 4.280368,1.94387 7.200971,6.33587 7.214729,10.8495 0.01088,3.56807 -2.36642,8.09246 -5.257324,10.00557 -3.434522,2.27286 -8.648273,2.56598 -11.883785,0.66811 l 0,0 z"
       id="path3322"
       inkscape:connector-curvature="0" /><path
       style="opacity:0.12000002000000000;fill:#865f5f;fill-opacity:0;fill-rule:nonzero;stroke:#000000;stroke-width:2;stroke-miterlimit:4;stroke-opacity:1;stroke-dasharray:none"
       d="m 113.48301,182.45204 c -5.88079,-3.14456 -15.755649,-6.28429 -24.735443,-7.86467 -5.545795,-0.97602 -18.557405,-1.08167 -24.259381,-0.19698 -3.992381,0.61944 -4.092432,0.60259 -7.292083,-1.22806 -21.724009,-12.42922 -37.224997,-35.52041 -41.085259,-61.20302 -0.357301,-2.37716 -0.649638,-7.7851 -0.649638,-12.017666 0,-4.232564 0.292337,-9.64051 0.649638,-12.017665 4.290092,-28.542308 22.578778,-53.033 48.524997,-64.980653 4.746873,-2.185829 14.242379,-5.245779 19.120041,-6.16148 23.609608,-4.432316 48.559948,1.368404 67.422578,15.675115 7.65221,5.803965 15.46939,14.395401 20.89869,22.9686 9.85373,15.559647 14.41134,36.33071 12.02022,54.781539 -2.60546,20.10484 -11.09654,36.96715 -25.69526,51.02783 -10.66434,10.27132 -23.32317,17.29006 -37.85077,20.98654 -4.9643,1.26314 -5.12733,1.26846 -7.06833,0.23057 z"
       id="path4092"
       inkscape:connector-curvature="0" /><path
       style="fill:#ffffff;fill-opacity:1;fill-rule:nonzero;stroke:#000000;stroke-width:0;stroke-miterlimit:4;stroke-opacity:1;stroke-dasharray:none"
       d="m 93.405746,149.60935 c -6.848427,-2.99177 -9.463661,-11.60406 -5.392048,-17.75668 1.646606,-2.48819 6.557378,-5.36133 9.153888,-5.35566 7.649084,0.0167 13.697044,7.76247 11.738944,15.03432 -1.75942,6.53396 -9.637404,10.63946 -15.500784,8.07802 z"
       id="path4124"
       inkscape:connector-curvature="0" /><path
       style="fill:#ffffff;fill-opacity:1;fill-rule:nonzero;stroke:#000000;stroke-width:0;stroke-miterlimit:4;stroke-opacity:1;stroke-dasharray:none"
       d="m 116.13919,117.12856 c -1.71538,-1.89547 -7.27252,-5.02451 -10.73043,-6.04195 -4.84816,-1.4265 -12.009404,-1.22876 -16.662106,0.46008 -3.449068,1.25195 -5.038287,2.15368 -9.527969,5.40627 -1.325903,0.96056 -1.41764,0.90895 -5.433304,-3.05684 l -4.08463,-4.03391 2.726544,-2.48802 c 8.167137,-7.452663 21.719141,-11.021993 32.941485,-8.676123 5.39064,1.12684 13.83614,5.302393 17.79867,8.799863 l 2.91781,2.57537 -4.06929,4.12529 c -2.23811,2.2689 -4.23258,4.12528 -4.43216,4.12528 -0.19959,0 -0.84967,-0.53789 -1.44462,-1.19531 z"
       id="path4126"
       inkscape:connector-curvature="0" /><path
       style="fill:#ffffff;fill-opacity:1;fill-rule:nonzero;stroke:#000000;stroke-width:0;stroke-miterlimit:4;stroke-opacity:1;stroke-dasharray:none"
       d="m 130.7464,99.467877 c -6.30374,-5.46001 -12.28643,-8.67159 -20.54076,-11.026525 -6.05352,-1.727052 -18.234114,-1.856187 -24.386215,-0.258535 -5.594918,1.45296 -15.04125,6.14664 -19.192611,9.53641 -1.890028,1.54329 -3.790053,3.064813 -4.222276,3.381163 -0.585729,0.4287 -1.754027,-0.38438 -4.587573,-3.192743 -2.090941,-2.07235 -3.801711,-4.07396 -3.801711,-4.44802 0,-0.73221 6.132259,-5.866486 10.653442,-8.919661 13.092982,-8.841748 32.94411,-11.926886 48.869964,-7.595064 8.80838,2.395877 21.24676,9.459452 26.53089,15.066515 l 1.72949,1.83518 -4.0711,4.07109 -4.07109,4.071093 -2.91045,-2.520903 z"
       id="path4128"
       inkscape:connector-curvature="0" /><path
       style="fill:#ffffff;fill-opacity:1;fill-rule:nonzero;stroke:#000000;stroke-width:0;stroke-miterlimit:4;stroke-opacity:1;stroke-dasharray:none"
       d="M 145.92639,82.354299 C 141.94979,78.677454 134.75898,73.765221 129.58664,71.192185 114.55096,63.712518 95.272646,61.804609 79.108453,66.19653 68.461467,69.089387 57.963285,74.729525 50.000036,81.834997 c -1.988368,1.774187 -3.809285,3.225796 -4.04648,3.225796 -0.237195,0 -2.19844,-1.780822 -4.358322,-3.957382 l -3.927057,-3.957382 2.775583,-2.64182 c 22.135213,-21.068466 55.266066,-28.24413 84.18259,-18.232732 9.68165,3.351953 20.66159,9.801226 28.70993,16.863318 l 4.49206,3.941607 -3.83414,4.283977 c -2.10878,2.356187 -3.9989,4.272137 -4.20028,4.257667 -0.20139,-0.01447 -1.94177,-1.483157 -3.86753,-3.263747 z"
       id="path4130"
       inkscape:connector-curvature="0" /></g></svg>
