<?xml version="1.0" encoding="UTF-8" standalone="no"?>
<!-- Created with Inkscape (http://www.inkscape.org/) -->

<svg
   xmlns:dc="http://purl.org/dc/elements/1.1/"
   xmlns:cc="http://creativecommons.org/ns#"
   xmlns:rdf="http://www.w3.org/1999/02/22-rdf-syntax-ns#"
   xmlns:svg="http://www.w3.org/2000/svg"
   xmlns="http://www.w3.org/2000/svg"
   xmlns:sodipodi="http://sodipodi.sourceforge.net/DTD/sodipodi-0.dtd"
   xmlns:inkscape="http://www.inkscape.org/namespaces/inkscape"
   width="1000"
   height="350"
   viewBox="0 0 1000 350.00001"
   id="svg2"
   version="1.1"
   inkscape:version="0.91 r13725"
   sodipodi:docname="diykits3.svg">
  <defs
     id="defs4" />
  <sodipodi:namedview
     id="base"
     pagecolor="#ffffff"
     bordercolor="#666666"
     borderopacity="1.0"
     inkscape:pageopacity="0.0"
     inkscape:pageshadow="2"
     inkscape:zoom="0.37114892"
     inkscape:cx="1208.6246"
     inkscape:cy="181.03049"
     inkscape:document-units="px"
     inkscape:current-layer="layer1"
     showgrid="false"
     units="px"
     inkscape:window-width="1307"
     inkscape:window-height="744"
     inkscape:window-x="59"
     inkscape:window-y="24"
     inkscape:window-maximized="1" />
  <metadata
     id="metadata7">
    <rdf:RDF>
      <cc:Work
         rdf:about="">
        <dc:format>image/svg+xml</dc:format>
        <dc:type
           rdf:resource="http://purl.org/dc/dcmitype/StillImage" />
        <dc:title></dc:title>
      </cc:Work>
    </rdf:RDF>
  </metadata>
  <g
     inkscape:label="Layer 1"
     inkscape:groupmode="layer"
     id="layer1"
     transform="translate(0,-702.36216)">
    <path
       inkscape:connector-curvature="0"
       class="st0"
       d="m 319.9175,779.7527 c -27.52519,-46.13559 -77.57099,-66.78498 -128.24235,-63.80849 -69.23002,3.90664 -119.692858,49.2981 -127.199727,103.61904 -0.208524,1.8603 -0.625573,3.53458 -1.042621,5.02282 l -25.856994,1.48825 0,37.76421 13.137021,0 0,18.60306 c 0,0 3.336386,4.46473 7.089821,3.72061 3.753435,-0.74412 8.758014,-0.74412 8.966538,-3.34855 0.417049,-2.60443 0,-18.60306 0,-18.60306 l 19.60127,0 0,17.48687 c 0,0 2.710814,4.09268 6.0472,4.46474 3.336386,0.18603 7.506869,-0.74412 8.758012,-1.67428 1.04262,-0.93015 0,-20.46336 0,-20.46336 l 12.9285,0 0,-37.95024 -24.60585,0 c -1.042621,-3.16252 0,-7.62726 1.251145,-12.46405 12.511445,-45.01941 56.718565,-75.71445 109.266645,-75.52842 79.86475,0.37206 131.99579,70.13353 101.75979,135.80233 -25.857,55.99521 -103.84503,76.83063 -163.48293,42.601 -12.9285,-7.44122 -15.63931,1.30222 -20.85241,6.51107 -7.92392,7.99932 2.29376,9.6736 6.88129,12.27802 61.3061,34.97375 139.29413,24.18398 183.70977,-27.16046 33.98944,-39.43849 38.36844,-83.71377 11.88588,-128.36111 z"
       id="path5" />
    <path
       inkscape:connector-curvature="0"
       class="st1"
       d="m 168.32045,791.84469 c 0,29.95092 0,57.48345 0,87.43438 28.98485,-14.88245 56.51004,-28.83475 86.12047,-43.90322 -30.02748,-15.06848 -57.34414,-29.02078 -86.12047,-43.53116 z"
       id="path7"
       style="fill:#ff0000" />
    <g
       transform="matrix(2.0852414,0,0,1.8603059,448.36837,143.52808)"
       id="g9">
      <path
         inkscape:connector-curvature="0"
         class="st0"
         d="m -206.8,450.3 c 1.6,-0.3 3.8,-0.5 6.9,-0.5 3.1,0 5.4,0.6 6.9,1.8 1.4,1.1 2.4,3 2.4,5.2 0,2.2 -0.7,4.1 -2.1,5.3 -1.7,1.6 -4.3,2.4 -7.3,2.4 -0.7,0 -1.3,0 -1.7,-0.1 l 0,8.1 -5,0 0,-22.2 -0.1,0 z m 5.1,10.2 c 0.4,0.1 1,0.1 1.7,0.1 2.7,0 4.4,-1.4 4.4,-3.7 0,-2.1 -1.4,-3.3 -4,-3.3 -1,0 -1.7,0.1 -2.1,0.2 0,0 0,6.7 0,6.7 z"
         id="path11" />
      <path
         inkscape:connector-curvature="0"
         class="st0"
         d="m -187.5,448.8 5.1,0 0,23.7 -5.1,0 c 0,0 0,-23.7 0,-23.7 z"
         id="path13" />
      <path
         inkscape:connector-curvature="0"
         class="st0"
         d="m -162.9,467.2 c 0,2.1 0.1,3.9 0.1,5.2 l -4.4,0 -0.2,-2.3 -0.1,0 c -0.6,1 -2.2,2.7 -5.1,2.7 -3.3,0 -5.7,-2.1 -5.7,-7.1 l 0,-9.6 5.1,0 0,8.8 c 0,2.4 0.8,3.8 2.5,3.8 1.4,0 2.2,-1 2.5,-1.8 0.1,-0.3 0.2,-0.7 0.2,-1.1 l 0,-9.7 5.1,0 c 0,0 0,11.1 0,11.1 z"
         id="path15" />
      <path
         inkscape:connector-curvature="0"
         class="st0"
         d="m -143.2,456.1 c -0.1,1 -0.1,2.4 -0.1,4.8 l 0,9.1 c 0,3.1 -0.6,5.7 -2.5,7.4 -1.8,1.5 -4.2,2 -6.7,2 -2.1,0 -4.4,-0.4 -5.9,-1.3 l 1,-3.8 c 1,0.6 2.8,1.2 4.7,1.2 2.4,0 4.2,-1.3 4.2,-4.3 l 0,-1.1 -0.1,0 c -1,1.4 -2.5,2.1 -4.4,2.1 -4,0 -6.9,-3.3 -6.9,-8 0,-5.2 3.4,-8.6 7.4,-8.6 2.2,0 3.6,1 4.5,2.3 l 0.1,0 0.2,-1.9 4.5,0 0,0.1 z m -5.3,6.7 c 0,-0.3 0,-0.7 -0.1,-0.9 -0.4,-1.3 -1.3,-2.2 -2.7,-2.2 -1.8,0 -3.3,1.7 -3.3,4.6 0,2.4 1.2,4.3 3.3,4.3 1.3,0 2.3,-0.9 2.7,-2.1 0.1,-0.4 0.2,-0.9 0.2,-1.3 l 0,-2.4 -0.1,0 z"
         id="path17" />
      <path
         inkscape:connector-curvature="0"
         class="st0"
         d="m -118.1,472.5 c -0.5,-0.5 -0.9,-1 -1.5,-1.6 -1.5,1.1 -3.5,2 -6.2,2 -5.4,0 -7.9,-3.2 -7.9,-6.4 0,-3 1.7,-5.1 4.3,-6.4 l 0,-0.1 c -1,-1.1 -1.7,-2.7 -1.7,-4.3 0,-2.8 2.2,-5.9 6.8,-5.9 3.5,0 6.1,2 6.1,5.3 0,2.3 -1.3,4.2 -4.4,5.8 l 0,0.1 c 1.3,1.4 2.7,3.1 3.8,4.2 0.9,-1.4 1.6,-3.5 1.9,-5.5 l 4.5,0 c -0.6,3.4 -1.7,6.3 -3.7,8.6 1.3,1.4 2.6,2.9 4,4.4 l -6,0 0,-0.2 z m -3.8,-4.5 c -1.4,-1.4 -3.2,-3.4 -5.1,-5.5 -0.9,0.7 -1.8,1.6 -1.8,3.1 0,1.9 1.4,3.5 3.7,3.5 1.4,0.1 2.5,-0.4 3.2,-1.1 z m -4.5,-12.9 c 0,1.1 0.5,2.1 1.5,3.2 1.6,-1.1 2.5,-2 2.5,-3.3 0,-1.1 -0.6,-2.2 -2,-2.2 -1.3,0 -2,1.1 -2,2.3 z"
         id="path19" />
      <path
         inkscape:connector-curvature="0"
         class="st0"
         d="m -103,450.3 c 1.6,-0.3 3.8,-0.5 6.9,-0.5 3.1,0 5.4,0.6 6.9,1.8 1.4,1.1 2.4,3 2.4,5.2 0,2.2 -0.7,4.1 -2.1,5.3 -1.7,1.6 -4.3,2.4 -7.3,2.4 -0.7,0 -1.3,0 -1.7,-0.1 l 0,8.1 -5,0 -0.1,-22.2 0,0 z m 5.1,10.2 c 0.4,0.1 1,0.1 1.7,0.1 2.7,0 4.4,-1.4 4.4,-3.7 0,-2.1 -1.4,-3.3 -4,-3.3 -1,0 -1.7,0.1 -2.1,0.2 l 0,6.7 z"
         id="path21" />
      <path
         inkscape:connector-curvature="0"
         class="st0"
         d="m -83.7,448.8 5.1,0 0,23.7 -5.1,0 0,-23.7 z"
         id="path23" />
      <path
         inkscape:connector-curvature="0"
         class="st0"
         d="m -65.3,472.5 -0.3,-1.6 -0.1,0 c -1.1,1.3 -2.7,2 -4.7,2 -3.3,0 -5.3,-2.4 -5.3,-5 0,-4.2 3.8,-6.3 9.6,-6.2 l 0,-0.2 c 0,-0.9 -0.5,-2.1 -3,-2.1 -1.7,0 -3.4,0.6 -4.5,1.2 l -0.9,-3.3 c 1.1,-0.6 3.4,-1.4 6.3,-1.4 5.4,0 7.2,3.2 7.2,7.1 l 0,5.7 c 0,1.6 0.1,3.1 0.2,4 l -4.5,0 0,-0.2 z m -0.6,-7.7 c -2.7,0 -4.7,0.6 -4.7,2.6 0,1.3 0.9,1.9 2,1.9 1.3,0 2.3,-0.8 2.6,-1.9 0.1,-0.3 0.1,-0.6 0.1,-0.9 l 0,-1.7 0,0 z"
         id="path25" />
      <path
         inkscape:connector-curvature="0"
         class="st0"
         d="m -53.1,456.1 2.4,8 c 0.3,1 0.6,2.2 0.8,3 l 0.1,0 c 0.2,-0.9 0.5,-2.1 0.7,-3 l 2,-8 5.4,0 -3.8,10.8 c -2.3,6.5 -3.9,9.1 -5.7,10.7 -1.8,1.5 -3.6,2.1 -4.9,2.2 l -1.1,-4.3 c 0.6,-0.1 1.4,-0.4 2.2,-0.9 0.8,-0.4 1.6,-1.2 2.1,-2 0.2,-0.2 0.3,-0.5 0.3,-0.7 0,-0.2 0,-0.4 -0.2,-0.8 l -6,-14.9 5.7,0 0,-0.1 z"
         id="path27" />
    </g>
    <g
       transform="matrix(0,-0.33003468,0.36220957,0,710.33437,1047.1036)"
       style="fill:#ff2a2a"
       id="g8">
      <path
         inkscape:connector-curvature="0"
         style="fill:#ff2a2a"
         id="path10"
         d="m 952.3,405.8 c -20.8,0 -37.7,0 -37.7,0 l 0,-37.7 c 0,-41.6 -33.8,-75.4 -75.4,-75.4 l -753.8,0 C 43.7,292.7 10,326.5 10,368.1 l 0,263.8 c 0,41.6 33.7,75.4 75.4,75.4 l 753.8,0 c 41.6,0 75.4,-33.8 75.4,-75.4 l 0,-37.7 c 0,0 16.8,0 37.7,0 20.8,0 37.7,-16.9 37.7,-37.7 l 0,-113 c 0,-20.9 -16.9,-37.7 -37.7,-37.7 z m -75.4,226.1 c 0,20.8 -16.9,37.7 -37.7,37.7 l -753.8,0 c -20.8,0 -37.7,-16.9 -37.7,-37.7 l 0,-263.8 c 0,-20.8 16.8,-37.7 37.7,-37.7 l 753.8,0 c 20.8,0 37.7,16.8 37.7,37.7 l 0,263.8 z m -791.5,0 226.2,0 0,-263.8 -226.2,0 0,263.8 z" />
    </g>
    <rect
       style="color:#000000;display:inline;overflow:visible;visibility:visible;fill:#ff2a2a;fill-opacity:1;fill-rule:nonzero;stroke:#000000;stroke-width:2;stroke-linecap:butt;stroke-linejoin:miter;stroke-miterlimit:4;stroke-dasharray:none;stroke-dashoffset:0;stroke-opacity:0.05479449;marker:none;enable-background:accumulate"
       id="rect4060"
       width="83.524422"
       height="94.177986"
       x="-936.89685"
       y="844.42627"
       transform="matrix(0,-1,1,0,0,0)" />
    <g
       transform="matrix(0.63018975,0,0,0.52746442,378.94161,724.55732)"
       id="Micro_USB_Cable">
      <path
         inkscape:connector-curvature="0"
         id="path4177"
         d="m 605.755,63.698 c -34.555,0 -69.11,0 -103.665,0 0,-6.661 0,-13.323 0,-19.984 -91.591,0 -183.184,0 -274.776,0 -27.591,0 -49.959,22.368 -49.959,49.959 0,6.245 0,12.49 0,18.735 -14.988,0 -29.976,0 -44.963,0 -34.489,0 -62.449,27.96 -62.449,62.449 0,22.482 0,44.963 0,67.445 0,34.489 27.96,62.449 62.449,62.449 115.739,0 231.477,0 347.216,0 20.693,0 37.469,16.775 37.469,37.469 0,40.592 0,81.184 0,121.776 0,20.693 -16.776,37.469 -37.469,37.469 -78.27,0 -156.538,0 -234.808,0 0,-9.783 0,-19.568 0,-29.351 0,-6.898 -5.592,-12.49 -12.49,-12.49 -49.959,0 -99.918,0 -149.878,0 0,6.661 0,13.323 0,19.984 -25.395,0 -50.792,0 -76.188,0 -3.448,0 -6.245,2.796 -6.245,6.245 0,18.319 0,36.636 0,54.955 0,3.448 2.796,6.245 6.245,6.245 25.396,0 50.792,0 76.188,0 0,7.078 0,14.155 0,21.233 49.959,0 99.918,0 149.878,0 6.898,0 12.49,-5.592 12.49,-12.49 0,-9.783 0,-19.568 0,-29.351 78.27,0 156.538,0 234.808,0 34.489,0 62.449,-27.96 62.449,-62.449 0,-40.592 0,-81.184 0,-121.776 0,-34.489 -27.96,-62.449 -62.449,-62.449 -115.739,0 -231.477,0 -347.216,0 -20.693,0 -37.469,-16.776 -37.469,-37.469 0,-22.482 0,-44.963 0,-67.445 0,-20.693 16.776,-37.469 37.469,-37.469 14.988,0 29.976,0 44.963,0 0,6.245 0,12.49 0,18.735 0,27.591 22.368,49.959 49.959,49.959 91.591,0 183.184,0 274.776,0 0,-6.661 0,-13.323 0,-19.984 34.556,0 69.11,0 103.665,0 3.448,0 6.245,-2.796 6.245,-6.245 0,-36.636 0,-73.274 0,-109.91 0,-3.449 -2.797,-6.245 -6.245,-6.245 z m -523.322,470.865 -69.943,0 0,-42.465 69.943,0 0,42.465 z m 517.077,-360.955 -97.42,0 0,-97.42 97.42,0 0,97.42 z" />
      <rect
         id="rect4179"
         height="12.49"
         width="47.460999"
         y="138.63699"
         x="533.31403" />
      <rect
         id="rect4181"
         height="12.49"
         width="47.460999"
         y="98.668999"
         x="533.31403" />
      <rect
         id="rect4183"
         height="24.98"
         width="12.49"
         y="500.841"
         x="32.473" />
    </g>
    <g
       transform="translate(395.108,113.84126)"
       id="g4185" />
    <g
       transform="translate(395.108,113.84126)"
       id="g4187" />
    <g
       transform="translate(395.108,113.84126)"
       id="g4189" />
    <g
       transform="translate(395.108,113.84126)"
       id="g4191" />
    <g
       transform="translate(395.108,113.84126)"
       id="g4193" />
    <g
       transform="translate(395.108,113.84126)"
       id="g4195" />
    <g
       transform="translate(395.108,113.84126)"
       id="g4197" />
    <g
       transform="translate(395.108,113.84126)"
       id="g4199" />
    <g
       transform="translate(395.108,113.84126)"
       id="g4201" />
    <g
       transform="translate(395.108,113.84126)"
       id="g4203" />
    <g
       transform="translate(395.108,113.84126)"
       id="g4205" />
    <g
       transform="translate(395.108,113.84126)"
       id="g4207" />
    <g
       transform="translate(395.108,113.84126)"
       id="g4209" />
    <g
       transform="translate(395.108,113.84126)"
       id="g4211" />
    <g
       transform="translate(395.108,113.84126)"
       id="g4213" />
    <rect
       style="color:#000000;display:inline;overflow:visible;visibility:visible;fill:#ff2a2a;fill-opacity:1;fill-rule:nonzero;stroke:#000000;stroke-width:2;stroke-linecap:butt;stroke-linejoin:miter;stroke-miterlimit:4;stroke-dasharray:none;stroke-dashoffset:0;stroke-opacity:0.05479449;marker:none;enable-background:accumulate"
       id="rect4060-6"
       width="38"
       height="94.177986"
       x="-844.54535"
       y="844.42603"
       transform="matrix(0,-1,1,0,0,0)" />
  </g>
</svg>
