<?xml version="1.0" encoding="UTF-8" standalone="no"?>
<!-- Created with Inkscape (http://www.inkscape.org/) -->

<svg
   xmlns:dc="http://purl.org/dc/elements/1.1/"
   xmlns:cc="http://creativecommons.org/ns#"
   xmlns:rdf="http://www.w3.org/1999/02/22-rdf-syntax-ns#"
   xmlns:svg="http://www.w3.org/2000/svg"
   xmlns="http://www.w3.org/2000/svg"
   xmlns:sodipodi="http://sodipodi.sourceforge.net/DTD/sodipodi-0.dtd"
   xmlns:inkscape="http://www.inkscape.org/namespaces/inkscape"
   width="300"
   height="105"
   viewBox="0 0 300 105"
   id="svg2"
   version="1.1"
   inkscape:version="0.91 r13725"
   sodipodi:docname="main.svg">
  <defs
     id="defs4" />
  <sodipodi:namedview
     id="base"
     pagecolor="#ffffff"
     bordercolor="#666666"
     borderopacity="1.0"
     inkscape:pageopacity="0.0"
     inkscape:pageshadow="2"
     inkscape:zoom="2.2264009"
     inkscape:cx="142.88827"
     inkscape:cy="57.639859"
     inkscape:document-units="px"
     inkscape:current-layer="layer1"
     showgrid="false"
     units="px"
     inkscape:window-width="1307"
     inkscape:window-height="744"
     inkscape:window-x="59"
     inkscape:window-y="24"
     inkscape:window-maximized="1" />
  <metadata
     id="metadata7">
    <rdf:RDF>
      <cc:Work
         rdf:about="">
        <dc:format>image/svg+xml</dc:format>
        <dc:type
           rdf:resource="http://purl.org/dc/dcmitype/StillImage" />
        <dc:title />
      </cc:Work>
    </rdf:RDF>
  </metadata>
  <g
     inkscape:label="Layer 1"
     inkscape:groupmode="layer"
     id="layer1"
     transform="translate(0,-947.36216)">
    <path
       inkscape:connector-curvature="0"
       style="fill:#ff7f2a;fill-opacity:1"
       d="m 238.09174,953.02915 c -0.0462,0.007 -0.09,0.0249 -0.10305,0.0448 -0.0542,0.0829 -1.0892,1.7866 -2.31108,3.78597 -1.44428,2.36324 -2.29172,3.6093 -2.41412,3.56151 -0.10353,-0.0405 -1.4041,-0.15349 -2.88517,-0.25439 -2.1623,-0.14735 -3.20567,-0.1495 -5.31401,0 -1.44407,0.10241 -2.78637,0.22834 -2.98821,0.26935 -0.34356,0.0698 -0.51269,-0.15934 -2.59077,-3.57647 -1.22088,-2.00763 -2.26929,-3.70481 -2.3258,-3.77101 -0.23145,-0.27109 -4.89473,1.11253 -7.84589,2.33445 -3.14069,1.30038 -7.59238,3.76179 -7.59565,4.19 -0.002,0.1267 0.41094,2.02873 0.92737,4.2349 0.51641,2.20618 0.9421,4.09043 0.9421,4.19001 0,0.0995 -0.53685,0.60725 -1.19234,1.12232 -1.53312,1.20475 -4.83663,4.57534 -6.02059,6.13537 -0.50621,0.66696 -1.022,1.1984 -1.14818,1.19714 -0.12617,-10e-4 -2.05899,-0.42312 -4.28359,-0.94274 l -4.03335,-0.94276 -0.25024,0.32922 c -0.43591,0.57276 -2.10867,3.65075 -2.84101,5.23751 -0.99723,2.16065 -2.06173,5.15739 -2.75269,7.72158 -0.3234,1.20021 -0.58881,2.22065 -0.58881,2.27457 0,0.0539 1.66341,1.15242 3.69478,2.43921 l 3.69479,2.33444 -0.0883,0.88287 c -0.38692,3.9361 -0.3738,7.2213 0.0441,10.2506 l 0.11777,0.838 -2.9735,1.8705 c -1.63477,1.0304 -3.31259,2.0985 -3.72422,2.3644 l -0.75073,0.4788 0.48577,1.8706 c 0.6552,2.5261 1.68008,5.4599 2.67908,7.7066 0.8449,1.9002 2.58966,5.1436 3.10598,5.7762 l 0.2944,0.3592 4.18055,-1.0176 4.19527,-1.0176 0.35329,0.4788 c 1.96135,2.5376 4.50155,5.1603 6.7566,6.9885 0.77805,0.6306 1.17432,1.0488 1.13346,1.1971 -0.19502,0.7079 -1.82531,8.1074 -1.82531,8.2902 0,0.4357 4.76653,3.0337 7.80173,4.2499 2.35442,0.9434 6.598,2.2724 7.30125,2.2895 0.22389,0 0.80565,-0.8438 2.59076,-3.756 l 2.29636,-3.7561 0.66241,0.1046 c 1.58044,0.2357 3.38604,0.3578 5.06377,0.3592 1.6359,0 2.30001,-0.045 5.13737,-0.3592 l 0.85377,-0.09 2.13444,3.5016 c 1.16818,1.9257 2.20352,3.6217 2.31108,3.771 0.18835,0.2614 0.26857,0.2593 1.92835,-0.1946 2.34462,-0.641 5.09875,-1.6285 7.38957,-2.6487 2.51643,-1.1206 6.24346,-3.2045 6.24139,-3.4866 0,-0.06 -0.44319,-2.0164 -0.98626,-4.3397 l -0.98626,-4.2199 1.45731,-1.2121 c 1.8181,-1.5068 4.29985,-4.0394 5.71146,-5.8212 0.59168,-0.7467 1.16756,-1.3467 1.28066,-1.3467 0.11312,0 2.02202,0.4322 4.23943,0.9577 2.21737,0.5255 4.06027,0.9428 4.09223,0.9428 0.15456,0 1.66257,-2.7392 2.67909,-4.8785 1.37129,-2.8857 2.37166,-5.6068 3.16486,-8.5595 0.45505,-1.694 0.55249,-2.2179 0.41216,-2.3045 -0.10014,-0.062 -1.77771,-1.1265 -3.72422,-2.3643 -2.82403,-1.796 -3.52978,-2.313 -3.50342,-2.544 0.44278,-3.8822 0.42265,-8.91013 -0.0441,-11.25318 -0.0729,-0.36585 0.10627,-0.50567 3.4887,-2.64871 1.96192,-1.24301 3.64021,-2.30923 3.72423,-2.36436 0.31951,-0.20969 -1.03261,-4.89636 -2.35525,-8.17052 -0.95262,-2.35817 -3.05759,-6.5551 -3.82726,-7.63179 -0.013,-0.0183 -1.94451,0.4212 -4.2836,0.98765 l -4.25417,1.03253 -0.42689,-0.55367 c -2.10928,-2.69345 -4.28355,-4.91578 -6.8302,-7.00331 -0.576,-0.47215 -1.04514,-0.88362 -1.04514,-0.91282 0,-0.0292 0.42569,-1.89834 0.9421,-4.16007 0.51643,-2.26173 0.9421,-4.2218 0.9421,-4.33966 0,-0.4139 -4.26612,-2.75768 -7.40429,-4.0703 -2.99589,-1.25307 -7.24184,-2.54559 -7.93422,-2.43918 z m -12.02645,14.68 c 2.33593,-0.0471 5.43179,0.0831 6.84492,0.32921 9.09057,1.58299 17.17418,6.95682 22.13926,14.70992 1.80847,2.82396 3.66259,7.26422 4.41607,10.57978 1.71135,7.53084 0.77964,15.59954 -2.60548,22.49134 -4.92483,10.0265 -14.47345,16.7758 -25.67212,18.1517 -1.68108,0.2066 -5.98281,0.1669 -7.72814,-0.075 -11.01091,-1.5247 -20.32031,-8.2953 -25.08331,-18.2266 -2.44279,-5.0933 -3.37353,-9.1594 -3.37094,-14.7697 0.002,-5.62629 0.88576,-9.513 3.32678,-14.67997 1.57014,-3.32356 3.27183,-5.78359 5.9617,-8.58951 5.254,-5.48068 12.32137,-8.97589 19.78402,-9.80163 0.51804,-0.0573 1.20859,-0.10402 1.98724,-0.11971 z m 15.63291,16.62534 c -0.0128,0.081 4.7e-4,0.24202 0.0294,0.40406 0.009,-0.0297 0.0206,-0.06 0.0294,-0.0898 0.0245,-0.0828 -0.0309,-0.27745 -0.0589,-0.31428 z m -22.47783,28.32751 c -0.0377,0.032 -0.0797,0.058 -0.11776,0.09 0.0874,0.011 0.17156,0.017 0.26496,0.03 -0.0113,-0.031 -0.0192,-0.052 -0.0294,-0.09 -0.0299,-0.012 -0.0799,-0.02 -0.11776,-0.03 z m 0.52993,0.1496 c 0.006,0.017 0.009,0.029 0.0147,0.045 0.005,0 0.01,0 0.0147,0 -0.008,-0.014 -0.006,-0.031 -0.0147,-0.045 -0.003,0 -0.0118,0 -0.0147,0 z m 0.47105,0.1197 c 0.26852,0.062 0.25455,0.064 0,0 z"
       id="path3919" />
    <text
       xml:space="preserve"
       style="font-style:normal;font-weight:normal;font-size:33.75px;line-height:125%;font-family:Arial;-inkscape-font-specification:Arial;letter-spacing:0px;word-spacing:0px;fill:#ffffff;fill-opacity:1;stroke:none;stroke-width:1px;stroke-linecap:butt;stroke-linejoin:miter;stroke-opacity:1;"
       x="202.01558"
       y="1011.9231"
       id="text4266"
       sodipodi:linespacing="125%"><tspan
         sodipodi:role="line"
         id="tspan4268"
         x="202.01558"
         y="1011.9231"
         style="font-style:normal;font-variant:normal;font-weight:bold;font-stretch:normal;font-size:30px;font-family:Arial;-inkscape-font-specification:'Arial Bold';fill:#ffffff;">DIY</tspan></text>
    <g
       transform="matrix(0.18270501,0,0,0.19074089,10.032622,957.72762)"
       id="g3">
      <path
         style="fill:#9bcb52"
         inkscape:connector-curvature="0"
         d="M 484.837,240.948 294.807,100.803 c -8.657,-6.381 -20.451,-6.34 -29.068,0.089 L 78.091,241.037 c -10.795,8.055 -13.006,23.337 -4.95,34.124 8.064,10.787 23.337,13.006 34.132,4.942 l 25.158,-18.785 0,189.282 c 0,13.469 10.917,24.386 24.386,24.386 l 247.036,0 c 13.469,0 24.386,-10.917 24.386,-24.386 l 0,-190.802 27.645,20.386 c 4.357,3.219 9.429,4.763 14.453,4.763 7.478,0 14.867,-3.43 19.647,-9.917 7.997,-10.826 5.688,-26.092 -5.147,-34.082 z m -105.371,-8.885 0,194.151 -198.264,0 0,-194.151 c 0,-2.243 -0.398,-4.381 -0.967,-6.446 l 100.193,-74.824 100.282,73.954 c -0.74,2.326 -1.244,4.748 -1.244,7.316 z"
         id="path5" />
      <path
         style="fill:#9bcb52"
         inkscape:connector-curvature="0"
         d="m 446.194,89.911 c 6.739,0 12.193,-5.462 12.193,-12.193 l 0,-45.764 c 0,-6.73 -5.454,-12.193 -12.193,-12.193 l -341.14,0 c -6.739,0 -12.193,5.462 -12.193,12.193 l 0,45.764 c 0,6.73 5.454,12.193 12.193,12.193 6.739,0 12.193,-5.462 12.193,-12.193 l 0,-33.571 31.433,0 0,14.753 c 0,4.495 3.642,8.129 8.129,8.129 4.487,0 8.129,-3.633 8.129,-8.129 l 0,-14.753 30.783,0 0,14.753 c 0,4.495 3.642,8.129 8.129,8.129 4.487,0 8.129,-3.633 8.129,-8.129 l 0,-14.753 30.783,0 0,14.753 c 0,4.495 3.642,8.129 8.129,8.129 4.487,0 8.129,-3.633 8.129,-8.129 l 0,-14.753 30.78,0 0,14.753 c 0,4.495 3.642,8.129 8.129,8.129 4.487,0 8.129,-3.633 8.129,-8.129 l 0,-14.753 30.791,0 0,14.753 c 0,4.495 3.642,8.129 8.129,8.129 4.487,0 8.129,-3.633 8.129,-8.129 l 0,-14.753 30.783,0 0,14.753 c 0,4.495 3.642,8.129 8.129,8.129 4.487,0 8.129,-3.633 8.129,-8.129 l 0,-14.753 33.856,0 0,33.571 c -0.003,6.731 5.459,12.193 12.19,12.193 z"
         id="path7" />
      <path
         style="fill:#9bcb52"
         inkscape:connector-curvature="0"
         d="m 70.15,460.037 c 0,-6.73 -5.454,-12.193 -12.193,-12.193 l -33.571,0 0,-31.433 14.753,0 c 4.487,0 8.129,-3.633 8.129,-8.129 0,-4.496 -3.642,-8.129 -8.129,-8.129 l -14.753,0 0,-30.783 14.753,0 c 4.487,0 8.129,-3.633 8.129,-8.129 0,-4.495 -3.642,-8.129 -8.129,-8.129 l -14.753,0 0,-30.783 14.753,0 c 4.487,0 8.129,-3.633 8.129,-8.129 0,-4.496 -3.642,-8.129 -8.129,-8.129 l -14.753,0 0,-30.783 14.753,0 c 4.487,0 8.129,-3.633 8.129,-8.129 0,-4.495 -3.642,-8.129 -8.129,-8.129 l -14.753,0 0,-30.783 14.753,0 c 4.487,0 8.129,-3.633 8.129,-8.129 0,-4.496 -3.642,-8.129 -8.129,-8.129 l -14.753,0 0,-30.783 14.753,0 c 4.487,0 8.129,-3.633 8.129,-8.129 0,-4.495 -3.642,-8.129 -8.129,-8.129 l -14.753,0 0,-33.856 33.571,0 c 6.739,0 12.193,-5.462 12.193,-12.193 0,-6.731 -5.454,-12.193 -12.193,-12.193 l -45.764,0 C 5.454,106.713 0,112.175 0,118.906 l 0,341.14 c 0,6.73 5.454,12.193 12.193,12.193 l 45.764,0 c 6.738,-0.009 12.193,-5.471 12.193,-12.202 z"
         id="path9" />
    </g>
    <g
       transform="matrix(0.23930653,0,0,0.22491625,347.62991,843.48268)"
       id="g11" />
    <g
       transform="matrix(0.23930653,0,0,0.22491625,347.62991,843.48268)"
       id="g13" />
    <g
       transform="matrix(0.23930653,0,0,0.22491625,347.62991,843.48268)"
       id="g15" />
    <g
       transform="matrix(0.23930653,0,0,0.22491625,347.62991,843.48268)"
       id="g17" />
    <g
       transform="matrix(0.23930653,0,0,0.22491625,347.62991,843.48268)"
       id="g19" />
    <g
       transform="matrix(0.23930653,0,0,0.22491625,347.62991,843.48268)"
       id="g21" />
    <g
       transform="matrix(0.23930653,0,0,0.22491625,347.62991,843.48268)"
       id="g23" />
    <g
       transform="matrix(0.23930653,0,0,0.22491625,347.62991,843.48268)"
       id="g25" />
    <g
       transform="matrix(0.23930653,0,0,0.22491625,347.62991,843.48268)"
       id="g27" />
    <g
       transform="matrix(0.23930653,0,0,0.22491625,347.62991,843.48268)"
       id="g29" />
    <g
       transform="matrix(0.23930653,0,0,0.22491625,347.62991,843.48268)"
       id="g31" />
    <g
       transform="matrix(0.23930653,0,0,0.22491625,347.62991,843.48268)"
       id="g33" />
    <g
       transform="matrix(0.23930653,0,0,0.22491625,347.62991,843.48268)"
       id="g35" />
    <g
       transform="matrix(0.23930653,0,0,0.22491625,347.62991,843.48268)"
       id="g37" />
    <g
       transform="matrix(0.23930653,0,0,0.22491625,347.62991,843.48268)"
       id="g39" />
    <path
       inkscape:connector-curvature="0"
       class="st0"
       d="m 140.09602,982.67004 -19.1568,0 c 6.83259,6.00712 16.15557,14.16762 22.98816,20.17476 3.44822,-3.00354 6.76874,-5.95044 10.21696,-9.01064 -3.12894,-2.7202 -8.5567,-7.59387 -11.62179,-10.31406 -0.70242,-0.56671 -1.40483,-0.85006 -2.42653,-0.85006"
       id="path5-3"
       style="fill:#800000" />
    <path
       inkscape:connector-curvature="0"
       class="st1"
       d="m 142.71412,1022.1128 c 7.27958,-6.4038 14.49531,-12.8076 21.71103,-19.1547 -3.44822,-3.00354 -6.83259,-6.06374 -10.28081,-9.06724 -11.04709,9.69064 -22.03032,19.38134 -33.01355,29.07204 l 19.22065,0 c 1.0217,0 1.72412,-0.2267 2.36268,-0.8501"
       id="path7-6"
       style="fill:#ff5555" />
  </g>
</svg>
