<?xml version="1.0" encoding="UTF-8" standalone="no"?>
<!-- Generator: Adobe Illustrator 16.2.1, SVG Export Plug-In . SVG Version: 6.00 Build 0)  -->

<svg
   xmlns:dc="http://purl.org/dc/elements/1.1/"
   xmlns:cc="http://creativecommons.org/ns#"
   xmlns:rdf="http://www.w3.org/1999/02/22-rdf-syntax-ns#"
   xmlns:svg="http://www.w3.org/2000/svg"
   xmlns="http://www.w3.org/2000/svg"
   xmlns:sodipodi="http://sodipodi.sourceforge.net/DTD/sodipodi-0.dtd"
   xmlns:inkscape="http://www.inkscape.org/namespaces/inkscape"
   version="1.1"
   x="0px"
   y="0px"
   width="200px"
   height="200px"
   viewBox="0 0 200 200"
   enable-background="new 0 0 200 200"
   xml:space="preserve"
   id="svg2"
   inkscape:version="0.48.4 r9939"
   sodipodi:docname="cctv.svg"><metadata
     id="metadata522"><rdf:RDF><cc:Work
         rdf:about=""><dc:format>image/svg+xml</dc:format><dc:type
           rdf:resource="http://purl.org/dc/dcmitype/StillImage" /><dc:title /></cc:Work></rdf:RDF></metadata><defs
     id="defs520" /><sodipodi:namedview
     pagecolor="#ffffff"
     bordercolor="#666666"
     borderopacity="1"
     objecttolerance="10"
     gridtolerance="10"
     guidetolerance="10"
     inkscape:pageopacity="0"
     inkscape:pageshadow="2"
     inkscape:window-width="1301"
     inkscape:window-height="744"
     id="namedview518"
     showgrid="false"
     inkscape:zoom="1.4602009"
     inkscape:cx="100"
     inkscape:cy="87.732478"
     inkscape:window-x="65"
     inkscape:window-y="24"
     inkscape:window-maximized="1"
     inkscape:current-layer="Layer_29_copy" /><g
     id="Layer_29_copy"><path
       style="fill:#ffffff;fill-opacity:0;fill-rule:nonzero;stroke:#ffffff;stroke-width:1.79999995;stroke-linejoin:round;stroke-miterlimit:4;stroke-opacity:1;stroke-dasharray:none;stroke-dashoffset:0"
       d=""
       id="path4062"
       inkscape:connector-curvature="0" /><path
       style="fill:#ffffff;fill-opacity:1;fill-rule:nonzero;stroke:#ffffff;stroke-width:1.79999995;stroke-linejoin:round;stroke-miterlimit:4;stroke-opacity:1;stroke-dasharray:none;stroke-dashoffset:0"
       d=""
       id="path4084"
       inkscape:connector-curvature="0" /><path
       style="fill:#ffffff;fill-opacity:1;fill-rule:nonzero;stroke:#ffffff;stroke-width:1.79999995;stroke-linejoin:round;stroke-miterlimit:4;stroke-opacity:1;stroke-dasharray:none;stroke-dashoffset:0"
       d="M 92.238615,164.78433 C 76.105295,161.1013 64.08665,149.86026 58.627482,133.34782 c -1.618245,-4.89474 -1.80974,-6.29461 -2.113325,-15.44892 -0.30826,-9.29523 -0.416772,-10.06645 -1.41637,-10.06645 -0.958111,0 -1.082534,-0.50305 -1.082534,-4.37673 l 0,-4.376717 -4.084939,0 -4.08494,0 0,-10.795911 0,-10.795911 -4.960283,0 -4.960284,0 0,-2.04247 0,-2.04247 64.191903,0 64.19191,0 0,2.04247 0,2.04247 -4.96029,0 -4.96028,0 0,10.795911 0,10.795911 -4.08494,0 -4.08494,0 0,4.376717 c 0,3.27632 -0.19725,4.37673 -0.78457,4.37673 -0.60106,0 -0.87114,1.87673 -1.15469,8.02398 -0.41086,8.90714 -1.08826,13.44945 -2.7196,18.23634 -1.79784,5.27544 -2.75048,7.19942 -6.06782,12.25482 -2.11598,3.2246 -10.03748,11.06596 -12.36668,12.24158 -0.93943,0.47415 -2.62717,1.41054 -3.75053,2.08085 -1.12335,0.67031 -4.27459,1.95955 -7.00275,2.86496 -5.98577,1.98656 -14.570132,2.51925 -20.132915,1.24935 l 0,0 z m 19.539875,-5.00748 c 6.02707,-1.89206 10.56437,-4.70326 15.45613,-9.57625 4.95662,-4.9376 7.86283,-9.22772 10.19275,-15.04641 2.25794,-5.63894 2.94542,-10.20295 2.95077,-19.58954 l 0.004,-7.7322 -40.26583,0 -40.265829,0 0.01498,8.02398 c 0.02894,15.49779 3.851101,25.22133 13.705994,34.86788 5.460187,5.34475 10.583518,8.03615 19.833886,10.41917 0.641919,0.16537 4.055761,0.234 7.586319,0.15251 4.78992,-0.11054 7.52765,-0.49613 10.78643,-1.51914 l 0,0 z m 30.93831,-58.3636 0,-2.334247 -42.30831,0 -42.308297,0 0,2.334247 0,2.33426 42.308297,0 42.30831,0 0,-2.33426 z m 7.58631,-15.172628 0,-8.753441 -50.1864,0 -50.186396,0 0,8.753441 0,8.753442 50.186396,0 50.1864,0 0,-8.753442 z"
       id="path4086"
       inkscape:connector-curvature="0" /><path
       style="fill:#ffffff;fill-opacity:1;fill-rule:nonzero;stroke:#ffffff;stroke-width:1.79999995;stroke-linejoin:round;stroke-miterlimit:4;stroke-opacity:1;stroke-dasharray:none;stroke-dashoffset:0"
       d="m 106.5359,86.532404 c 0,-1.880369 0.13895,-2.04247 1.75069,-2.04247 1.61175,0 1.75069,0.162101 1.75069,2.04247 0,1.880369 -0.13894,2.042469 -1.75069,2.042469 -1.61174,0 -1.75069,-0.1621 -1.75069,-2.042469 z"
       id="path4088"
       inkscape:connector-curvature="0" /><path
       style="fill:#ffffff;fill-opacity:1;fill-rule:nonzero;stroke:#ffffff;stroke-width:1.79999995;stroke-linejoin:round;stroke-miterlimit:4;stroke-opacity:1;stroke-dasharray:none;stroke-dashoffset:0"
       d="m 98.366024,86.532404 c 0,-1.880369 0.138944,-2.04247 1.750686,-2.04247 1.61175,0 1.75069,0.162101 1.75069,2.04247 0,1.880369 -0.13894,2.042469 -1.75069,2.042469 -1.611742,0 -1.750686,-0.1621 -1.750686,-2.042469 z"
       id="path4092"
       inkscape:connector-curvature="0" /><path
       style="fill:#ffffff;fill-opacity:1;fill-rule:nonzero;stroke:#ffffff;stroke-width:1.79999995;stroke-linejoin:round;stroke-miterlimit:4;stroke-opacity:1;stroke-dasharray:none;stroke-dashoffset:0"
       d="m 90.196145,86.532404 c 0,-1.94521 0.09726,-2.04247 2.04247,-2.04247 1.945209,0 2.04247,0.09726 2.04247,2.04247 0,1.945209 -0.09726,2.042469 -2.04247,2.042469 -1.945209,0 -2.04247,-0.09726 -2.04247,-2.042469 z"
       id="path4094"
       inkscape:connector-curvature="0" /><path
       style="fill:#ffffff;fill-opacity:1;fill-rule:nonzero;stroke:#ffffff;stroke-width:1.79999995;stroke-linejoin:round;stroke-miterlimit:4;stroke-opacity:1;stroke-dasharray:none;stroke-dashoffset:0"
       d="m 98.617332,148.08289 c -5.111142,-1.07764 -7.910569,-4.68619 -7.910569,-10.19696 0,-4.40306 1.473853,-7.13441 4.885949,-9.05468 7.622678,-4.28991 16.298118,3.21353 13.921238,12.04058 -1.24811,4.63514 -6.53136,8.13144 -10.896618,7.21106 z m 4.774738,-4.69376 c 3.49542,-2.16029 4.06009,-7.26602 1.12789,-10.19823 -2.63845,-2.63845 -6.31122,-2.58215 -8.829706,0.13534 -1.114745,1.20283 -1.405292,2.14283 -1.39061,4.49901 0.01954,3.13651 0.526938,4.1532 2.88321,5.7772 1.915997,1.32055 3.833986,1.25465 6.209216,-0.21332 l 0,0 z"
       id="path4096"
       inkscape:connector-curvature="0" /><path
       style="fill:#ffffff;fill-opacity:1;fill-rule:nonzero;stroke:#ffffff;stroke-width:1.79999995;stroke-linejoin:round;stroke-miterlimit:4;stroke-opacity:1;stroke-dasharray:none;stroke-dashoffset:0"
       d="m 94.502136,155.78066 c -11.375257,-3.93173 -15.626226,-18.79245 -8.398098,-29.35843 6.219331,-9.09134 19.750472,-9.95621 26.978122,-1.72437 3.26012,3.71308 4.65815,7.67534 4.65815,13.20208 0,4.3217 -0.22029,5.35843 -1.84894,8.70154 -4.01838,8.24845 -12.96891,12.08957 -21.389234,9.17918 z m 12.985354,-4.91046 c 1.78201,-1.19249 3.53965,-3.07854 4.73446,-5.08036 1.70789,-2.86147 1.90027,-3.64224 1.90027,-7.71241 0,-6.58971 -2.1736,-10.63682 -7.34178,-13.66997 -5.28303,-3.10054 -11.538946,-2.19888 -16.204527,2.33554 -7.495698,7.28499 -5.030258,21.63547 4.363002,25.39554 0.761551,0.30484 3.258835,0.5709 5.549515,0.59125 3.75982,0.0334 4.44053,-0.14747 6.99906,-1.85959 z"
       id="path4098"
       inkscape:connector-curvature="0" /></g></svg>
