<?xml version="1.0" encoding="UTF-8" standalone="no"?>
<!-- Generator: Adobe Illustrator 16.2.1, SVG Export Plug-In . SVG Version: 6.00 Build 0)  -->

<svg
   xmlns:dc="http://purl.org/dc/elements/1.1/"
   xmlns:cc="http://creativecommons.org/ns#"
   xmlns:rdf="http://www.w3.org/1999/02/22-rdf-syntax-ns#"
   xmlns:svg="http://www.w3.org/2000/svg"
   xmlns="http://www.w3.org/2000/svg"
   xmlns:sodipodi="http://sodipodi.sourceforge.net/DTD/sodipodi-0.dtd"
   xmlns:inkscape="http://www.inkscape.org/namespaces/inkscape"
   version="1.1"
   x="0px"
   y="0px"
   width="200px"
   height="200px"
   viewBox="0 0 200 200"
   enable-background="new 0 0 200 200"
   xml:space="preserve"
   id="svg2"
   inkscape:version="0.48.4 r9939"
   sodipodi:docname="wificam.svg"><metadata
     id="metadata522"><rdf:RDF><cc:Work
         rdf:about=""><dc:format>image/svg+xml</dc:format><dc:type
           rdf:resource="http://purl.org/dc/dcmitype/StillImage" /><dc:title /></cc:Work></rdf:RDF></metadata><defs
     id="defs520" /><sodipodi:namedview
     pagecolor="#ffffff"
     bordercolor="#666666"
     borderopacity="1"
     objecttolerance="10"
     gridtolerance="10"
     guidetolerance="10"
     inkscape:pageopacity="0"
     inkscape:pageshadow="2"
     inkscape:window-width="1301"
     inkscape:window-height="744"
     id="namedview518"
     showgrid="false"
     inkscape:zoom="2.065036"
     inkscape:cx="40.193936"
     inkscape:cy="82.243813"
     inkscape:window-x="65"
     inkscape:window-y="24"
     inkscape:window-maximized="1"
     inkscape:current-layer="Layer_29_copy" /><g
     id="Layer_29_copy"><circle
       fill="#282828"
       cx="80.208"
       cy="143.406"
       r="2.692"
       id="circle501" /><path
       style="fill:#ffffff;fill-opacity:0;fill-rule:nonzero;stroke:#ffffff;stroke-width:1.79999995;stroke-linejoin:round;stroke-miterlimit:4;stroke-opacity:1;stroke-dasharray:none;stroke-dashoffset:0"
       d=""
       id="path4062"
       inkscape:connector-curvature="0" /><path
       style="fill:#ffffff;fill-opacity:1;fill-rule:nonzero;stroke:#ffffff;stroke-width:1.79999995;stroke-linejoin:round;stroke-miterlimit:4;stroke-opacity:1;stroke-dasharray:none;stroke-dashoffset:0"
       d=""
       id="path4084"
       inkscape:connector-curvature="0" /><path
       style="fill:#ffffff;fill-opacity:0.87671234;fill-rule:nonzero;stroke:#ffffff;stroke-width:1;stroke-linejoin:round;stroke-miterlimit:4;stroke-opacity:1;stroke-dasharray:none;stroke-dashoffset:0"
       d="m 68.595278,163.05953 c -0.31362,-0.43513 -1.00452,-1.02357 -1.53533,-1.30766 -0.53082,-0.28408 -0.96513,-0.76367 -0.96513,-1.06574 0,-0.30208 -0.27853,-0.54924 -0.61896,-0.54924 -0.34043,0 -0.61896,-0.1567 -0.61896,-0.34823 0,-0.40652 -3.95578,-4.60346 -4.33894,-4.60346 -0.42349,0 -1.43804,-1.1437 -1.43804,-1.62109 0,-0.24317 -0.27853,-0.44212 -0.61896,-0.44212 -0.34043,0 -0.61896,-0.1567 -0.61896,-0.34823 0,-0.40652 -3.95578,-4.60346 -4.33894,-4.60346 -0.3363,0 -1.43804,-1.10174 -1.43804,-1.43804 0,-0.38316 -4.19694,-4.33894 -4.60346,-4.33894 -0.19153,0 -0.34823,-0.27853 -0.34823,-0.61896 0,-0.34043 -0.19895,-0.61896 -0.44212,-0.61896 -0.47739,0 -1.62109,-1.01455 -1.62109,-1.43804 0,-0.38316 -4.19694,-4.33894 -4.60346,-4.33894 -0.19153,0 -0.34823,-0.27853 -0.34823,-0.61896 0,-0.34043 -0.27853,-0.61896 -0.61896,-0.61896 -0.34043,0 -0.61896,-0.15671 -0.61896,-0.34824 0,-0.40651 -3.95579,-4.60346 -4.33895,-4.60346 -0.42348,0 -1.43803,-1.14369 -1.43803,-1.62109 0,-0.24316 -0.27853,-0.44211 -0.61896,-0.44211 -0.34043,0 -0.61897,-0.15815 -0.61897,-0.35145 0,-0.19329 -0.55706,-0.93435 -1.23792,-1.6468 -0.68086,-0.71246 -1.23792,-1.40317 -1.23792,-1.53492 0,-0.40792 1.15491,-1.41853 1.62109,-1.41853 0.24316,0 0.44211,-0.17083 0.44211,-0.37963 0,-0.49513 4.90222,-5.39734 5.39735,-5.39734 0.2088,0 0.37963,-0.27854 0.37963,-0.61897 0,-0.34043 0.27853,-0.61896 0.61896,-0.61896 0.34043,0 0.61896,-0.17083 0.61896,-0.37963 0,-0.49513 4.90222,-5.39735 5.39735,-5.39735 0.2088,0 0.37963,-0.19021 0.37963,-0.4227 0,-0.50991 6.13825,-6.5922 6.65284,-6.5922 0.19914,0 0.36206,-0.18225 0.36206,-0.40499 0,-0.52823 5.25639,-5.784634 5.78462,-5.784634 0.22275,0 0.405,-0.16292 0.405,-0.36205 0,-0.5146 6.08229,-6.65285 6.5922,-6.65285 0.23248,0 0.4227,-0.17083 0.4227,-0.37963 0,-0.49513 4.90221,-5.39734 5.39735,-5.39734 0.20879,0 0.37963,-0.27854 0.37963,-0.61896 0,-0.34043 0.27853,-0.61897 0.61896,-0.61897 0.34043,0 0.61896,-0.17083 0.61896,-0.37963 0,-0.49513 4.90221,-5.39734 5.39735,-5.39734 0.20879,0 0.37963,-0.18225 0.37963,-0.405 0,-0.41845 5.20211,-5.78462 5.60777,-5.78462 0.30053,0 1.40713,-1.11261 1.40713,-1.414772 0,-0.410624 3.28261,-3.536924 3.71377,-3.536924 0.22695,0 0.41264,-0.198952 0.41264,-0.442116 0,-0.657427 1.08631,-1.62109 1.82741,-1.62109 0.35664,0 0.64844,-0.185689 0.64844,-0.412641 0,-0.226953 0.27853,-0.412642 0.61896,-0.412642 0.34043,0 0.61896,-0.278532 0.61896,-0.618961 0,-0.385132 0.38971,-0.618962 1.0316,-0.618962 0.56738,0 1.03161,-0.185689 1.03161,-0.412641 0,-0.226953 0.46422,-0.412642 1.0316,-0.412642 0.64189,0 1.0316,-0.23383 1.0316,-0.618961 0,-0.429416 0.43175,-0.618962 1.40986,-0.618962 0.77542,0 1.47997,-0.210355 1.56568,-0.467456 0.22205,-0.666154 14.868412,-0.675666 15.090362,-0.0098 0.0875,0.262491 0.71394,0.477257 1.3921,0.477257 0.67815,0 1.51154,0.278533 1.85197,0.618962 0.34043,0.340429 1.06992,0.618961 1.62109,0.618961 0.55117,0 1.00213,0.185689 1.00213,0.412642 0,0.226952 0.19352,0.412641 0.43006,0.412641 0.40473,0 0.87149,0.32288 2.23695,1.547404 0.31634,0.283691 0.77412,0.515802 1.01729,0.515802 0.24316,0 0.44211,0.185688 0.44211,0.412641 0,0.226953 0.37138,0.412641 0.82528,0.412641 0.45849,0 0.82529,0.275094 0.82529,0.618962 0,0.340429 0.19895,0.618962 0.44211,0.618962 0.5713,0 1.62109,1.049798 1.62109,1.62109 0,0.243164 0.27853,0.442116 0.61896,0.442116 0.34387,0 0.61897,0.366792 0.61897,0.825282 0,0.453905 0.18568,0.825282 0.41264,0.825282 0.22695,0 0.41264,0.193526 0.41264,0.430058 0,0.404737 0.32288,0.871497 1.5474,2.236957 0.28369,0.31634 0.5158,0.77412 0.5158,1.01728 0,0.24317 0.18569,0.44212 0.41265,0.44212 0.22695,0 0.41264,0.45096 0.41264,1.00213 0,0.55117 0.27853,1.28066 0.61896,1.62109 0.34043,0.34043 0.61896,1.18929 0.61896,1.88636 0,0.69707 0.15916,1.26739 0.35368,1.26739 0.19452,0 0.45834,1.52703 0.58626,3.3934 0.12793,1.86636 0.43299,3.46019 0.67793,3.54183 0.24493,0.0816 0.44534,0.39603 0.44534,0.69864 0,0.3026 -0.20041,0.61699 -0.44534,0.69863 -0.24494,0.0816 -0.55,1.67547 -0.67793,3.54184 -0.12792,1.86636 -0.39174,3.39339 -0.58626,3.39339 -0.19452,0 -0.35368,0.64991 -0.35368,1.44424 0,1.00868 -0.18667,1.44425 -0.61896,1.44425 -0.38513,0 -0.61896,0.38971 -0.61896,1.0316 0,0.56738 -0.18569,1.0316 -0.41264,1.0316 -0.22696,0 -0.41265,0.46422 -0.41265,1.031614 0,0.64189 -0.23383,1.0316 -0.61896,1.0316 -0.34386,0 -0.61896,0.36679 -0.61896,0.82528 0,0.45391 -0.18569,0.82529 -0.41264,0.82529 -0.22695,0 -0.41264,0.19895 -0.41264,0.44211 0,0.5713 -1.0498,1.62109 -1.62109,1.62109 -0.24317,0 -0.44212,0.17425 -0.44212,0.38723 0,0.44882 -58.078552,58.62046 -58.526652,58.62046 -0.16437,0 -0.55545,-0.35601 -0.86907,-0.79113 z m 9.46614,-27.26847 c 0,-0.22695 0.27853,-0.41264 0.61896,-0.41264 0.34043,0 0.61896,-0.19895 0.61896,-0.44212 0,-0.57129 1.0498,-1.62109 1.62109,-1.62109 0.24317,0 0.44212,-0.19895 0.44212,-0.44211 0,-0.24316 0.26527,-0.70738 0.58949,-1.0316 0.32422,-0.32422 0.78844,-0.58949 1.0316,-0.58949 0.24316,0 0.44211,-0.56739 0.44211,-1.26087 0,-1.0941 -1.25133,-2.51318 -9.46045,-10.72867 -8.23644,-8.24284 -9.62454,-9.4678 -10.72867,-9.4678 -0.69752,0 -1.26822,0.19895 -1.26822,0.44211 0,0.5713 -1.0498,1.62109 -1.62109,1.62109 -0.24316,0 -0.44211,0.19895 -0.44211,0.44212 0,0.57129 -1.0498,1.62109 -1.62109,1.62109 -0.24317,0 -0.44212,0.26306 -0.44212,0.58457 0,0.32152 -0.2191,0.65761 -0.48688,0.74687 -0.66569,0.2219 -0.11864,1.50981 0.787,1.8528 0.93516,0.35417 1.76309,1.1703 1.76309,1.73798 0,0.24316 0.19895,0.44211 0.44211,0.44211 0.57129,0 1.62109,1.0498 1.62109,1.62109 0,0.24317 0.19413,0.44212 0.4314,0.44212 0.56014,0 2.45709,1.89696 2.45709,2.45709 0,0.23727 0.19895,0.4314 0.44212,0.4314 0.57129,0 1.62109,1.04979 1.62109,1.62109 0,0.24316 0.19895,0.44211 0.44211,0.44211 0.57129,0 1.62109,1.0498 1.62109,1.62109 0,0.24317 0.19413,0.44212 0.4314,0.44212 0.56013,0 2.45709,1.89696 2.45709,2.45709 0,0.23727 0.19895,0.4314 0.44212,0.4314 0.57129,0 1.62109,1.04979 1.62109,1.62109 0,0.24316 0.19895,0.44211 0.44211,0.44211 0.5713,0 1.62109,1.0498 1.62109,1.62109 0,0.24317 0.27854,0.44212 0.61896,0.44212 0.34043,0 0.61897,0.18569 0.61897,0.41264 0,0.22695 0.18568,0.41264 0.41264,0.41264 0.22695,0 0.41264,-0.18569 0.41264,-0.41264 z m 12.37923,-11.98535 c 0,-0.23727 0.45579,-0.88718 1.01285,-1.44424 0.55707,-0.55707 1.20698,-1.01285 1.44425,-1.01285 0.23727,0 0.43139,-0.19895 0.43139,-0.44212 0,-0.24316 0.26527,-0.70738 0.58949,-1.0316 0.32422,-0.32422 0.78844,-0.58949 1.0316,-0.58949 0.24317,0 0.44212,-0.55706 0.44212,-1.23792 0,-0.73034 -0.21644,-1.23792 -0.52787,-1.23792 -0.29032,0 -0.79554,-0.37138 -1.1227,-0.82529 -0.32715,-0.4539 -0.83237,-0.82528 -1.12269,-0.82528 -0.29033,0 -0.52787,-0.23754 -0.52787,-0.52787 0,-0.29032 -0.37138,-0.79553 -0.82528,-1.12269 -0.45391,-0.32716 -0.82529,-0.83237 -0.82529,-1.1227 0,-0.29033 -0.19895,-0.52787 -0.44211,-0.52787 -0.24316,0 -0.70738,-0.26527 -1.0316,-0.58948 -0.32422,-0.32423 -0.58949,-0.78845 -0.58949,-1.03161 0,-0.24316 -0.23754,-0.44211 -0.52787,-0.44211 -0.29032,0 -0.79554,-0.37138 -1.1227,-0.82529 -0.32715,-0.4539 -0.83237,-0.82528 -1.12269,-0.82528 -0.29033,0 -0.52787,-0.23754 -0.52787,-0.52787 0,-0.29032 -0.37138,-0.79554 -0.82528,-1.12269 -0.45391,-0.32716 -0.82529,-0.83238 -0.82529,-1.1227 0,-0.29033 -0.19895,-0.52787 -0.44211,-0.52787 -0.5713,0 -1.62109,-1.04979 -1.62109,-1.62109 0,-0.24316 -0.23754,-0.44211 -0.52787,-0.44211 -0.29032,0 -0.79554,-0.37138 -1.1227,-0.82529 -0.32715,-0.4539 -0.83237,-0.82528 -1.12269,-0.82528 -0.29033,0 -0.52787,-0.23754 -0.52787,-0.52787 0,-0.29032 -0.37138,-0.795544 -0.82528,-1.122704 -0.45391,-0.32715 -0.82529,-0.83237 -0.82529,-1.12269 0,-0.31143 -0.50758,-0.52787 -1.23792,-0.52787 -0.68086,0 -1.23792,0.19895 -1.23792,0.44211 0,0.5713 -1.0498,1.62109 -1.62109,1.62109 -0.24317,0 -0.44212,0.194134 -0.44212,0.431404 0,0.23727 -0.45578,0.88718 -1.01285,1.44425 -0.55706,0.55706 -1.20697,1.01285 -1.44424,1.01285 -0.93286,0 -0.35654,1.80795 1.01285,3.17733 0.79433,0.79434 1.44424,1.61137 1.44424,1.81562 0,0.20426 0.27853,0.37138 0.61896,0.37138 0.34043,0 0.61896,0.27853 0.61896,0.61896 0,0.34043 0.15671,0.61896 0.34824,0.61896 0.40651,0 4.60346,3.95579 4.60346,4.33894 0,0.42349 1.1437,1.43804 1.62109,1.43804 0.24316,0 0.44211,0.27853 0.44211,0.61896 0,0.34043 0.15671,0.61897 0.34824,0.61897 0.40651,0 4.60346,3.95578 4.60346,4.33893 0,0.37907 1.12165,1.43804 1.52315,1.43804 0.1893,0 0.69279,0.46422 1.11888,1.0316 0.76732,1.02178 2.7223,1.45281 2.7223,0.60021 l 0,0 z m 18.568862,-16.07425 c 0,-0.22695 0.91518,-0.41264 2.03373,-0.41264 1.25757,0 2.26995,-0.23622 2.65269,-0.61896 0.34043,-0.34043 1.09645,-0.61896 1.68004,-0.61896 0.58359,0 1.06108,-0.18569 1.06108,-0.41265 0,-0.22695 0.37138,-0.41264 0.82528,-0.41264 0.45849,0 0.82528,-0.27509 0.82528,-0.61896 0,-0.34043 0.27854,-0.61896 0.61897,-0.61896 0.34042,0 0.61896,-0.17367 0.61896,-0.38593 0,-0.21226 0.64991,-0.62094 1.44424,-0.90818 0.79434,-0.28723 1.44425,-0.76348 1.44425,-1.05831 0,-0.29484 0.27853,-0.53607 0.61896,-0.53607 0.36914,0 0.61896,-0.3796 0.61896,-0.94051 0,-0.517284 0.37138,-1.208184 0.82528,-1.535344 0.45391,-0.32716 0.82528,-0.75279 0.82528,-0.94585 0,-0.19306 0.27854,-0.62955 0.61897,-0.96998 0.34042,-0.34043 0.61896,-1.06992 0.61896,-1.62109 0,-0.55117 0.18569,-1.00213 0.41264,-1.00213 0.22695,0 0.41264,-0.38464 0.41264,-0.85476 0,-0.47011 0.27853,-1.13329 0.61896,-1.47372 0.48119,-0.48118 0.61896,-1.7175 0.61896,-5.55413 0,-4.00616 -0.11651,-4.97988 -0.61896,-5.17269 -0.3819,-0.14655 -0.61896,-0.77374 -0.61896,-1.63761 0,-0.77006 -0.18569,-1.4001 -0.41264,-1.4001 -0.22695,0 -0.41264,-0.46422 -0.41264,-1.0316 0,-0.64189 -0.23383,-1.0316 -0.61896,-1.0316 -0.36915,0 -0.61897,-0.3796 -0.61897,-0.94051 0,-0.51728 -0.37137,-1.20819 -0.82528,-1.53534 -0.4539,-0.32716 -0.82528,-0.83237 -0.82528,-1.1227 0,-0.29033 -0.23754,-0.52787 -0.52787,-0.52787 -0.29032,0 -0.79554,-0.37137 -1.1227,-0.82528 -0.32715,-0.4539 -0.83237,-0.82528 -1.12269,-0.82528 -0.29033,0 -0.52787,-0.19895 -0.52787,-0.44212 0,-0.728196 -1.12017,-1.621088 -2.03373,-1.621088 -0.48469,0 -0.85476,-0.267979 -0.85476,-0.618962 0,-0.385131 -0.38971,-0.618961 -1.0316,-0.618961 -0.56738,0 -1.03161,-0.185689 -1.03161,-0.412642 0,-0.226952 -0.63004,-0.412641 -1.40009,-0.412641 -0.86387,0 -1.49106,-0.237056 -1.63762,-0.618962 -0.34721,-0.904812 -9.822,-0.904812 -10.72682,0 -0.34042,0.340429 -1.0036,0.618962 -1.473712,0.618962 -0.47012,0 -0.85476,0.185689 -0.85476,0.412641 0,0.226953 -0.45096,0.412642 -1.00213,0.412642 -0.55117,0 -1.28066,0.278532 -1.62109,0.618961 -0.34043,0.340429 -0.73833,0.618962 -0.88423,0.618962 -0.42845,0 -1.44424,1.140181 -1.44424,1.621088 0,0.24317 -0.46423,0.44212 -1.03161,0.44212 -0.56738,0 -1.0316,0.18569 -1.0316,0.41264 0,0.22695 -0.24123,0.41264 -0.53607,0.41264 -0.29483,0 -0.77107,0.64991 -1.05831,1.44425 -0.28724,0.79433 -0.69592,1.44424 -0.90818,1.44424 -0.21226,0 -0.38593,0.27853 -0.38593,0.61896 0,0.34043 -0.27853,0.61896 -0.61896,0.61896 -0.34387,0 -0.61896,0.3668 -0.61896,0.82529 0,0.4539 -0.18569,0.82528 -0.41264,0.82528 -0.22696,0 -0.41264,0.74275 -0.41264,1.65056 0,1.19208 -0.17194,1.65057 -0.61897,1.65057 -0.46766,0 -0.61896,0.50434 -0.61896,2.0632 0,1.13477 -0.18569,2.06321 -0.41264,2.06321 -0.22695,0 -0.41264,0.92844 -0.41264,2.06321 0,1.13476 0.18569,2.0632 0.41264,2.0632 0.22695,0 0.41264,1.02712 0.41264,2.28248 0,1.64821 0.172,2.34848 0.61896,2.51999 0.34043,0.13064 0.61897,0.68188 0.61897,1.22498 0,0.5431 0.18568,0.98745 0.41264,0.98745 0.22695,0 0.41264,0.37138 0.41264,0.82528 0,0.45849 0.27509,0.82529 0.61896,0.82529 0.38513,0 0.61896,0.38971 0.61896,1.0316 0,0.56738 0.18569,1.0316 0.41264,1.0316 0.22695,0 0.41264,0.19895 0.41264,0.44212 0,0.571294 1.0498,1.621094 1.62109,1.621094 0.24317,0 0.44212,0.19895 0.44212,0.44212 0,0.57129 1.0498,1.62109 1.62109,1.62109 0.24316,0 0.44212,0.18569 0.44212,0.41264 0,0.22695 0.46422,0.41264 1.0316,0.41264 0.64189,0 1.0316,0.23383 1.0316,0.61896 0,0.34387 0.36679,0.61896 0.82528,0.61896 0.45391,0 0.82529,0.18569 0.82529,0.41264 0,0.22696 0.44435,0.41265 0.98745,0.41265 0.5431,0 1.09434,0.27853 1.224972,0.61896 0.17152,0.44696 0.87179,0.61896 2.52,0.61896 1.25536,0 2.28248,0.18569 2.28248,0.41264 0,0.22695 0.92844,0.41264 2.0632,0.41264 1.13476,0 2.06321,-0.18569 2.06321,-0.41264 z"
       id="path4426"
       inkscape:connector-curvature="0" /><path
       style="fill:#ffffff;fill-opacity:0.87671234;fill-rule:nonzero;stroke:#ffffff;stroke-width:0.99999994;stroke-linejoin:round;stroke-miterlimit:4;stroke-opacity:1;stroke-dasharray:none;stroke-dashoffset:0"
       d="m 103.23253,96.83186 c 0,-0.226953 -0.46422,-0.412641 -1.0316,-0.412641 -0.56738,0 -1.03161,-0.185689 -1.03161,-0.412641 0,-0.226953 -0.46422,-0.412642 -1.0316,-0.412642 -0.56738,0 -1.031602,-0.21033 -1.031602,-0.4674 0,-0.25707 -0.344815,-0.767714 -0.766255,-1.134764 -0.421441,-0.367049 -0.898175,-1.085161 -1.05941,-1.595805 -0.161235,-0.510643 -0.46633,-0.928442 -0.677989,-0.928442 -0.211659,0 -0.384834,-0.464222 -0.384834,-1.031603 0,-0.567382 -0.185689,-1.031603 -0.412641,-1.031603 -0.246137,0 -0.412642,-1.581792 -0.412642,-3.920092 0,-2.3383 0.166505,-3.920091 0.412642,-3.920091 0.226952,0 0.412641,-0.464222 0.412641,-1.031603 0,-0.570988 0.239356,-1.031603 0.536067,-1.031603 0.294837,0 0.771077,-0.64991 1.058312,-1.444244 0.311049,-0.860191 0.803471,-1.449552 1.217658,-1.457368 0.869718,-0.01641 2.139653,-0.954046 2.139653,-1.579772 0,-0.262404 0.63845,-0.470311 1.44425,-0.470311 0.79433,0 1.44424,-0.185688 1.44424,-0.412641 0,-0.232772 1.16915,-0.412641 2.68217,-0.412641 1.51302,0 2.68217,0.179869 2.68217,0.412641 0,0.226953 0.5372,0.412641 1.19377,0.412641 0.68048,0 1.29591,0.266142 1.4313,0.618962 0.13063,0.340429 0.61472,0.618962 1.07575,0.618962 0.46103,0 0.83823,0.185689 0.83823,0.412641 0,0.226953 0.19895,0.412641 0.44212,0.412641 0.57129,0 1.62109,1.049799 1.62109,1.621091 0,0.243163 0.18569,0.442115 0.41264,0.442115 0.22695,0 0.41264,0.377205 0.41264,0.838234 0,0.461027 0.27853,0.945115 0.61896,1.075751 0.35282,0.13539 0.61896,0.750817 0.61896,1.431293 0,0.656577 0.18569,1.193776 0.41264,1.193776 0.23278,0 0.41265,1.16915 0.41265,2.682167 0,1.513018 -0.17987,2.682168 -0.41265,2.682168 -0.22695,0 -0.41264,0.64991 -0.41264,1.444244 0,0.805798 -0.2079,1.444245 -0.47031,1.444245 -0.62537,0 -1.56335,1.269749 -1.57977,2.138559 -0.007,0.381873 -0.3845,0.812186 -0.83841,0.956249 -0.4539,0.144064 -0.82528,0.43511 -0.82528,0.646769 0,0.211659 -0.27853,0.384834 -0.61896,0.384834 -0.34043,0 -0.61896,0.185689 -0.61896,0.412642 0,0.226952 -0.46422,0.412641 -1.0316,0.412641 -0.56739,0 -1.03161,0.185688 -1.03161,0.412641 0,0.246137 -1.58179,0.412641 -3.92009,0.412641 -2.3383,0 -3.92009,-0.166504 -3.92009,-0.412641 z"
       id="path4430"
       inkscape:connector-curvature="0" /><path
       style="fill:#ffffff;fill-opacity:0.87671234;fill-rule:nonzero;stroke:#ffffff;stroke-width:0.99999994;stroke-linejoin:round;stroke-miterlimit:4;stroke-opacity:1;stroke-dasharray:none;stroke-dashoffset:0"
       d="m 135.93435,60.727476 c -0.2837,-0.322218 -0.51581,-0.779376 -0.51581,-1.015908 0,-0.236531 -0.19895,-0.430057 -0.44211,-0.430057 -0.57129,0 -1.62109,-1.049798 -1.62109,-1.62109 0,-0.243164 -0.19895,-0.442116 -0.44212,-0.442116 -0.24316,0 -0.72065,-0.278533 -1.06108,-0.618962 -0.55018,-0.550188 -0.55018,-0.687735 0,-1.237923 0.34043,-0.340429 0.81792,-0.618962 1.06108,-0.618962 0.24317,0 0.44212,-0.198952 0.44212,-0.442116 0,-0.571292 1.0498,-1.62109 1.62109,-1.62109 0.24316,0 0.44211,-0.194129 0.44211,-0.431398 0,-0.560135 1.89696,-2.45709 2.45709,-2.45709 0.23727,0 0.4314,-0.198952 0.4314,-0.442116 0,-0.655372 1.08539,-1.62109 1.82197,-1.62109 0.89167,0 4.78029,3.949542 4.78029,4.855185 0,0.406781 -0.37138,1.007276 -0.82528,1.334433 -0.45391,0.327156 -0.82528,0.83237 -0.82528,1.122697 0,0.290327 -0.23754,0.527867 -0.52787,0.527867 -0.29033,0 -0.79554,0.371377 -1.1227,0.825283 -0.32715,0.453905 -0.83237,0.825282 -1.1227,0.825282 -0.29032,0 -0.52786,0.198952 -0.52786,0.442116 0,0.243163 -0.26527,0.707385 -0.58949,1.031603 -0.32422,0.324218 -0.78844,0.589487 -1.0316,0.589487 -0.24317,0 -0.44212,0.198952 -0.44212,0.442116 0,0.407909 -1.00773,1.641355 -1.31161,1.605395 -0.073,-0.0086 -0.36474,-0.279329 -0.64843,-0.601546 z"
       id="path4432"
       inkscape:connector-curvature="0" /><path
       style="fill:#ffffff;fill-opacity:0.87671234;fill-rule:nonzero;stroke:#ffffff;stroke-width:0.99999994;stroke-linejoin:round;stroke-miterlimit:4;stroke-opacity:1;stroke-dasharray:none;stroke-dashoffset:0"
       d="m 122.71356,50.806671 c -0.29264,-0.331797 -0.98897,-0.603266 -1.54741,-0.603266 -0.55843,0 -1.01533,-0.185689 -1.01533,-0.412641 0,-0.226953 -0.46422,-0.412642 -1.0316,-0.412642 -0.75651,0 -1.03161,-0.220075 -1.03161,-0.825282 0,-0.45849 0.2751,-0.825282 0.61897,-0.825282 0.38513,0 0.61896,-0.389717 0.61896,-1.031603 0,-0.567382 0.18569,-1.031603 0.41264,-1.031603 0.22695,0 0.41264,-0.64991 0.41264,-1.444245 0,-1.008678 0.18667,-1.444244 0.61896,-1.444244 0.38513,0 0.61896,-0.389716 0.61896,-1.031603 0,-0.567381 0.18569,-1.031603 0.41264,-1.031603 0.22696,0 0.41265,-0.477485 0.41265,-1.061077 0,-0.583593 0.26526,-1.326347 0.58948,-1.650565 0.77957,-0.779571 2.299,-0.760091 2.299,0.02947 0,0.385131 0.38972,0.618961 1.03161,0.618961 0.56738,0 1.0316,0.185689 1.0316,0.412642 0,0.226952 0.64991,0.412641 1.44424,0.412641 0.79434,0 1.44425,0.185688 1.44425,0.412641 0,0.226953 -0.18569,0.412641 -0.41264,0.412641 -0.22696,0 -0.41264,0.477485 -0.41264,1.061078 0,0.583592 -0.27854,1.33961 -0.61897,1.680039 -0.34043,0.340429 -0.61896,0.977075 -0.61896,1.41477 0,0.437694 -0.18569,0.795807 -0.41264,0.795807 -0.22695,0 -0.41264,0.477485 -0.41264,1.061078 0,0.583592 -0.27853,1.33961 -0.61896,1.680039 -0.34043,0.340429 -0.61896,0.977075 -0.61896,1.41477 0,0.437694 -0.18569,0.795808 -0.41265,0.795808 -0.22695,0 -0.41264,0.278533 -0.41264,0.618962 0,0.799389 -1.67979,0.788353 -2.38895,-0.0157 l 0,10e-7 z"
       id="path4434"
       inkscape:connector-curvature="0" /><path
       style="fill:#ffffff;fill-opacity:0.87671234;fill-rule:nonzero;stroke:#ffffff;stroke-width:0.99999994;stroke-linejoin:round;stroke-miterlimit:4;stroke-opacity:1;stroke-dasharray:none;stroke-dashoffset:0"
       d="m 143.25873,73.517632 c 0,-0.567381 -0.18569,-1.031603 -0.41264,-1.031603 -0.22696,0 -0.41265,-0.450957 -0.41265,-1.002128 0,-0.551171 -0.27853,-1.280662 -0.61896,-1.621091 -0.34043,-0.340429 -0.61896,-1.003602 -0.61896,-1.473718 0,-0.48469 0.26798,-0.854757 0.61896,-0.854757 0.34043,0 0.61896,-0.185688 0.61896,-0.412641 0,-0.226953 0.5629,-0.412641 1.25088,-0.412641 0.73123,0 1.34954,-0.257132 1.48839,-0.618962 0.13064,-0.340429 0.68187,-0.618962 1.22497,-0.618962 0.5431,0 0.98746,-0.185688 0.98746,-0.412641 0,-0.226953 0.47005,-0.412641 1.04455,-0.412641 0.57451,0 1.15144,-0.278533 1.28207,-0.618962 0.13539,-0.352821 0.75082,-0.618962 1.4313,-0.618962 0.65657,0 1.19377,-0.185688 1.19377,-0.412641 0,-0.226953 0.18569,-0.412641 0.41264,-0.412641 0.22696,0 0.41265,0.64991 0.41265,1.444244 0,0.794334 0.18568,1.444244 0.41264,1.444244 0.22695,0 0.41264,0.464221 0.41264,1.031603 0,0.641887 0.23383,1.031603 0.61896,1.031603 0.78956,0 0.80904,1.51943 0.0295,2.299001 -0.32421,0.324218 -1.06697,0.589487 -1.65056,0.589487 -0.58359,0 -1.06108,0.185689 -1.06108,0.412642 0,0.226952 -0.47005,0.412641 -1.04455,0.412641 -0.57451,0 -1.15144,0.278533 -1.28207,0.618962 -0.13539,0.35282 -0.75082,0.618961 -1.4313,0.618961 -0.65657,0 -1.19377,0.185689 -1.19377,0.412642 0,0.226952 -0.46422,0.412641 -1.03161,0.412641 -0.64188,0 -1.0316,0.23383 -1.0316,0.618962 0,0.343867 -0.36679,0.618961 -0.82528,0.618961 -0.60521,0 -0.82528,-0.275094 -0.82528,-1.031603 z"
       id="path4436"
       inkscape:connector-curvature="0" /></g></svg>
