<?xml version="1.0" encoding="UTF-8" standalone="no"?>
<!-- Generator: Adobe Illustrator 19.0.0, SVG Export Plug-In . SVG Version: 6.00 Build 0)  -->

<svg
   xmlns:dc="http://purl.org/dc/elements/1.1/"
   xmlns:cc="http://creativecommons.org/ns#"
   xmlns:rdf="http://www.w3.org/1999/02/22-rdf-syntax-ns#"
   xmlns:svg="http://www.w3.org/2000/svg"
   xmlns="http://www.w3.org/2000/svg"
   xmlns:xlink="http://www.w3.org/1999/xlink"
   xmlns:sodipodi="http://sodipodi.sourceforge.net/DTD/sodipodi-0.dtd"
   xmlns:inkscape="http://www.inkscape.org/namespaces/inkscape"
   version="1.1"
   id="Layer_1"
   x="0px"
   y="0px"
   viewBox="0 0 300 105"
   xml:space="preserve"
   inkscape:version="0.91 r13725"
   sodipodi:docname="main.svg"
   width="300"
   height="105"><metadata
     id="metadata93"><rdf:RDF><cc:Work
         rdf:about=""><dc:format>image/svg+xml</dc:format><dc:type
           rdf:resource="http://purl.org/dc/dcmitype/StillImage" /><dc:title></dc:title></cc:Work></rdf:RDF></metadata><defs
     id="defs91" /><sodipodi:namedview
     pagecolor="#ffffff"
     bordercolor="#666666"
     borderopacity="1"
     objecttolerance="10"
     gridtolerance="10"
     guidetolerance="10"
     inkscape:pageopacity="0"
     inkscape:pageshadow="2"
     inkscape:window-width="1307"
     inkscape:window-height="744"
     id="namedview89"
     showgrid="false"
     inkscape:zoom="1.737779"
     inkscape:cx="210"
     inkscape:cy="145"
     inkscape:window-x="59"
     inkscape:window-y="24"
     inkscape:window-maximized="1"
     inkscape:current-layer="Layer_1" /><style
     type="text/css"
     id="style3">
	.st0{fill-rule:evenodd;clip-rule:evenodd;fill:#6EC06F;}
	.st1{fill-rule:evenodd;clip-rule:evenodd;fill:#ECEFF0;}
	.st2{fill-rule:evenodd;clip-rule:evenodd;fill:#425B66;}
	.st3{fill-rule:evenodd;clip-rule:evenodd;fill:#546E7A;}
	.st4{fill-rule:evenodd;clip-rule:evenodd;fill:#78909C;}
	.st5{fill-rule:evenodd;clip-rule:evenodd;fill:#B0BEC5;}
	.st6{fill-rule:evenodd;clip-rule:evenodd;fill:#90A4AE;}
	.st7{fill-rule:evenodd;clip-rule:evenodd;fill:#D0D8DC;}
	.st8{fill-rule:evenodd;clip-rule:evenodd;fill:none;stroke:#E6E7E8;stroke-miterlimit:10;}
	.st9{fill:#B0BEC5;}
	.st10{fill:#71BE72;}
	.st11{clip-path:url(#XMLID_2_);fill:#FFFFFF;}
	.st12{fill:#FFFFFF;}
</style><g
     id="g3515"
     transform="matrix(0.43270777,0,0,0.36932069,-1.8263321,-0.89839773)"><g
       id="XMLID_991_"><g
         id="XMLID_992_"><g
           id="XMLID_993_"><g
             id="XMLID_1006_"><path
               d="m 286.1,185 c -25.1,0 -45.5,-20.4 -45.5,-45.6 0,-25.2 20.4,-45.6 45.5,-45.6 25.1,0 45.5,20.4 45.5,45.6 0,25.2 -20.4,45.6 -45.5,45.6 z m 64.8,-45.6 c 0,-7.4 5.7,-13.6 12.9,-14.2 -0.7,-4.3 -1.9,-8.5 -3.3,-12.5 -6.6,3.1 -14.6,0.6 -18.3,-5.8 -3.7,-6.5 -1.8,-14.6 4.1,-18.8 -2.8,-3.3 -5.9,-6.4 -9.1,-9.1 -4.2,5.9 -12.3,7.9 -18.7,4.1 -6.4,-3.7 -8.9,-11.7 -5.8,-18.4 -4,-1.4 -8.2,-2.5 -12.5,-3.3 -0.6,7.3 -6.7,13 -14.2,13 -7.4,0 -13.5,-5.7 -14.2,-13 -4.3,0.8 -8.5,1.9 -12.5,3.3 3.1,6.6 0.6,14.6 -5.8,18.4 -6.4,3.7 -14.6,1.8 -18.7,-4.1 -3.3,2.8 -6.4,5.8 -9.1,9.1 5.9,4.2 7.8,12.3 4.1,18.8 -3.7,6.4 -11.7,8.9 -18.3,5.8 -1.4,4 -2.5,8.2 -3.3,12.5 7.3,0.6 12.9,6.8 12.9,14.2 0,7.4 -5.7,13.6 -12.9,14.2 0.8,4.3 1.9,8.5 3.3,12.5 6.6,-3.1 14.6,-0.6 18.3,5.8 3.7,6.5 1.8,14.6 -4.1,18.8 2.8,3.3 5.8,6.4 9.1,9.1 4.2,-5.9 12.3,-7.9 18.7,-4.1 6.4,3.7 8.9,11.7 5.8,18.4 4,1.4 8.2,2.5 12.5,3.3 0.6,-7.3 6.8,-13 14.2,-13 7.4,0 13.5,5.7 14.2,13 4.3,-0.8 8.5,-1.9 12.5,-3.3 -3.1,-6.6 -0.6,-14.6 5.8,-18.4 6.4,-3.7 14.6,-1.8 18.7,4.1 3.3,-2.8 6.3,-5.8 9.1,-9.1 -6,-4.2 -7.8,-12.3 -4.1,-18.8 3.7,-6.4 11.7,-8.9 18.3,-5.8 1.4,-4 2.5,-8.2 3.3,-12.5 -7.2,-0.7 -12.9,-6.8 -12.9,-14.2 z"
               class="st0"
               id="XMLID_1007_"
               inkscape:connector-curvature="0"
               style="clip-rule:evenodd;fill:#6ec06f;fill-rule:evenodd" /></g><path
             d="m 278.9,115.1 -2.3,-7.8 c 3,-0.9 6.2,-1.4 9.4,-1.4 l 0,8.1 c -2.4,0 -4.8,0.4 -7.1,1.1 z m 20.8,2.9 c -2,-1.3 -4.2,-2.3 -6.5,-3 l 2.3,-7.8 c 3,0.9 6,2.2 8.6,3.9 l -4.4,6.9 z m -32.8,4.8 -6.1,-5.3 c 2.1,-2.4 4.5,-4.5 7.1,-6.2 l 4.4,6.8 c -2,1.3 -3.8,2.9 -5.4,4.7 z m 42.1,6 c -1,-2.2 -2.3,-4.2 -3.9,-6.1 l 6.1,-5.3 c 2.1,2.4 3.8,5.1 5.2,8 l -7.4,3.4 z m -47.9,7 -8,-1.1 c 0.4,-3.2 1.3,-6.2 2.7,-9.1 l 7.4,3.4 c -1.1,2.1 -1.8,4.4 -2.1,6.8 z m 58,8.2 -8,-1.1 c 0.2,-1.1 0.2,-2.3 0.2,-3.5 0,-1.2 -0.1,-2.5 -0.3,-3.7 l 8,-1.2 c 0.2,1.6 0.4,3.2 0.4,4.9 0,1.5 -0.1,3.1 -0.3,4.6 z m -63.4,9.3 c -1.3,-2.9 -2.2,-6 -2.7,-9.1 l 8,-1.1 c 0.4,2.4 1,4.7 2,6.9 l -7.3,3.3 z m 55.6,7.9 -6.1,-5.3 c 1.6,-1.8 2.9,-3.9 3.9,-6.1 l 7.4,3.3 c -1.3,3 -3.1,5.7 -5.2,8.1 z m -43.3,6.3 c -2.7,-1.7 -5.1,-3.8 -7.2,-6.2 l 6.1,-5.3 c 1.6,1.8 3.4,3.4 5.4,4.7 l -4.3,6.8 z m 27.6,3.9 -2.3,-7.8 c 2.3,-0.7 4.5,-1.7 6.5,-3 l 4.4,6.8 c -2.7,1.8 -5.6,3.1 -8.6,4 z m -9.4,1.4 -0.1,0 c -3.2,0 -6.3,-0.4 -9.4,-1.3 l 2.3,-7.8 c 2.3,0.7 4.7,1 7.1,1 l 0.1,8.1 z"
             class="st1"
             id="XMLID_994_"
             inkscape:connector-curvature="0"
             style="clip-rule:evenodd;fill:#eceff0;fill-rule:evenodd" /></g></g></g><rect
       height="16.200001"
       width="264.89999"
       class="st2"
       y="131.2"
       x="63.400002"
       id="XMLID_990_"
       style="clip-rule:evenodd;fill:#425b66;fill-rule:evenodd" /><rect
       height="2.5"
       width="264.89999"
       class="st3"
       y="139.2"
       x="63.400002"
       id="XMLID_989_"
       style="clip-rule:evenodd;fill:#546e7a;fill-rule:evenodd" /><rect
       height="2.5"
       width="264.79999"
       class="st4"
       y="135.10001"
       x="63.400002"
       id="XMLID_988_"
       style="clip-rule:evenodd;fill:#78909c;fill-rule:evenodd" /><rect
       height="2.9000001"
       width="264.79999"
       class="st5"
       y="131.2"
       x="63.400002"
       id="XMLID_987_"
       style="clip-rule:evenodd;fill:#b0bec5;fill-rule:evenodd" /><path
       d="m 90.5,203.6 -12.2,0 c -1.1,0 -2.1,-0.9 -2.1,-2.1 l 0,-124.3 c 0,-1.1 0.9,-2.1 2.1,-2.1 l 12.2,0 c 1.1,0 2.1,0.9 2.1,2.1 l 0,124.3 c 0,1.1 -1,2.1 -2.1,2.1 z"
       class="st5"
       id="XMLID_986_"
       inkscape:connector-curvature="0"
       style="clip-rule:evenodd;fill:#b0bec5;fill-rule:evenodd" /><path
       d="m 136.7,209 -14,0 c -1,0 -1.8,-0.8 -1.8,-1.8 l 0,-135.7 c 0,-1 0.8,-1.8 1.8,-1.8 l 14,0 c 1,0 1.8,0.8 1.8,1.8 l 0,135.6 c 0,1.1 -0.8,1.9 -1.8,1.9 z"
       class="st6"
       id="XMLID_985_"
       inkscape:connector-curvature="0"
       style="clip-rule:evenodd;fill:#90a4ae;fill-rule:evenodd" /><path
       d="m 94.9,177.9 -1.4,0 0,-77.8 1.4,0 c 0.6,0 1,0.4 1,1 l 0,75.8 c 0,0.5 -0.5,1 -1,1 z"
       class="st5"
       id="XMLID_984_"
       inkscape:connector-curvature="0"
       style="clip-rule:evenodd;fill:#b0bec5;fill-rule:evenodd" /><path
       d="m 117.6,185.6 -22.3,0 c -1,0 -1.8,-0.8 -1.8,-1.8 l 0,-88.9 c 0,-1 0.8,-1.8 1.8,-1.8 l 22.3,0 c 1,0 1.8,0.8 1.8,1.8 l 0,88.8 c 0.1,1.1 -0.8,1.9 -1.8,1.9 z"
       class="st7"
       id="XMLID_983_"
       inkscape:connector-curvature="0"
       style="clip-rule:evenodd;fill:#d0d8dc;fill-rule:evenodd" /><path
       d="m 309,163.2 -167.5,0 c -1,0 -1.8,-0.8 -1.8,-1.8 l 0,-43.2 c 0,-1 0.8,-1.8 1.8,-1.8 l 167.5,0 c 1,0 1.8,0.8 1.8,1.8 l 0,43.2 c 0,0.9 -0.8,1.8 -1.8,1.8 z"
       class="st7"
       id="XMLID_982_"
       inkscape:connector-curvature="0"
       style="clip-rule:evenodd;fill:#d0d8dc;fill-rule:evenodd" /><g
       id="XMLID_963_"><g
         id="XMLID_973_"><rect
           height="2.5"
           width="11.4"
           class="st6"
           y="76.5"
           x="78.699997"
           id="XMLID_981_"
           style="clip-rule:evenodd;fill:#90a4ae;fill-rule:evenodd" /><polyline
           points="90.1,89.6 90.1,92 78.7,92 78.7,89.6   "
           class="st6"
           id="XMLID_980_"
           style="clip-rule:evenodd;fill:#90a4ae;fill-rule:evenodd" /><polyline
           points="90.1,97.5 90.1,99.9 78.7,99.9 78.7,97.5   "
           class="st6"
           id="XMLID_979_"
           style="clip-rule:evenodd;fill:#90a4ae;fill-rule:evenodd" /><polyline
           points="90.1,106.5 90.1,108.9 78.7,108.9 78.7,106.5   "
           class="st6"
           id="XMLID_978_"
           style="clip-rule:evenodd;fill:#90a4ae;fill-rule:evenodd" /><polyline
           points="90.1,116.9 90.1,119.4 78.7,119.4 78.7,116.9   "
           class="st6"
           id="XMLID_977_"
           style="clip-rule:evenodd;fill:#90a4ae;fill-rule:evenodd" /><polyline
           points="90.1,137.7 90.1,140.2 78.7,140.2 78.7,137.7   "
           class="st6"
           id="XMLID_976_"
           style="clip-rule:evenodd;fill:#90a4ae;fill-rule:evenodd" /><polyline
           points="90.1,126.4 90.1,128.9 78.7,128.9 78.7,126.4   "
           class="st6"
           id="XMLID_975_"
           style="clip-rule:evenodd;fill:#90a4ae;fill-rule:evenodd" /><polyline
           points="90.1,82.8 90.1,85.3 78.7,85.3 78.7,82.8   "
           class="st6"
           id="XMLID_974_"
           style="clip-rule:evenodd;fill:#90a4ae;fill-rule:evenodd" /></g><g
         id="XMLID_964_"><rect
           height="2.5"
           width="11.4"
           class="st6"
           y="198.7"
           x="78.699997"
           id="XMLID_972_"
           style="clip-rule:evenodd;fill:#90a4ae;fill-rule:evenodd" /><polyline
           points="90.1,188.1 90.1,185.6 78.7,185.6 78.7,188.1   "
           class="st6"
           id="XMLID_971_"
           style="clip-rule:evenodd;fill:#90a4ae;fill-rule:evenodd" /><polyline
           points="90.1,180.2 90.1,177.7 78.7,177.7 78.7,180.2   "
           class="st6"
           id="XMLID_970_"
           style="clip-rule:evenodd;fill:#90a4ae;fill-rule:evenodd" /><polyline
           points="90.1,171.2 90.1,168.7 78.7,168.7 78.7,171.2   "
           class="st6"
           id="XMLID_969_"
           style="clip-rule:evenodd;fill:#90a4ae;fill-rule:evenodd" /><polyline
           points="90.1,160.7 90.1,158.3 78.7,158.3 78.7,160.7   "
           class="st6"
           id="XMLID_968_"
           style="clip-rule:evenodd;fill:#90a4ae;fill-rule:evenodd" /><polyline
           points="90.1,139.9 90.1,137.4 78.7,137.4 78.7,139.9   "
           class="st6"
           id="XMLID_967_"
           style="clip-rule:evenodd;fill:#90a4ae;fill-rule:evenodd" /><polyline
           points="90.1,151.2 90.1,148.7 78.7,148.7 78.7,151.2   "
           class="st6"
           id="XMLID_966_"
           style="clip-rule:evenodd;fill:#90a4ae;fill-rule:evenodd" /><polyline
           points="90.1,194.8 90.1,192.4 78.7,192.4 78.7,194.8   "
           class="st6"
           id="XMLID_965_"
           style="clip-rule:evenodd;fill:#90a4ae;fill-rule:evenodd" /></g></g><g
       id="XMLID_944_"><g
         id="XMLID_954_"><rect
           height="2.5999999"
           width="12.1"
           class="st5"
           y="73.199997"
           x="123.6"
           id="XMLID_962_"
           style="clip-rule:evenodd;fill:#b0bec5;fill-rule:evenodd" /><polyline
           points="135.7,87.2 135.7,89.8 123.6,89.8 123.6,87.2   "
           class="st5"
           id="XMLID_961_"
           style="clip-rule:evenodd;fill:#b0bec5;fill-rule:evenodd" /><polyline
           points="135.7,95.6 135.7,98.2 123.6,98.2 123.6,95.6   "
           class="st5"
           id="XMLID_960_"
           style="clip-rule:evenodd;fill:#b0bec5;fill-rule:evenodd" /><polyline
           points="135.7,105.2 135.7,107.8 123.6,107.8 123.6,105.2   "
           class="st5"
           id="XMLID_959_"
           style="clip-rule:evenodd;fill:#b0bec5;fill-rule:evenodd" /><polyline
           points="135.7,116.3 135.7,119 123.6,119 123.6,116.3   "
           class="st5"
           id="XMLID_958_"
           style="clip-rule:evenodd;fill:#b0bec5;fill-rule:evenodd" /><polyline
           points="135.7,138.6 135.7,141.2 123.6,141.2 123.6,138.6   "
           class="st5"
           id="XMLID_957_"
           style="clip-rule:evenodd;fill:#b0bec5;fill-rule:evenodd" /><polyline
           points="135.7,126.5 135.7,129.2 123.6,129.2 123.6,126.5   "
           class="st5"
           id="XMLID_956_"
           style="clip-rule:evenodd;fill:#b0bec5;fill-rule:evenodd" /><polyline
           points="135.7,80 135.7,82.6 123.6,82.6 123.6,80   "
           class="st5"
           id="XMLID_955_"
           style="clip-rule:evenodd;fill:#b0bec5;fill-rule:evenodd" /></g><g
         id="XMLID_945_"><rect
           height="2.5999999"
           width="12.1"
           class="st5"
           y="203.7"
           x="123.6"
           id="XMLID_953_"
           style="clip-rule:evenodd;fill:#b0bec5;fill-rule:evenodd" /><polyline
           points="135.7,192.4 135.7,189.7 123.6,189.7 123.6,192.4   "
           class="st5"
           id="XMLID_952_"
           style="clip-rule:evenodd;fill:#b0bec5;fill-rule:evenodd" /><polyline
           points="135.7,183.9 135.7,181.3 123.6,181.3 123.6,183.9   "
           class="st5"
           id="XMLID_951_"
           style="clip-rule:evenodd;fill:#b0bec5;fill-rule:evenodd" /><polyline
           points="135.7,174.3 135.7,171.7 123.6,171.7 123.6,174.3   "
           class="st5"
           id="XMLID_950_"
           style="clip-rule:evenodd;fill:#b0bec5;fill-rule:evenodd" /><polyline
           points="135.7,163.2 135.7,160.5 123.6,160.5 123.6,163.2   "
           class="st5"
           id="XMLID_949_"
           style="clip-rule:evenodd;fill:#b0bec5;fill-rule:evenodd" /><polyline
           points="135.7,140.9 135.7,138.3 123.6,138.3 123.6,140.9   "
           class="st5"
           id="XMLID_948_"
           style="clip-rule:evenodd;fill:#b0bec5;fill-rule:evenodd" /><polyline
           points="135.7,153 135.7,150.3 123.6,150.3 123.6,153   "
           class="st5"
           id="XMLID_947_"
           style="clip-rule:evenodd;fill:#b0bec5;fill-rule:evenodd" /><polyline
           points="135.7,199.6 135.7,196.9 123.6,196.9 123.6,199.6   "
           class="st5"
           id="XMLID_946_"
           style="clip-rule:evenodd;fill:#b0bec5;fill-rule:evenodd" /></g></g><rect
       height="23"
       width="170"
       class="st1"
       y="140.2"
       x="139.7"
       id="XMLID_943_"
       style="clip-rule:evenodd;fill:#eceff0;fill-rule:evenodd" /><path
       d="m 139.7,100.1 -1.2,0 0,77.8 1.2,0 c 0.6,0 1.2,-0.5 1.2,-1.2 l 0,-75.5 c 0,-0.6 -0.6,-1.1 -1.2,-1.1 z"
       class="st3"
       id="XMLID_942_"
       inkscape:connector-curvature="0"
       style="clip-rule:evenodd;fill:#546e7a;fill-rule:evenodd" /><path
       d="M 96.8,255.9"
       class="st2"
       id="XMLID_941_"
       inkscape:connector-curvature="0"
       style="clip-rule:evenodd;fill:#425b66;fill-rule:evenodd" /><polyline
       points="63.4,147.5 63.4,236.9 310.8,236.9 310.8,163.2 "
       class="st8"
       id="XMLID_940_"
       style="clip-rule:evenodd;fill:none;fill-rule:evenodd;stroke:#e6e7e8;stroke-width:2.5015018;stroke-miterlimit:10" /><g
       id="XMLID_938_"><polygon
         points="94.2,236.3 77.9,228 77.9,245.6 "
         class="st9"
         id="XMLID_939_"
         style="fill:#b0bec5" /></g><path
       d="m 213.2,237.8 c 0,13.2 -10.8,24 -24,24 -13.3,0 -24,-10.8 -24,-24 0,-13.3 10.7,-24 24,-24 13.3,0 24,10.8 24,24 z"
       class="st10"
       id="XMLID_937_"
       inkscape:connector-curvature="0"
       style="fill:#71be72" /><g
       id="XMLID_918_"><g
         id="XMLID_919_"><g
           id="XMLID_920_"><g
             id="XMLID_933_"><path
               d="m 196.6,66.9 c -7.7,0 -14,-6.3 -14,-14.1 0,-7.8 6.3,-14.1 14,-14.1 7.8,0 14,6.3 14,14.1 0,7.8 -6.3,14.1 -14,14.1 z m 20,-14 c 0,-2.3 1.8,-4.2 4,-4.4 -0.2,-1.3 -0.6,-2.6 -1,-3.9 -2,1 -4.5,0.2 -5.7,-1.8 -1.1,-2 -0.6,-4.5 1.3,-5.8 -0.9,-1 -1.8,-2 -2.8,-2.8 -1.3,1.8 -3.8,2.4 -5.8,1.3 -2,-1.2 -2.7,-3.6 -1.8,-5.7 -1.2,-0.4 -2.5,-0.8 -3.9,-1 -0.2,2.2 -2.1,4 -4.4,4 -2.3,0 -4.2,-1.8 -4.4,-4 -1.3,0.2 -2.6,0.6 -3.8,1 1,2 0.2,4.5 -1.8,5.7 -2,1.2 -4.5,0.6 -5.8,-1.3 -1,0.9 -2,1.8 -2.8,2.8 1.8,1.3 2.4,3.8 1.3,5.8 -1.1,2 -3.6,2.7 -5.7,1.8 -0.4,1.2 -0.8,2.5 -1,3.9 2.2,0.2 4,2.1 4,4.4 0,2.3 -1.8,4.2 -4,4.4 0.2,1.3 0.6,2.6 1,3.9 2,-1 4.5,-0.2 5.7,1.8 1.2,2 0.6,4.5 -1.3,5.8 0.9,1 1.8,2 2.8,2.8 1.3,-1.8 3.8,-2.4 5.8,-1.3 2,1.2 2.7,3.6 1.8,5.7 1.2,0.4 2.5,0.8 3.8,1 0.2,-2.2 2.1,-4 4.4,-4 2.3,0 4.2,1.8 4.4,4 1.3,-0.2 2.6,-0.6 3.9,-1 -1,-2 -0.2,-4.5 1.8,-5.7 2,-1.2 4.5,-0.6 5.8,1.3 1,-0.9 2,-1.8 2.8,-2.8 -1.8,-1.3 -2.4,-3.8 -1.3,-5.8 1.2,-2 3.6,-2.7 5.7,-1.8 0.4,-1.2 0.8,-2.5 1,-3.9 -2.2,-0.3 -4,-2.1 -4,-4.4 z"
               class="st0"
               id="XMLID_934_"
               inkscape:connector-curvature="0"
               style="clip-rule:evenodd;fill:#6ec06f;fill-rule:evenodd" /></g><path
             d="M 194.4,45.4 193.7,43 c 0.9,-0.3 1.9,-0.4 2.9,-0.4 l 0,2.5 c -0.8,0 -1.5,0.1 -2.2,0.3 z m 6.4,0.9 c -0.6,-0.4 -1.3,-0.7 -2,-0.9 l 0.7,-2.4 c 0.9,0.3 1.8,0.7 2.7,1.2 l -1.4,2.1 z m -10.1,1.5 -1.9,-1.6 c 0.6,-0.7 1.4,-1.4 2.2,-1.9 l 1.4,2.1 c -0.7,0.3 -1.2,0.8 -1.7,1.4 z m 13,1.8 c -0.3,-0.7 -0.7,-1.3 -1.2,-1.9 l 1.9,-1.6 c 0.6,0.7 1.2,1.6 1.6,2.5 l -2.3,1 z m -14.8,2.2 -2.5,-0.3 c 0.1,-1 0.4,-1.9 0.8,-2.8 l 2.3,1 c -0.3,0.6 -0.5,1.3 -0.6,2.1 z m 17.9,2.5 -2.5,-0.3 c 0.1,-0.4 0.1,-0.7 0.1,-1.1 0,-0.4 0,-0.8 -0.1,-1.1 l 2.5,-0.4 c 0.1,0.5 0.1,1 0.1,1.5 0,0.4 -0.1,0.9 -0.1,1.4 z m -19.6,2.9 c -0.4,-0.9 -0.7,-1.8 -0.8,-2.8 l 2.5,-0.4 c 0.1,0.7 0.3,1.5 0.6,2.1 l -2.3,1.1 z m 17.2,2.4 -1.9,-1.6 c 0.5,-0.6 0.9,-1.2 1.2,-1.9 l 2.3,1 c -0.4,0.9 -1,1.7 -1.6,2.5 z M 191,61.5 c -0.8,-0.5 -1.6,-1.2 -2.2,-1.9 l 1.9,-1.6 c 0.5,0.6 1.1,1.1 1.7,1.5 l -1.4,2 z m 8.5,1.3 -0.7,-2.4 c 0.7,-0.2 1.4,-0.5 2,-0.9 l 1.4,2.1 c -0.8,0.5 -1.7,0.9 -2.7,1.2 z m -2.9,0.4 0,0 c -1,0 -2,-0.1 -2.9,-0.4 l 0.7,-2.4 c 0.7,0.2 1.4,0.3 2.2,0.3 l 0,2.5 z"
             class="st7"
             id="XMLID_921_"
             inkscape:connector-curvature="0"
             style="clip-rule:evenodd;fill:#d0d8dc;fill-rule:evenodd" /></g></g></g><path
       d="m 314.4,170 -4.5,0 0,-58.3 4.5,0 c 0.6,0 1,0.4 1,1 l 0,56.3 c 0,0.5 -0.4,1 -1,1 z"
       class="st6"
       id="XMLID_917_"
       inkscape:connector-curvature="0"
       style="clip-rule:evenodd;fill:#90a4ae;fill-rule:evenodd" /><rect
       height="46.400002"
       width="0.80000001"
       class="st4"
       y="116.1"
       x="309.89999"
       id="XMLID_916_"
       style="clip-rule:evenodd;fill:#78909c;fill-rule:evenodd" /><path
       d="m 117.6,185.6 -22.3,0 c -1,0 -1.8,-0.8 -1.8,-1.8 l 0,-42.6 c 0,-1 0.8,-1.8 1.8,-1.8 l 22.3,0 c 1,0 1.8,0.8 1.8,1.8 l 0,42.6 c 0.1,1 -0.8,1.8 -1.8,1.8 z"
       class="st1"
       id="XMLID_915_"
       inkscape:connector-curvature="0"
       style="clip-rule:evenodd;fill:#eceff0;fill-rule:evenodd" /><path
       d="m 61.3,151.7 -4.7,0 c -1.1,0 -2,-0.9 -2,-2 l 0,-20.8 c 0,-1.1 0.9,-2 2,-2 l 4.7,0 c 1.1,0 2,0.9 2,2 l 0,20.8 c 0,1.1 -0.9,2 -2,2 z"
       class="st6"
       id="XMLID_914_"
       inkscape:connector-curvature="0"
       style="clip-rule:evenodd;fill:#90a4ae;fill-rule:evenodd" /><path
       d="m 61.4,151.8 -4.7,0 c -1.1,0 -2,-0.9 -2,-2 l 0,-10.8 8.7,0 0,10.8 c 0,1.1 -0.8,2 -2,2 z"
       class="st5"
       id="XMLID_913_"
       inkscape:connector-curvature="0"
       style="clip-rule:evenodd;fill:#b0bec5;fill-rule:evenodd" /><g
       id="XMLID_901_"><g
         id="XMLID_908_"><defs
           id="defs78"><rect
             height="24.1"
             width="24"
             y="225.8"
             x="177.2"
             id="XMLID_909_" /></defs><clipPath
           id="XMLID_2_"><use
             id="use82"
             style="overflow:visible"
             xlink:href="#XMLID_909_"
             x="0"
             y="0"
             width="100%"
             height="100%" /></clipPath><path
           clip-path="url(#XMLID_2_)"
           d="m 177.9,245.7 c -0.9,0.9 -0.9,2.3 0,3.1 0.4,0.4 1,0.7 1.6,0.7 0.6,0 1.1,-0.2 1.6,-0.7 l 7.3,-7.3 -3.1,-3.1 -7.4,7.3 z m 0,0"
           class="st11"
           id="XMLID_910_"
           inkscape:connector-curvature="0"
           style="fill:#ffffff" /></g><path
         d="m 196.1,232.2 3.2,-1.6 1.7,-3.2 -1.5,-1.5 -3.2,1.7 -1.6,3.2 -3.9,3.9 1.6,1.6 3.7,-4.1 z m 0,0"
         class="st12"
         id="XMLID_905_"
         inkscape:connector-curvature="0"
         style="fill:#ffffff" /><path
         d="m 196.8,240.6 -0.3,0 c -0.5,0 -1.1,0.1 -1.5,0.3 l -9.1,-9.1 c 0.2,-0.5 0.3,-1 0.3,-1.5 l 0,-0.3 c -0.2,-2.3 -2.1,-4.1 -4.4,-4.1 -0.7,0 -1.3,0.2 -1.9,0.4 l 3,3 c 0.2,0.2 0.3,0.3 0.3,0.5 0.2,0.5 0.1,1.1 -0.3,1.6 -0.3,0.3 -0.7,0.4 -1,0.4 -0.2,0 -0.4,0 -0.5,-0.1 -0.2,-0.1 -0.4,-0.2 -0.5,-0.3 l -3,-3 c -0.3,0.6 -0.4,1.2 -0.4,1.9 0,2.4 1.8,4.3 4.1,4.4 l 0.3,0 c 0.5,0 1.1,-0.1 1.5,-0.3 l 9.1,9.1 c -0.2,0.5 -0.3,1 -0.3,1.5 l 0,0.3 c 0.2,2.3 2.1,4.1 4.4,4.1 0.7,0 1.3,-0.2 1.9,-0.4 l -2.9,-3 c -0.2,-0.2 -0.3,-0.3 -0.3,-0.5 -0.2,-0.5 -0.1,-1.1 0.3,-1.6 0.3,-0.3 0.7,-0.4 1,-0.4 0.2,0 0.3,0 0.5,0.1 0.2,0.1 0.4,0.2 0.5,0.3 l 3,3 c 0.3,-0.6 0.4,-1.2 0.4,-1.9 0,-2.3 -1.9,-4.2 -4.2,-4.4 l 0,0 z m 0,0"
         class="st12"
         id="XMLID_902_"
         inkscape:connector-curvature="0"
         style="fill:#ffffff" /></g><path
       d="m 335.1,151.4 -4.7,0 c -1.1,0 -2,-0.9 -2,-2 l 0,-20.8 c 0,-1.1 0.9,-2 2,-2 l 4.7,0 c 1.1,0 2,0.9 2,2 l 0,20.8 c 0,1.1 -0.9,2 -2,2 z"
       class="st6"
       id="XMLID_900_"
       inkscape:connector-curvature="0"
       style="clip-rule:evenodd;fill:#90a4ae;fill-rule:evenodd" /><path
       d="m 335.2,152.6 -4.7,0 c -1.1,0 -2,-0.9 -2,-2 l 0,-10.8 8.7,0 0,10.8 c 0,1.1 -0.9,2 -2,2 z"
       class="st5"
       id="XMLID_899_"
       inkscape:connector-curvature="0"
       style="clip-rule:evenodd;fill:#b0bec5;fill-rule:evenodd" /></g><text
     xml:space="preserve"
     style="font-style:normal;font-variant:normal;font-weight:bold;font-stretch:normal;font-size:18.75px;line-height:125%;font-family:Arial;-inkscape-font-specification:'Arial Bold';letter-spacing:0px;word-spacing:0px;fill:#ffffff;fill-opacity:1;stroke:none;stroke-width:1px;stroke-linecap:butt;stroke-linejoin:miter;stroke-opacity:1;"
     x="183.56764"
     y="41.700813"
     id="text3599"
     sodipodi:linespacing="125%"><tspan
       sodipodi:role="line"
       id="tspan3601"
       x="183.56764"
       y="41.700813"
       style="font-size:22.5px;fill:#ffffff;">Help</tspan><tspan
       sodipodi:role="line"
       x="183.56764"
       y="77.206383"
       id="tspan3603"><tspan
   style="font-size:30px;fill:#ffffff;"
   id="tspan3605">BOT</tspan>s</tspan></text>
</svg>