<?xml version="1.0" encoding="UTF-8" standalone="no"?>
<!-- Created with Inkscape (http://www.inkscape.org/) -->

<svg
   xmlns:dc="http://purl.org/dc/elements/1.1/"
   xmlns:cc="http://creativecommons.org/ns#"
   xmlns:rdf="http://www.w3.org/1999/02/22-rdf-syntax-ns#"
   xmlns:svg="http://www.w3.org/2000/svg"
   xmlns="http://www.w3.org/2000/svg"
   xmlns:sodipodi="http://sodipodi.sourceforge.net/DTD/sodipodi-0.dtd"
   xmlns:inkscape="http://www.inkscape.org/namespaces/inkscape"
   width="1000"
   height="350"
   viewBox="0 0 1000 350.00001"
   id="svg2"
   version="1.1"
   inkscape:version="0.91 r13725"
   sodipodi:docname="tools1.svg">
  <defs
     id="defs4" />
  <sodipodi:namedview
     id="base"
     pagecolor="#ffffff"
     bordercolor="#666666"
     borderopacity="1.0"
     inkscape:pageopacity="0.0"
     inkscape:pageshadow="2"
     inkscape:zoom="0.74229785"
     inkscape:cx="375"
     inkscape:cy="174.66107"
     inkscape:document-units="px"
     inkscape:current-layer="layer1"
     showgrid="false"
     units="px"
     inkscape:window-width="1307"
     inkscape:window-height="744"
     inkscape:window-x="59"
     inkscape:window-y="24"
     inkscape:window-maximized="1" />
  <metadata
     id="metadata7">
    <rdf:RDF>
      <cc:Work
         rdf:about="">
        <dc:format>image/svg+xml</dc:format>
        <dc:type
           rdf:resource="http://purl.org/dc/dcmitype/StillImage" />
        <dc:title></dc:title>
      </cc:Work>
    </rdf:RDF>
  </metadata>
  <g
     inkscape:label="Layer 1"
     inkscape:groupmode="layer"
     id="layer1"
     transform="translate(0,-702.36216)">
    <rect
       style="color:#000000;display:inline;overflow:visible;visibility:visible;fill:#ff7f2a;fill-opacity:1;fill-rule:nonzero;stroke:#000000;stroke-width:2;stroke-linecap:butt;stroke-linejoin:miter;stroke-miterlimit:4;stroke-dasharray:none;stroke-dashoffset:0;stroke-opacity:0.05479449;marker:none;enable-background:accumulate"
       id="rect3513"
       width="990.92651"
       height="343.39529"
       x="4.9263973"
       y="707.52405" />
    <g
       transform="matrix(0.87675877,0,0,0.86947885,93.438145,696.56706)"
       id="g5">
      <path
         style="fill:#e5e5e5"
         inkscape:connector-curvature="0"
         id="path7"
         d="m 129.428,193.196 c -0.264,1.233 -0.481,2.482 -0.675,3.732 -0.188,1.266 -0.356,2.521 -0.483,3.804 -0.251,2.552 -0.383,5.135 -0.383,7.754 0,2.62 0.132,5.207 0.383,7.75 0.127,1.281 0.295,2.544 0.483,3.798 0.193,1.26 0.411,2.5 0.675,3.743 0.254,1.232 0.536,2.453 0.847,3.67 0.618,2.422 1.361,4.796 2.206,7.12 0.432,1.162 0.881,2.313 1.362,3.453 0.479,1.129 0.985,2.252 1.521,3.36 0.262,0.547 0.534,1.101 0.816,1.638 0.556,1.096 1.145,2.163 1.754,3.223 1.832,3.179 3.872,6.215 6.127,9.083 1.124,1.428 2.313,2.826 3.53,4.169 0.808,0.904 1.652,1.775 2.508,2.642 0.857,0.854 1.747,1.682 2.641,2.511 4.039,3.675 8.473,6.915 13.242,9.648 1.063,0.615 2.133,1.207 3.224,1.757 2.179,1.119 4.434,2.13 6.725,3.04 1.146,0.454 2.301,0.881 3.493,1.277 7.627,2.586 15.808,3.981 24.316,3.981 5.805,0 11.461,-0.649 16.883,-1.884 2.532,-0.574 5.03,-1.275 7.445,-2.098 1.194,-0.399 2.338,-0.823 3.494,-1.277 2.302,-0.903 4.536,-1.921 6.727,-3.04 1.08,-0.556 2.16,-1.142 3.212,-1.751 4.77,-2.739 9.204,-5.979 13.253,-9.654 0.9,-0.818 1.787,-1.657 2.628,-2.511 0.868,-0.866 1.702,-1.737 2.519,-2.642 1.23,-1.343 2.402,-2.73 3.522,-4.169 1.782,-2.271 3.438,-4.632 4.96,-7.099 0.405,-0.657 0.793,-1.311 1.184,-1.984 0.611,-1.06 1.184,-2.127 1.737,-3.213 0.288,-0.541 0.557,-1.094 0.827,-1.647 0.526,-1.103 1.044,-2.231 1.521,-3.36 0.481,-1.14 0.933,-2.291 1.366,-3.453 0.844,-2.324 1.588,-4.698 2.205,-7.12 0.308,-1.217 0.591,-2.438 0.844,-3.67 0.255,-1.243 0.48,-2.483 0.676,-3.743 0.191,-1.254 0.35,-2.517 0.48,-3.787 0.256,-2.548 0.386,-5.142 0.386,-7.761 0,-2.619 -0.13,-5.202 -0.386,-7.754 -0.131,-1.283 -0.289,-2.548 -0.48,-3.804 -0.195,-1.25 -0.421,-2.5 -0.676,-3.732 -0.253,-1.228 -0.536,-2.46 -0.844,-3.671 -0.617,-2.416 -1.361,-4.795 -2.205,-7.12 -0.218,-0.584 -0.434,-1.162 -0.677,-1.737 -0.669,-1.721 -1.41,-3.414 -2.219,-5.073 -0.262,-0.555 -0.536,-1.097 -0.818,-1.651 -0.554,-1.085 -1.135,-2.157 -1.737,-3.217 -1.828,-3.185 -3.889,-6.21 -6.144,-9.076 -1.12,-1.43 -2.292,-2.827 -3.522,-4.181 -0.816,-0.895 -1.65,-1.765 -2.519,-2.626 -0.841,-0.864 -1.728,-1.704 -2.628,-2.521 -1.733,-1.572 -3.55,-3.079 -5.432,-4.489 -2.484,-1.873 -5.097,-3.6 -7.821,-5.161 -1.052,-0.609 -2.132,-1.195 -3.212,-1.756 -0.508,-0.251 -1.006,-0.503 -1.502,-0.744 -0.603,-0.285 -1.202,-0.575 -1.815,-0.85 -0.262,-0.114 -0.517,-0.223 -0.779,-0.338 -0.872,-0.384 -1.735,-0.757 -2.63,-1.096 -0.01,-0.012 -0.029,-0.012 -0.037,-0.022 -0.949,-0.367 -1.899,-0.712 -2.854,-1.053 -0.198,-0.071 -0.401,-0.136 -0.603,-0.203 -2.244,-0.76 -4.527,-1.417 -6.876,-1.967 -0.723,-0.17 -1.452,-0.339 -2.196,-0.488 -0.526,-0.104 -1.061,-0.208 -1.594,-0.307 -3.996,-0.723 -8.092,-1.14 -12.27,-1.211 -0.462,-0.006 -0.932,-0.011 -1.393,-0.011 -0.786,0 -1.568,0.011 -2.344,0.039 -7.676,0.23 -15.059,1.589 -21.982,3.945 -1.183,0.396 -2.348,0.823 -3.483,1.278 -0.349,0.137 -0.705,0.285 -1.062,0.427 -0.779,0.325 -1.578,0.658 -2.35,1.007 -1.116,0.51 -2.215,1.036 -3.323,1.6 -1.081,0.561 -2.15,1.141 -3.214,1.754 -4.262,2.439 -8.264,5.305 -11.957,8.5 -0.431,0.377 -0.862,0.762 -1.285,1.145 -0.902,0.828 -1.783,1.659 -2.641,2.521 -0.855,0.861 -1.7,1.738 -2.508,2.626 -1.218,1.354 -2.406,2.75 -3.53,4.181 -2.255,2.866 -4.295,5.898 -6.135,9.076 -0.608,1.06 -1.19,2.137 -1.746,3.217 -0.282,0.554 -0.555,1.096 -0.816,1.651 -0.809,1.659 -1.541,3.353 -2.216,5.08 -0.236,0.569 -0.462,1.146 -0.668,1.731 -0.845,2.325 -1.588,4.704 -2.206,7.125 -0.31,1.205 -0.592,2.438 -0.846,3.666" />
      <path
         style="clip-rule:evenodd;fill:#c9c9c9;fill-rule:evenodd"
         inkscape:connector-curvature="0"
         id="path9"
         d="m 245.596,270.026 0,-67.393 c 0.341,0.153 0.657,0.305 0.939,0.482 1.935,1.162 4.642,2.703 5.41,0.963 0.771,-1.736 3.279,-1.16 5.422,-0.771 2.12,0.383 5.794,1.162 7.727,0.971 1.938,-0.199 3.862,-1.935 4.07,-3.678 0.188,-1.742 -2.52,-2.132 -5.807,-2.132 -3.29,0 -4.641,-0.581 -4.066,-2.509 0.59,-1.935 1.551,-3.672 3.295,-4.451 1.73,-0.772 3.29,-1.156 5.026,-1.156 1.74,0 4.059,1.354 6.181,1.156 2.133,-0.191 1.364,-2.126 -0.772,-3.288 -2.124,-1.156 -2.503,-2.899 -1.548,-3.869 0.977,-0.959 0.396,-1.935 -1.352,-0.959 -1.738,0.959 -4.245,3.48 -4.828,1.929 -0.592,-1.541 -4.838,-0.191 -4.838,2.127 0,2.323 0.582,2.707 -0.197,4.258 -0.771,1.543 -2.504,2.713 -4.055,2.51 -1.543,-0.192 0.194,2.707 -1.354,3.474 -1.549,0.777 -2.313,-1.156 -3.289,-3.085 -0.968,-1.93 -1.738,-3.097 -2.704,-4.253 -0.969,-1.167 -1.554,-1.742 -2.903,-2.904 -0.121,-0.104 -0.236,-0.193 -0.357,-0.27 l 0,-15.98 c 0.44,-0.104 0.911,-0.181 1.523,-0.181 2.112,0 3.67,1.738 5.211,0.378 1.551,-1.349 -1.153,-3.666 1.164,-3.666 2.321,0 4.26,0.192 2.517,-1.545 -1.746,-1.75 0.575,-0.779 2.51,-1.75 1.935,-0.964 1.737,-2.509 -0.581,-2.121 -2.32,0.384 -4.256,1.732 -5.223,-0.581 -0.96,-2.322 1.943,-5.031 3.486,-6.768 0.346,-0.389 0.41,-0.728 0.3,-0.992 0.292,0.285 0.597,0.576 0.888,0.871 0.859,0.861 1.693,1.732 2.51,2.631 1.23,1.359 2.402,2.746 3.522,4.183 2.255,2.859 4.315,5.891 6.132,9.069 0.614,1.06 1.195,2.132 1.749,3.217 0.282,0.554 0.557,1.107 0.827,1.651 0.8,1.659 1.541,3.353 2.215,5.073 0.238,0.575 0.454,1.153 0.672,1.734 0.844,2.328 1.588,4.707 2.205,7.123 0.308,1.211 0.591,2.444 0.844,3.677 0.265,1.218 0.469,2.472 0.676,3.727 0.191,1.256 0.35,2.526 0.48,3.798 0.242,2.558 0.386,5.151 0.386,7.754 0,2.619 -0.144,5.212 -0.386,7.761 -0.131,1.282 -0.289,2.549 -0.48,3.799 -0.207,1.254 -0.411,2.502 -0.676,3.741 -0.111,0.511 -0.205,1.025 -0.328,1.536 l -0.067,-0.159 c -1.745,-4.067 -5.616,-8.507 -6.966,-12.182 -1.353,-3.679 -2.709,-5.998 -4.061,-5.807 -1.352,0.195 1.738,7.16 3.088,9.675 1.357,2.5 2.905,6.566 5.226,8.896 0.739,0.729 1.481,1.325 2.245,1.782 -0.618,2.395 -1.354,4.751 -2.186,7.051 -0.434,1.157 -0.885,2.309 -1.366,3.443 -0.477,1.14 -0.994,2.257 -1.521,3.357 -0.271,0.562 -0.539,1.108 -0.827,1.651 -0.554,1.096 -1.126,2.157 -1.749,3.222 -0.379,0.669 -0.767,1.322 -1.172,1.979 -1.521,2.461 -3.178,4.834 -4.96,7.101 -1.12,1.437 -2.292,2.829 -3.522,4.167 -0.816,0.911 -1.65,1.78 -2.51,2.642 -0.85,0.854 -1.736,1.692 -2.637,2.511 -2.752,2.497 -5.693,4.811 -8.801,6.888 -0.17,-0.513 -0.271,-1.016 -0.357,-1.508 m 0,-77.103 c 0.311,0.92 0.357,2.076 0.357,3.424 0,2.702 2.134,-0.964 2.517,-2.131 0.387,-1.163 1.155,-3.865 -0.383,-3.865 -1.195,0 -1.703,-0.351 -2.491,-1.124 l 0,3.696 z m 0,-23.84 c 0.299,-0.225 0.609,-0.388 0.939,-0.388 1.353,0 1.935,-1.743 3.485,-3.29 1.54,-1.545 -1.358,-3.48 -0.594,-5.607 0.772,-2.126 3.109,-3.096 3.683,-5.222 0.346,-1.304 2.018,-1.524 2.884,-1.097 -0.405,-0.383 -0.816,-0.771 -1.239,-1.145 -1.733,-1.583 -3.55,-3.079 -5.432,-4.5 -0.438,-0.328 -0.881,-0.646 -1.32,-0.969 -0.811,0.641 -1.635,1.469 -2.406,2.34 l 0,19.878 z m 0,-19.877 0,19.877 c -0.941,0.724 -1.708,2.044 -2.15,0.576 -0.58,-1.929 -1.748,-4.066 -3.101,-3.091 -1.352,0.964 -1.164,4.252 -2.9,1.54 -1.739,-2.702 -3.292,-6.576 -1.353,-8.696 1.935,-2.127 4.638,-3.87 6.188,-5.997 0.741,-1.009 1.952,-2.675 3.316,-4.209 m 0,21.992 c -1.089,0.28 -1.897,0.784 -3.701,0.784 -2.516,0 -1.55,-1.738 -3.096,-1.738 -1.552,0 -1.159,2.893 -2.52,4.247 -1.173,1.184 -3.1,2.665 -5.099,3.399 l 0,15.508 c 0.909,-0.318 1.189,-2.087 0.655,-4.017 -0.583,-2.127 3.09,-1.354 6.19,-1.354 3.096,0.005 3.475,2.126 5.606,2.894 1.061,0.394 1.651,1.079 1.963,2 l 0,-3.695 c -0.232,-0.235 -0.489,-0.498 -0.799,-0.811 -1.237,-1.239 -0.386,-1.983 0.799,-1.239 l 0,-15.978 z m 0,31.436 0,67.393 c -0.217,-1.365 -0.232,-2.687 -1.185,-4.073 -1.753,-2.514 -3.483,-6.96 -1.753,-9.282 1.753,-2.31 2.525,-4.056 0.975,-4.638 -1.548,-0.582 0.778,-3.282 -1.354,-4.637 -2.12,-1.354 -3.48,-5.035 -2.715,-6.778 0.78,-1.731 0.97,-4.636 -1.538,-4.636 -1.87,0 -4.558,-1.054 -6.846,-1.288 l 0,-36.896 c 1.122,-0.438 2.288,-0.876 4.138,-0.876 3.675,0 6.379,-1.354 5.996,1.545 -0.341,2.483 2.299,3.265 4.282,4.166 m -14.415,-26.301 0,-1.623 c 0.508,-0.165 0.864,0.126 0.76,0.668 -0.085,0.446 -0.408,0.961 -0.76,0.955 m 0,-1.623 0,1.623 c -0.144,-0.005 -0.284,-0.083 -0.435,-0.257 -0.527,-0.663 -0.497,-1.064 0.207,-1.267 0.073,-0.043 0.151,-0.076 0.228,-0.099 m 0,3.18 0,15.508 c -0.106,0.034 -0.211,0.043 -0.302,0.043 -0.334,0 -0.66,0.012 -0.978,0.067 l 0,-15.258 c 0.12,-0.027 0.252,-0.049 0.385,-0.082 0.3,-0.076 0.593,-0.168 0.895,-0.278 m 0,19.909 0,36.896 c -0.455,-0.056 -0.874,-0.066 -1.279,-0.045 l 0,-36.396 c 0.438,-0.137 0.844,-0.3 1.279,-0.455 m -1.28,-27.938 0,-1.633 c 0.505,-0.153 0.874,0.131 0.761,0.675 -0.086,0.448 -0.387,0.969 -0.761,0.958 m 0,-1.633 0,1.633 c -0.142,-0.005 -0.275,-0.093 -0.413,-0.258 -0.545,-0.657 -0.498,-1.073 0.188,-1.271 0.084,-0.049 0.15,-0.077 0.225,-0.104 m 0,10.022 0,15.258 c -0.815,0.125 -1.493,0.504 -1.352,1.481 0.194,1.357 -0.386,1.16 -1.353,1.933 -0.471,0.367 -1.052,0.784 -1.711,1.008 l 0,-9.284 c 1.605,-0.525 2.582,-2.225 1.127,-3.518 -1.737,-1.551 -1.156,-3.672 -0.188,-5.409 0.914,-1.643 1.484,-1.046 3.477,-1.469 m 0,20.004 0,36.396 c -0.34,0.028 -0.66,0.078 -0.967,0.177 -1.288,0.399 -2.415,0.735 -3.448,1.062 l 0,-37.091 c 0.468,-0.083 1.033,-0.137 1.711,-0.137 1.099,-0.001 1.945,-0.165 2.704,-0.407 m -4.415,-19.953 c 0.675,-0.296 1.437,-0.547 2.254,-0.547 2.836,0 -0.213,-4.807 0.216,-6.342 0.425,-1.458 0.235,-5.135 -2.47,-5.054 l 0,11.943 z m 0,-11.943 0,11.943 c -1.703,0.719 -2.904,1.699 -3.214,-0.33 -0.438,-2.833 -0.655,-2.625 1.974,-3.716 2.619,-1.095 -1.1,-8.089 0.874,-7.864 0.122,-0.026 0.243,-0.033 0.366,-0.033 m 0,22.289 0,9.284 c -0.73,0.241 -1.537,0.274 -2.349,-0.241 -0.777,-0.472 -1.934,-0.334 -2.901,-0.308 l 0,-8.966 c 1.777,0.028 2.207,0.388 4.254,0.388 0.348,0.001 0.684,-0.064 0.996,-0.157 m 0,10.15 0,37.091 c -0.984,0.308 -1.889,0.586 -2.734,0.866 -0.674,0.225 -1.56,-0.147 -2.516,-0.859 l 0,-35.086 c 0.349,-0.18 0.744,-0.318 1.164,-0.406 1.553,-0.307 2.104,-1.243 4.086,-1.606 m -5.25,-21.45 c 0.451,-0.137 0.891,-0.498 1.164,-1.128 0.872,-1.963 0.872,-5.465 -0.872,-5.246 -0.106,-0.011 -0.21,-0.016 -0.292,-0.027 l 0,6.401 z m 0,-33.156 0,-2.28 c 0.159,-0.012 0.317,-0.012 0.507,0 1.529,0 2.62,2.63 0.657,2.63 -0.431,0 -0.834,-0.143 -1.164,-0.35 m 0,-2.28 0,2.28 c -1.081,-0.68 -1.465,-2.142 0,-2.28 m 0,29.034 0,6.401 c -0.946,0.291 -1.981,-0.444 -1.683,-1.78 0.432,-1.902 -0.993,-4.828 1.683,-4.621 m 0,17.472 0,8.966 c -0.971,0.027 -1.737,-0.07 -1.737,-1.036 0,-1.928 -1.354,-2.713 -0.386,-4.451 0.959,-1.742 0,-3.479 1.934,-3.479 l 0.189,0 z m 0,12.391 0,35.086 c -1.532,-1.103 -3.289,-3.003 -4.841,-4.555 -1.124,-1.123 -2.675,-2.521 -3.864,-3.887 l 0,-13.431 c 0.863,-1.63 1.479,-5.707 3.282,-5.881 1.937,-0.197 3.3,-2.323 3.3,-4.063 0,-1.373 0.826,-2.617 2.123,-3.269 m -8.705,2.372 c 0.356,0.012 0.674,-0.508 0.768,-0.958 0.096,-0.543 -0.271,-0.822 -0.768,-0.668 l 0,1.626 z m 0,-45.695 0,-4.62 c 1.981,0.016 2.843,1.787 1.561,3.25 -0.407,0.467 -0.944,0.955 -1.561,1.37 m 0,-4.619 0,4.62 c -0.379,0.242 -0.773,0.461 -1.194,0.631 l 0,-5.081 c 0.431,-0.126 0.823,-0.176 1.194,-0.17 m 0,48.688 0,1.625 c -0.145,0 -0.282,-0.075 -0.427,-0.256 -0.536,-0.646 -0.494,-1.064 0.199,-1.265 0.075,-0.043 0.146,-0.078 0.228,-0.104 m 0,12.468 0,13.431 c -0.481,-0.52 -0.896,-1.047 -1.194,-1.544 l 0,-2.829 c 1.502,-1.425 0.823,-1.905 0,-2.894 l 0,-4.132 c 0.299,-0.657 0.668,-1.271 1.003,-1.726 0.068,-0.089 0.136,-0.191 0.191,-0.306 m -1.194,-6.101 0,-1.644 c 0.44,-0.082 0.759,0.198 0.654,0.701 -0.083,0.406 -0.334,0.862 -0.654,0.943 m 0,-54.885 0,5.081 c -1.531,0.63 -3.355,0.69 -5.112,-0.691 l -0.141,-0.108 0,-5.197 c 0.32,-0.108 0.675,-0.087 1.017,0.062 1.972,0.871 2.629,0.657 4.151,0.871 l 0.085,-0.018 z m 0,53.241 0,1.644 c -0.171,0.044 -0.349,-0.021 -0.525,-0.251 -0.544,-0.653 -0.501,-1.063 0.205,-1.266 0.104,-0.061 0.214,-0.092 0.32,-0.127 m 0,9.778 0,4.132 c -0.114,-0.142 -0.237,-0.29 -0.349,-0.447 -0.646,-0.895 -0.26,-2.381 0.349,-3.685 m 0,7.025 0,2.829 c -0.679,-1.069 -0.891,-2.035 -0.161,-2.686 l 0.161,-0.143 z m -5.253,-87.887 0,-2.561 0.049,0.006 c 0.468,0.005 0.929,0.027 1.397,0.038 0.014,0.51 -0.12,1.074 -0.714,1.666 -0.298,0.291 -0.533,0.576 -0.732,0.851 m 2.772,67.327 c 0.611,-0.33 1.099,-0.039 0.977,0.574 -0.13,0.613 -0.656,1.347 -1.19,0.689 -0.531,-0.657 -0.489,-1.056 0.213,-1.263 m -41.655,-25.267 0.376,-0.005 c 2.186,0 0.583,-1.536 -0.376,-2.899 l 0,2.904 z m 38.883,-44.621 0,2.561 c -1.004,1.37 -0.965,2.263 -3.116,2.263 -2.565,0 3.116,4.033 0.187,4.033 -2.941,0 -3.854,3.672 -0.922,3.305 2.932,-0.368 2.752,0.92 -0.363,2.379 -3.119,1.469 -8.069,1.469 -9.537,3.853 -1.462,2.378 -6.969,2.198 -6.969,4.401 0,2.197 -0.92,10.275 -5.136,8.806 -4.218,-1.468 -5.127,-5.688 -6.79,-8.252 -1.646,-2.577 0.921,-5.328 -0.727,-6.237 -1.65,-0.915 3.666,-5.135 1.834,-3.848 -1.834,1.277 -4.762,-0.553 -2.198,-1.102 2.563,-0.547 1.652,-3.123 -0.187,-2.57 -1.383,0.406 -2.865,0 -2.499,-1.025 l 0.535,-0.274 c 1.108,-0.564 2.207,-1.09 3.323,-1.6 0.771,-0.344 1.57,-0.679 2.35,-1.007 0.349,-0.137 0.713,-0.286 1.062,-0.433 1.136,-0.45 2.301,-0.877 3.483,-1.272 6.924,-2.345 14.313,-3.709 21.982,-3.945 0.775,-0.027 1.558,-0.043 2.344,-0.043 0.453,-0.003 0.899,0.002 1.344,0.007 m 0,19.488 c -1.465,0.451 -2.338,3.218 0,5.197 l 0,-5.197 z m -38.883,122.301 0,-41.947 c 2.008,1.408 3.803,2.724 5.51,2.724 2.39,0 2.012,2.384 2.012,4.77 0,2.383 3.122,2.383 6.418,3.479 3.303,1.102 4.77,0.922 8.075,2.938 3.295,2.022 4.03,3.118 2.387,5.496 -1.655,2.391 -5.14,6.05 -5.328,9.54 -0.177,3.487 -2.383,6.786 -4.762,7.149 -2.385,0.365 -4.582,2.201 -4.582,3.857 0,1.643 -2.208,0.909 -2.386,4.032 -0.033,0.496 -0.129,1.02 -0.273,1.519 -1.37,-0.602 -2.733,-1.244 -4.065,-1.924 -1.017,-0.522 -2.031,-1.069 -3.006,-1.633 m 0,-90.975 0,-5.365 0.394,0.039 c 2.883,-0.138 3.288,2.054 4.112,3.841 0.829,1.792 0.275,3.573 -2.472,2.34 -0.794,-0.355 -1.488,-0.607 -2.034,-0.855 m -6.267,-3.809 c 0.525,0.473 0.848,0.646 1.317,-0.186 0.704,-1.233 2.088,-2.126 4.95,-2.198 l 0,-2.904 c -0.414,-0.575 -0.706,-1.118 -0.548,-1.507 0.555,-1.283 -2.196,-1.825 -3.659,-3.294 -1.075,-1.069 -1.168,-3.677 -2.061,-5.107 l 0,15.196 z m 6.267,-1.555 0,5.365 c -1.373,-0.597 -1.909,-1.14 -1.127,-2.992 1.012,-2.379 -0.05,-2.473 1.127,-2.373 m 0,54.392 0,41.947 -0.219,-0.127 c -2.075,-1.188 -4.095,-2.48 -6.049,-3.863 l 0,-40.911 c 1.126,0.132 2.368,0.489 3.709,1.277 0.884,0.519 1.749,1.112 2.559,1.677 m -6.267,-44.495 0,-2.374 c 1.475,-0.093 1.74,2.4 0.34,2.4 -0.122,0 -0.227,-0.01 -0.34,-0.026 m 0,-34.334 0,-2.287 c 0.64,1.01 0.742,2.079 0,2.287 m -2.385,32.13 c 0.076,-0.082 0.148,-0.18 0.227,-0.273 1.013,-1.288 0.63,-2.631 -0.227,-3.64 l 0,3.913 z m 0,-7.238 c 0.554,-0.066 1.032,-0.033 1.326,0.18 0.438,0.318 0.779,0.663 1.059,0.92 l 0,-15.196 c -0.338,-0.526 -0.777,-0.895 -1.428,-0.943 -0.438,-0.038 -0.74,0 -0.957,0.082 l 0,14.957 z m 2.385,-27.179 0,2.287 c -0.219,0.064 -0.506,0.054 -0.871,-0.05 -0.546,-0.158 -1.062,-0.241 -1.514,-0.246 l 0,-3.88 c 0.066,0.038 0.148,0.065 0.227,0.094 0.93,0.329 1.697,1.045 2.158,1.795 m 0,34.247 0,2.374 c -1.286,-0.274 -1.877,-2.044 -0.347,-2.303 0.122,-0.037 0.233,-0.06 0.347,-0.071 m 0,43.915 0,40.911 c -0.799,-0.568 -1.6,-1.155 -2.385,-1.758 l 0,-39.207 c 0.722,-0.044 1.52,-0.054 2.385,0.054 m -2.385,-7.973 0,-0.487 c 0.177,0.191 0.217,0.371 0,0.487 m 0,-32.67 c 0.082,0.006 0.17,0.022 0.244,0.022 1.041,0 0.854,-1.851 -0.244,-1.78 l 0,1.758 z m 0,-28.941 0,-3.399 c 1.023,1.332 0.761,2.736 0,3.399 m -3.513,28.311 c 1.072,-0.505 2.312,-1.069 3.513,-2.472 l 0,-3.913 c -0.846,-0.997 -2.158,-1.682 -3.07,-1.682 -1.42,0 1.211,-1.414 3.07,-1.644 l 0,-14.956 c -0.936,0.368 -0.121,1.667 -1.598,2.121 -0.835,0.241 -1.453,0.198 -1.915,-0.077 l 0,22.623 z m 3.513,-38.778 0,3.88 c -1.644,-0.039 -2.383,0.894 -0.506,2.631 0.195,0.174 0.363,0.367 0.506,0.558 l 0,3.399 c -0.434,0.361 -1.001,0.499 -1.598,0.263 -0.453,-0.175 -1.108,-0.444 -1.915,-0.741 l 0,-8.286 c 0.909,-0.784 1.832,-1.545 2.771,-2.285 0.208,0.235 0.441,0.427 0.742,0.581 m 0,37.65 0,1.758 c -0.959,-0.202 -1.388,-1.522 -0.262,-1.71 0.093,-0.025 0.177,-0.048 0.262,-0.048 m 0,33.941 0,0.487 c -0.16,0.087 -0.46,0.132 -0.936,0.113 -2.183,-0.092 -3.621,-1.418 -0.866,-1.237 0.751,0 1.491,0.323 1.802,0.637 m 0,8.406 0,39.207 c -1.201,-0.922 -2.367,-1.882 -3.513,-2.877 l 0,-36.161 c 0.743,-0.038 1.476,-0.126 2.087,-0.126 0.439,0 0.92,-0.027 1.426,-0.043 m -6.471,-38.352 c 0.348,-0.603 0.677,-1.249 1.195,-1.765 0.474,-0.472 1.089,-0.783 1.763,-1.102 l 0,-22.623 c -0.563,-0.339 -0.843,-1.024 -0.843,-1.945 0,-0.696 -0.877,-1.683 -2.115,-2.566 l 0,30.001 z m 2.958,-39.942 0,8.286 c -0.866,-0.322 -1.888,-0.689 -2.958,-1.041 l 0,-4.538 c 0.555,-0.526 1.098,-1.042 1.662,-1.545 0.423,-0.394 0.854,-0.772 1.285,-1.162 l 0.011,0 z m 0,78.463 0,36.161 c -0.433,-0.374 -0.866,-0.763 -1.296,-1.15 -0.564,-0.516 -1.107,-1.031 -1.662,-1.547 l 0,-34.034 c 0.677,0.597 1.822,0.631 2.958,0.57 m -2.958,-8.286 0,-2.51 c 0.186,-0.013 0.377,-0.022 0.592,-0.022 1.604,-0.102 1.418,2.559 -0.283,2.559 -0.102,-0.001 -0.205,-0.006 -0.309,-0.027 M 144.83,200.49 c 0.51,-0.438 0.847,-0.904 0.847,-1.42 0,-1.648 1.091,-6.231 3.12,-6.231 1.219,0 1.753,-0.81 2.281,-1.725 l 0,-30 c -1.418,-1.024 -3.325,-1.901 -4.916,-2.026 -0.438,0.521 -0.889,1.062 -1.332,1.594 l 0,39.808 z m 6.248,-46.61 0,4.538 c -1.146,-0.368 -2.347,-0.728 -3.468,-0.971 0.809,-0.899 1.646,-1.752 2.489,-2.604 0.32,-0.327 0.649,-0.639 0.979,-0.963 m 0,64.959 0,2.51 c -1.515,-0.246 -2.902,-2.279 0,-2.51 m 0,10.225 0,34.034 -0.582,-0.58 c -0.81,-0.972 -1.729,-2.227 -2.772,-2.872 l -0.122,-0.153 c -0.955,-1.042 -1.877,-2.105 -2.771,-3.205 l 0,-26.592 c 0.8,0.043 1.544,-0.007 2.125,-0.368 1.464,-0.921 2.94,-2.75 3.661,-0.921 0.112,0.275 0.275,0.488 0.461,0.657 m -6.248,-10.998 0,-1.475 c 1.496,0.291 2.397,1.562 0.762,1.562 -0.252,0 -0.518,-0.033 -0.762,-0.087 m 0,-4.483 0,-2.039 c 1.673,0.871 2.734,3.104 1.438,2.334 -0.543,-0.316 -1.015,-0.357 -1.438,-0.295 m -4.656,-3.168 c 0.629,0.324 0.91,-0.195 0.91,-1.623 0,-2.57 -0.725,-4.032 0.188,-5.5 0.62,-1.007 2.473,-1.843 3.558,-2.802 l 0,-39.809 c -0.262,0.329 -0.518,0.653 -0.769,0.977 -0.557,0.706 -1.11,1.435 -1.644,2.174 0.066,0.642 0.195,1.283 0.325,1.869 0.541,2.565 1.825,4.39 0.372,4.39 -1.486,0 -1.486,2.209 -1.666,5.689 -0.094,1.764 -0.695,1.512 -1.275,0.608 l 0,34.027 z m 4.656,1.129 0,2.039 c -0.834,0.127 -1.491,0.669 -2.177,0.295 -1.045,-0.575 -0.761,-2.381 0.947,-2.656 0.423,0 0.845,0.119 1.23,0.322 m 0,5.048 0,1.475 c -1.491,-0.335 -2.394,-1.534 -0.753,-1.534 0.257,-0.008 0.509,0.015 0.753,0.059 m 0,13.104 0,26.592 -0.084,-0.117 c 0,-0.208 0,-0.423 0,-0.619 0,-1.441 -3.063,-3.848 -4.572,-5.903 l 0,-7.76 c 0.063,-0.031 0.12,-0.058 0.176,-0.087 2.021,-0.915 1.1,-3.678 3.12,-4.221 2.01,-0.553 0.73,-2.751 0,-4.214 -0.394,-0.789 -1.861,-0.728 -3.296,-0.728 l 0,-2.892 c 0.438,0.111 0.871,0.101 1.275,-0.052 0.891,-0.328 2.18,-0.06 3.381,0.001 m -4.656,-13.476 0,-1.902 c 1.649,0.355 2.562,2.198 0.662,2.029 -0.224,-0.018 -0.446,-0.074 -0.662,-0.127 m -10.746,-23.019 c -0.252,1.218 -0.481,2.472 -0.675,3.727 -0.188,1.256 -0.356,2.526 -0.483,3.798 -0.205,2.067 -0.334,4.142 -0.373,6.252 0.893,0.056 1.777,0.117 2.544,-0.207 1.845,-0.736 5.327,-1.644 7.524,1.287 0.986,1.298 1.708,2.094 2.209,2.356 l 0,-34.027 c -0.563,-0.866 -1.109,-2.352 -1.109,-3.172 0,-0.692 -0.61,-1.217 -1.574,-1.7 -0.453,0.807 -0.887,1.611 -1.31,2.428 -0.282,0.554 -0.555,1.107 -0.816,1.651 -0.809,1.659 -1.541,3.353 -2.216,5.08 -0.236,0.569 -0.462,1.146 -0.661,1.737 -0.852,2.319 -1.595,4.698 -2.213,7.119 -0.319,1.205 -0.593,2.438 -0.847,3.671 m 10.746,21.116 0,1.902 c -1.684,-0.521 -2.583,-2.215 -0.563,-1.968 0.207,0.001 0.385,0.033 0.563,0.066 m 0,15.431 c -1.157,-0.26 -2.33,-1.291 -3.121,-2.621 -1.1,-1.833 0.733,-3.854 -2.019,-3.854 -2.749,0 -0.817,-6.143 -0.817,-7.974 0,-1.744 -3.72,1.393 -5.673,3.281 0.075,0.49 0.144,0.981 0.209,1.46 0.193,1.254 0.423,2.502 0.675,3.737 0.091,0.46 0.189,0.909 0.281,1.353 1.005,0.594 2.037,1.074 3.316,1.074 3.107,0 3.297,4.225 4.216,5.685 0.426,0.689 1.663,0.738 2.933,0.751 l 0,-2.892 z m 0,12.141 0,7.76 c -0.217,-0.301 -0.414,-0.596 -0.557,-0.88 -1.059,-2.132 -1.267,-5.822 0.557,-6.88" />
    </g>
    <g
       transform="matrix(0.87675877,0,0,0.86947885,93.438145,696.56706)"
       id="g11">
      <rect
         style="clip-rule:evenodd;fill:#ededed;fill-rule:evenodd"
         id="rect13"
         height="122.41"
         width="100.222"
         transform="matrix(-0.9467,0.322,-0.322,-0.9467,285.8239,370.6135)"
         y="147.73801"
         x="62.153" />
      <polygon
         style="clip-rule:evenodd;fill:#dad9d9;fill-rule:evenodd"
         id="polygon15"
         points="94.279,174.187 92.415,168.714 65.31,177.933 67.167,183.406 " />
      <polygon
         style="clip-rule:evenodd;fill:#dad9d9;fill-rule:evenodd"
         id="polygon17"
         points="136.312,171.729 134.462,166.267 68.652,188.643 70.512,194.11 " />
      <polygon
         style="clip-rule:evenodd;fill:#dad9d9;fill-rule:evenodd"
         id="polygon19"
         points="139.779,181.91 137.92,176.444 72.113,198.823 73.978,204.286 " />
      <rect
         style="clip-rule:evenodd;fill:#dad9d9;fill-rule:evenodd"
         id="rect21"
         height="5.777"
         width="69.501999"
         transform="matrix(-0.9468,0.322,-0.322,-0.9468,277.5634,355.1963)"
         y="197.662"
         x="74.658997" />
      <rect
         style="clip-rule:evenodd;fill:#dad9d9;fill-rule:evenodd"
         id="rect23"
         height="5.7690001"
         width="69.502998"
         transform="matrix(-0.9467,0.322,-0.322,-0.9467,287.584,373.8976)"
         y="207.84801"
         x="78.117996" />
      <rect
         style="clip-rule:evenodd;fill:#dad9d9;fill-rule:evenodd"
         id="rect25"
         height="5.7729998"
         width="69.504997"
         transform="matrix(-0.9467,0.322,-0.322,-0.9467,297.6093,392.6045)"
         y="218.028"
         x="81.583" />
      <rect
         style="clip-rule:evenodd;fill:#dad9d9;fill-rule:evenodd"
         id="rect27"
         height="5.776"
         width="69.5"
         transform="matrix(-0.9468,0.322,-0.322,-0.9468,307.6182,411.3155)"
         y="228.20599"
         x="85.046997" />
    </g>
    <g
       transform="matrix(0.87675877,0,0,0.86947885,93.438145,696.56706)"
       id="g29">
      <path
         style="fill:#d71e00"
         inkscape:connector-curvature="0"
         id="path31"
         d="m 221.443,270.184 -65.374,0 c -3.452,0 -6.278,-2.832 -6.278,-6.291 l 0,-93.283 c 0,-3.455 2.826,-6.283 6.278,-6.283 l 46.439,0 25.219,25.521 0,74.044 c 0.001,3.46 -2.829,6.292 -6.284,6.292" />
      <polygon
         style="fill:#9e110a"
         id="polygon33"
         points="227.728,213.607 227.728,189.849 204.216,187.922 " />
      <path
         style="fill:#f46a60"
         inkscape:connector-curvature="0"
         id="path35"
         d="m 227.728,189.849 -19.196,0 c -3.256,0 -6.022,-2.87 -6.022,-6.125 l 0,-19.396 25.218,25.521 z" />
      <g
         id="g37">
        <g
           id="g39">
          <path
             style="clip-rule:evenodd;fill:#ffffff;fill-rule:evenodd"
             inkscape:connector-curvature="0"
             id="path41"
             d="m 172.234,229.665 c -5.629,4.209 -9.504,10.178 -7.973,11.116 l -1.336,-0.674 c -0.778,-0.945 0.982,-6.008 9.309,-10.442" />
          <path
             style="fill:#ffffff"
             inkscape:connector-curvature="0"
             id="path43"
             d="m 164.18,240.942 -1.393,-0.721 c -0.213,-0.258 -0.264,-0.699 -0.149,-1.278 0.448,-2.256 3.207,-6.081 9.512,-9.438 l 0.192,0.305 c -4.741,3.545 -8.319,8.447 -8.234,10.299 0.012,0.253 0.092,0.422 0.249,0.519 l -0.177,0.314 z m -1.134,-0.978 0.724,0.366 c -0.012,-0.063 -0.02,-0.131 -0.023,-0.203 -0.08,-1.729 2.623,-5.722 6.572,-9.147 -5.106,3.191 -7.016,6.469 -7.325,8.033 -0.086,0.425 -0.066,0.776 0.052,0.951 z" />
        </g>
        <g
           id="g45">
          <path
             style="fill:#ffffff"
             inkscape:connector-curvature="0"
             id="path47"
             d="m 214.519,224.957 c 1.647,-3.497 -5.369,-4.705 -14.921,-3.594 -1.675,-0.948 -3.307,-2.017 -4.787,-3.192 -3.674,-3.02 -6.38,-8.073 -8.054,-13.151 0.763,-4.243 0.713,-7.857 0.796,-11.757 -0.365,1.781 -0.625,4.748 -1.621,8.974 -1.291,-4.934 -1.57,-9.524 -0.782,-11.823 0.171,-0.496 0.579,-1.09 0.763,-1.219 0.722,0.358 1.589,1.24 1.782,3.085 0.643,-3.409 -1.021,-3.288 -1.487,-3.288 l -1.047,-0.007 c -0.584,0 -1.104,0.466 -1.354,1.411 -0.861,3.216 -0.453,9.021 1.332,14.855 -1.11,3.886 -2.832,8.611 -5.617,14.223 -7.494,15.084 -12.958,22.114 -16.596,20.633 l 1.303,0.669 c 2.42,1.239 6.576,-2.045 13.111,-13.349 6.148,-2.224 14.333,-3.851 21.457,-4.563 7.021,3.758 15.081,5.049 15.489,2.631 -1.817,0.875 -7.039,-0.341 -12.32,-2.893 7.227,-0.461 12.691,0.188 12.553,2.355 m -37.118,2.354 c 1.145,-1.973 2.349,-4.178 3.645,-6.656 2.593,-5.019 4.132,-9.082 5.052,-12.646 1.672,4.334 4.123,8.458 7.412,11.294 1.027,0.881 2.158,1.69 3.338,2.431 -6.216,0.965 -13.188,2.823 -19.447,5.577" />
          <path
             style="fill:#ffffff"
             inkscape:connector-curvature="0"
             id="path49"
             d="m 165.266,241.204 c -0.398,0 -0.774,-0.091 -1.119,-0.267 l -1.303,-0.67 0.151,-0.328 c 0.294,0.119 0.605,0.181 0.926,0.181 0,0 0,0 0.001,0 3.46,-0.002 8.51,-6.78 15.438,-20.727 2.416,-4.866 4.297,-9.624 5.591,-14.142 -1.717,-5.635 -2.235,-11.48 -1.317,-14.902 0.259,-0.982 0.815,-1.545 1.527,-1.545 l 1.047,0.006 0.107,0 c 0.229,0 0.84,0 1.265,0.512 0.463,0.559 0.563,1.565 0.294,2.989 l -0.179,0.949 0.04,0.004 c -0.012,0.535 -0.021,1.063 -0.029,1.589 -0.057,3.34 -0.109,6.496 -0.763,10.151 1.895,5.725 4.728,10.35 7.983,13.025 1.383,1.098 2.968,2.156 4.711,3.146 2.264,-0.262 4.387,-0.395 6.313,-0.395 4.7,0 7.791,0.791 8.701,2.228 0.374,0.59 0.385,1.272 0.031,2.024 l -0.218,0.491 c -0.105,0.629 -0.711,1.379 -2.991,1.379 -3.285,0 -8.386,-1.547 -12.714,-3.854 -7.592,0.764 -15.543,2.454 -21.297,4.526 -5.233,9.044 -9.336,13.63 -12.196,13.63 z m -1.221,-0.725 0.268,0.137 c 0.292,0.15 0.613,0.227 0.953,0.227 1.855,0 5.388,-2.293 11.71,-13.146 l -0.009,0.004 0.278,-0.479 c 1.123,-1.937 2.313,-4.111 3.64,-6.65 2.398,-4.642 4.047,-8.766 5.038,-12.607 l 0.142,-0.546 0.201,0.526 c 1.845,4.779 4.391,8.66 7.363,11.222 0.964,0.827 2.079,1.64 3.314,2.414 l 0.411,0.258 -0.479,0.074 c -5.438,0.846 -10.979,2.297 -15.952,4.163 5.288,-1.547 11.692,-2.773 17.857,-3.391 l 0.054,-0.005 0.049,0.026 c 4.289,2.296 9.349,3.838 12.591,3.838 0.792,0 2.064,-0.104 2.498,-0.738 -0.361,0.102 -0.805,0.152 -1.323,0.152 -2.563,0 -6.686,-1.223 -10.761,-3.191 l -0.62,-0.299 0.688,-0.044 c 1.463,-0.094 2.848,-0.142 4.115,-0.142 3.059,0 6.969,0.28 8.221,1.614 0.109,0.116 0.197,0.24 0.263,0.368 0.063,-0.388 -0.006,-0.742 -0.207,-1.061 -0.83,-1.308 -3.892,-2.059 -8.396,-2.059 -1.928,0 -4.06,0.134 -6.331,0.397 l -0.058,0.008 -0.052,-0.029 c -1.779,-1.006 -3.398,-2.086 -4.812,-3.208 -3.317,-2.728 -6.198,-7.428 -8.113,-13.236 l -0.015,-0.043 0.008,-0.045 c 0.596,-3.317 0.694,-6.225 0.749,-9.234 -0.248,1.647 -0.591,3.855 -1.219,6.525 l -0.167,0.708 -0.184,-0.704 c -1.281,-4.891 -1.587,-9.573 -0.779,-11.927 0.146,-0.427 0.464,-0.934 0.697,-1.186 l -0.518,-0.004 c -0.533,0 -0.962,0.465 -1.176,1.276 -0.891,3.321 -0.355,9.25 1.33,14.755 l 0.015,0.052 -0.014,0.051 c -1.302,4.553 -3.195,9.349 -5.631,14.254 -6.914,13.92 -12.032,20.769 -15.637,20.925 z m 22.086,-31.891 c -1.009,3.716 -2.623,7.696 -4.925,12.148 -1.222,2.34 -2.328,4.37 -3.373,6.19 5.561,-2.391 12.095,-4.26 18.515,-5.298 -1.091,-0.706 -2.084,-1.441 -2.956,-2.189 -2.91,-2.507 -5.413,-6.252 -7.261,-10.851 z m 16.551,14.153 c 3.816,1.77 7.588,2.854 9.967,2.854 0.67,0 1.195,-0.089 1.56,-0.264 l 0.108,-0.052 0.021,-0.334 c 0.019,-0.298 -0.082,-0.56 -0.311,-0.804 -0.908,-0.967 -3.734,-1.499 -7.957,-1.499 -1.054,0.002 -2.192,0.035 -3.388,0.099 z m -16.743,-33.326 c -0.172,0.186 -0.479,0.648 -0.619,1.058 -0.746,2.177 -0.505,6.436 0.604,10.994 0.544,-2.432 0.838,-4.386 1.079,-5.983 0.132,-0.881 0.247,-1.643 0.372,-2.256 l 0.24,0.026 -0.101,-0.955 c -0.189,-1.811 -1.024,-2.574 -1.575,-2.884 z m 0.301,-0.242 c 0.473,0.3 1.076,0.881 1.414,1.979 0.035,-0.736 -0.083,-1.271 -0.354,-1.598 -0.281,-0.338 -0.674,-0.382 -0.986,-0.382 l -0.074,0.001 z" />
        </g>
      </g>
    </g>
    <g
       transform="matrix(0.87675877,0,0,0.86947885,93.438145,696.56706)"
       id="g51">
      <path
         style="fill:#06aaff"
         inkscape:connector-curvature="0"
         id="path53"
         d="m 270.314,112.332 c -0.073,-0.736 -0.735,-1.363 -1.471,-1.392 -16.009,-0.698 -32.018,-0.698 -48.025,0 -0.735,0.029 -1.399,0.656 -1.474,1.392 -0.996,10.17 -0.996,20.338 0,30.509 0.074,0.738 0.738,1.363 1.474,1.395 4.163,0.18 16.017,0.166 16.017,0.166 0,0 2.203,-11.458 8.317,-11.458 5.825,0 7.848,11.458 7.848,11.458 0,0 9.385,0.085 13.47,-0.077 0.789,-0.031 1.58,-0.056 2.374,-0.089 0.735,-0.032 1.397,-0.657 1.471,-1.395 0.998,-10.171 0.998,-20.339 -10e-4,-30.509" />
      <path
         style="fill:#ffffff"
         inkscape:connector-curvature="0"
         id="path55"
         d="m 230.891,133.22 c -3.843,0 -6.956,-3.113 -6.956,-6.954 0,-3.84 3.113,-6.956 6.956,-6.956 3.838,0 6.95,3.116 6.95,6.956 0,3.841 -3.112,6.954 -6.95,6.954" />
      <path
         style="fill:#ffffff"
         inkscape:connector-curvature="0"
         id="path57"
         d="m 258.772,133.22 c -3.841,0 -6.953,-3.113 -6.953,-6.954 0,-3.84 3.112,-6.956 6.953,-6.956 3.841,0 6.956,3.116 6.956,6.956 10e-4,3.841 -3.115,6.954 -6.956,6.954" />
      <polygon
         style="fill:#262626"
         id="polygon59"
         points="282.098,115.903 286.686,130.815 286.745,130.815 291.584,115.903 297.349,115.903 289.535,138.938 283.645,138.938 275.83,115.903 " />
      <path
         style="fill:#262626"
         inkscape:connector-curvature="0"
         id="path61"
         d="m 299.794,115.903 8.962,0 c 5.894,0 9.488,1.954 9.488,7.472 0,3.596 -1.521,5.673 -4.527,6.698 l 4.867,8.773 -6.571,0 -4.437,-7.969 -1.705,0 0,7.969 -6.077,0 0,-22.943 z m 8.747,10.261 c 2.541,0 3.656,-0.712 3.656,-2.634 0,-1.922 -1.115,-2.605 -3.656,-2.605 l -2.67,0 0,5.239 2.67,0 z" />
    </g>
    <g
       transform="matrix(0.87675877,0,0,0.86947885,93.438145,696.56706)"
       id="g63">
      <path
         style="fill:#d02d2b"
         inkscape:connector-curvature="0"
         id="path65"
         d="m 273.336,63.142 c 0,0 12.307,0.135 15.467,0.405 3.16,0.27 3.614,0.36 5.004,1.2 1.39,0.842 2.084,2.594 2.522,4.147 0.437,1.554 0.731,6.812 0.706,10.305 -0.029,3.489 -0.121,8.21 -0.662,10.398 -0.54,2.187 -1.002,3.088 -2.166,4.134 -1.166,1.042 -2.848,1.443 -6.059,1.583 -3.211,0.142 -10.815,0.32 -12.599,0.34 -1.786,0.021 -6.562,-0.078 -8.385,-0.119 -1.825,-0.039 -7.344,-0.242 -8.347,-0.301 -1.004,-0.06 -3.449,-0.241 -4.975,-1.325 -1.525,-1.083 -2.027,-3.067 -2.207,-3.652 -0.181,-0.579 -0.463,-2.367 -0.603,-3.789 -0.139,-1.425 -0.221,-5.918 -0.221,-6.683 0,-0.76 0,-6.177 0.322,-8.225 0.32,-2.045 0.421,-4.453 2.267,-6.278 1.846,-1.826 4.354,-1.685 6.6,-1.826 2.249,-0.141 11.805,-0.247 13.336,-0.314" />
      <polygon
         style="fill:#ffffff"
         id="polygon67"
         points="269.032,72.396 281.417,78.893 269.032,85.45 " />
      <polygon
         style="fill:#e5deda"
         id="polygon69"
         points="269.032,72.396 281.417,78.893 279.945,79.671 " />
    </g>
    <g
       transform="matrix(0.87675877,0,0,0.86947885,93.438145,696.56706)"
       id="g71">
      <polygon
         style="fill:#00a661"
         id="polygon73"
         points="233.507,195.377 243.929,221.08 277.044,178.944 266.436,153.116 " />
      <polygon
         style="fill:#067ee4"
         id="polygon75"
         points="299.697,229.453 316.381,208.104 287.948,204.303 262.146,200.854 246.797,220.385 245.375,222.191 " />
      <polygon
         style="fill:#ffcc5f"
         id="polygon77"
         points="296.285,156.19 268.141,152.428 268.123,152.426 279.107,179.177 288.711,202.565 316.646,206.298 " />
    </g>
    <polygon
       transform="matrix(0.87675877,0,0,0.86947885,93.438145,696.56706)"
       style="fill:#dad9d9"
       id="polygon79"
       points="14.402,171.032 16.271,167.239 18.144,171.032 22.332,171.641 19.3,174.595 20.019,178.762 16.271,176.794 12.527,178.762 13.243,174.595 10.213,171.641 " />
    <polygon
       transform="matrix(0.87675877,0,0,0.86947885,93.438145,696.56706)"
       style="fill:#dad9d9"
       id="polygon81"
       points="126.018,13.262 127.886,9.465 129.762,13.262 133.944,13.87 130.916,16.821 131.634,20.991 127.886,19.023 124.145,20.991 124.857,16.821 121.83,13.87 " />
    <g
       transform="matrix(0.87675877,0,0,0.86947885,93.438145,696.56706)"
       id="g83">
      <path
         style="fill:#efefef"
         inkscape:connector-curvature="0"
         id="path85"
         d="m 48.742,155.787 c 0.305,-0.304 0.09,-2.047 -0.309,-3.979 l -3.73,3.729 c 1.967,0.368 3.731,0.556 4.039,0.25 z" />
      <path
         style="fill:#efefef"
         inkscape:connector-curvature="0"
         id="path87"
         d="m 46.699,146.04 -1.382,-1.382 -7.838,7.838 1.38,1.382 c 0.255,0.251 1.529,0.668 3.094,1.057 l 5.838,-5.843 c -0.412,-1.536 -0.84,-2.799 -1.092,-3.052 z" />
      <path
         style="fill:#efefef"
         inkscape:connector-curvature="0"
         id="path89"
         d="m 20.125,119.467 c -0.7,-0.702 -1.837,-0.702 -2.537,0 l -5.303,5.302 c -0.701,0.699 -0.701,1.834 0,2.537 l 3.194,3.192 7.837,-7.838 -3.191,-3.193 z" />
      <rect
         style="fill:#efefef"
         id="rect91"
         height="11.082"
         width="26.357"
         transform="matrix(-0.7071,-0.7071,0.7071,-0.7071,-45.3932,256.3513)"
         y="132.036"
         x="17.219999" />
    </g>
    <g
       transform="matrix(0.87675877,0,0,0.86947885,93.438145,696.56706)"
       id="g93">
      <path
         style="fill:#efefef"
         inkscape:connector-curvature="0"
         id="path95"
         d="m 349.787,147.43 -12.977,-8.804 c -0.209,-0.14 -0.44,-0.205 -0.672,-0.205 -0.381,0 -0.757,0.181 -0.988,0.521 l -16.321,21.237 c -0.186,0.285 -0.239,0.619 -0.169,0.927 l -0.034,0.014 c 0,0 0.969,3.424 0.969,4.47 0,1.048 0,5.709 0,5.709 l 7.8,5.131 c 0,0 3.829,-2.833 5.987,-3.326 1.027,-0.235 1.652,-0.389 2.036,-0.484 0.382,-0.003 0.75,-0.185 0.979,-0.523 l 13.708,-23.009 c 0.369,-0.545 0.228,-1.286 -0.318,-1.658 z m -14.963,21.368 -12.342,-8.374 14.062,-18.302 10.089,6.845 -11.809,19.831 z" />
      <polygon
         style="fill:#efefef"
         id="polygon97"
         points="322.855,180.286 325.049,177.654 319.595,174.151 315.108,180.286 " />
    </g>
    <polygon
       transform="matrix(0.87675877,0,0,0.86947885,93.438145,696.56706)"
       style="fill:#dad9d9"
       id="polygon99"
       points="332.592,201.278 334.469,197.484 336.337,201.278 340.526,201.886 337.498,204.84 338.207,209.008 334.469,207.039 330.722,209.008 331.438,204.84 328.41,201.886 " />
    <path
       style="fill:#c9c9c9"
       inkscape:connector-curvature="0"
       id="path101"
       d="m 373.64586,761.57016 c 0,1.33639 -1.09332,2.41802 -2.43651,2.41802 -1.34846,0 -2.43651,-1.08163 -2.43651,-2.41802 0,-1.33291 1.08805,-2.41454 2.43651,-2.41454 1.34319,-8.7e-4 2.43651,1.08163 2.43651,2.41454 z" />
    <path
       style="fill:#efefef"
       inkscape:connector-curvature="0"
       id="path103"
       d="m 127.40115,867.6918 c 0,2.17021 -1.77719,3.93091 -3.96383,3.93091 -2.19014,0 -3.96295,-1.7607 -3.96295,-3.93091 0,-2.17457 1.77193,-3.93266 3.96295,-3.93266 2.18664,-8.7e-4 3.96383,1.75809 3.96383,3.93266 z" />
    <g
       transform="matrix(0.87675877,0,0,0.86947885,93.438145,696.56706)"
       id="g105">
      <path
         style="fill:#f4b400"
         inkscape:connector-curvature="0"
         id="path107"
         d="m 136.496,116.021 -47.865,0 c -3.775,0 -6.854,3.087 -6.854,6.861 l 0,81.155 c 0,3.773 3.078,6.859 6.854,6.859 l 64.419,0 c 3.774,0 6.858,-3.085 6.858,-6.859 l 0,-64.602 -23.412,-23.414 z" />
      <polygon
         style="fill:#ffe168"
         id="polygon109"
         points="136.449,116.021 136.449,139.438 159.903,139.438 " />
      <polygon
         style="fill:#d69e00"
         id="polygon111"
         points="136.691,139.435 159.908,139.435 159.908,162.41 " />
      <path
         style="fill:#ffffff"
         inkscape:connector-curvature="0"
         id="path113"
         d="m 142.735,188.66 -28.991,0 c -2.479,0 -4.511,-2.029 -4.511,-4.512 l 0,-27.304 c 0,-2.487 2.031,-4.513 4.511,-4.513 l 28.991,0 c 2.479,0 4.509,2.026 4.509,4.513 l 0,27.304 c 0,2.483 -2.029,4.512 -4.509,4.512" />
      <rect
         style="fill:#f4b400"
         id="rect115"
         height="22.375999"
         width="31.033001"
         y="159.308"
         x="112.602" />
      <path
         style="fill:#ffffff"
         inkscape:connector-curvature="0"
         id="path117"
         d="m 127.938,174.587 -28.995,0 c -2.479,0 -4.508,-2.028 -4.508,-4.508 l 0,-27.312 c 0,-2.479 2.029,-4.509 4.508,-4.509 l 28.994,0 c 2.482,0 4.508,2.03 4.508,4.509 l 0,27.312 c 0,2.48 -2.025,4.508 -4.507,4.508" />
      <rect
         style="fill:#f4b400"
         id="rect119"
         height="22.375999"
         width="31.035"
         y="145.229"
         x="97.805" />
    </g>
    <polygon
       transform="matrix(0.87675877,0,0,0.86947885,93.438145,696.56706)"
       style="fill:#fdd776"
       id="polygon121"
       points="186.1,403.577 186.1,258.306 310.303,216.578 310.303,361.85 " />
    <polygon
       transform="matrix(0.87675877,0,0,0.86947885,93.438145,696.56706)"
       style="fill:#f0b94b"
       id="polygon123"
       points="186.1,403.577 186.1,258.306 61.896,216.578 61.896,361.85 " />
    <polygon
       transform="matrix(0.87675877,0,0,0.86947885,93.438145,696.56706)"
       style="fill:#06aaff"
       id="polygon125"
       points="186.1,403.577 186.1,258.306 310.303,216.578 310.303,361.85 " />
    <polygon
       transform="matrix(0.87675877,0,0,0.86947885,93.438145,696.56706)"
       style="fill:#00a2ea"
       id="polygon127"
       points="186.1,403.577 186.1,258.306 61.896,216.578 61.896,361.85 " />
    <polygon
       transform="matrix(0.87675877,0,0,0.86947885,93.438145,696.56706)"
       style="fill:#0097cc"
       id="polygon129"
       points="310.303,239.759 310.303,268.41 211.604,301.569 186.1,274.535 186.1,258.306 " />
    <polygon
       transform="matrix(0.87675877,0,0,0.86947885,93.438145,696.56706)"
       style="fill:#0097cc"
       id="polygon131"
       points="61.896,239.759 61.896,265.314 162.919,299.251 186.1,274.535 186.1,258.306 " />
    <polygon
       transform="matrix(0.87675877,0,0,0.86947885,93.438145,696.56706)"
       style="fill:#06aaff"
       id="polygon133"
       points="211.604,285.342 186.1,258.306 310.303,216.578 335.808,243.614 " />
    <polygon
       transform="matrix(0.87675877,0,0,0.86947885,93.438145,696.56706)"
       style="fill:#00a2ea"
       id="polygon135"
       points="162.919,283.023 186.1,258.306 61.896,216.578 38.715,241.296 " />
    <g
       transform="matrix(0.87675877,0,0,0.86947885,93.438145,696.56706)"
       id="g137">
      <path
         style="fill:#ffffff"
         inkscape:connector-curvature="0"
         id="path139"
         d="m 245.074,25.639 c -6.228,1.897 -9.745,8.509 -7.844,14.731 1.895,6.224 8.501,9.746 14.728,7.847 6.228,-1.902 9.746,-8.512 7.853,-14.732 -1.905,-6.227 -8.51,-9.748 -14.737,-7.846 z" />
      <path
         style="fill:#efefef"
         inkscape:connector-curvature="0"
         id="path141"
         d="m 258.212,18.939 -37.877,11.553 c -1.423,0.433 -2.222,1.937 -1.788,3.358 l 6.596,21.628 c 0.435,1.423 1.938,2.222 3.357,1.788 l 37.878,-11.553 c 1.421,-0.434 2.222,-1.936 1.785,-3.356 l -6.595,-21.628 c -0.435,-1.42 -1.939,-2.223 -3.356,-1.79 z m -6.261,27.396 c -5.568,1.696 -11.455,-1.441 -13.153,-7.005 -1.697,-5.568 1.438,-11.458 7.004,-13.154 5.566,-1.698 11.454,1.437 13.155,7.004 1.694,5.567 -1.441,11.458 -7.006,13.155 z" />
      <path
         style="fill:#efefef"
         inkscape:connector-curvature="0"
         id="path143"
         d="m 251.507,15.229 -7.825,2.385 c -1.758,1.449 -2.763,3.339 -2.6,5.151 l 15.456,-4.715 c -0.877,-1.594 -2.763,-2.605 -5.031,-2.821 z" />
      <path
         style="fill:#efefef"
         inkscape:connector-curvature="0"
         id="path145"
         d="m 247.187,30.715 c -3.06,0.932 -4.784,4.176 -3.852,7.231 0.931,3.055 4.175,4.783 7.229,3.852 3.059,-0.934 4.785,-4.177 3.855,-7.231 -0.935,-3.057 -4.178,-4.786 -7.232,-3.852 z" />
    </g>
    <g
       transform="matrix(0.87675877,0,0,0.86947885,93.438145,696.56706)"
       id="g147">
      <rect
         style="fill:#ffc112"
         id="rect149"
         height="70.986"
         width="70.987999"
         y="40.252998"
         x="140.207" />
      <rect
         style="fill:#21a465"
         id="rect151"
         height="59.404999"
         width="59.400002"
         y="46.044998"
         x="145.99899" />
      <rect
         style="fill:#f1f1f1"
         id="rect153"
         height="3.5610001"
         width="16.313"
         y="101.889"
         x="181.883" />
      <path
         style="fill:#57bb8a"
         inkscape:connector-curvature="0"
         id="path155"
         d="m 194.48,71.535 c 0,2.301 -1.865,4.168 -4.164,4.168 -2.305,0 -4.166,-1.868 -4.166,-4.168 0,-2.298 1.861,-4.164 4.166,-4.164 2.299,0 4.164,1.865 4.164,4.164" />
      <path
         style="fill:#57bb8a"
         inkscape:connector-curvature="0"
         id="path157"
         d="m 198.891,83.55 0,2.629 -19.683,0.037 0,-2.666 c 0,-3.1 4.404,-5.613 9.839,-5.613 5.437,0 9.844,2.513 9.844,5.613" />
      <path
         style="fill:#57bb8a"
         inkscape:connector-curvature="0"
         id="path159"
         d="m 165.684,71.535 c 0,2.301 -1.865,4.168 -4.168,4.168 -2.299,0 -4.162,-1.868 -4.162,-4.168 0,-2.298 1.863,-4.164 4.162,-4.164 2.302,0 4.168,1.865 4.168,4.164" />
      <path
         style="fill:#57bb8a"
         inkscape:connector-curvature="0"
         id="path161"
         d="m 172.866,83.55 0,2.629 -19.687,0.037 0,-2.666 c 0,-3.1 4.41,-5.613 9.845,-5.613 5.432,0 9.842,2.513 9.842,5.613" />
      <path
         style="fill:#f7f7f7"
         inkscape:connector-curvature="0"
         id="path163"
         d="m 180.988,66.643 c 0,2.922 -2.368,5.295 -5.291,5.295 -2.927,0 -5.289,-2.373 -5.289,-5.295 0,-2.921 2.362,-5.291 5.289,-5.291 2.923,0 5.291,2.37 5.291,5.291" />
      <path
         style="fill:#f7f7f7"
         inkscape:connector-curvature="0"
         id="path165"
         d="m 188.54,82.829 0,3.34 -25.009,0.046 0,-3.386 c 0,-3.937 5.599,-7.131 12.504,-7.131 6.906,0 12.505,3.195 12.505,7.131" />
    </g>
    <g
       transform="matrix(0.87675877,0,0,0.86947885,93.438145,696.56706)"
       id="g167">
      <path
         style="fill:#027ee7"
         inkscape:connector-curvature="0"
         id="path169"
         d="m 115.93,87.6 c -0.09,-0.046 -0.201,-0.043 -0.289,0.012 l -4.669,3.454 -11.622,-9.833 c -0.109,-0.091 -0.262,-0.091 -0.365,0 L 87.34,91.072 82.326,87.607 c -0.085,-0.05 -0.199,-0.053 -0.283,-0.002 -0.09,0.05 -0.143,0.144 -0.143,0.246 l 0,3.429 c 0,0.103 0.049,0.195 0.135,0.245 l 16.986,10.185 c 0.044,0.028 0.095,0.04 0.143,0.04 0.051,0 0.105,-0.011 0.149,-0.04 l 16.625,-10.185 c 0.086,-0.052 0.137,-0.146 0.137,-0.245 l 0,-3.429 c 0,-0.103 -0.056,-0.199 -0.145,-0.251" />
      <path
         style="fill:#027ee7"
         inkscape:connector-curvature="0"
         id="path171"
         d="m 128.145,59.319 c 0.074,-0.057 0.113,-0.145 0.111,-0.236 -0.004,-0.092 -0.051,-0.176 -0.128,-0.227 L 111.295,47.807 c -0.104,-0.071 -0.242,-0.063 -0.335,0.02 L 99.133,57.8 87.398,47.828 c -0.094,-0.082 -0.23,-0.09 -0.341,-0.02 L 70.201,58.857 c -0.072,0.05 -0.121,0.134 -0.124,0.227 -0.003,0.091 0.036,0.176 0.106,0.233 l 11.822,9.212 0.042,0.013 c -0.013,0.007 -0.03,0.007 -0.03,0.007 l -11.829,9.026 c -0.075,0.056 -0.114,0.144 -0.111,0.235 0.003,0.095 0.052,0.176 0.128,0.228 l 17.14,11.056 c 0.048,0.027 0.101,0.046 0.155,0.046 0.063,0 0.131,-0.024 0.183,-0.067 L 99.17,79.344 c 0.016,-0.009 0.021,-0.028 0.032,-0.043 l 0.004,0.002 11.563,9.771 c 0.053,0.042 0.116,0.067 0.181,0.067 0.057,0 0.11,-0.019 0.158,-0.047 l 16.731,-10.96 c 0.078,-0.05 0.124,-0.133 0.131,-0.223 0.003,-0.094 -0.035,-0.179 -0.108,-0.237 l -11.608,-9.115 c 0,0 -0.03,-0.008 -0.041,-0.015 l 0.041,-0.013 11.891,-9.212 z M 99.164,78.919 99.135,78.89 82.336,68.542 99.135,58.293 99.136,58.286 115.924,68.542 99.24,78.846 c -0.034,0.02 -0.052,0.044 -0.076,0.073" />
    </g>
    <g
       transform="matrix(0.87675877,0,0,0.86947885,93.438145,696.56706)"
       id="g173">
      <path
         style="fill:#ffffff"
         inkscape:connector-curvature="0"
         id="path175"
         d="m 274.96,316.272 c 0,12.557 -10.178,24.529 -22.73,26.742 -12.553,2.214 -22.735,-6.168 -22.735,-18.725 0,-12.551 10.183,-24.526 22.735,-26.74 12.552,-2.212 22.73,6.173 22.73,18.723" />
      <path
         style="fill:#06aaff"
         inkscape:connector-curvature="0"
         id="path177"
         d="m 266.449,308.804 c -0.269,-0.168 -0.693,-0.244 -1.264,-0.144 l -13.202,2.328 c -0.751,0.132 -1.588,0.543 -2.306,1.099 -0.724,0.558 -1.314,1.258 -1.608,1.922 l -4.974,11.186 c -0.144,0.317 -0.202,0.596 -0.202,0.825 0.004,0.363 0.138,0.612 0.405,0.784 0.264,0.166 0.68,0.236 1.232,0.144 l 1.159,-2.604 c 0.007,-0.025 0.003,-0.052 0.017,-0.078 l 4.826,-10.86 c 0.062,-0.138 0.191,-0.242 0.332,-0.267 l 12.847,-2.266 c 0.022,-0.004 0.047,0.005 0.069,0.006 l 2.89,-0.511 c 0.126,-0.299 0.185,-0.563 0.185,-0.78 -0.005,-0.361 -0.14,-0.612 -0.406,-0.784 m -9.954,21.296 c -0.062,0.137 -0.193,0.24 -0.331,0.264 l -8.949,1.578 c -0.024,0.004 -0.047,-0.005 -0.072,-0.004 l -2.886,0.51 c -0.13,0.3 -0.185,0.563 -0.185,0.782 0.004,0.362 0.137,0.612 0.404,0.785 0.27,0.164 0.692,0.241 1.266,0.141 l 9.302,-1.64 c 0.751,-0.131 1.589,-0.541 2.31,-1.101 0.72,-0.556 1.313,-1.255 1.608,-1.921 l 7.49,-16.855 -2.384,0.42 -7.573,17.041 z" />
      <path
         style="fill:#06aaff"
         inkscape:connector-curvature="0"
         id="path179"
         d="m 261.181,313.581 c -0.262,-0.168 -0.678,-0.241 -1.231,-0.147 l -1.157,2.601 c -0.007,0.031 -0.005,0.056 -0.019,0.084 l -4.827,10.863 c -0.06,0.134 -0.189,0.24 -0.33,0.265 l -12.615,2.225 c -0.025,0.005 -0.046,-0.007 -0.072,-0.007 l -2.887,0.51 c -0.126,0.298 -0.182,0.562 -0.182,0.779 0.003,0.365 0.137,0.614 0.402,0.785 0.269,0.169 0.695,0.242 1.265,0.142 l 12.973,-2.287 c 0.748,-0.131 1.587,-0.538 2.306,-1.099 0.717,-0.555 1.313,-1.254 1.607,-1.921 l 4.973,-11.186 c 0.142,-0.317 0.202,-0.595 0.202,-0.824 -0.005,-0.364 -0.138,-0.615 -0.408,-0.783 m -13.525,-3.06 c 0.063,-0.136 0.189,-0.24 0.33,-0.266 l 8.945,-1.577 c 0.025,-0.005 0.05,0.005 0.073,0.005 l 2.889,-0.509 c 0.129,-0.298 0.185,-0.563 0.185,-0.779 -0.005,-0.364 -0.141,-0.615 -0.406,-0.784 -0.269,-0.17 -0.694,-0.244 -1.268,-0.144 l -9.302,1.641 c -0.749,0.13 -1.59,0.541 -2.308,1.098 -0.716,0.554 -1.314,1.255 -1.609,1.925 l -7.585,17.062 2.386,-0.42 7.67,-17.252 z" />
    </g>
    <text
       xml:space="preserve"
       style="font-style:normal;font-variant:normal;font-weight:bold;font-stretch:normal;font-size:30px;line-height:125%;font-family:Arial;-inkscape-font-specification:'Arial Bold';letter-spacing:0px;word-spacing:0px;fill:#000000;fill-opacity:1;stroke:none;stroke-width:1px;stroke-linecap:butt;stroke-linejoin:miter;stroke-opacity:1"
       x="428.59103"
       y="900.38647"
       id="text3517"
       sodipodi:linespacing="125%"
       transform="matrix(0.96242522,0.27154686,-0.27154686,0.96242522,0,0)"><tspan
         sodipodi:role="line"
         id="tspan3519"
         x="428.59103"
         y="900.38647">VGE</tspan></text>
    <text
       xml:space="preserve"
       style="font-style:normal;font-variant:normal;font-weight:bold;font-stretch:normal;font-size:150px;line-height:125%;font-family:Sawasdee;-inkscape-font-specification:'Sawasdee Bold';letter-spacing:0px;word-spacing:0px;fill:#ffffff;fill-opacity:1;stroke:none;stroke-width:1px;stroke-linecap:butt;stroke-linejoin:miter;stroke-opacity:1"
       x="472.85602"
       y="863.75861"
       id="text3529"
       sodipodi:linespacing="125%"><tspan
         sodipodi:role="line"
         id="tspan3531"
         x="472.85602"
         y="863.75861">Tools</tspan></text>
    <text
       xml:space="preserve"
       style="font-style:normal;font-variant:normal;font-weight:bold;font-stretch:normal;font-size:70px;line-height:125%;font-family:Arial;-inkscape-font-specification:'Arial Bold';letter-spacing:14.63998318px;word-spacing:0px;fill:#800000;fill-opacity:1;stroke:none;stroke-width:1px;stroke-linecap:butt;stroke-linejoin:miter;stroke-opacity:1"
       x="530.78424"
       y="963.44904"
       id="text3533"
       sodipodi:linespacing="125%"><tspan
         sodipodi:role="line"
         id="tspan3535"
         x="530.78424"
         y="963.44904">For You</tspan></text>
  </g>
</svg>
