<?xml version="1.0" encoding="UTF-8" standalone="no"?>
<!-- Created with Inkscape (http://www.inkscape.org/) -->

<svg
   xmlns:sketch="http://www.bohemiancoding.com/sketch/ns"
   xmlns:dc="http://purl.org/dc/elements/1.1/"
   xmlns:cc="http://creativecommons.org/ns#"
   xmlns:rdf="http://www.w3.org/1999/02/22-rdf-syntax-ns#"
   xmlns:svg="http://www.w3.org/2000/svg"
   xmlns="http://www.w3.org/2000/svg"
   xmlns:sodipodi="http://sodipodi.sourceforge.net/DTD/sodipodi-0.dtd"
   xmlns:inkscape="http://www.inkscape.org/namespaces/inkscape"
   width="1000"
   height="350"
   viewBox="0 0 1000 350.00001"
   id="svg2"
   version="1.1"
   inkscape:version="0.91 r13725"
   sodipodi:docname="tools3.svg">
  <defs
     id="defs4" />
  <sodipodi:namedview
     id="base"
     pagecolor="#ffffff"
     bordercolor="#666666"
     borderopacity="1.0"
     inkscape:pageopacity="0.0"
     inkscape:pageshadow="2"
     inkscape:zoom="0.37114892"
     inkscape:cx="915.04783"
     inkscape:cy="148.59024"
     inkscape:document-units="px"
     inkscape:current-layer="layer1"
     showgrid="false"
     units="px"
     inkscape:window-width="1307"
     inkscape:window-height="744"
     inkscape:window-x="59"
     inkscape:window-y="24"
     inkscape:window-maximized="1" />
  <metadata
     id="metadata7">
    <rdf:RDF>
      <cc:Work
         rdf:about="">
        <dc:format>image/svg+xml</dc:format>
        <dc:type
           rdf:resource="http://purl.org/dc/dcmitype/StillImage" />
        <dc:title></dc:title>
      </cc:Work>
    </rdf:RDF>
  </metadata>
  <g
     inkscape:label="Layer 1"
     inkscape:groupmode="layer"
     id="layer1"
     transform="translate(0,-702.36216)">
    <g
       id="g4227"
       transform="matrix(1.4465993,0,0,1.5057575,-218.46186,-220.75555)">
      <g
         id="XMLID_44_"
         transform="translate(1.4860479,531.11802)">
        <g
           id="XMLID_48_">
          <path
             class="st9"
             d="m 189.5,102.3 -1.7,0 -0.5,2.6 -0.9,0 0.5,-2.6 -1.5,0 0,-0.9 1.7,0 0.4,-2.3 -1.6,0 0,-0.9 1.8,0 0.5,-2.6 0.9,0 -0.5,2.6 1.7,0 0.5,-2.6 0.9,0 -0.5,2.6 1.3,0 0,0.9 -1.5,0 -0.4,2.3 1.4,0 0,0.9 -1.6,0 -0.5,2.6 -0.9,0 0.5,-2.6 z m -1.5,-0.9 1.7,0 0.4,-2.3 -1.7,0 -0.4,2.3 z"
             id="path209"
             inkscape:connector-curvature="0"
             style="fill:#97a822" />
        </g>
        <g
           id="XMLID_51_">
          <path
             class="st9"
             d="m 197.6,103 c 0,-0.3 -0.1,-0.6 -0.4,-0.7 -0.2,-0.2 -0.7,-0.3 -1.3,-0.5 -0.6,-0.1 -1.1,-0.3 -1.4,-0.5 -0.3,-0.2 -0.6,-0.4 -0.8,-0.6 -0.2,-0.2 -0.3,-0.5 -0.3,-0.9 0,-0.6 0.2,-1 0.7,-1.4 0.5,-0.4 1.1,-0.6 1.8,-0.6 0.8,0 1.4,0.2 1.9,0.6 0.5,0.4 0.7,0.9 0.7,1.5 l -1.2,0 c 0,-0.3 -0.1,-0.6 -0.4,-0.8 -0.3,-0.2 -0.6,-0.3 -1,-0.3 -0.4,0 -0.8,0.1 -1,0.3 -0.2,0.2 -0.4,0.4 -0.4,0.7 0,0.3 0.1,0.5 0.3,0.6 0.2,0.1 0.6,0.3 1.2,0.4 0.6,0.1 1.1,0.3 1.4,0.5 0.3,0.2 0.6,0.4 0.8,0.7 0.2,0.3 0.3,0.6 0.3,0.9 0,0.6 -0.2,1.1 -0.7,1.5 -0.5,0.4 -1.1,0.6 -1.9,0.6 -0.6,0 -1,-0.1 -1.5,-0.3 -0.5,-0.2 -0.8,-0.5 -1,-0.8 -0.2,-0.3 -0.4,-0.7 -0.4,-1.1 l 1.2,0 c 0,0.4 0.2,0.7 0.5,0.9 0.3,0.2 0.7,0.3 1.2,0.3 0.4,0 0.8,-0.1 1.1,-0.3 0.5,-0.1 0.6,-0.4 0.6,-0.7 z"
             id="path212"
             inkscape:connector-curvature="0"
             style="fill:#97a822" />
        </g>
        <g
           id="XMLID_53_">
          <path
             class="st9"
             d="m 202,96.3 0,1.7 1.3,0 0,0.9 -1.3,0 0,4.3 c 0,0.3 0.1,0.5 0.2,0.6 0.1,0.1 0.3,0.2 0.6,0.2 0.1,0 0.3,0 0.6,-0.1 l 0,0.9 c -0.3,0.1 -0.6,0.1 -0.9,0.1 -0.5,0 -0.9,-0.2 -1.2,-0.5 -0.3,-0.3 -0.4,-0.8 -0.4,-1.4 l 0,-4.3 -1.3,0 0,-0.7 1.3,0 0,-1.7 1.1,0 z"
             id="path215"
             inkscape:connector-curvature="0"
             style="fill:#97a822" />
        </g>
        <g
           id="XMLID_57_">
          <path
             class="st9"
             d="m 208.9,104.8 c -0.1,-0.1 -0.1,-0.4 -0.2,-0.7 -0.5,0.6 -1.2,0.9 -2,0.9 -0.7,0 -1.2,-0.2 -1.7,-0.6 -0.4,-0.4 -0.7,-0.9 -0.7,-1.5 0,-0.7 0.3,-1.3 0.8,-1.7 0.5,-0.4 1.3,-0.6 2.3,-0.6 l 1.1,0 0,-0.5 c 0,-0.4 -0.1,-0.7 -0.4,-1 -0.2,-0.2 -0.6,-0.4 -1.1,-0.4 -0.4,0 -0.8,0.1 -1.1,0.3 -0.3,0.2 -0.4,0.5 -0.4,0.8 l -1.2,0 c 0,-0.3 0.1,-0.7 0.4,-1 0.2,-0.3 0.6,-0.6 1,-0.8 0.4,-0.2 0.9,-0.3 1.4,-0.3 0.8,0 1.4,0.2 1.9,0.6 0.4,0.4 0.7,0.9 0.7,1.6 l 0,3.2 c 0,0.6 0.1,1.1 0.2,1.5 l 0,0.1 -1,0 z m -2,-0.8 c 0.4,0 0.7,-0.1 1,-0.3 0.3,-0.2 0.6,-0.4 0.7,-0.7 l 0,-1.4 -0.9,0 c -1.4,0 -2.2,0.4 -2.2,1.3 0,0.4 0.1,0.7 0.4,0.9 0.3,0.2 0.6,0.2 1,0.2 z"
             id="path218"
             inkscape:connector-curvature="0"
             style="fill:#97a822" />
        </g>
        <g
           id="XMLID_60_">
          <path
             class="st9"
             d="m 215,99 c -0.2,0 -0.4,0 -0.6,0 -0.8,0 -1.3,0.3 -1.6,1 l 0,4.9 -1.2,0 0,-6.9 1.1,0 0,0.8 c 0.4,-0.6 0.9,-0.9 1.6,-0.9 0.2,0 0.4,0 0.5,0.1 l 0,1 z"
             id="path221"
             inkscape:connector-curvature="0"
             style="fill:#97a822" />
        </g>
        <g
           id="XMLID_65_">
          <path
             class="st9"
             d="m 218.1,96.3 0,1.7 1.3,0 0,0.9 -1.3,0 0,4.3 c 0,0.3 0.1,0.5 0.2,0.6 0.1,0.1 0.3,0.2 0.6,0.2 0.1,0 0.3,0 0.6,-0.1 l 0,0.9 c -0.3,0.1 -0.6,0.1 -0.9,0.1 -0.5,0 -0.9,-0.2 -1.2,-0.5 -0.3,-0.3 -0.4,-0.8 -0.4,-1.4 l 0,-4.3 -1.3,0 0,-0.7 1.3,0 0,-1.7 1.1,0 z"
             id="path224"
             inkscape:connector-curvature="0"
             style="fill:#97a822" />
        </g>
        <g
           id="XMLID_67_">
          <path
             class="st6"
             d="m 228,95.6 1.2,0 0,6.5 c 0,0.9 -0.3,1.6 -0.8,2.1 -0.5,0.5 -1.2,0.7 -2.1,0.7 -0.9,0 -1.6,-0.2 -2.1,-0.7 -0.5,-0.5 -0.8,-1.1 -0.8,-2 l 1.2,0 c 0,0.5 0.1,0.9 0.4,1.2 0.3,0.3 0.7,0.4 1.3,0.4 0.5,0 0.9,-0.2 1.2,-0.5 0.3,-0.3 0.5,-0.8 0.5,-1.3 l 0,-6.4 z"
             id="path227"
             inkscape:connector-curvature="0"
             style="fill:#313334" />
        </g>
        <g
           id="XMLID_69_">
          <path
             class="st6"
             d="m 235.4,104.2 c -0.5,0.5 -1.1,0.8 -2,0.8 -0.7,0 -1.3,-0.2 -1.7,-0.6 -0.4,-0.4 -0.6,-1.1 -0.6,-1.9 l 0,-4.5 1.2,0 0,4.4 c 0,1 0.4,1.6 1.3,1.6 0.9,0 1.5,-0.3 1.8,-1 l 0,-5 1.2,0 0,6.9 -1.1,0 -0.1,-0.7 z"
             id="path230"
             inkscape:connector-curvature="0"
             style="fill:#313334" />
        </g>
        <g
           id="XMLID_82_">
          <path
             class="st6"
             d="m 242.3,103 c 0,-0.3 -0.1,-0.6 -0.4,-0.7 -0.2,-0.2 -0.7,-0.3 -1.3,-0.5 -0.6,-0.1 -1.1,-0.3 -1.4,-0.5 -0.3,-0.2 -0.6,-0.4 -0.8,-0.6 -0.2,-0.2 -0.3,-0.5 -0.3,-0.9 0,-0.6 0.2,-1 0.7,-1.4 0.5,-0.4 1.1,-0.6 1.8,-0.6 0.8,0 1.4,0.2 1.9,0.6 0.5,0.4 0.7,0.9 0.7,1.5 l -1.2,0 c 0,-0.3 -0.1,-0.6 -0.4,-0.8 -0.3,-0.2 -0.6,-0.3 -1,-0.3 -0.4,0 -0.8,0.1 -1,0.3 -0.2,0.2 -0.4,0.4 -0.4,0.7 0,0.3 0.1,0.5 0.3,0.6 0.2,0.1 0.6,0.3 1.2,0.4 0.6,0.1 1.1,0.3 1.4,0.5 0.3,0.2 0.6,0.4 0.8,0.7 0.2,0.3 0.3,0.6 0.3,0.9 0,0.6 -0.2,1.1 -0.7,1.5 -0.5,0.4 -1.1,0.6 -1.9,0.6 -0.6,0 -1,-0.1 -1.5,-0.3 -0.5,-0.2 -0.8,-0.5 -1,-0.8 -0.2,-0.3 -0.4,-0.7 -0.4,-1.1 l 1.2,0 c 0,0.4 0.2,0.7 0.5,0.9 0.3,0.2 0.7,0.3 1.2,0.3 0.4,0 0.8,-0.1 1.1,-0.3 0.4,-0.1 0.6,-0.4 0.6,-0.7 z"
             id="path233"
             inkscape:connector-curvature="0"
             style="fill:#313334" />
        </g>
        <g
           id="XMLID_87_">
          <path
             class="st6"
             d="m 246.7,96.3 0,1.7 1.3,0 0,0.9 -1.3,0 0,4.3 c 0,0.3 0.1,0.5 0.2,0.6 0.1,0.1 0.3,0.2 0.6,0.2 0.1,0 0.3,0 0.6,-0.1 l 0,0.9 c -0.3,0.1 -0.6,0.1 -0.9,0.1 -0.5,0 -0.9,-0.2 -1.2,-0.5 -0.3,-0.3 -0.4,-0.8 -0.4,-1.4 l 0,-4.3 -1.3,0 0,-0.7 1.3,0 0,-1.7 1.1,0 z"
             id="path236"
             inkscape:connector-curvature="0"
             style="fill:#313334" />
        </g>
        <g
           id="XMLID_89_">
          <path
             class="st6"
             d="m 254.1,96.3 0,1.7 1.3,0 0,0.9 -1.3,0 0,4.3 c 0,0.3 0.1,0.5 0.2,0.6 0.1,0.1 0.3,0.2 0.6,0.2 0.1,0 0.3,0 0.6,-0.1 l 0,0.9 c -0.3,0.1 -0.6,0.1 -0.9,0.1 -0.5,0 -0.9,-0.2 -1.2,-0.5 -0.3,-0.3 -0.4,-0.8 -0.4,-1.4 l 0,-4.3 -1.3,0 0,-0.7 1.3,0 0,-1.7 1.1,0 z"
             id="path239"
             inkscape:connector-curvature="0"
             style="fill:#313334" />
        </g>
        <g
           id="XMLID_91_">
          <path
             class="st6"
             d="m 259.3,103.1 1.6,-5.1 1.3,0 -2.8,7.9 c -0.4,1.1 -1.1,1.7 -2,1.7 l -0.2,0 -0.4,-0.1 0,-1 0.3,0 c 0.4,0 0.7,-0.1 0.9,-0.2 0.2,-0.2 0.4,-0.5 0.5,-0.9 l 0.3,-0.7 -2.5,-6.8 1.3,0 1.7,5.2 z"
             id="path242"
             inkscape:connector-curvature="0"
             style="fill:#313334" />
        </g>
        <g
           id="XMLID_93_">
          <path
             class="st6"
             d="m 269.1,101.5 c 0,1 -0.2,1.9 -0.7,2.5 -0.5,0.6 -1.1,1 -1.9,1 -0.8,0 -1.5,-0.3 -2,-0.8 l 0,3.3 -1.2,0 0,-9.5 1.1,0 0.1,0.8 c 0.5,-0.6 1.1,-0.9 2,-0.9 0.8,0 1.5,0.3 2,0.9 0.5,0.6 0.7,1.5 0.7,2.6 l 0,0.1 z m -1.2,-0.1 c 0,-0.8 -0.2,-1.4 -0.5,-1.8 -0.3,-0.4 -0.8,-0.7 -1.4,-0.7 -0.7,0 -1.2,0.3 -1.6,0.9 l 0,3.3 c 0.4,0.6 0.9,0.9 1.6,0.9 0.6,0 1,-0.2 1.3,-0.7 0.4,-0.4 0.6,-1.1 0.6,-1.9 z"
             id="path245"
             inkscape:connector-curvature="0"
             style="fill:#313334" />
        </g>
        <g
           id="XMLID_96_">
          <path
             class="st6"
             d="m 273.4,105 c -0.9,0 -1.7,-0.3 -2.3,-0.9 -0.6,-0.6 -0.9,-1.4 -0.9,-2.5 l 0,-0.2 c 0,-0.7 0.1,-1.3 0.4,-1.8 0.3,-0.5 0.6,-1 1.1,-1.3 0.5,-0.3 1,-0.5 1.5,-0.5 0.9,0 1.6,0.3 2.1,0.9 0.5,0.6 0.7,1.4 0.7,2.5 l 0,0.5 -4.7,0 c 0,0.7 0.2,1.2 0.6,1.6 0.4,0.4 0.9,0.6 1.4,0.6 0.4,0 0.8,-0.1 1.1,-0.3 0.3,-0.2 0.5,-0.4 0.8,-0.7 l 0.7,0.6 c -0.5,1 -1.3,1.5 -2.5,1.5 z m -0.1,-6.2 c -0.5,0 -0.9,0.2 -1.2,0.5 -0.3,0.3 -0.5,0.8 -0.6,1.5 l 3.4,0 0,-0.1 c 0,-0.6 -0.2,-1.1 -0.5,-1.4 -0.3,-0.3 -0.6,-0.5 -1.1,-0.5 z"
             id="path248"
             inkscape:connector-curvature="0"
             style="fill:#313334" />
        </g>
        <g
           id="XMLID_99_">
          <path
             class="st9"
             d="m 189.5,128.3 -1.7,0 -0.5,2.6 -0.9,0 0.5,-2.6 -1.5,0 0,-0.9 1.7,0 0.4,-2.3 -1.6,0 0,-0.9 1.8,0 0.5,-2.6 0.9,0 -0.5,2.6 1.7,0 0.5,-2.6 0.9,0 -0.5,2.6 1.3,0 0,0.9 -1.5,0 -0.4,2.3 1.4,0 0,0.9 -1.6,0 -0.5,2.6 -0.9,0 0.5,-2.6 z m -1.5,-0.9 1.7,0 0.4,-2.3 -1.7,0 -0.4,2.3 z"
             id="path251"
             inkscape:connector-curvature="0"
             style="fill:#97a822" />
        </g>
        <g
           id="XMLID_102_">
          <path
             class="st9"
             d="m 199.5,127.5 c 0,1 -0.2,1.9 -0.7,2.5 -0.5,0.6 -1.1,1 -1.9,1 -0.8,0 -1.5,-0.3 -2,-0.8 l 0,3.3 -1.2,0 0,-9.5 1.1,0 0.1,0.8 c 0.5,-0.6 1.1,-0.9 2,-0.9 0.8,0 1.5,0.3 2,0.9 0.5,0.6 0.7,1.5 0.7,2.6 l 0,0.1 z m -1.2,-0.1 c 0,-0.8 -0.2,-1.4 -0.5,-1.8 -0.3,-0.4 -0.8,-0.7 -1.4,-0.7 -0.7,0 -1.2,0.3 -1.6,0.9 l 0,3.3 c 0.4,0.6 0.9,0.9 1.6,0.9 0.6,0 1,-0.2 1.3,-0.7 0.4,-0.4 0.6,-1.1 0.6,-1.9 z"
             id="path254"
             inkscape:connector-curvature="0"
             style="fill:#97a822" />
        </g>
        <g
           id="XMLID_105_">
          <path
             class="st9"
             d="m 204.3,125 c -0.2,0 -0.4,0 -0.6,0 -0.8,0 -1.3,0.3 -1.6,1 l 0,4.9 -1.1,0 0,-6.9 1.1,0 0,0.8 c 0.4,-0.6 0.9,-0.9 1.6,-0.9 0.2,0 0.4,0 0.5,0.1 l 0,1 z"
             id="path257"
             inkscape:connector-curvature="0"
             style="fill:#97a822" />
        </g>
        <g
           id="XMLID_107_">
          <path
             class="st9"
             d="m 205,127.4 c 0,-0.7 0.1,-1.3 0.4,-1.8 0.3,-0.5 0.6,-1 1.1,-1.2 0.5,-0.3 1,-0.4 1.6,-0.4 0.9,0 1.7,0.3 2.3,1 0.6,0.6 0.9,1.5 0.9,2.6 l 0,0.1 c 0,0.7 -0.1,1.3 -0.4,1.8 -0.3,0.5 -0.6,0.9 -1.1,1.2 -0.5,0.3 -1,0.4 -1.6,0.4 -0.9,0 -1.7,-0.3 -2.3,-1 -0.6,-0.7 -0.9,-1.6 -0.9,-2.7 l 0,0 z m 1.2,0.1 c 0,0.8 0.2,1.4 0.5,1.8 0.4,0.5 0.8,0.7 1.4,0.7 0.6,0 1.1,-0.2 1.4,-0.7 0.4,-0.5 0.5,-1.1 0.5,-2 0,-0.8 -0.2,-1.4 -0.5,-1.8 -0.4,-0.5 -0.8,-0.7 -1.4,-0.7 -0.6,0 -1,0.2 -1.4,0.7 -0.4,0.5 -0.5,1.1 -0.5,2 z"
             id="path260"
             inkscape:connector-curvature="0"
             style="fill:#97a822" />
        </g>
        <g
           id="XMLID_110_">
          <path
             class="st9"
             d="m 215.5,130 c 0.4,0 0.8,-0.1 1.1,-0.4 0.3,-0.3 0.5,-0.6 0.5,-1 l 1.1,0 c 0,0.4 -0.2,0.8 -0.4,1.1 -0.2,0.3 -0.6,0.6 -1,0.9 -0.4,0.2 -0.9,0.3 -1.3,0.3 -0.9,0 -1.7,-0.3 -2.2,-0.9 -0.6,-0.6 -0.8,-1.5 -0.8,-2.6 l 0,-0.2 c 0,-0.7 0.1,-1.3 0.4,-1.8 0.3,-0.5 0.6,-0.9 1.1,-1.2 0.5,-0.3 1,-0.4 1.6,-0.4 0.8,0 1.4,0.2 1.9,0.7 0.5,0.5 0.8,1.1 0.8,1.8 l -1.1,0 c 0,-0.4 -0.2,-0.8 -0.5,-1.1 -0.3,-0.3 -0.7,-0.4 -1.1,-0.4 -0.6,0 -1.1,0.2 -1.4,0.6 -0.3,0.4 -0.5,1.1 -0.5,1.9 l 0,0.2 c 0,0.8 0.2,1.4 0.5,1.8 0.3,0.4 0.7,0.7 1.3,0.7 z"
             id="path263"
             inkscape:connector-curvature="0"
             style="fill:#97a822" />
        </g>
        <g
           id="XMLID_112_">
          <path
             class="st9"
             d="m 222.4,131 c -0.9,0 -1.7,-0.3 -2.3,-0.9 -0.6,-0.6 -0.9,-1.4 -0.9,-2.5 l 0,-0.2 c 0,-0.7 0.1,-1.3 0.4,-1.8 0.3,-0.5 0.6,-1 1.1,-1.3 0.5,-0.3 1,-0.5 1.5,-0.5 0.9,0 1.6,0.3 2.1,0.9 0.5,0.6 0.7,1.4 0.7,2.5 l 0,0.5 -4.7,0 c 0,0.7 0.2,1.2 0.6,1.6 0.4,0.4 0.9,0.6 1.4,0.6 0.4,0 0.8,-0.1 1.1,-0.3 0.3,-0.2 0.5,-0.4 0.8,-0.7 l 0.7,0.6 c -0.5,1 -1.3,1.5 -2.5,1.5 z m -0.1,-6.2 c -0.5,0 -0.9,0.2 -1.2,0.5 -0.3,0.3 -0.5,0.8 -0.6,1.5 l 3.4,0 0,-0.1 c 0,-0.6 -0.2,-1.1 -0.5,-1.4 -0.3,-0.3 -0.7,-0.5 -1.1,-0.5 z"
             id="path266"
             inkscape:connector-curvature="0"
             style="fill:#97a822" />
        </g>
        <g
           id="XMLID_115_">
          <path
             class="st9"
             d="m 230.4,129 c 0,-0.3 -0.1,-0.6 -0.4,-0.7 -0.2,-0.2 -0.7,-0.3 -1.3,-0.5 -0.6,-0.1 -1.1,-0.3 -1.4,-0.5 -0.3,-0.2 -0.6,-0.4 -0.8,-0.6 -0.2,-0.2 -0.3,-0.5 -0.3,-0.9 0,-0.6 0.2,-1 0.7,-1.4 0.5,-0.4 1.1,-0.6 1.8,-0.6 0.8,0 1.4,0.2 1.9,0.6 0.5,0.4 0.7,0.9 0.7,1.5 l -1.2,0 c 0,-0.3 -0.1,-0.6 -0.4,-0.8 -0.3,-0.2 -0.6,-0.3 -1,-0.3 -0.4,0 -0.8,0.1 -1,0.3 -0.2,0.2 -0.4,0.4 -0.4,0.7 0,0.3 0.1,0.5 0.3,0.6 0.2,0.1 0.6,0.3 1.2,0.4 0.6,0.1 1.1,0.3 1.4,0.5 0.3,0.2 0.6,0.4 0.8,0.7 0.2,0.3 0.3,0.6 0.3,0.9 0,0.6 -0.2,1.1 -0.7,1.5 -0.5,0.4 -1.1,0.6 -1.9,0.6 -0.6,0 -1,-0.1 -1.5,-0.3 -0.5,-0.2 -0.8,-0.5 -1,-0.8 -0.2,-0.3 -0.4,-0.7 -0.4,-1.1 l 1.2,0 c 0,0.4 0.2,0.7 0.5,0.9 0.3,0.2 0.7,0.3 1.2,0.3 0.4,0 0.8,-0.1 1.1,-0.3 0.5,-0.1 0.6,-0.4 0.6,-0.7 z"
             id="path269"
             inkscape:connector-curvature="0"
             style="fill:#97a822" />
        </g>
        <g
           id="XMLID_117_">
          <path
             class="st9"
             d="m 237,129 c 0,-0.3 -0.1,-0.6 -0.4,-0.7 -0.2,-0.2 -0.7,-0.3 -1.3,-0.5 -0.6,-0.1 -1.1,-0.3 -1.4,-0.5 -0.3,-0.2 -0.6,-0.4 -0.8,-0.6 -0.2,-0.2 -0.3,-0.5 -0.3,-0.9 0,-0.6 0.2,-1 0.7,-1.4 0.5,-0.4 1.1,-0.6 1.8,-0.6 0.8,0 1.4,0.2 1.9,0.6 0.5,0.4 0.7,0.9 0.7,1.5 l -0.9,0 c 0,-0.3 -0.1,-0.6 -0.4,-0.8 -0.3,-0.2 -0.6,-0.3 -1,-0.3 -0.4,0 -0.8,0.1 -1,0.3 -0.2,0.2 -0.4,0.4 -0.4,0.7 0,0.3 0.1,0.5 0.3,0.6 0.2,0.1 0.6,0.3 1.2,0.4 0.6,0.1 1.1,0.3 1.4,0.5 0.3,0.2 0.6,0.4 0.8,0.7 0.2,0.3 0.3,0.6 0.3,0.9 0,0.6 -0.2,1.1 -0.7,1.5 -0.5,0.4 -1.1,0.6 -1.9,0.6 -0.6,0 -1,-0.1 -1.5,-0.3 -0.5,-0.2 -0.8,-0.5 -1,-0.8 -0.2,-0.3 -0.4,-0.7 -0.4,-1.1 l 1.2,0 c 0,0.4 0.2,0.7 0.5,0.9 0.3,0.2 0.7,0.3 1.2,0.3 0.4,0 0.8,-0.1 1.1,-0.3 0.2,-0.1 0.3,-0.4 0.3,-0.7 z"
             id="path272"
             inkscape:connector-curvature="0"
             style="fill:#97a822" />
        </g>
        <g
           id="XMLID_119_">
          <path
             class="st6"
             d="m 250,129.6 c -0.3,0.4 -0.8,0.8 -1.3,1 -0.6,0.2 -1.2,0.3 -2,0.3 -0.8,0 -1.4,-0.2 -2,-0.5 -0.6,-0.4 -1,-0.9 -1.4,-1.5 -0.3,-0.7 -0.5,-1.4 -0.5,-2.3 l 0,-0.8 c 0,-1.4 0.3,-2.5 1,-3.2 0.6,-0.8 1.6,-1.1 2.7,-1.1 1,0 1.7,0.2 2.3,0.7 0.6,0.5 0.9,1.2 1.1,2.1 l -1.2,0 c -0.2,-1.2 -1,-1.8 -2.2,-1.8 -0.8,0 -1.4,0.3 -1.9,0.9 -0.4,0.6 -0.6,1.4 -0.6,2.5 l 0,0.8 c 0,1 0.2,1.9 0.7,2.5 0.5,0.6 1.1,0.9 1.9,0.9 0.5,0 0.9,-0.1 1.2,-0.2 0.3,-0.1 0.6,-0.3 0.9,-0.5 l 0,-2.1 -2.1,0 0,-1 3.4,0 0,3.3 z"
             id="path275"
             inkscape:connector-curvature="0"
             style="fill:#313334" />
        </g>
        <g
           id="XMLID_121_">
          <path
             class="st6"
             d="m 254.7,131 c -0.9,0 -1.7,-0.3 -2.3,-0.9 -0.6,-0.6 -0.9,-1.4 -0.9,-2.5 l 0,-0.2 c 0,-0.7 0.1,-1.3 0.4,-1.8 0.3,-0.5 0.6,-1 1.1,-1.3 0.5,-0.3 1,-0.5 1.5,-0.5 0.9,0 1.6,0.3 2.1,0.9 0.5,0.6 0.7,1.4 0.7,2.5 l 0,0.5 -4.7,0 c 0,0.7 0.2,1.2 0.6,1.6 0.4,0.4 0.9,0.6 1.4,0.6 0.4,0 0.8,-0.1 1.1,-0.3 0.3,-0.2 0.5,-0.4 0.8,-0.7 l 0.7,0.6 c -0.5,1 -1.4,1.5 -2.5,1.5 z m -0.2,-6.2 c -0.5,0 -0.9,0.2 -1.2,0.5 -0.3,0.3 -0.5,0.8 -0.6,1.5 l 3.4,0 0,-0.1 c 0,-0.6 -0.2,-1.1 -0.5,-1.4 -0.2,-0.3 -0.6,-0.5 -1.1,-0.5 z"
             id="path278"
             inkscape:connector-curvature="0"
             style="fill:#313334" />
        </g>
        <g
           id="XMLID_124_">
          <path
             class="st6"
             d="m 260.4,122.3 0,1.7 1.3,0 0,0.9 -1.3,0 0,4.3 c 0,0.3 0.1,0.5 0.2,0.6 0.1,0.1 0.3,0.2 0.6,0.2 0.1,0 0.3,0 0.6,-0.1 l 0,0.9 c -0.3,0.1 -0.6,0.1 -0.9,0.1 -0.5,0 -0.9,-0.2 -1.2,-0.5 -0.3,-0.3 -0.4,-0.8 -0.4,-1.4 l 0,-4.3 -1.3,0 0,-0.7 1.3,0 0,-1.7 1.1,0 z"
             id="path281"
             inkscape:connector-curvature="0"
             style="fill:#313334" />
        </g>
        <g
           id="XMLID_126_">
          <path
             class="st6"
             d="m 266,127.4 c 0,-1.1 0.2,-1.9 0.7,-2.5 0.5,-0.6 1.2,-1 2,-1 0.8,0 1.4,0.3 1.9,0.8 l 0,-3.6 1.2,0 0,9.8 -1.1,0 -0.1,-0.7 c -0.5,0.6 -1.1,0.9 -2,0.9 -0.8,0 -1.4,-0.3 -1.9,-1 -0.5,-0.8 -0.7,-1.6 -0.7,-2.7 l 0,0 z m 1.1,0.1 c 0,0.8 0.2,1.4 0.5,1.8 0.3,0.4 0.8,0.7 1.3,0.7 0.7,0 1.3,-0.3 1.6,-1 l 0,-3.2 c -0.4,-0.6 -0.9,-1 -1.6,-1 -0.6,0 -1,0.2 -1.3,0.7 -0.3,0.5 -0.5,1.1 -0.5,2 z"
             id="path284"
             inkscape:connector-curvature="0"
             style="fill:#313334" />
        </g>
        <g
           id="XMLID_129_">
          <path
             class="st6"
             d="m 273.5,122.2 c 0,-0.2 0.1,-0.4 0.2,-0.5 0.1,-0.1 0.3,-0.2 0.5,-0.2 0.2,0 0.4,0.1 0.5,0.2 0.1,0.1 0.2,0.3 0.2,0.5 0,0.2 -0.1,0.3 -0.2,0.5 -0.1,0.2 -0.3,0.2 -0.5,0.2 -0.2,0 -0.4,-0.1 -0.5,-0.2 -0.1,-0.2 -0.2,-0.4 -0.2,-0.5 z m 1.3,8.6 -1.2,0 0,-6.8 1.2,0 0,6.8 z"
             id="path287"
             inkscape:connector-curvature="0"
             style="fill:#313334" />
        </g>
        <g
           id="XMLID_132_">
          <path
             class="st6"
             d="m 280.8,130.8 c -0.1,-0.1 -0.1,-0.4 -0.2,-0.7 -0.5,0.6 -1.2,0.9 -2,0.9 -0.7,0 -1.2,-0.2 -1.7,-0.6 -0.4,-0.4 -0.7,-0.9 -0.7,-1.5 0,-0.7 0.3,-1.3 0.8,-1.7 0.5,-0.4 1.3,-0.6 2.3,-0.6 l 1.1,0 0,-0.5 c 0,-0.4 -0.1,-0.7 -0.4,-1 -0.2,-0.2 -0.6,-0.4 -1.1,-0.4 -0.4,0 -0.8,0.1 -1.1,0.3 -0.3,0.2 -0.4,0.5 -0.4,0.8 l -1.2,0 c 0,-0.3 0.1,-0.7 0.4,-1 0.2,-0.3 0.6,-0.6 1,-0.8 0.4,-0.2 0.9,-0.3 1.4,-0.3 0.8,0 1.4,0.2 1.9,0.6 0.4,0.4 0.7,0.9 0.7,1.6 l 0,3.2 c 0,0.6 0.1,1.1 0.2,1.5 l 0,0.1 -1,0 z m -2,-0.8 c 0.4,0 0.7,-0.1 1,-0.3 0.3,-0.2 0.6,-0.4 0.7,-0.7 l 0,-1.4 -0.9,0 c -1.4,0 -2.2,0.4 -2.2,1.3 0,0.4 0.1,0.7 0.4,0.9 0.3,0.2 0.7,0.2 1,0.2 z"
             id="path290"
             inkscape:connector-curvature="0"
             style="fill:#313334" />
        </g>
        <g
           id="XMLID_135_">
          <path
             class="st6"
             d="m 283.3,127.4 c 0,-1.1 0.2,-1.9 0.7,-2.6 0.5,-0.6 1.2,-0.9 2,-0.9 0.8,0 1.5,0.3 2,0.9 l 0.1,-0.8 1.1,0 0,6.7 c 0,0.9 -0.3,1.6 -0.8,2.1 -0.5,0.5 -1.2,0.8 -2.1,0.8 -0.5,0 -1,-0.1 -1.5,-0.3 -0.5,-0.2 -0.8,-0.5 -1.1,-0.9 l 0.6,-0.7 c 0.5,0.6 1.1,0.9 1.8,0.9 0.6,0 1,-0.2 1.3,-0.5 0.3,-0.3 0.5,-0.8 0.5,-1.4 l 0,-0.6 c -0.5,0.5 -1.1,0.8 -1.9,0.8 -0.8,0 -1.5,-0.3 -2,-1 -0.5,-0.5 -0.7,-1.4 -0.7,-2.5 z m 1.1,0.1 c 0,0.8 0.2,1.4 0.5,1.8 0.3,0.4 0.8,0.7 1.3,0.7 0.7,0 1.3,-0.3 1.6,-1 l 0,-3.1 c -0.4,-0.7 -0.9,-1 -1.6,-1 -0.6,0 -1,0.2 -1.3,0.7 -0.3,0.5 -0.5,1 -0.5,1.9 z"
             id="path293"
             inkscape:connector-curvature="0"
             style="fill:#313334" />
        </g>
        <g
           id="XMLID_138_">
          <path
             class="st6"
             d="m 294.2,125 c -0.2,0 -0.4,0 -0.6,0 -0.8,0 -1.3,0.3 -1.6,1 l 0,4.9 -1.2,0 0,-6.9 1.1,0 0,0.8 c 0.4,-0.6 0.9,-0.9 1.6,-0.9 0.2,0 0.4,0 0.5,0.1 l 0,1 z"
             id="path296"
             inkscape:connector-curvature="0"
             style="fill:#313334" />
        </g>
        <g
           id="XMLID_140_">
          <path
             class="st6"
             d="m 299.5,130.8 c -0.1,-0.1 -0.1,-0.4 -0.2,-0.7 -0.5,0.6 -1.2,0.9 -2,0.9 -0.7,0 -1.2,-0.2 -1.7,-0.6 -0.4,-0.4 -0.7,-0.9 -0.7,-1.5 0,-0.7 0.3,-1.3 0.8,-1.7 0.5,-0.4 1.3,-0.6 2.3,-0.6 l 1.1,0 0,-0.5 c 0,-0.4 -0.1,-0.7 -0.4,-1 -0.2,-0.2 -0.6,-0.4 -1.1,-0.4 -0.4,0 -0.8,0.1 -1.1,0.3 -0.3,0.2 -0.4,0.5 -0.4,0.8 l -1.2,0 c 0,-0.3 0.1,-0.7 0.4,-1 0.2,-0.3 0.6,-0.6 1,-0.8 0.4,-0.2 0.9,-0.3 1.4,-0.3 0.8,0 1.4,0.2 1.9,0.6 0.4,0.4 0.7,0.9 0.7,1.6 l 0,3.2 c 0,0.6 0.1,1.1 0.2,1.5 l 0,0.1 -1,0 z m -2,-0.8 c 0.4,0 0.7,-0.1 1,-0.3 0.3,-0.2 0.6,-0.4 0.7,-0.7 l 0,-1.4 -0.9,0 c -1.4,0 -2.2,0.4 -2.2,1.3 0,0.4 0.1,0.7 0.4,0.9 0.3,0.2 0.6,0.2 1,0.2 z"
             id="path299"
             inkscape:connector-curvature="0"
             style="fill:#313334" />
        </g>
        <g
           id="XMLID_143_">
          <path
             class="st6"
             d="m 303.4,124 0,0.8 c 0.5,-0.6 1.2,-0.9 2,-0.9 1,0 1.6,0.4 2,1.1 0.2,-0.3 0.5,-0.6 0.9,-0.8 0.4,-0.2 0.8,-0.3 1.3,-0.3 1.5,0 2.3,0.8 2.3,2.4 l 0,4.6 -1.2,0 0,-4.5 c 0,-0.5 -0.1,-0.9 -0.3,-1.1 -0.2,-0.2 -0.6,-0.4 -1.1,-0.4 -0.4,0 -0.8,0.1 -1.1,0.4 -0.3,0.3 -0.5,0.6 -0.5,1.1 l 0,4.6 -1.2,0 0,-4.5 c 0,-1 -0.5,-1.5 -1.5,-1.5 -0.8,0 -1.3,0.3 -1.6,1 l 0,5 -1.2,0 0,-7 1.2,0 z"
             id="path302"
             inkscape:connector-curvature="0"
             style="fill:#313334" />
        </g>
        <g
           id="XMLID_145_">
          <path
             class="st6"
             d="m 317.6,129 c 0,-0.3 -0.1,-0.6 -0.4,-0.7 -0.2,-0.2 -0.7,-0.3 -1.3,-0.5 -0.6,-0.1 -1.1,-0.3 -1.4,-0.5 -0.3,-0.2 -0.6,-0.4 -0.8,-0.6 -0.2,-0.2 -0.3,-0.5 -0.3,-0.9 0,-0.6 0.2,-1 0.7,-1.4 0.5,-0.4 1.1,-0.6 1.8,-0.6 0.8,0 1.4,0.2 1.9,0.6 0.5,0.4 0.7,0.9 0.7,1.5 l -1.2,0 c 0,-0.3 -0.1,-0.6 -0.4,-0.8 -0.3,-0.2 -0.6,-0.3 -1,-0.3 -0.4,0 -0.8,0.1 -1,0.3 -0.2,0.2 -0.4,0.4 -0.4,0.7 0,0.3 0.1,0.5 0.3,0.6 0.2,0.1 0.6,0.3 1.2,0.4 0.6,0.1 1.1,0.3 1.4,0.5 0.3,0.2 0.6,0.4 0.8,0.7 0.2,0.3 0.3,0.6 0.3,0.9 0,0.6 -0.2,1.1 -0.7,1.5 -0.5,0.4 -1.1,0.6 -1.9,0.6 -0.6,0 -1,-0.1 -1.5,-0.3 -0.5,-0.2 -0.8,-0.5 -1,-0.8 -0.2,-0.3 -0.4,-0.7 -0.4,-1.1 l 1.2,0 c 0,0.4 0.2,0.7 0.5,0.9 0.3,0.2 0.7,0.3 1.2,0.3 0.4,0 0.8,-0.1 1.1,-0.3 0.5,-0.1 0.6,-0.4 0.6,-0.7 z"
             id="path305"
             inkscape:connector-curvature="0"
             style="fill:#313334" />
        </g>
        <g
           id="XMLID_147_">
          <path
             class="st9"
             d="m 189.5,154.3 -1.7,0 -0.5,2.6 -0.9,0 0.5,-2.6 -1.5,0 0,-0.9 1.7,0 0.4,-2.3 -1.6,0 0,-0.9 1.8,0 0.5,-2.6 0.9,0 -0.5,2.6 1.7,0 0.5,-2.6 0.9,0 -0.5,2.6 1.3,0 0,0.9 -1.5,0 -0.4,2.3 1.4,0 0,0.9 -1.6,0 -0.5,2.6 -0.9,0 0.5,-2.6 z m -1.5,-0.9 1.7,0 0.4,-2.3 -1.7,0 -0.4,2.3 z"
             id="path308"
             inkscape:connector-curvature="0"
             style="fill:#97a822" />
        </g>
        <g
           id="XMLID_150_">
          <path
             class="st9"
             d="m 193.3,153.4 c 0,-1.1 0.2,-1.9 0.7,-2.5 0.5,-0.6 1.2,-1 2,-1 0.8,0 1.4,0.3 1.9,0.8 l 0,-3.6 1.2,0 0,9.8 -1.1,0 -0.1,-0.7 c -0.5,0.6 -1.1,0.9 -2,0.9 -0.8,0 -1.4,-0.3 -1.9,-1 -0.4,-0.8 -0.7,-1.6 -0.7,-2.7 l 0,0 z m 1.2,0.1 c 0,0.8 0.2,1.4 0.5,1.8 0.3,0.4 0.8,0.7 1.3,0.7 0.7,0 1.3,-0.3 1.6,-1 l 0,-3.2 c -0.4,-0.6 -0.9,-1 -1.6,-1 -0.6,0 -1,0.2 -1.3,0.7 -0.3,0.5 -0.5,1.1 -0.5,2 z"
             id="path311"
             inkscape:connector-curvature="0"
             style="fill:#97a822" />
        </g>
        <g
           id="XMLID_153_">
          <path
             class="st9"
             d="m 203.8,157 c -0.9,0 -1.7,-0.3 -2.3,-0.9 -0.6,-0.6 -0.9,-1.4 -0.9,-2.5 l 0,-0.2 c 0,-0.7 0.1,-1.3 0.4,-1.8 0.3,-0.5 0.6,-1 1.1,-1.3 0.5,-0.3 1,-0.5 1.5,-0.5 0.9,0 1.6,0.3 2.1,0.9 0.5,0.6 0.7,1.4 0.7,2.5 l 0,0.5 -4.7,0 c 0,0.7 0.2,1.2 0.6,1.6 0.4,0.4 0.9,0.6 1.4,0.6 0.4,0 0.8,-0.1 1.1,-0.3 0.3,-0.2 0.5,-0.4 0.8,-0.7 l 0.7,0.6 c -0.5,1 -1.4,1.5 -2.5,1.5 z m -0.2,-6.2 c -0.5,0 -0.9,0.2 -1.2,0.5 -0.3,0.3 -0.5,0.8 -0.6,1.5 l 3.4,0 0,-0.1 c 0,-0.6 -0.2,-1.1 -0.5,-1.4 -0.2,-0.3 -0.6,-0.5 -1.1,-0.5 z"
             id="path314"
             inkscape:connector-curvature="0"
             style="fill:#97a822" />
        </g>
        <g
           id="XMLID_156_">
          <path
             class="st9"
             d="m 210.6,156 c 0.4,0 0.8,-0.1 1.1,-0.4 0.3,-0.3 0.5,-0.6 0.5,-1 l 1.1,0 c 0,0.4 -0.2,0.8 -0.4,1.1 -0.2,0.3 -0.6,0.6 -1,0.9 -0.4,0.2 -0.9,0.3 -1.3,0.3 -0.9,0 -1.7,-0.3 -2.2,-0.9 -0.6,-0.6 -0.8,-1.5 -0.8,-2.6 l 0,-0.2 c 0,-0.7 0.1,-1.3 0.4,-1.8 0.3,-0.5 0.6,-0.9 1.1,-1.2 0.5,-0.3 1,-0.4 1.6,-0.4 0.8,0 1.4,0.2 1.9,0.7 0.5,0.5 0.8,1.1 0.8,1.8 l -1.1,0 c 0,-0.4 -0.2,-0.8 -0.5,-1.1 -0.3,-0.3 -0.7,-0.4 -1.1,-0.4 -0.6,0 -1.1,0.2 -1.4,0.6 -0.3,0.4 -0.5,1.1 -0.5,1.9 l 0,0.2 c 0,0.8 0.2,1.4 0.5,1.8 0.3,0.4 0.7,0.7 1.3,0.7 z"
             id="path317"
             inkscape:connector-curvature="0"
             style="fill:#97a822" />
        </g>
        <g
           id="XMLID_158_">
          <path
             class="st9"
             d="m 214.7,148.2 c 0,-0.2 0.1,-0.4 0.2,-0.5 0.1,-0.1 0.3,-0.2 0.5,-0.2 0.2,0 0.4,0.1 0.5,0.2 0.1,0.1 0.2,0.3 0.2,0.5 0,0.2 -0.1,0.3 -0.2,0.5 -0.1,0.2 -0.3,0.2 -0.5,0.2 -0.2,0 -0.4,-0.1 -0.5,-0.2 -0.2,-0.2 -0.2,-0.4 -0.2,-0.5 z m 1.2,8.6 -1.2,0 0,-6.8 1.2,0 0,6.8 z"
             id="path320"
             inkscape:connector-curvature="0"
             style="fill:#97a822" />
        </g>
        <g
           id="XMLID_161_">
          <path
             class="st9"
             d="m 221.7,155 c 0,-0.3 -0.1,-0.6 -0.4,-0.7 -0.2,-0.2 -0.7,-0.3 -1.3,-0.5 -0.6,-0.1 -1.1,-0.3 -1.4,-0.5 -0.3,-0.2 -0.6,-0.4 -0.8,-0.6 -0.2,-0.2 -0.3,-0.5 -0.3,-0.9 0,-0.6 0.2,-1 0.7,-1.4 0.5,-0.4 1.1,-0.6 1.8,-0.6 0.8,0 1.4,0.2 1.9,0.6 0.5,0.4 0.7,0.9 0.7,1.5 l -1.2,0 c 0,-0.3 -0.1,-0.6 -0.4,-0.8 -0.3,-0.2 -0.6,-0.3 -1,-0.3 -0.4,0 -0.8,0.1 -1,0.3 -0.2,0.2 -0.4,0.4 -0.4,0.7 0,0.3 0.1,0.5 0.3,0.6 0.2,0.1 0.6,0.3 1.2,0.4 0.6,0.1 1.1,0.3 1.4,0.5 0.3,0.2 0.6,0.4 0.8,0.7 0.2,0.3 0.3,0.6 0.3,0.9 0,0.6 -0.2,1.1 -0.7,1.5 -0.5,0.4 -1.1,0.6 -1.9,0.6 -0.6,0 -1,-0.1 -1.5,-0.3 -0.5,-0.2 -0.8,-0.5 -1,-0.8 -0.2,-0.3 -0.4,-0.7 -0.4,-1.1 l 1.2,0 c 0,0.4 0.2,0.7 0.5,0.9 0.3,0.2 0.7,0.3 1.2,0.3 0.4,0 0.8,-0.1 1.1,-0.3 0.5,-0.1 0.6,-0.4 0.6,-0.7 z"
             id="path323"
             inkscape:connector-curvature="0"
             style="fill:#97a822" />
        </g>
        <g
           id="XMLID_163_">
          <path
             class="st9"
             d="m 224.3,148.2 c 0,-0.2 0.1,-0.4 0.2,-0.5 0.1,-0.1 0.3,-0.2 0.5,-0.2 0.2,0 0.4,0.1 0.5,0.2 0.1,0.1 0.2,0.3 0.2,0.5 0,0.2 -0.1,0.3 -0.2,0.5 -0.1,0.2 -0.3,0.2 -0.5,0.2 -0.2,0 -0.4,-0.1 -0.5,-0.2 -0.1,-0.2 -0.2,-0.4 -0.2,-0.5 z m 1.3,8.6 -1.2,0 0,-6.8 1.2,0 0,6.8 z"
             id="path326"
             inkscape:connector-curvature="0"
             style="fill:#97a822" />
        </g>
        <g
           id="XMLID_166_">
          <path
             class="st9"
             d="m 227.1,153.4 c 0,-0.7 0.1,-1.3 0.4,-1.8 0.3,-0.5 0.6,-1 1.1,-1.2 0.5,-0.3 1,-0.4 1.6,-0.4 0.9,0 1.7,0.3 2.3,1 0.6,0.6 0.9,1.5 0.9,2.6 l 0,0.1 c 0,0.7 -0.1,1.3 -0.4,1.8 -0.3,0.5 -0.6,0.9 -1.1,1.2 -0.5,0.3 -1,0.4 -1.6,0.4 -0.9,0 -1.7,-0.3 -2.3,-1 -0.6,-0.7 -0.9,-1.6 -0.9,-2.7 l 0,0 z m 1.2,0.1 c 0,0.8 0.2,1.4 0.5,1.8 0.4,0.5 0.8,0.7 1.4,0.7 0.6,0 1.1,-0.2 1.4,-0.7 0.4,-0.5 0.5,-1.1 0.5,-2 0,-0.8 -0.2,-1.4 -0.5,-1.8 -0.4,-0.5 -0.8,-0.7 -1.4,-0.7 -0.6,0 -1,0.2 -1.4,0.7 -0.4,0.5 -0.5,1.1 -0.5,2 z"
             id="path329"
             inkscape:connector-curvature="0"
             style="fill:#97a822" />
        </g>
        <g
           id="XMLID_169_">
          <path
             class="st9"
             d="m 235.9,150 0,0.9 c 0.5,-0.7 1.2,-1 2.1,-1 1.5,0 2.2,0.8 2.2,2.5 l 0,4.5 -1.2,0 0,-4.5 c 0,-0.5 -0.1,-0.9 -0.3,-1.1 -0.2,-0.2 -0.6,-0.4 -1,-0.4 -0.4,0 -0.7,0.1 -1,0.3 -0.3,0.2 -0.5,0.5 -0.7,0.8 l 0,4.9 -1.2,0 0,-6.9 1.1,0 z"
             id="path332"
             inkscape:connector-curvature="0"
             style="fill:#97a822" />
        </g>
        <g
           id="XMLID_171_">
          <path
             class="st6"
             d="m 246.6,155.9 4.4,0 0,1 -5.6,0 0,-9.2 1.2,0 0,8.2 z"
             id="path335"
             inkscape:connector-curvature="0"
             style="fill:#313334" />
        </g>
        <g
           id="XMLID_173_">
          <path
             class="st6"
             d="m 252.2,148.2 c 0,-0.2 0.1,-0.4 0.2,-0.5 0.1,-0.1 0.3,-0.2 0.5,-0.2 0.2,0 0.4,0.1 0.5,0.2 0.1,0.1 0.2,0.3 0.2,0.5 0,0.2 -0.1,0.3 -0.2,0.5 -0.1,0.2 -0.3,0.2 -0.5,0.2 -0.2,0 -0.4,-0.1 -0.5,-0.2 -0.1,-0.2 -0.2,-0.4 -0.2,-0.5 z m 1.3,8.6 -1.2,0 0,-6.8 1.2,0 0,6.8 z"
             id="path338"
             inkscape:connector-curvature="0"
             style="fill:#313334" />
        </g>
        <g
           id="XMLID_176_">
          <path
             class="st6"
             d="m 257.2,153.7 -0.7,0.8 0,2.4 -1.2,0 0,-9.8 1.2,0 0,5.9 0.6,-0.8 2.1,-2.3 1.4,0 -2.7,2.9 3,4 -1.4,0 -2.3,-3.1 z"
             id="path341"
             inkscape:connector-curvature="0"
             style="fill:#313334" />
        </g>
        <g
           id="XMLID_178_">
          <path
             class="st6"
             d="m 264.4,157 c -0.9,0 -1.7,-0.3 -2.3,-0.9 -0.6,-0.6 -0.9,-1.4 -0.9,-2.5 l 0,-0.2 c 0,-0.7 0.1,-1.3 0.4,-1.8 0.3,-0.5 0.6,-1 1.1,-1.3 0.5,-0.3 1,-0.5 1.5,-0.5 0.9,0 1.6,0.3 2.1,0.9 0.5,0.6 0.7,1.4 0.7,2.5 l 0,0.5 -4.7,0 c 0,0.7 0.2,1.2 0.6,1.6 0.4,0.4 0.9,0.6 1.4,0.6 0.4,0 0.8,-0.1 1.1,-0.3 0.3,-0.2 0.5,-0.4 0.8,-0.7 l 0.7,0.6 c -0.5,1 -1.4,1.5 -2.5,1.5 z m -0.2,-6.2 c -0.5,0 -0.9,0.2 -1.2,0.5 -0.3,0.3 -0.5,0.8 -0.6,1.5 l 3.4,0 0,-0.1 c 0,-0.6 -0.2,-1.1 -0.5,-1.4 -0.2,-0.3 -0.6,-0.5 -1.1,-0.5 z"
             id="path344"
             inkscape:connector-curvature="0"
             style="fill:#313334" />
        </g>
        <g
           id="XMLID_181_">
          <path
             class="st6"
             d="m 271.7,148.2 c 0,-0.2 0.1,-0.4 0.2,-0.5 0.1,-0.1 0.3,-0.2 0.5,-0.2 0.2,0 0.4,0.1 0.5,0.2 0.1,0.1 0.2,0.3 0.2,0.5 0,0.2 -0.1,0.3 -0.2,0.5 -0.1,0.2 -0.3,0.2 -0.5,0.2 -0.2,0 -0.4,-0.1 -0.5,-0.2 -0.2,-0.2 -0.2,-0.4 -0.2,-0.5 z m 1.2,8.6 -1.2,0 0,-6.8 1.2,0 0,6.8 z"
             id="path347"
             inkscape:connector-curvature="0"
             style="fill:#313334" />
        </g>
        <g
           id="XMLID_184_">
          <path
             class="st6"
             d="m 276.5,148.3 0,1.7 1.3,0 0,0.9 -1.3,0 0,4.3 c 0,0.3 0.1,0.5 0.2,0.6 0.1,0.1 0.3,0.2 0.6,0.2 0.1,0 0.3,0 0.6,-0.1 l 0,0.9 c -0.3,0.1 -0.6,0.1 -0.9,0.1 -0.5,0 -0.9,-0.2 -1.2,-0.5 -0.3,-0.3 -0.4,-0.8 -0.4,-1.4 l 0,-4.3 -1.4,0 0,-0.7 1.3,0 0,-1.7 1.2,0 z"
             id="path350"
             inkscape:connector-curvature="0"
             style="fill:#313334" />
        </g>
        <g
           id="XMLID_186_">
          <path
             class="st6"
             d="m 280.6,154.2 c 0,-0.5 0.1,-0.9 0.2,-1.2 0.1,-0.3 0.3,-0.6 0.6,-1 l 0.8,-0.9 c 0.4,-0.4 0.5,-0.8 0.5,-1.3 0,-0.4 -0.1,-0.8 -0.3,-1 -0.2,-0.2 -0.6,-0.4 -1,-0.4 -0.4,0 -0.8,0.1 -1,0.3 -0.2,0.2 -0.4,0.5 -0.4,0.9 l -1.2,0 c 0,-0.7 0.3,-1.2 0.7,-1.7 0.5,-0.4 1.1,-0.6 1.9,-0.6 0.8,0 1.4,0.2 1.9,0.6 0.4,0.4 0.7,1 0.7,1.8 0,0.7 -0.3,1.5 -1,2.2 l -0.7,0.7 c -0.3,0.3 -0.5,0.8 -0.5,1.5 l -1.2,0 z m 0,2.1 c 0,-0.2 0.1,-0.4 0.2,-0.5 0.1,-0.1 0.3,-0.2 0.5,-0.2 0.2,0 0.4,0.1 0.5,0.2 0.1,0.1 0.2,0.3 0.2,0.5 0,0.2 -0.1,0.4 -0.2,0.5 -0.1,0.1 -0.3,0.2 -0.5,0.2 -0.2,0 -0.4,-0.1 -0.5,-0.2 -0.2,-0.2 -0.2,-0.4 -0.2,-0.5 z"
             id="path353"
             inkscape:connector-curvature="0"
             style="fill:#313334" />
        </g>
        <g
           id="XMLID_189_">
          <path
             class="st6"
             d="m 224.5,178.2 2.4,-4.6 1.4,0 -3.2,5.8 0,3.4 -1.2,0 0,-3.4 -3.2,-5.8 1.4,0 2.4,4.6 z"
             id="path356"
             inkscape:connector-curvature="0"
             style="fill:#313334" />
        </g>
        <g
           id="XMLID_191_">
          <path
             class="st6"
             d="m 231.3,183 c -0.9,0 -1.7,-0.3 -2.3,-0.9 -0.6,-0.6 -0.9,-1.4 -0.9,-2.5 l 0,-0.2 c 0,-0.7 0.1,-1.3 0.4,-1.8 0.3,-0.5 0.6,-1 1.1,-1.3 0.5,-0.3 1,-0.5 1.5,-0.5 0.9,0 1.6,0.3 2.1,0.9 0.5,0.6 0.7,1.4 0.7,2.5 l 0,0.5 -4.7,0 c 0,0.7 0.2,1.2 0.6,1.6 0.4,0.4 0.9,0.6 1.4,0.6 0.4,0 0.8,-0.1 1.1,-0.3 0.3,-0.2 0.5,-0.4 0.8,-0.7 l 0.7,0.6 c -0.5,1 -1.4,1.5 -2.5,1.5 z m -0.2,-6.2 c -0.5,0 -0.9,0.2 -1.2,0.5 -0.3,0.3 -0.5,0.8 -0.6,1.5 l 3.4,0 0,-0.1 c 0,-0.6 -0.2,-1.1 -0.5,-1.4 -0.2,-0.3 -0.6,-0.5 -1.1,-0.5 z"
             id="path359"
             inkscape:connector-curvature="0"
             style="fill:#313334" />
        </g>
        <g
           id="XMLID_194_">
          <path
             class="st6"
             d="m 239.3,181 c 0,-0.3 -0.1,-0.6 -0.4,-0.7 -0.2,-0.2 -0.7,-0.3 -1.3,-0.5 -0.6,-0.1 -1.1,-0.3 -1.4,-0.5 -0.3,-0.2 -0.6,-0.4 -0.8,-0.6 -0.2,-0.2 -0.3,-0.5 -0.3,-0.9 0,-0.6 0.2,-1 0.7,-1.4 0.5,-0.4 1.1,-0.6 1.8,-0.6 0.8,0 1.4,0.2 1.9,0.6 0.5,0.4 0.7,0.9 0.7,1.5 l -1.2,0 c 0,-0.3 -0.1,-0.6 -0.4,-0.8 -0.3,-0.2 -0.6,-0.3 -1,-0.3 -0.4,0 -0.8,0.1 -1,0.3 -0.2,0.2 -0.4,0.4 -0.4,0.7 0,0.3 0.1,0.5 0.3,0.6 0.2,0.1 0.6,0.3 1.2,0.4 0.6,0.1 1.1,0.3 1.4,0.5 0.3,0.2 0.6,0.4 0.8,0.7 0.2,0.3 0.3,0.6 0.3,0.9 0,0.6 -0.2,1.1 -0.7,1.5 -0.5,0.4 -1.1,0.6 -1.9,0.6 -0.6,0 -1,-0.1 -1.5,-0.3 -0.5,-0.2 -0.8,-0.5 -1,-0.8 -0.2,-0.3 -0.4,-0.7 -0.4,-1.1 l 1.2,0 c 0,0.4 0.2,0.7 0.5,0.9 0.3,0.2 0.7,0.3 1.2,0.3 0.4,0 0.8,-0.1 1.1,-0.3 0.4,-0.1 0.6,-0.4 0.6,-0.7 z"
             id="path362"
             inkscape:connector-curvature="0"
             style="fill:#313334" />
        </g>
        <g
           id="XMLID_196_">
          <path
             class="st9"
             d="m 261.5,206.3 -1.7,0 -0.5,2.6 -0.9,0 0.5,-2.6 -1.5,0 0,-0.9 1.7,0 0.4,-2.3 -1.6,0 0,-0.9 1.8,0 0.5,-2.6 0.9,0 -0.5,2.6 1.7,0 0.5,-2.6 0.9,0 -0.5,2.6 1.3,0 0,0.9 -1.5,0 -0.4,2.3 1.4,0 0,0.9 -1.6,0 -0.5,2.6 -0.9,0 0.5,-2.6 z m -1.5,-0.9 1.7,0 0.4,-2.3 -1.7,0 -0.4,2.3 z"
             id="path365"
             inkscape:connector-curvature="0"
             style="fill:#97a822" />
        </g>
        <g
           id="XMLID_199_">
          <path
             class="st9"
             d="m 271.5,205.5 c 0,1 -0.2,1.9 -0.7,2.5 -0.5,0.6 -1.1,1 -1.9,1 -0.8,0 -1.5,-0.3 -2,-0.8 l 0,3.3 -1.2,0 0,-9.5 1.1,0 0.1,0.8 c 0.5,-0.6 1.1,-0.9 2,-0.9 0.8,0 1.5,0.3 2,0.9 0.5,0.6 0.7,1.5 0.7,2.6 l 0,0.1 z m -1.2,-0.1 c 0,-0.8 -0.2,-1.4 -0.5,-1.8 -0.3,-0.4 -0.8,-0.7 -1.4,-0.7 -0.7,0 -1.2,0.3 -1.6,0.9 l 0,3.3 c 0.4,0.6 0.9,0.9 1.6,0.9 0.6,0 1,-0.2 1.3,-0.7 0.4,-0.4 0.6,-1.1 0.6,-1.9 z"
             id="path368"
             inkscape:connector-curvature="0"
             style="fill:#97a822" />
        </g>
        <g
           id="XMLID_202_">
          <path
             class="st9"
             d="m 276.3,203 c -0.2,0 -0.4,0 -0.6,0 -0.8,0 -1.3,0.3 -1.6,1 l 0,4.9 -1.1,0 0,-6.9 1.1,0 0,0.8 c 0.4,-0.6 0.9,-0.9 1.6,-0.9 0.2,0 0.4,0 0.5,0.1 l 0,1 z"
             id="path371"
             inkscape:connector-curvature="0"
             style="fill:#97a822" />
        </g>
        <g
           id="XMLID_204_">
          <path
             class="st9"
             d="m 277,205.4 c 0,-0.7 0.1,-1.3 0.4,-1.8 0.3,-0.5 0.6,-1 1.1,-1.2 0.5,-0.3 1,-0.4 1.6,-0.4 0.9,0 1.7,0.3 2.3,1 0.6,0.6 0.9,1.5 0.9,2.6 l 0,0.1 c 0,0.7 -0.1,1.3 -0.4,1.8 -0.3,0.5 -0.6,0.9 -1.1,1.2 -0.5,0.3 -1,0.4 -1.6,0.4 -0.9,0 -1.7,-0.3 -2.3,-1 -0.6,-0.7 -0.9,-1.6 -0.9,-2.7 l 0,0 z m 1.2,0.1 c 0,0.8 0.2,1.4 0.5,1.8 0.4,0.5 0.8,0.7 1.4,0.7 0.6,0 1.1,-0.2 1.4,-0.7 0.4,-0.5 0.5,-1.1 0.5,-2 0,-0.8 -0.2,-1.4 -0.5,-1.8 -0.4,-0.5 -0.8,-0.7 -1.4,-0.7 -0.6,0 -1,0.2 -1.4,0.7 -0.4,0.5 -0.5,1.1 -0.5,2 z"
             id="path374"
             inkscape:connector-curvature="0"
             style="fill:#97a822" />
        </g>
        <g
           id="XMLID_207_">
          <path
             class="st9"
             d="m 287.5,208 c 0.4,0 0.8,-0.1 1.1,-0.4 0.3,-0.3 0.5,-0.6 0.5,-1 l 1.1,0 c 0,0.4 -0.2,0.8 -0.4,1.1 -0.2,0.3 -0.6,0.6 -1,0.8 -0.4,0.2 -0.9,0.3 -1.3,0.3 -0.9,0 -1.7,-0.3 -2.2,-0.9 -0.6,-0.6 -0.8,-1.5 -0.8,-2.6 l 0,-0.2 c 0,-0.7 0.1,-1.3 0.4,-1.8 0.3,-0.5 0.6,-0.9 1.1,-1.2 0.5,-0.3 1,-0.4 1.6,-0.4 0.8,0 1.4,0.2 1.9,0.7 0.5,0.5 0.8,1.1 0.8,1.8 l -1.1,0 c 0,-0.4 -0.2,-0.8 -0.5,-1.1 -0.3,-0.3 -0.7,-0.4 -1.1,-0.4 -0.6,0 -1.1,0.2 -1.4,0.6 -0.3,0.4 -0.5,1.1 -0.5,1.9 l 0,0.2 c 0,0.8 0.2,1.4 0.5,1.8 0.2,0.6 0.7,0.8 1.3,0.8 z"
             id="path377"
             inkscape:connector-curvature="0"
             style="fill:#97a822" />
        </g>
        <g
           id="XMLID_209_">
          <path
             class="st9"
             d="m 294.4,209 c -0.9,0 -1.7,-0.3 -2.3,-0.9 -0.6,-0.6 -0.9,-1.4 -0.9,-2.5 l 0,-0.2 c 0,-0.7 0.1,-1.3 0.4,-1.8 0.3,-0.5 0.6,-1 1.1,-1.3 0.5,-0.3 1,-0.5 1.5,-0.5 0.9,0 1.6,0.3 2.1,0.9 0.5,0.6 0.7,1.4 0.7,2.5 l 0,0.5 -4.7,0 c 0,0.7 0.2,1.2 0.6,1.6 0.4,0.4 0.9,0.6 1.4,0.6 0.4,0 0.8,-0.1 1.1,-0.3 0.3,-0.2 0.5,-0.4 0.8,-0.7 l 0.7,0.6 c -0.5,1 -1.3,1.5 -2.5,1.5 z m -0.1,-6.2 c -0.5,0 -0.9,0.2 -1.2,0.5 -0.3,0.3 -0.5,0.8 -0.6,1.5 l 3.4,0 0,-0.1 c 0,-0.6 -0.2,-1.1 -0.5,-1.4 -0.3,-0.3 -0.7,-0.5 -1.1,-0.5 z"
             id="path380"
             inkscape:connector-curvature="0"
             style="fill:#97a822" />
        </g>
        <g
           id="XMLID_212_">
          <path
             class="st9"
             d="m 302.4,207 c 0,-0.3 -0.1,-0.6 -0.4,-0.7 -0.2,-0.2 -0.7,-0.3 -1.3,-0.5 -0.6,-0.1 -1.1,-0.3 -1.4,-0.5 -0.3,-0.2 -0.6,-0.4 -0.8,-0.6 -0.2,-0.2 -0.3,-0.5 -0.3,-0.9 0,-0.6 0.2,-1 0.7,-1.4 0.5,-0.4 1.1,-0.6 1.8,-0.6 0.8,0 1.4,0.2 1.9,0.6 0.5,0.4 0.7,0.9 0.7,1.5 l -1.2,0 c 0,-0.3 -0.1,-0.6 -0.4,-0.8 -0.3,-0.2 -0.6,-0.3 -1,-0.3 -0.4,0 -0.8,0.1 -1,0.3 -0.2,0.2 -0.4,0.4 -0.4,0.7 0,0.3 0.1,0.5 0.3,0.6 0.2,0.1 0.6,0.3 1.2,0.4 0.6,0.1 1.1,0.3 1.4,0.5 0.3,0.2 0.6,0.4 0.8,0.7 0.2,0.3 0.3,0.6 0.3,0.9 0,0.6 -0.2,1.1 -0.7,1.5 -0.5,0.4 -1.1,0.6 -1.9,0.6 -0.6,0 -1,-0.1 -1.5,-0.3 -0.4,-0.2 -0.8,-0.5 -1,-0.8 -0.2,-0.3 -0.4,-0.7 -0.4,-1.1 l 1.2,0 c 0,0.4 0.2,0.7 0.5,0.9 0.3,0.2 0.7,0.3 1.2,0.3 0.4,0 0.8,-0.1 1.1,-0.3 0.5,-0.1 0.6,-0.4 0.6,-0.7 z"
             id="path383"
             inkscape:connector-curvature="0"
             style="fill:#97a822" />
        </g>
        <g
           id="XMLID_214_">
          <path
             class="st9"
             d="m 309,207 c 0,-0.3 -0.1,-0.6 -0.4,-0.7 -0.2,-0.2 -0.7,-0.3 -1.3,-0.5 -0.6,-0.1 -1.1,-0.3 -1.4,-0.5 -0.3,-0.2 -0.6,-0.4 -0.8,-0.6 -0.2,-0.2 -0.3,-0.5 -0.3,-0.9 0,-0.6 0.2,-1 0.7,-1.4 0.5,-0.4 1.1,-0.6 1.8,-0.6 0.8,0 1.4,0.2 1.9,0.6 0.5,0.4 0.7,0.9 0.7,1.5 l -0.9,0 c 0,-0.3 -0.1,-0.6 -0.4,-0.8 -0.3,-0.2 -0.6,-0.3 -1,-0.3 -0.4,0 -0.8,0.1 -1,0.3 -0.2,0.2 -0.4,0.4 -0.4,0.7 0,0.3 0.1,0.5 0.3,0.6 0.2,0.1 0.6,0.3 1.2,0.4 0.6,0.1 1.1,0.3 1.4,0.5 0.3,0.2 0.6,0.4 0.8,0.7 0.2,0.3 0.3,0.6 0.3,0.9 0,0.6 -0.2,1.1 -0.7,1.5 -0.5,0.4 -1.1,0.6 -1.9,0.6 -0.6,0 -1,-0.1 -1.5,-0.3 -0.4,-0.2 -0.8,-0.5 -1,-0.8 -0.2,-0.3 -0.4,-0.7 -0.4,-1.1 l 1.2,0 c 0,0.4 0.2,0.7 0.5,0.9 0.3,0.2 0.7,0.3 1.2,0.3 0.4,0 0.8,-0.1 1.1,-0.3 0.2,-0.1 0.3,-0.4 0.3,-0.7 z"
             id="path386"
             inkscape:connector-curvature="0"
             style="fill:#97a822" />
        </g>
        <g
           id="XMLID_216_">
          <path
             class="st6"
             d="m 322,207.6 c -0.3,0.4 -0.8,0.8 -1.3,1 -0.6,0.2 -1.2,0.3 -2,0.3 -0.8,0 -1.4,-0.2 -2,-0.5 -0.6,-0.4 -1,-0.9 -1.4,-1.5 -0.3,-0.7 -0.5,-1.4 -0.5,-2.3 l 0,-0.8 c 0,-1.4 0.3,-2.5 1,-3.2 0.6,-0.8 1.6,-1.1 2.7,-1.1 1,0 1.7,0.2 2.3,0.7 0.6,0.5 0.9,1.2 1.1,2.1 l -1.2,0 c -0.2,-1.2 -1,-1.8 -2.2,-1.8 -0.8,0 -1.4,0.3 -1.9,0.9 -0.4,0.6 -0.6,1.4 -0.6,2.5 l 0,0.8 c 0,1 0.2,1.9 0.7,2.5 0.5,0.6 1.1,0.9 1.9,0.9 0.5,0 0.9,-0.1 1.2,-0.2 0.3,-0.1 0.6,-0.3 0.9,-0.5 l 0,-2.1 -2.1,0 0,-1 3.4,0 0,3.3 z"
             id="path389"
             inkscape:connector-curvature="0"
             style="fill:#313334" />
        </g>
        <g
           id="XMLID_218_">
          <path
             class="st6"
             d="m 323.5,205.4 c 0,-0.7 0.1,-1.3 0.4,-1.8 0.3,-0.5 0.6,-1 1.1,-1.2 0.5,-0.3 1,-0.4 1.6,-0.4 0.9,0 1.7,0.3 2.3,1 0.6,0.6 0.9,1.5 0.9,2.6 l 0,0.1 c 0,0.7 -0.1,1.3 -0.4,1.8 -0.3,0.5 -0.6,0.9 -1.1,1.2 -0.5,0.3 -1,0.4 -1.6,0.4 -0.9,0 -1.7,-0.3 -2.3,-1 -0.6,-0.7 -0.9,-1.6 -0.9,-2.7 l 0,0 z m 1.2,0.1 c 0,0.8 0.2,1.4 0.5,1.8 0.4,0.5 0.8,0.7 1.4,0.7 0.6,0 1.1,-0.2 1.4,-0.7 0.4,-0.5 0.5,-1.1 0.5,-2 0,-0.8 -0.2,-1.4 -0.5,-1.8 -0.4,-0.5 -0.8,-0.7 -1.4,-0.7 -0.6,0 -1,0.2 -1.4,0.7 -0.4,0.5 -0.5,1.1 -0.5,2 z"
             id="path392"
             inkscape:connector-curvature="0"
             style="fill:#313334" />
        </g>
        <g
           id="XMLID_221_">
          <path
             class="st6"
             d="m 335,208.8 0,-6 -1.1,0 0,-0.8 1.1,0 0,-0.7 c 0,-0.7 0.2,-1.3 0.6,-1.7 0.4,-0.4 1,-0.6 1.7,-0.6 0.3,0 0.5,0 0.8,0.1 L 338,200 c -0.2,0 -0.4,-0.1 -0.6,-0.1 -0.4,0 -0.7,0.1 -0.9,0.3 -0.2,0.2 -0.3,0.5 -0.3,1 l 0,0.7 1.5,0 0,0.9 -1.5,0 0,6 -1.2,0 z"
             id="path395"
             inkscape:connector-curvature="0"
             style="fill:#313334" />
        </g>
        <g
           id="XMLID_223_">
          <path
             class="st6"
             d="m 343.1,208.2 c -0.5,0.5 -1.1,0.8 -2,0.8 -0.7,0 -1.3,-0.2 -1.7,-0.6 -0.4,-0.4 -0.6,-1.1 -0.6,-1.9 l 0,-4.5 1.2,0 0,4.4 c 0,1 0.4,1.6 1.3,1.6 0.9,0 1.5,-0.3 1.8,-1 l 0,-5 1.2,0 0,6.9 -1.1,0 -0.1,-0.7 z"
             id="path398"
             inkscape:connector-curvature="0"
             style="fill:#313334" />
        </g>
        <g
           id="XMLID_225_">
          <path
             class="st6"
             d="m 349.4,203 c -0.2,0 -0.4,0 -0.6,0 -0.8,0 -1.3,0.3 -1.6,1 l 0,4.9 -1.2,0 0,-6.9 1.1,0 0,0.8 c 0.4,-0.6 0.9,-0.9 1.6,-0.9 0.2,0 0.4,0 0.5,0.1 l 0,1 z"
             id="path401"
             inkscape:connector-curvature="0"
             style="fill:#313334" />
        </g>
        <g
           id="XMLID_227_">
          <path
             class="st6"
             d="m 352.5,200.3 0,1.7 1.3,0 0,0.9 -1.3,0 0,4.3 c 0,0.3 0.1,0.5 0.2,0.6 0.1,0.1 0.3,0.2 0.6,0.2 0.1,0 0.3,0 0.6,-0.1 l 0,0.9 c -0.3,0.1 -0.6,0.1 -0.9,0.1 -0.5,0 -0.9,-0.2 -1.2,-0.5 -0.3,-0.3 -0.4,-0.8 -0.4,-1.4 l 0,-4.3 -1.3,0 0,-0.7 1.3,0 0,-1.7 1.1,0 z"
             id="path404"
             inkscape:connector-curvature="0"
             style="fill:#313334" />
        </g>
        <g
           id="XMLID_229_">
          <path
             class="st6"
             d="m 356.2,202.8 c 0.5,-0.6 1.2,-1 2,-1 1.5,0 2.2,0.8 2.2,2.5 l 0,4.5 -1.2,0 0,-4.5 c 0,-0.5 -0.1,-0.9 -0.3,-1.1 -0.2,-0.2 -0.6,-0.4 -1,-0.4 -0.4,0 -0.7,0.1 -1,0.3 -0.3,0.2 -0.5,0.5 -0.7,0.8 l 0,4.9 -1.2,0 0,-9.8 1.2,0 0,3.8 z"
             id="path407"
             inkscape:connector-curvature="0"
             style="fill:#313334" />
        </g>
        <g
           id="XMLID_231_">
          <path
             class="st6"
             d="m 365.1,209 c -0.9,0 -1.7,-0.3 -2.3,-0.9 -0.6,-0.6 -0.9,-1.4 -0.9,-2.5 l 0,-0.2 c 0,-0.7 0.1,-1.3 0.4,-1.8 0.3,-0.5 0.6,-1 1.1,-1.3 0.5,-0.3 1,-0.5 1.5,-0.5 0.9,0 1.6,0.3 2.1,0.9 0.5,0.6 0.7,1.4 0.7,2.5 l 0,0.5 -4.7,0 c 0,0.7 0.2,1.2 0.6,1.6 0.4,0.4 0.9,0.6 1.4,0.6 0.4,0 0.8,-0.1 1.1,-0.3 0.3,-0.2 0.5,-0.4 0.8,-0.7 l 0.7,0.6 c -0.5,1 -1.4,1.5 -2.5,1.5 z m -0.2,-6.2 c -0.5,0 -0.9,0.2 -1.2,0.5 -0.3,0.3 -0.5,0.8 -0.6,1.5 l 3.4,0 0,-0.1 c 0,-0.6 -0.2,-1.1 -0.5,-1.4 -0.3,-0.3 -0.6,-0.5 -1.1,-0.5 z"
             id="path410"
             inkscape:connector-curvature="0"
             style="fill:#313334" />
        </g>
        <g
           id="XMLID_234_">
          <path
             class="st6"
             d="m 372.5,203 c -0.2,0 -0.4,0 -0.6,0 -0.8,0 -1.3,0.3 -1.6,1 l 0,4.9 -1.2,0 0,-6.9 1.1,0 0,0.8 c 0.4,-0.6 0.9,-0.9 1.6,-0.9 0.2,0 0.4,0 0.5,0.1 l 0,1 z"
             id="path413"
             inkscape:connector-curvature="0"
             style="fill:#313334" />
        </g>
        <g
           id="XMLID_236_">
          <path
             class="st9"
             d="m 261.5,232.3 -1.7,0 -0.5,2.6 -0.9,0 0.5,-2.6 -1.5,0 0,-0.9 1.7,0 0.4,-2.3 -1.6,0 0,-0.9 1.8,0 0.5,-2.6 0.9,0 -0.5,2.6 1.7,0 0.5,-2.6 0.9,0 -0.5,2.6 1.3,0 0,0.9 -1.5,0 -0.4,2.3 1.4,0 0,0.9 -1.6,0 -0.5,2.6 -0.9,0 0.5,-2.6 z m -1.5,-0.9 1.7,0 0.4,-2.3 -1.7,0 -0.4,2.3 z"
             id="path416"
             inkscape:connector-curvature="0"
             style="fill:#97a822" />
        </g>
        <g
           id="XMLID_239_">
          <path
             class="st9"
             d="m 268.4,235 c -0.9,0 -1.7,-0.3 -2.3,-0.9 -0.6,-0.6 -0.9,-1.4 -0.9,-2.5 l 0,-0.2 c 0,-0.7 0.1,-1.3 0.4,-1.8 0.3,-0.5 0.6,-1 1.1,-1.3 0.5,-0.3 1,-0.5 1.5,-0.5 0.9,0 1.6,0.3 2.1,0.9 0.5,0.6 0.7,1.4 0.7,2.5 l 0,0.5 -4.7,0 c 0,0.7 0.2,1.2 0.6,1.6 0.4,0.4 0.9,0.6 1.4,0.6 0.4,0 0.8,-0.1 1.1,-0.3 0.3,-0.2 0.5,-0.4 0.8,-0.7 l 0.7,0.6 c -0.5,1 -1.3,1.5 -2.5,1.5 z m -0.1,-6.2 c -0.5,0 -0.9,0.2 -1.2,0.5 -0.3,0.3 -0.5,0.8 -0.6,1.5 l 3.4,0 0,-0.1 c 0,-0.6 -0.2,-1.1 -0.5,-1.4 -0.3,-0.3 -0.6,-0.5 -1.1,-0.5 z"
             id="path419"
             inkscape:connector-curvature="0"
             style="fill:#97a822" />
        </g>
        <g
           id="XMLID_242_">
          <path
             class="st9"
             d="m 273.6,228 0,0.9 c 0.5,-0.7 1.2,-1 2.1,-1 1.5,0 2.2,0.8 2.2,2.5 l 0,4.5 -1.2,0 0,-4.5 c 0,-0.5 -0.1,-0.9 -0.3,-1.1 -0.2,-0.2 -0.6,-0.4 -1,-0.4 -0.4,0 -0.7,0.1 -1,0.3 -0.3,0.2 -0.5,0.5 -0.7,0.8 l 0,4.9 -1.2,0 0,-6.9 1.1,0 z"
             id="path422"
             inkscape:connector-curvature="0"
             style="fill:#97a822" />
        </g>
        <g
           id="XMLID_244_">
          <path
             class="st9"
             d="m 279.4,231.4 c 0,-1.1 0.2,-1.9 0.7,-2.5 0.5,-0.6 1.2,-1 2,-1 0.8,0 1.4,0.3 1.9,0.8 l 0,-3.6 1.2,0 0,9.8 -1.1,0 -0.1,-0.7 c -0.5,0.6 -1.1,0.9 -2,0.9 -0.8,0 -1.4,-0.3 -1.9,-1 -0.4,-0.8 -0.7,-1.6 -0.7,-2.7 l 0,0 z m 1.2,0.1 c 0,0.8 0.2,1.4 0.5,1.8 0.3,0.4 0.8,0.7 1.3,0.7 0.7,0 1.3,-0.3 1.6,-1 l 0,-3.2 c -0.4,-0.6 -0.9,-1 -1.6,-1 -0.6,0 -1,0.2 -1.3,0.7 -0.4,0.5 -0.5,1.1 -0.5,2 z"
             id="path425"
             inkscape:connector-curvature="0"
             style="fill:#97a822" />
        </g>
        <g
           id="XMLID_247_">
          <path
             class="st6"
             d="m 292.4,231.9 0.2,1.2 0.3,-1.1 1.8,-6.4 1,0 1.8,6.4 0.3,1.1 0.2,-1.2 1.4,-6.3 1.2,0 -2.2,9.2 -1.1,0 -1.9,-6.7 -0.1,-0.7 -0.1,0.7 -2,6.7 -1.2,0 -2.2,-9.2 1.2,0 1.4,6.3 z"
             id="path428"
             inkscape:connector-curvature="0"
             style="fill:#313334" />
        </g>
        <g
           id="XMLID_249_">
          <path
             class="st6"
             d="m 304.3,235 c -0.9,0 -1.7,-0.3 -2.3,-0.9 -0.6,-0.6 -0.9,-1.4 -0.9,-2.5 l 0,-0.2 c 0,-0.7 0.1,-1.3 0.4,-1.8 0.3,-0.5 0.6,-1 1.1,-1.3 0.5,-0.3 1,-0.5 1.5,-0.5 0.9,0 1.6,0.3 2.1,0.9 0.5,0.6 0.7,1.4 0.7,2.5 l 0,0.5 -4.7,0 c 0,0.7 0.2,1.2 0.6,1.6 0.4,0.4 0.9,0.6 1.4,0.6 0.4,0 0.8,-0.1 1.1,-0.3 0.3,-0.2 0.5,-0.4 0.8,-0.7 l 0.7,0.6 c -0.5,1 -1.4,1.5 -2.5,1.5 z m -0.2,-6.2 c -0.5,0 -0.9,0.2 -1.2,0.5 -0.3,0.3 -0.5,0.8 -0.6,1.5 l 3.4,0 0,-0.1 c 0,-0.6 -0.2,-1.1 -0.5,-1.4 -0.3,-0.3 -0.6,-0.5 -1.1,-0.5 z"
             id="path431"
             inkscape:connector-curvature="0"
             style="fill:#313334" />
        </g>
        <g
           id="XMLID_252_">
          <path
             class="st6"
             d="m 309.6,234.8 -1.2,0 0,-9.8 1.2,0 0,9.8 z"
             id="path434"
             inkscape:connector-curvature="0"
             style="fill:#313334" />
        </g>
        <g
           id="XMLID_254_">
          <path
             class="st6"
             d="m 312.7,234.8 -1.2,0 0,-9.8 1.2,0 0,9.8 z"
             id="path437"
             inkscape:connector-curvature="0"
             style="fill:#313334" />
        </g>
        <g
           id="XMLID_256_">
          <path
             class="st6"
             d="m 317.5,231.4 c 0,-1.1 0.2,-1.9 0.7,-2.5 0.5,-0.6 1.2,-1 2,-1 0.8,0 1.4,0.3 1.9,0.8 l 0,-3.6 1.2,0 0,9.8 -1.1,0 -0.1,-0.7 c -0.5,0.6 -1.1,0.9 -2,0.9 -0.8,0 -1.4,-0.3 -1.9,-1 -0.5,-0.8 -0.7,-1.6 -0.7,-2.7 l 0,0 z m 1.2,0.1 c 0,0.8 0.2,1.4 0.5,1.8 0.3,0.4 0.8,0.7 1.3,0.7 0.7,0 1.3,-0.3 1.6,-1 l 0,-3.2 c -0.4,-0.6 -0.9,-1 -1.6,-1 -0.6,0 -1,0.2 -1.3,0.7 -0.4,0.5 -0.5,1.1 -0.5,2 z"
             id="path440"
             inkscape:connector-curvature="0"
             style="fill:#313334" />
        </g>
        <g
           id="XMLID_259_">
          <path
             class="st6"
             d="m 324.8,231.4 c 0,-0.7 0.1,-1.3 0.4,-1.8 0.3,-0.5 0.6,-1 1.1,-1.2 0.5,-0.3 1,-0.4 1.6,-0.4 0.9,0 1.7,0.3 2.3,1 0.6,0.6 0.9,1.5 0.9,2.6 l 0,0.1 c 0,0.7 -0.1,1.3 -0.4,1.8 -0.3,0.5 -0.6,0.9 -1.1,1.2 -0.5,0.3 -1,0.4 -1.6,0.4 -0.9,0 -1.7,-0.3 -2.3,-1 -0.7,-0.7 -0.9,-1.6 -0.9,-2.7 l 0,0 z m 1.1,0.1 c 0,0.8 0.2,1.4 0.5,1.8 0.4,0.5 0.8,0.7 1.4,0.7 0.6,0 1.1,-0.2 1.4,-0.7 0.4,-0.5 0.5,-1.1 0.5,-2 0,-0.8 -0.2,-1.4 -0.5,-1.8 -0.4,-0.5 -0.8,-0.7 -1.4,-0.7 -0.6,0 -1,0.2 -1.4,0.7 -0.4,0.5 -0.5,1.1 -0.5,2 z"
             id="path443"
             inkscape:connector-curvature="0"
             style="fill:#313334" />
        </g>
        <g
           id="XMLID_262_">
          <path
             class="st6"
             d="m 333.6,228 0,0.9 c 0.5,-0.7 1.2,-1 2.1,-1 1.5,0 2.2,0.8 2.2,2.5 l 0,4.5 -1.2,0 0,-4.5 c 0,-0.5 -0.1,-0.9 -0.3,-1.1 -0.2,-0.2 -0.6,-0.4 -1,-0.4 -0.4,0 -0.7,0.1 -1,0.3 -0.3,0.2 -0.5,0.5 -0.7,0.8 l 0,4.9 -1.2,0 0,-6.9 1.1,0 z"
             id="path446"
             inkscape:connector-curvature="0"
             style="fill:#313334" />
        </g>
        <g
           id="XMLID_264_">
          <path
             class="st6"
             d="m 342.5,235 c -0.9,0 -1.7,-0.3 -2.3,-0.9 -0.6,-0.6 -0.9,-1.4 -0.9,-2.5 l 0,-0.2 c 0,-0.7 0.1,-1.3 0.4,-1.8 0.3,-0.5 0.6,-1 1.1,-1.3 0.5,-0.3 1,-0.5 1.5,-0.5 0.9,0 1.6,0.3 2.1,0.9 0.5,0.6 0.7,1.4 0.7,2.5 l 0,0.5 -4.7,0 c 0,0.7 0.2,1.2 0.6,1.6 0.4,0.4 0.9,0.6 1.4,0.6 0.4,0 0.8,-0.1 1.1,-0.3 0.3,-0.2 0.5,-0.4 0.8,-0.7 l 0.7,0.6 c -0.5,1 -1.4,1.5 -2.5,1.5 z m -0.2,-6.2 c -0.5,0 -0.9,0.2 -1.2,0.5 -0.3,0.3 -0.5,0.8 -0.6,1.5 l 3.4,0 0,-0.1 c 0,-0.6 -0.2,-1.1 -0.5,-1.4 -0.3,-0.3 -0.6,-0.5 -1.1,-0.5 z"
             id="path449"
             inkscape:connector-curvature="0"
             style="fill:#313334" />
        </g>
        <g
           id="XMLID_267_">
          <path
             class="st6"
             d="m 346.6,234.3 c 0,-0.2 0.1,-0.4 0.2,-0.5 0.1,-0.1 0.3,-0.2 0.5,-0.2 0.2,0 0.4,0.1 0.5,0.2 0.1,0.1 0.2,0.3 0.2,0.5 0,0.2 -0.1,0.4 -0.2,0.5 -0.1,0.1 -0.3,0.2 -0.5,0.2 -0.2,0 -0.4,-0.1 -0.5,-0.2 -0.1,-0.2 -0.2,-0.4 -0.2,-0.5 z m 1.2,-2.1 -1.1,0 -0.1,-6.6 1.2,0 0,6.6 z"
             id="path452"
             inkscape:connector-curvature="0"
             style="fill:#313334" />
        </g>
        <g
           id="XMLID_270_">
          <path
             class="st6"
             d="m 228.8,260.8 -1.2,0 -4.7,-7.1 0,7.1 -1.2,0 0,-9.2 1.2,0 4.7,7.2 0,-7.2 1.2,0 0,9.2 z"
             id="path455"
             inkscape:connector-curvature="0"
             style="fill:#313334" />
        </g>
        <g
           id="XMLID_272_">
          <path
             class="st6"
             d="m 230.5,257.4 c 0,-0.7 0.1,-1.3 0.4,-1.8 0.3,-0.5 0.6,-1 1.1,-1.2 0.5,-0.3 1,-0.4 1.6,-0.4 0.9,0 1.7,0.3 2.3,1 0.6,0.6 0.9,1.5 0.9,2.6 l 0,0.1 c 0,0.7 -0.1,1.3 -0.4,1.8 -0.3,0.5 -0.6,0.9 -1.1,1.2 -0.5,0.3 -1,0.4 -1.6,0.4 -0.9,0 -1.7,-0.3 -2.3,-1 -0.6,-0.7 -0.9,-1.6 -0.9,-2.7 l 0,0 z m 1.2,0.1 c 0,0.8 0.2,1.4 0.5,1.8 0.4,0.5 0.8,0.7 1.4,0.7 0.6,0 1.1,-0.2 1.4,-0.7 0.4,-0.5 0.5,-1.1 0.5,-2 0,-0.8 -0.2,-1.4 -0.5,-1.8 -0.4,-0.5 -0.8,-0.7 -1.4,-0.7 -0.6,0 -1,0.2 -1.4,0.7 -0.4,0.5 -0.5,1.1 -0.5,2 z"
             id="path458"
             inkscape:connector-curvature="0"
             style="fill:#313334" />
        </g>
        <g
           id="XMLID_275_">
          <path
             class="st9"
             d="m 261.5,284.3 -1.7,0 -0.5,2.6 -0.9,0 0.5,-2.6 -1.5,0 0,-0.9 1.7,0 0.4,-2.3 -1.6,0 0,-0.9 1.8,0 0.5,-2.6 0.9,0 -0.5,2.6 1.7,0 0.5,-2.6 0.9,0 -0.5,2.6 1.3,0 0,0.9 -1.5,0 -0.4,2.3 1.4,0 0,0.9 -1.6,0 -0.5,2.6 -0.9,0 0.5,-2.6 z m -1.5,-0.9 1.7,0 0.4,-2.3 -1.7,0 -0.4,2.3 z"
             id="path461"
             inkscape:connector-curvature="0"
             style="fill:#97a822" />
        </g>
        <g
           id="XMLID_278_">
          <path
             class="st9"
             d="m 268.4,287 c -0.9,0 -1.7,-0.3 -2.3,-0.9 -0.6,-0.6 -0.9,-1.4 -0.9,-2.5 l 0,-0.2 c 0,-0.7 0.1,-1.3 0.4,-1.8 0.3,-0.5 0.6,-1 1.1,-1.3 0.5,-0.3 1,-0.5 1.5,-0.5 0.9,0 1.6,0.3 2.1,0.9 0.5,0.6 0.7,1.4 0.7,2.5 l 0,0.5 -4.7,0 c 0,0.7 0.2,1.2 0.6,1.6 0.4,0.4 0.9,0.6 1.4,0.6 0.4,0 0.8,-0.1 1.1,-0.3 0.3,-0.2 0.5,-0.4 0.8,-0.7 l 0.7,0.6 c -0.5,1 -1.3,1.5 -2.5,1.5 z m -0.1,-6.2 c -0.5,0 -0.9,0.2 -1.2,0.5 -0.3,0.3 -0.5,0.8 -0.6,1.5 l 3.4,0 0,-0.1 c 0,-0.6 -0.2,-1.1 -0.5,-1.4 -0.3,-0.3 -0.6,-0.5 -1.1,-0.5 z"
             id="path464"
             inkscape:connector-curvature="0"
             style="fill:#97a822" />
        </g>
        <g
           id="XMLID_281_">
          <path
             class="st9"
             d="m 273.6,280 0,0.9 c 0.5,-0.7 1.2,-1 2.1,-1 1.5,0 2.2,0.8 2.2,2.5 l 0,4.5 -1.2,0 0,-4.5 c 0,-0.5 -0.1,-0.9 -0.3,-1.1 -0.2,-0.2 -0.6,-0.4 -1,-0.4 -0.4,0 -0.7,0.1 -1,0.3 -0.3,0.2 -0.5,0.5 -0.7,0.8 l 0,4.9 -1.2,0 0,-6.9 1.1,0 z"
             id="path467"
             inkscape:connector-curvature="0"
             style="fill:#97a822" />
        </g>
        <g
           id="XMLID_283_">
          <path
             class="st9"
             d="m 279.4,283.4 c 0,-1.1 0.2,-1.9 0.7,-2.5 0.5,-0.6 1.2,-1 2,-1 0.8,0 1.4,0.3 1.9,0.8 l 0,-3.6 1.2,0 0,9.8 -1.1,0 -0.1,-0.7 c -0.5,0.6 -1.1,0.9 -2,0.9 -0.8,0 -1.4,-0.3 -1.9,-1 -0.4,-0.8 -0.7,-1.6 -0.7,-2.7 l 0,0 z m 1.2,0.1 c 0,0.8 0.2,1.4 0.5,1.8 0.3,0.4 0.8,0.7 1.3,0.7 0.7,0 1.3,-0.3 1.6,-1 l 0,-3.2 c -0.4,-0.6 -0.9,-1 -1.6,-1 -0.6,0 -1,0.2 -1.3,0.7 -0.4,0.5 -0.5,1.1 -0.5,2 z"
             id="path470"
             inkscape:connector-curvature="0"
             style="fill:#97a822" />
        </g>
        <g
           id="XMLID_286_">
          <path
             class="st6"
             d="m 297.5,282.5 c 0,0.9 -0.2,1.7 -0.5,2.4 -0.3,0.7 -0.7,1.2 -1.3,1.5 -0.6,0.3 -1.2,0.5 -2,0.5 -0.7,0 -1.4,-0.2 -1.9,-0.5 -0.5,-0.3 -1,-0.9 -1.3,-1.5 -0.3,-0.7 -0.5,-1.4 -0.5,-2.3 l 0,-0.7 c 0,-0.9 0.2,-1.7 0.5,-2.4 0.3,-0.7 0.7,-1.2 1.3,-1.6 0.6,-0.4 1.2,-0.5 1.9,-0.5 0.7,0 1.4,0.2 2,0.5 0.6,0.4 1,0.9 1.3,1.6 0.3,0.7 0.5,1.5 0.5,2.4 l 0,0.6 z m -1.2,-0.6 c 0,-1.1 -0.2,-1.9 -0.7,-2.5 -0.5,-0.6 -1.1,-0.9 -1.8,-0.9 -0.8,0 -1.4,0.3 -1.8,0.9 -0.4,0.6 -0.7,1.4 -0.7,2.4 l 0,0.7 c 0,1.1 0.2,1.9 0.7,2.5 0.4,0.6 1.1,0.9 1.8,0.9 0.8,0 1.4,-0.3 1.8,-0.9 0.4,-0.6 0.7,-1.4 0.7,-2.5 l 0,-0.6 z"
             id="path473"
             inkscape:connector-curvature="0"
             style="fill:#313334" />
        </g>
        <g
           id="XMLID_289_">
          <path
             class="st6"
             d="m 300.4,280.8 c 0.5,-0.6 1.2,-1 2,-1 1.5,0 2.2,0.8 2.2,2.5 l 0,4.5 -1.2,0 0,-4.5 c 0,-0.5 -0.1,-0.9 -0.3,-1.1 -0.2,-0.2 -0.6,-0.4 -1,-0.4 -0.4,0 -0.7,0.1 -1,0.3 -0.3,0.2 -0.5,0.5 -0.7,0.8 l 0,4.9 -1.2,0 0,-9.8 1.2,0 0,3.8 z"
             id="path476"
             inkscape:connector-curvature="0"
             style="fill:#313334" />
        </g>
        <g
           id="XMLID_291_">
          <path
             class="st6"
             d="m 306.5,288.7 -0.7,-0.5 c 0.4,-0.6 0.6,-1.1 0.6,-1.7 l 0,-1.1 1.1,0 0,0.9 c 0,0.4 -0.1,0.9 -0.3,1.3 -0.1,0.5 -0.4,0.8 -0.7,1.1 z"
             id="path479"
             inkscape:connector-curvature="0"
             style="fill:#313334" />
        </g>
        <g
           id="XMLID_293_">
          <path
             class="st6"
             d="m 318.4,285.2 1.3,-5.2 1.2,0 -2,6.9 -1,0 -1.7,-5.2 -1.6,5.2 -1,0 -2,-6.9 1.2,0 1.4,5.1 1.6,-5.1 0.9,0 1.7,5.2 z"
             id="path482"
             inkscape:connector-curvature="0"
             style="fill:#313334" />
        </g>
        <g
           id="XMLID_295_">
          <path
             class="st6"
             d="m 323.2,280.8 c 0.5,-0.6 1.2,-1 2,-1 1.5,0 2.2,0.8 2.2,2.5 l 0,4.5 -1.2,0 0,-4.5 c 0,-0.5 -0.1,-0.9 -0.3,-1.1 -0.2,-0.2 -0.6,-0.4 -1,-0.4 -0.4,0 -0.7,0.1 -1,0.3 -0.3,0.2 -0.5,0.5 -0.7,0.8 l 0,4.9 -1.2,0 0,-9.8 1.2,0 0,3.8 z"
             id="path485"
             inkscape:connector-curvature="0"
             style="fill:#313334" />
        </g>
        <g
           id="XMLID_297_">
          <path
             class="st6"
             d="m 331.3,285.1 1.6,-5.1 1.3,0 -2.8,7.9 c -0.4,1.1 -1.1,1.7 -2,1.7 l -0.2,0 -0.4,-0.1 0,-1 0.3,0 c 0.4,0 0.7,-0.1 0.9,-0.2 0.2,-0.2 0.4,-0.5 0.5,-0.9 l 0.3,-0.7 -2.5,-6.8 1.3,0 1.7,5.2 z"
             id="path488"
             inkscape:connector-curvature="0"
             style="fill:#313334" />
        </g>
        <g
           id="XMLID_299_">
          <path
             class="st6"
             d="m 336.8,284.2 c 0,-0.5 0.1,-0.9 0.2,-1.2 0.1,-0.3 0.3,-0.6 0.6,-1 l 0.8,-0.9 c 0.4,-0.4 0.5,-0.8 0.5,-1.3 0,-0.4 -0.1,-0.8 -0.3,-1 -0.2,-0.3 -0.6,-0.4 -1,-0.4 -0.4,0 -0.8,0.1 -1,0.3 -0.2,0.2 -0.4,0.5 -0.4,0.9 l -1.2,0 c 0,-0.7 0.3,-1.2 0.7,-1.7 0.5,-0.4 1.1,-0.6 1.9,-0.6 0.8,0 1.4,0.2 1.9,0.6 0.4,0.4 0.7,1 0.7,1.8 0,0.7 -0.3,1.5 -1,2.2 l -0.7,0.7 c -0.3,0.3 -0.5,0.8 -0.5,1.5 l -1.2,0 z m -0.1,2.1 c 0,-0.2 0.1,-0.4 0.2,-0.5 0.1,-0.1 0.3,-0.2 0.5,-0.2 0.2,0 0.4,0.1 0.5,0.2 0.1,0.1 0.2,0.3 0.2,0.5 0,0.2 -0.1,0.4 -0.2,0.5 -0.1,0.1 -0.3,0.2 -0.5,0.2 -0.2,0 -0.4,-0.1 -0.5,-0.2 -0.1,-0.2 -0.2,-0.4 -0.2,-0.5 z"
             id="path491"
             inkscape:connector-curvature="0"
             style="fill:#313334" />
        </g>
      </g>
      <g
         id="g493"
         transform="translate(1.4860479,531.11802)">
        <g
           id="XMLID_47_">
          <polygon
             class="st10"
             points="204.6,192.2 204.6,230.8 214.1,230.8 214.1,231.8 203.6,231.8 203.6,192.2 "
             id="polygon496"
             style="fill:#dadada" />
        </g>
      </g>
      <g
         id="g498"
         transform="translate(1.4860479,531.11802)">
        <g
           id="XMLID_46_">
          <polygon
             class="st10"
             points="204.6,271.2 204.6,282.8 214.1,282.8 214.1,283.8 203.6,283.8 203.6,271.2 "
             id="polygon501"
             style="fill:#dadada" />
        </g>
      </g>
      <g
         id="g503"
         transform="translate(1.4860479,531.11802)">
        <g
           id="XMLID_45_">
          <polygon
             class="st10"
             points="171.6,166.1 171.6,256.8 181.1,256.8 181.1,257.8 170.6,257.8 170.6,166.1 "
             id="polygon506"
             style="fill:#dadada" />
        </g>
      </g>
      <g
         id="g508"
         transform="translate(1.4860479,531.11802)">
        <g
           id="XMLID_34_">
          <g
             id="g511">
            <path
               class="st11"
               d="m 170.6,96.9 c 2.2,0 4,1.8 4,4 0,2.2 -1.8,4 -4,4 -2.2,0 -4,-1.8 -4,-4 0,-2.2 1.8,-4 4,-4 m 0,-1 c -2.8,0 -5,2.2 -5,5 0,2.8 2.2,5 5,5 2.8,0 5,-2.2 5,-5 0,-2.7 -2.2,-5 -5,-5 l 0,0 z"
               id="path513"
               inkscape:connector-curvature="0"
               style="fill:#656667" />
          </g>
        </g>
      </g>
      <g
         id="g515"
         transform="translate(1.4860479,531.11802)">
        <g
           id="XMLID_31_">
          <g
             id="g518">
            <path
               class="st11"
               d="m 170.6,123 c 2.2,0 4,1.8 4,4 0,2.2 -1.8,4 -4,4 -2.2,0 -4,-1.8 -4,-4 0,-2.2 1.8,-4 4,-4 m 0,-1 c -2.8,0 -5,2.2 -5,5 0,2.8 2.2,5 5,5 2.8,0 5,-2.2 5,-5 0,-2.8 -2.2,-5 -5,-5 l 0,0 z"
               id="path520"
               inkscape:connector-curvature="0"
               style="fill:#656667" />
          </g>
        </g>
      </g>
      <g
         id="g522"
         transform="translate(1.4860479,531.11802)">
        <g
           id="XMLID_28_">
          <g
             id="g525">
            <path
               class="st11"
               d="m 170.6,149.1 c 2.2,0 4,1.8 4,4 0,2.2 -1.8,4 -4,4 -2.2,0 -4,-1.8 -4,-4 0,-2.2 1.8,-4 4,-4 m 0,-1 c -2.8,0 -5,2.2 -5,5 0,2.8 2.2,5 5,5 2.8,0 5,-2.2 5,-5 0,-2.8 -2.2,-5 -5,-5 l 0,0 z"
               id="path527"
               inkscape:connector-curvature="0"
               style="fill:#656667" />
          </g>
        </g>
      </g>
      <g
         id="g529"
         transform="translate(1.4860479,531.11802)">
        <g
           id="XMLID_25_">
          <g
             id="g532">
            <path
               class="st11"
               d="m 242.2,201.2 c 2.2,0 4,1.8 4,4 0,2.2 -1.8,4 -4,4 -2.2,0 -4,-1.8 -4,-4 0,-2.2 1.8,-4 4,-4 m 0,-1 c -2.8,0 -5,2.2 -5,5 0,2.8 2.2,5 5,5 2.8,0 5,-2.2 5,-5 0,-2.7 -2.2,-5 -5,-5 l 0,0 z"
               id="path534"
               inkscape:connector-curvature="0"
               style="fill:#656667" />
          </g>
        </g>
      </g>
      <g
         id="g536"
         transform="translate(1.4860479,531.11802)">
        <g
           id="XMLID_16_">
          <g
             id="g539">
            <path
               class="st11"
               d="m 242.2,227.3 c 2.2,0 4,1.8 4,4 0,2.2 -1.8,4 -4,4 -2.2,0 -4,-1.8 -4,-4 0,-2.2 1.8,-4 4,-4 m 0,-1 c -2.8,0 -5,2.2 -5,5 0,2.8 2.2,5 5,5 2.8,0 5,-2.2 5,-5 0,-2.8 -2.2,-5 -5,-5 l 0,0 z"
               id="path541"
               inkscape:connector-curvature="0"
               style="fill:#656667" />
          </g>
        </g>
      </g>
      <g
         id="g543"
         transform="translate(1.4860479,531.11802)">
        <g
           id="XMLID_12_">
          <g
             id="g546">
            <path
               class="st11"
               d="m 242.2,279.3 c 2.2,0 4,1.8 4,4 0,2.2 -1.8,4 -4,4 -2.2,0 -4,-1.8 -4,-4 0,-2.2 1.8,-4 4,-4 m 0,-1 c -2.8,0 -5,2.2 -5,5 0,2.8 2.2,5 5,5 2.8,0 5,-2.2 5,-5 0,-2.8 -2.2,-5 -5,-5 l 0,0 z"
               id="path548"
               inkscape:connector-curvature="0"
               style="fill:#656667" />
          </g>
        </g>
      </g>
      <g
         id="g550"
         transform="translate(1.4860479,531.11802)">
        <g
           id="g552">
          <g
             id="g554">
            <rect
               x="198.60001"
               y="178.8"
               class="st11"
               width="6"
               height="1"
               id="rect556"
               style="fill:#656667" />
          </g>
        </g>
      </g>
      <g
         id="g558"
         transform="translate(1.4860479,531.11802)">
        <g
           id="g560">
          <path
             class="st11"
             d="m 204.6,175.9 4.4,3.4 -4.4,3.4 0,-6.8 m -1,-2.1 0,11 7,-5.5 -7,-5.5 0,0 z"
             id="path562"
             inkscape:connector-curvature="0"
             style="fill:#656667" />
        </g>
      </g>
      <g
         id="g564"
         transform="translate(1.4860479,531.11802)">
        <g
           id="g566">
          <g
             id="g568">
            <rect
               x="198.60001"
               y="256.79999"
               class="st11"
               width="6"
               height="1"
               id="rect570"
               style="fill:#656667" />
          </g>
        </g>
      </g>
      <g
         id="g572"
         transform="translate(1.4860479,531.11802)">
        <g
           id="XMLID_83_">
          <g
             id="g575">
            <path
               class="st11"
               d="m 204.6,253.9 4.4,3.4 -4.4,3.4 0,-6.8 m -1,-2.1 0,11 7,-5.5 -7,-5.5 0,0 z"
               id="path577"
               inkscape:connector-curvature="0"
               style="fill:#656667" />
          </g>
        </g>
      </g>
    </g>
    <g
       id="g4573"
       transform="matrix(1.1749212,0,0,1.2341115,-389.23194,-225.24257)">
      <g
         id="g26"
         transform="translate(123.82611,671.80618)">
        <g
           id="XMLID_396_">
          <path
             style="fill:#c1c2c2"
             inkscape:connector-curvature="0"
             id="path29"
             d="m 690.5,311 -2,0 0,-44.3 c 0,-2.8 -2.2,-5 -5,-5 l -148,0 c -2.8,0 -5,2.2 -5,5 l 0,44.3 -2,0 0,-44.3 c 0,-3.9 3.1,-7 7,-7 l 148,0 c 3.9,0 7,3.1 7,7 l 0,44.3 z"
             class="st2" />
        </g>
      </g>
      <g
         id="g31"
         transform="translate(123.82611,671.80618)">
        <g
           id="XMLID_393_">
          <path
             style="fill:#d741a7"
             inkscape:connector-curvature="0"
             id="path34"
             d="m 639.5,137 -60,0 c -11.6,0 -21,-9.4 -21,-21 0,-11.6 9.4,-21 21,-21 l 60,0 c 11.6,0 21,9.4 21,21 0,11.6 -9.4,21 -21,21 z m -60,-40 c -10.5,0 -19,8.5 -19,19 0,10.5 8.5,19 19,19 l 60,0 c 10.5,0 19,-8.5 19,-19 0,-10.5 -8.5,-19 -19,-19 l -60,0 z"
             class="st3" />
        </g>
      </g>
      <g
         id="g36"
         transform="translate(123.82611,671.80618)">
        <g
           id="XMLID_390_">
          <path
             style="fill:#c1c2c2"
             inkscape:connector-curvature="0"
             id="path39"
             d="m 660.5,207 -102,0 0,-42 102,0 0,42 z m -100,-2 98,0 0,-38 -98,0 0,38 z"
             class="st2" />
        </g>
      </g>
      <g
         id="g41"
         transform="translate(123.82611,671.80618)">
        <g
           id="XMLID_302_">
          <polygon
             style="fill:#ffffff"
             id="polygon44"
             points="609.7,234.7 564.7,260.7 609.7,286.7 654.7,260.7 "
             class="st0" />
        </g>
        <g
           id="XMLID_386_">
          <path
             style="fill:#5daac7"
             inkscape:connector-curvature="0"
             id="path47"
             d="m 609.7,287.8 -47,-27.2 47,-27.2 47,27.2 -47,27.2 z m -43,-27.1 43,24.8 43,-24.8 -43,-24.8 -43,24.8 z"
             class="st4" />
        </g>
      </g>
      <g
         id="XMLID_399_"
         transform="translate(123.82611,671.80618)">
        <polygon
           style="fill:#c1c2c2"
           id="polygon50"
           points="580.5,315 478.5,315 478.5,331 480.5,331 480.5,317 578.5,317 578.5,331 580.5,331 "
           class="st2" />
      </g>
      <g
         id="XMLID_385_"
         transform="translate(123.82611,671.80618)">
        <path
           style="fill:#d741a7"
           inkscape:connector-curvature="0"
           id="path53"
           d="m 641.2,331 c 2.2,-8.1 9.6,-14 18.3,-14 l 60,0 c 8.7,0 16.1,5.9 18.3,14 l 2.1,0 c -2.3,-9.2 -10.5,-16 -20.4,-16 l -60,0 c -9.9,0 -18.1,6.8 -20.4,16 l 2.1,0 z"
           class="st3" />
      </g>
      <g
         id="g55"
         transform="translate(123.82611,673.80618)">
        <g
           id="g57">
          <polygon
             style="fill:#c1c2c2"
             id="polygon59"
             points="604.5,157 614.5,157 609.5,163 "
             class="st2" />
        </g>
      </g>
      <g
         id="g72"
         transform="translate(123.82611,671.80618)">
        <g
           id="g74">
          <polygon
             style="fill:#c1c2c2"
             id="polygon76"
             points="524.5,306 534.5,306 529.5,312 "
             class="st2" />
        </g>
      </g>
      <g
         id="g78"
         transform="translate(123.82611,671.80618)">
        <g
           id="g80">
          <polygon
             style="fill:#c1c2c2"
             id="polygon82"
             points="684.5,306 694.5,306 689.5,312 "
             class="st2" />
        </g>
      </g>
      <g
         id="g84"
         transform="translate(123.82611,671.80618)">
        <g
           id="g86">
          <rect
             style="fill:#eaebeb"
             id="rect88"
             height="14"
             width="28"
             class="st5"
             y="277.5"
             x="515.5" />
        </g>
      </g>
      <g
         id="g90"
         transform="translate(123.82611,671.80618)">
        <g
           id="g92">
          <rect
             style="fill:#eaebeb"
             id="rect94"
             height="14"
             width="28"
             class="st5"
             y="277.5"
             x="675.5" />
        </g>
      </g>
      <g
         id="g96"
         transform="translate(123.82611,671.80618)">
        <g
           id="XMLID_361_">
          <path
             style="fill:#313334"
             inkscape:connector-curvature="0"
             id="path99"
             d="m 592.6,111.9 0.9,0 0,5 c 0,0.7 -0.2,1.2 -0.6,1.6 -0.4,0.4 -1,0.6 -1.6,0.6 -0.7,0 -1.3,-0.2 -1.7,-0.5 -0.4,-0.3 -0.6,-0.9 -0.6,-1.5 l 0.9,0 c 0,0.4 0.1,0.7 0.3,1 0.2,0.2 0.5,0.3 1,0.3 0.4,0 0.7,-0.1 0.9,-0.4 0.2,-0.2 0.4,-0.6 0.4,-1 l 0,-5.1 z"
             class="st6" />
        </g>
        <g
           id="XMLID_363_">
          <path
             style="fill:#313334"
             inkscape:connector-curvature="0"
             id="path102"
             d="m 598.4,118.5 c -0.4,0.4 -0.9,0.6 -1.5,0.6 -0.6,0 -1,-0.2 -1.3,-0.5 -0.3,-0.3 -0.4,-0.8 -0.4,-1.5 l 0,-3.4 0.9,0 0,3.4 c 0,0.8 0.3,1.2 1,1.2 0.7,0 1.1,-0.3 1.4,-0.8 l 0,-3.8 0.9,0 0,5.3 -0.9,0 -0.1,-0.5 z"
             class="st6" />
        </g>
        <g
           id="XMLID_365_">
          <path
             style="fill:#313334"
             inkscape:connector-curvature="0"
             id="path105"
             d="m 603.8,117.6 c 0,-0.2 -0.1,-0.4 -0.3,-0.6 -0.2,-0.1 -0.5,-0.3 -1,-0.3 -0.5,-0.1 -0.8,-0.2 -1.1,-0.4 -0.3,-0.1 -0.5,-0.3 -0.6,-0.5 -0.1,-0.2 -0.2,-0.4 -0.2,-0.7 0,-0.4 0.2,-0.8 0.5,-1.1 0.4,-0.3 0.8,-0.4 1.4,-0.4 0.6,0 1.1,0.2 1.5,0.5 0.4,0.3 0.6,0.7 0.6,1.2 l -0.9,0 c 0,-0.2 -0.1,-0.5 -0.3,-0.6 -0.2,-0.2 -0.5,-0.3 -0.8,-0.3 -0.3,0 -0.6,0.1 -0.8,0.2 -0.2,0.1 -0.3,0.3 -0.3,0.6 0,0.2 0.1,0.4 0.3,0.5 0.2,0.1 0.5,0.2 0.9,0.3 0.5,0.1 0.8,0.2 1.1,0.4 0.3,0.2 0.5,0.3 0.6,0.5 0.1,0.2 0.2,0.4 0.2,0.7 0,0.5 -0.2,0.9 -0.6,1.1 -0.4,0.2 -0.9,0.4 -1.5,0.4 -0.4,0 -0.8,-0.1 -1.1,-0.2 -0.3,-0.1 -0.6,-0.4 -0.8,-0.6 -0.2,-0.3 -0.3,-0.6 -0.3,-0.9 l 0.9,0 c 0,0.3 0.1,0.5 0.4,0.7 0.2,0.2 0.5,0.3 0.9,0.3 0.3,0 0.6,-0.1 0.8,-0.2 0.4,-0.2 0.5,-0.4 0.5,-0.6 z"
             class="st6" />
        </g>
        <g
           id="XMLID_367_">
          <path
             style="fill:#313334"
             inkscape:connector-curvature="0"
             id="path108"
             d="m 607.2,112.4 0,1.3 1,0 0,0.7 -1,0 0,3.3 c 0,0.2 0,0.4 0.1,0.5 0.1,0.1 0.2,0.2 0.4,0.2 0.1,0 0.2,0 0.4,-0.1 l 0,0.7 c -0.2,0.1 -0.5,0.1 -0.7,0.1 -0.4,0 -0.7,-0.1 -0.9,-0.4 -0.2,-0.3 -0.3,-0.6 -0.3,-1 l 0,-3.3 -1,0 0,-0.7 1,0 0,-1.3 1,0 z"
             class="st6" />
        </g>
        <g
           id="XMLID_369_">
          <path
             style="fill:#313334"
             inkscape:connector-curvature="0"
             id="path111"
             d="m 613,112.4 0,1.3 1,0 0,0.7 -1,0 0,3.3 c 0,0.2 0,0.4 0.1,0.5 0.1,0.1 0.2,0.2 0.4,0.2 0.1,0 0.2,0 0.4,-0.1 l 0,0.7 c -0.2,0.1 -0.5,0.1 -0.7,0.1 -0.4,0 -0.7,-0.1 -0.9,-0.4 -0.2,-0.3 -0.3,-0.6 -0.3,-1 l 0,-3.3 -1,0 0,-0.7 1,0 0,-1.3 1,0 z"
             class="st6" />
        </g>
        <g
           id="XMLID_371_">
          <path
             style="fill:#313334"
             inkscape:connector-curvature="0"
             id="path114"
             d="m 617,117.7 1.2,-4 1,0 -2.1,6.1 c -0.3,0.9 -0.9,1.3 -1.6,1.3 l -0.2,0 -0.3,-0.1 0,-0.7 0.2,0 c 0.3,0 0.5,-0.1 0.7,-0.2 0.2,-0.1 0.3,-0.4 0.4,-0.7 l 0.2,-0.5 -1.9,-5.2 1,0 1.4,4 z"
             class="st6" />
        </g>
        <g
           id="XMLID_373_">
          <path
             style="fill:#313334"
             inkscape:connector-curvature="0"
             id="path117"
             d="m 624.6,116.4 c 0,0.8 -0.2,1.5 -0.6,1.9 -0.4,0.4 -0.9,0.7 -1.5,0.7 -0.6,0 -1.1,-0.2 -1.5,-0.6 l 0,2.5 -0.9,0 0,-7.3 0.8,0 0,0.6 c 0.4,-0.5 0.9,-0.7 1.5,-0.7 0.6,0 1.1,0.2 1.5,0.7 0.5,0.6 0.7,1.3 0.7,2.2 l 0,0 z m -0.9,-0.1 c 0,-0.6 -0.1,-1.1 -0.4,-1.4 -0.3,-0.3 -0.6,-0.5 -1,-0.5 -0.5,0 -1,0.2 -1.2,0.7 l 0,2.5 c 0.3,0.5 0.7,0.7 1.2,0.7 0.4,0 0.8,-0.2 1,-0.5 0.3,-0.3 0.4,-0.8 0.4,-1.5 z"
             class="st6" />
        </g>
        <g
           id="XMLID_376_">
          <path
             style="fill:#313334"
             inkscape:connector-curvature="0"
             id="path120"
             d="m 628.1,119.1 c -0.7,0 -1.3,-0.2 -1.7,-0.7 -0.4,-0.5 -0.7,-1.1 -0.7,-1.9 l 0,-0.2 c 0,-0.5 0.1,-1 0.3,-1.4 0.2,-0.4 0.5,-0.7 0.8,-1 0.4,-0.2 0.8,-0.3 1.2,-0.3 0.7,0 1.2,0.2 1.6,0.7 0.4,0.5 0.6,1.1 0.6,1.9 l 0,0.4 -3.6,0 c 0,0.5 0.2,0.9 0.5,1.3 0.3,0.3 0.7,0.5 1.1,0.5 0.3,0 0.6,-0.1 0.8,-0.2 0.2,-0.1 0.4,-0.3 0.6,-0.5 l 0.6,0.4 c -0.6,0.7 -1.3,1 -2.1,1 z m -0.1,-4.7 c -0.4,0 -0.7,0.1 -0.9,0.4 -0.2,0.3 -0.4,0.6 -0.5,1.1 l 2.6,0 0,-0.1 c 0,-0.5 -0.1,-0.8 -0.4,-1.1 -0.3,-0.3 -0.5,-0.3 -0.8,-0.3 z"
             class="st6" />
        </g>
      </g>
      <g
         id="g122"
         transform="translate(123.82611,671.80618)">
        <g
           id="XMLID_343_">
          <path
             style="fill:#313334"
             inkscape:connector-curvature="0"
             id="path125"
             d="m 595.7,262.9 3.4,0 0,0.8 -4.3,0 0,-7.1 0.9,0 0,6.3 z"
             class="st6" />
        </g>
        <g
           id="XMLID_345_">
          <path
             style="fill:#313334"
             inkscape:connector-curvature="0"
             id="path128"
             d="m 600.1,257 c 0,-0.1 0,-0.3 0.1,-0.4 0.1,-0.1 0.2,-0.2 0.4,-0.2 0.2,0 0.3,0.1 0.4,0.2 0.1,0.1 0.1,0.2 0.1,0.4 0,0.2 0,0.3 -0.1,0.4 -0.1,0.1 -0.2,0.1 -0.4,0.1 -0.2,0 -0.3,0 -0.4,-0.1 0,-0.1 -0.1,-0.3 -0.1,-0.4 z m 1,6.7 -0.9,0 0,-5.3 0.9,0 0,5.3 z"
             class="st6" />
        </g>
        <g
           id="XMLID_348_">
          <path
             style="fill:#313334"
             inkscape:connector-curvature="0"
             id="path131"
             d="m 604.1,261.2 -0.6,0.6 0,1.9 -0.9,0 0,-7.5 0.9,0 0,4.5 0.5,-0.6 1.6,-1.7 1.1,0 -2.1,2.2 2.3,3.1 -1.1,0 -1.7,-2.5 z"
             class="st6" />
        </g>
        <g
           id="XMLID_350_">
          <path
             style="fill:#313334"
             inkscape:connector-curvature="0"
             id="path134"
             d="m 609.7,263.8 c -0.7,0 -1.3,-0.2 -1.7,-0.7 -0.4,-0.5 -0.7,-1.1 -0.7,-1.9 l 0,-0.2 c 0,-0.5 0.1,-1 0.3,-1.4 0.2,-0.4 0.5,-0.7 0.8,-1 0.4,-0.2 0.8,-0.3 1.2,-0.3 0.7,0 1.2,0.2 1.6,0.7 0.4,0.5 0.6,1.1 0.6,1.9 l 0,0.4 -3.6,0 c 0,0.5 0.2,0.9 0.5,1.3 0.3,0.3 0.7,0.5 1.1,0.5 0.3,0 0.6,-0.1 0.8,-0.2 0.2,-0.1 0.4,-0.3 0.6,-0.5 l 0.6,0.4 c -0.5,0.6 -1.2,1 -2.1,1 z m -0.1,-4.8 c -0.4,0 -0.7,0.1 -0.9,0.4 -0.2,0.3 -0.4,0.6 -0.5,1.1 l 2.6,0 0,-0.1 c 0,-0.5 -0.1,-0.8 -0.4,-1.1 -0.1,-0.1 -0.4,-0.3 -0.8,-0.3 z"
             class="st6" />
        </g>
        <g
           id="XMLID_353_">
          <path
             style="fill:#313334"
             inkscape:connector-curvature="0"
             id="path137"
             d="m 615.3,257 c 0,-0.1 0,-0.3 0.1,-0.4 0.1,-0.1 0.2,-0.2 0.4,-0.2 0.2,0 0.3,0.1 0.4,0.2 0.1,0.1 0.1,0.2 0.1,0.4 0,0.2 0,0.3 -0.1,0.4 -0.1,0.1 -0.2,0.1 -0.4,0.1 -0.2,0 -0.3,0 -0.4,-0.1 -0.1,-0.1 -0.1,-0.3 -0.1,-0.4 z m 1,6.7 -0.9,0 0,-5.3 0.9,0 0,5.3 z"
             class="st6" />
        </g>
        <g
           id="XMLID_356_">
          <path
             style="fill:#313334"
             inkscape:connector-curvature="0"
             id="path140"
             d="m 619.1,257.1 0,1.3 1,0 0,0.7 -1,0 0,3.3 c 0,0.2 0,0.4 0.1,0.5 0.1,0.1 0.2,0.2 0.4,0.2 0.1,0 0.2,0 0.4,-0.1 l 0,0.7 c -0.2,0.1 -0.5,0.1 -0.7,0.1 -0.4,0 -0.7,-0.1 -0.9,-0.4 -0.2,-0.3 -0.3,-0.6 -0.3,-1 l 0,-3.3 -1,0 0,-0.7 1,0 0,-1.3 1,0 z"
             class="st6" />
        </g>
        <g
           id="XMLID_358_">
          <path
             style="fill:#313334"
             inkscape:connector-curvature="0"
             id="path143"
             d="m 622.4,261.7 c 0,-0.4 0.1,-0.7 0.1,-0.9 0.1,-0.2 0.2,-0.5 0.5,-0.7 l 0.6,-0.7 c 0.3,-0.3 0.4,-0.6 0.4,-1 0,-0.3 -0.1,-0.6 -0.3,-0.8 -0.2,-0.2 -0.4,-0.3 -0.8,-0.3 -0.3,0 -0.6,0.1 -0.8,0.3 -0.2,0.2 -0.3,0.4 -0.3,0.7 l -0.8,0 c 0,-0.5 0.2,-1 0.6,-1.3 0.4,-0.3 0.9,-0.5 1.4,-0.5 0.6,0 1.1,0.2 1.4,0.5 0.3,0.3 0.5,0.8 0.5,1.4 0,0.6 -0.3,1.1 -0.8,1.7 l -0.5,0.5 c -0.2,0.3 -0.4,0.6 -0.4,1.1 l -0.8,0 z m -0.1,1.5 c 0,-0.1 0,-0.3 0.1,-0.4 0.1,-0.1 0.2,-0.2 0.4,-0.2 0.2,0 0.3,0 0.4,0.2 0.1,0.2 0.1,0.2 0.1,0.4 0,0.2 0,0.3 -0.1,0.4 -0.1,0.1 -0.2,0.1 -0.4,0.1 -0.2,0 -0.3,0 -0.4,-0.1 0,-0.1 -0.1,-0.2 -0.1,-0.4 z"
             class="st6" />
        </g>
      </g>
      <g
         id="g145"
         transform="translate(123.82611,671.80618)">
        <g
           id="XMLID_315_">
          <path
             style="fill:#313334"
             inkscape:connector-curvature="0"
             id="path148"
             d="m 585.6,188.4 c -0.2,0.3 -0.6,0.6 -1,0.8 -0.4,0.2 -0.9,0.3 -1.5,0.3 -0.6,0 -1.1,-0.1 -1.5,-0.4 -0.4,-0.3 -0.8,-0.7 -1,-1.2 -0.2,-0.5 -0.4,-1.1 -0.4,-1.7 l 0,-0.6 c 0,-1.1 0.2,-1.9 0.8,-2.5 0.5,-0.6 1.2,-0.9 2.1,-0.9 0.7,0 1.3,0.2 1.8,0.6 0.5,0.4 0.7,0.9 0.8,1.6 l -0.9,0 c -0.2,-0.9 -0.7,-1.4 -1.7,-1.4 -0.6,0 -1.1,0.2 -1.4,0.7 -0.3,0.4 -0.5,1.1 -0.5,1.9 l 0,0.6 c 0,0.8 0.2,1.4 0.5,1.9 0.3,0.5 0.9,0.7 1.5,0.7 0.4,0 0.7,0 0.9,-0.1 0.3,-0.1 0.5,-0.2 0.7,-0.4 l 0,-1.6 -1.8,0 0,-0.8 2.6,0 0,2.5 z"
             class="st6" />
        </g>
        <g
           id="XMLID_317_">
          <path
             style="fill:#313334"
             inkscape:connector-curvature="0"
             id="path151"
             d="m 589.3,189.4 c -0.7,0 -1.3,-0.2 -1.7,-0.7 -0.4,-0.5 -0.7,-1.1 -0.7,-1.9 l 0,-0.2 c 0,-0.5 0.1,-1 0.3,-1.4 0.2,-0.4 0.5,-0.7 0.8,-1 0.4,-0.2 0.8,-0.3 1.2,-0.3 0.7,0 1.2,0.2 1.6,0.7 0.4,0.5 0.6,1.1 0.6,1.9 l 0,0.4 -3.6,0 c 0,0.5 0.2,0.9 0.5,1.3 0.3,0.3 0.7,0.5 1.1,0.5 0.3,0 0.6,-0.1 0.8,-0.2 0.2,-0.1 0.4,-0.3 0.6,-0.5 l 0.6,0.4 c -0.6,0.7 -1.2,1 -2.1,1 z m -0.1,-4.7 c -0.4,0 -0.7,0.1 -0.9,0.4 -0.2,0.3 -0.4,0.6 -0.5,1.1 l 2.6,0 0,-0.1 c 0,-0.5 -0.1,-0.8 -0.4,-1.1 -0.3,-0.3 -0.5,-0.3 -0.8,-0.3 z"
             class="st6" />
        </g>
        <g
           id="XMLID_320_">
          <path
             style="fill:#313334"
             inkscape:connector-curvature="0"
             id="path154"
             d="m 593.8,182.8 0,1.3 1,0 0,0.7 -1,0 0,3.3 c 0,0.2 0,0.4 0.1,0.5 0.1,0.1 0.2,0.2 0.4,0.2 0.1,0 0.2,0 0.4,-0.1 l 0,0.7 c -0.2,0.1 -0.5,0.1 -0.7,0.1 -0.4,0 -0.7,-0.1 -0.9,-0.4 -0.2,-0.3 -0.3,-0.6 -0.3,-1 l 0,-3.3 -1,0 0,-0.7 1,0 0,-1.3 1,0 z"
             class="st6" />
        </g>
        <g
           id="XMLID_322_">
          <path
             style="fill:#313334"
             inkscape:connector-curvature="0"
             id="path157"
             d="m 598.1,186.6 c 0,-0.8 0.2,-1.5 0.6,-2 0.4,-0.5 0.9,-0.7 1.5,-0.7 0.6,0 1.1,0.2 1.5,0.6 l 0,-2.8 0.9,0 0,7.5 -0.8,0 0,-0.6 c -0.4,0.4 -0.9,0.7 -1.5,0.7 -0.6,0 -1.1,-0.3 -1.5,-0.8 -0.6,-0.3 -0.7,-1 -0.7,-1.9 l 0,0 z m 0.9,0.2 c 0,0.6 0.1,1.1 0.4,1.4 0.3,0.3 0.6,0.5 1,0.5 0.6,0 1,-0.3 1.3,-0.8 l 0,-2.4 c -0.3,-0.5 -0.7,-0.7 -1.2,-0.7 -0.4,0 -0.8,0.2 -1,0.5 -0.2,0.3 -0.5,0.8 -0.5,1.5 z"
             class="st6" />
        </g>
        <g
           id="XMLID_325_">
          <path
             style="fill:#313334"
             inkscape:connector-curvature="0"
             id="path160"
             d="m 604,182.6 c 0,-0.1 0,-0.3 0.1,-0.4 0.1,-0.1 0.2,-0.2 0.4,-0.2 0.2,0 0.3,0.1 0.4,0.2 0.1,0.1 0.1,0.2 0.1,0.4 0,0.2 0,0.3 -0.1,0.4 -0.1,0.1 -0.2,0.1 -0.4,0.1 -0.2,0 -0.3,0 -0.4,-0.1 -0.1,-0.1 -0.1,-0.2 -0.1,-0.4 z m 0.9,6.7 -0.9,0 0,-5.3 0.9,0 0,5.3 z"
             class="st6" />
        </g>
        <g
           id="XMLID_328_">
          <path
             style="fill:#313334"
             inkscape:connector-curvature="0"
             id="path163"
             d="m 609.7,189.3 c -0.1,-0.1 -0.1,-0.3 -0.1,-0.6 -0.4,0.4 -0.9,0.7 -1.5,0.7 -0.5,0 -0.9,-0.1 -1.3,-0.4 -0.3,-0.3 -0.5,-0.7 -0.5,-1.1 0,-0.6 0.2,-1 0.6,-1.3 0.4,-0.3 1,-0.5 1.8,-0.5 l 0.9,0 0,-0.4 c 0,-0.3 -0.1,-0.6 -0.3,-0.8 -0.2,-0.2 -0.5,-0.3 -0.8,-0.3 -0.3,0 -0.6,0.1 -0.8,0.2 -0.2,0.1 -0.3,0.4 -0.3,0.6 l -0.9,0 c 0,-0.3 0.1,-0.5 0.3,-0.8 0.2,-0.2 0.4,-0.4 0.8,-0.6 0.3,-0.1 0.7,-0.2 1.1,-0.2 0.6,0 1.1,0.2 1.4,0.5 0.3,0.3 0.5,0.7 0.5,1.3 l 0,2.4 c 0,0.5 0.1,0.9 0.2,1.2 l 0,0.1 -1.1,0 z m -1.5,-0.7 c 0.3,0 0.6,-0.1 0.8,-0.2 0.2,-0.1 0.4,-0.3 0.6,-0.6 l 0,-1.1 -0.7,0 c -1.1,0 -1.7,0.3 -1.7,1 0,0.3 0.1,0.5 0.3,0.7 0.2,0.2 0.4,0.2 0.7,0.2 z"
             class="st6" />
        </g>
        <g
           id="XMLID_331_">
          <path
             style="fill:#313334"
             inkscape:connector-curvature="0"
             id="path166"
             d="m 611.6,186.6 c 0,-0.8 0.2,-1.5 0.6,-2 0.4,-0.5 0.9,-0.7 1.5,-0.7 0.6,0 1.1,0.2 1.5,0.7 l 0,-0.6 0.8,0 0,5.2 c 0,0.7 -0.2,1.2 -0.6,1.6 -0.4,0.4 -1,0.6 -1.6,0.6 -0.4,0 -0.8,-0.1 -1.1,-0.2 -0.3,-0.1 -0.6,-0.4 -0.8,-0.7 l 0.5,-0.5 c 0.4,0.5 0.9,0.7 1.4,0.7 0.4,0 0.8,-0.1 1,-0.4 0.2,-0.2 0.4,-0.6 0.4,-1 l 0,-0.5 c -0.4,0.4 -0.9,0.6 -1.5,0.6 -0.6,0 -1.1,-0.2 -1.5,-0.7 -0.4,-0.5 -0.6,-1.2 -0.6,-2.1 z m 1,0.2 c 0,0.6 0.1,1.1 0.4,1.4 0.3,0.3 0.6,0.5 1,0.5 0.6,0 1,-0.3 1.3,-0.8 l 0,-2.4 c -0.3,-0.5 -0.7,-0.8 -1.2,-0.8 -0.4,0 -0.8,0.2 -1,0.5 -0.2,0.3 -0.5,0.9 -0.5,1.6 z"
             class="st6" />
        </g>
        <g
           id="XMLID_334_">
          <path
             style="fill:#313334"
             inkscape:connector-curvature="0"
             id="path169"
             d="m 620.1,184.9 c -0.1,0 -0.3,0 -0.4,0 -0.6,0 -1,0.3 -1.2,0.8 l 0,3.8 -0.9,0 0,-5.3 0.9,0 0,0.6 c 0.3,-0.5 0.7,-0.7 1.3,-0.7 0.2,0 0.3,0 0.4,0.1 l 0,0.7 z"
             class="st6" />
        </g>
        <g
           id="XMLID_336_">
          <path
             style="fill:#313334"
             inkscape:connector-curvature="0"
             id="path172"
             d="m 624.3,189.3 c -0.1,-0.1 -0.1,-0.3 -0.1,-0.6 -0.4,0.4 -0.9,0.7 -1.5,0.7 -0.5,0 -0.9,-0.1 -1.3,-0.4 -0.3,-0.3 -0.5,-0.7 -0.5,-1.1 0,-0.6 0.2,-1 0.6,-1.3 0.4,-0.3 1,-0.5 1.8,-0.5 l 0.9,0 0,-0.4 c 0,-0.3 -0.1,-0.6 -0.3,-0.8 -0.2,-0.2 -0.5,-0.3 -0.8,-0.3 -0.3,0 -0.6,0.1 -0.8,0.2 -0.2,0.1 -0.3,0.4 -0.3,0.6 l -1,0 c 0,-0.3 0.1,-0.5 0.3,-0.8 0.2,-0.2 0.4,-0.4 0.8,-0.6 0.3,-0.1 0.7,-0.2 1.1,-0.2 0.6,0 1.1,0.2 1.4,0.5 0.3,0.3 0.5,0.7 0.5,1.3 l 0,2.4 c 0,0.5 0.1,0.9 0.2,1.2 l 0,0.1 -1,0 z m -1.5,-0.7 c 0.3,0 0.6,-0.1 0.8,-0.2 0.2,-0.1 0.4,-0.3 0.6,-0.6 l 0,-1.1 -0.7,0 c -1.1,0 -1.7,0.3 -1.7,1 0,0.3 0.1,0.5 0.3,0.7 0.2,0.2 0.4,0.2 0.7,0.2 z"
             class="st6" />
        </g>
        <g
           id="XMLID_339_">
          <path
             style="fill:#313334"
             inkscape:connector-curvature="0"
             id="path175"
             d="m 627.4,184.1 0,0.6 c 0.4,-0.5 0.9,-0.7 1.6,-0.7 0.7,0 1.2,0.3 1.5,0.8 0.2,-0.3 0.4,-0.5 0.7,-0.6 0.3,-0.2 0.6,-0.2 1,-0.2 1.2,0 1.7,0.6 1.8,1.8 l 0,3.5 -1,0 0,-3.5 c 0,-0.4 -0.1,-0.7 -0.3,-0.8 -0.2,-0.1 -0.5,-0.3 -0.9,-0.3 -0.3,0 -0.6,0.1 -0.8,0.3 -0.2,0.2 -0.3,0.5 -0.4,0.8 l 0,3.5 -0.9,0 0,-3.5 c 0,-0.8 -0.4,-1.2 -1.1,-1.2 -0.6,0 -1,0.3 -1.2,0.8 l 0,3.9 -0.9,0 0,-5.3 0.9,0 z"
             class="st6" />
        </g>
        <g
           id="XMLID_341_">
          <path
             style="fill:#313334"
             inkscape:connector-curvature="0"
             id="path178"
             d="m 638.4,187.9 c 0,-0.2 -0.1,-0.4 -0.3,-0.6 -0.2,-0.1 -0.5,-0.3 -1,-0.3 -0.5,-0.1 -0.8,-0.2 -1.1,-0.4 -0.3,-0.1 -0.5,-0.3 -0.6,-0.5 -0.1,-0.2 -0.2,-0.4 -0.2,-0.7 0,-0.4 0.2,-0.8 0.5,-1.1 0.4,-0.3 0.8,-0.4 1.4,-0.4 0.6,0 1.1,0.2 1.5,0.5 0.4,0.3 0.6,0.7 0.6,1.2 l -0.9,0 c 0,-0.2 -0.1,-0.5 -0.3,-0.6 -0.2,-0.2 -0.5,-0.3 -0.8,-0.3 -0.3,0 -0.6,0.1 -0.8,0.2 -0.2,0.1 -0.3,0.3 -0.3,0.6 0,0.2 0.1,0.4 0.3,0.5 0.2,0.1 0.5,0.2 0.9,0.3 0.5,0.1 0.8,0.2 1.1,0.4 0.3,0.2 0.5,0.3 0.6,0.5 0.1,0.2 0.2,0.4 0.2,0.7 0,0.5 -0.2,0.9 -0.6,1.1 -0.4,0.2 -0.9,0.4 -1.5,0.4 -0.4,0 -0.8,-0.1 -1.1,-0.2 -0.3,-0.1 -0.6,-0.4 -0.8,-0.6 -0.2,-0.3 -0.3,-0.6 -0.3,-0.9 l 0.9,0 c 0,0.3 0.1,0.5 0.4,0.7 0.2,0.2 0.5,0.3 0.9,0.3 0.3,0 0.6,-0.1 0.8,-0.2 0.4,-0.2 0.5,-0.3 0.5,-0.6 z"
             class="st6" />
        </g>
      </g>
      <text
         sodipodi:linespacing="125%"
         id="text4504"
         y="960.08112"
         x="642.93597"
         style="font-style:normal;font-weight:normal;font-size:12.5px;line-height:125%;font-family:Arial;-inkscape-font-specification:Arial;letter-spacing:0px;word-spacing:0px;fill:#6c5353;fill-opacity:1;stroke:none;stroke-width:1px;stroke-linecap:butt;stroke-linejoin:miter;stroke-opacity:1"
         xml:space="preserve"><tspan
           y="960.08112"
           x="642.93597"
           id="tspan4506"
           sodipodi:role="line">Yes</tspan></text>
      <text
         sodipodi:linespacing="125%"
         id="text4504-2"
         y="960.77704"
         x="805.86346"
         style="font-style:normal;font-weight:normal;font-size:12.5px;line-height:125%;font-family:Arial;-inkscape-font-specification:Arial;letter-spacing:0px;word-spacing:0px;fill:#6c5353;fill-opacity:1;stroke:none;stroke-width:1px;stroke-linecap:butt;stroke-linejoin:miter;stroke-opacity:1"
         xml:space="preserve"><tspan
           y="960.77704"
           x="805.86346"
           id="tspan4506-9"
           sodipodi:role="line">No</tspan></text>
      <g
         id="g21"
         transform="translate(123.75747,672.62052)">
        <g
           id="XMLID_397_">
          <rect
             style="fill:#c1c2c2"
             id="rect24"
             height="25"
             width="2"
             class="st2"
             y="136"
             x="608.5" />
        </g>
      </g>
      <g
         id="g61"
         transform="translate(124.23377,671.89786)">
        <g
           id="XMLID_379_">
          <rect
             style="fill:#c1c2c2"
             id="rect64"
             height="25"
             width="2"
             class="st2"
             y="206"
             x="608.5" />
        </g>
      </g>
      <g
         id="g66"
         transform="translate(124.23377,673.09816)">
        <g
           id="g68">
          <polygon
             style="fill:#c1c2c2"
             id="polygon70"
             points="604.5,226 614.5,226 609.5,232 "
             class="st2" />
        </g>
      </g>
    </g>
    <ellipse
       style="fill:none;fill-rule:evenodd;stroke:#ecf0f1;stroke-width:7.00000048;stroke-dasharray:3.00000006, 6.00000011"
       id="Oval-6-Copy-2"
       sketch:type="MSShapeGroup"
       cx="765.42804"
       cy="873.43793"
       rx="165.97865"
       ry="157.84532" />
    <g
       style="fill:none;fill-rule:evenodd;stroke:none;stroke-width:1"
       id="logo"
       sketch:type="MSLayerGroup"
       transform="matrix(0.47153025,0,0,0.44818248,597.56325,725.90083)">
      <ellipse
         style="stroke:#ecf0f1;stroke-width:15.22705269"
         id="Oval-6"
         sketch:type="MSShapeGroup"
         cx="356.95157"
         cy="328.33826"
         rx="328.16125"
         ry="328.33826" />
      <path
         style="stroke:#f39c12;stroke-width:15.22705269"
         inkscape:connector-curvature="0"
         d="m 356.95157,656.67651 c 181.23846,0 328.16126,-147.00204 328.16126,-328.33825 0,-58.03202 -24.65005,-137.24646 -24.65005,-137.24646"
         id="Orange"
         sketch:type="MSShapeGroup" />
      <path
         style="stroke:#18bc9c;stroke-width:15.22705269"
         inkscape:connector-curvature="0"
         d="m 69.252098,170.26909 c -25.790021,46.89083 -40.461777,100.76569 -40.461777,158.06917 0,181.33621 146.922799,328.33825 328.161249,328.33825"
         id="Green"
         sketch:type="MSShapeGroup" />
      <path
         style="stroke:#3498db;stroke-width:15.22705269"
         inkscape:connector-curvature="0"
         d="M 655.52515,191.89732 C 603.75404,78.668368 489.53485,0 356.95157,0 222.88658,0 107.59842,80.436555 56.665706,195.70647 50.315389,210.07838 44.965492,224.99179 40.704355,240.3583"
         id="Blue"
         sketch:type="MSShapeGroup" />
      <path
         style="fill:#18bc9c"
         inkscape:connector-curvature="0"
         d="m 290.41008,715.70362 c 71.36844,0 129.22398,-59.00113 129.22398,-131.78267 0,-72.78158 -57.85554,-131.78267 -129.22398,-131.78267 -71.36844,0 -129.22398,59.00109 -129.22398,131.78267 0,72.78154 57.85554,131.78267 129.22398,131.78267 z"
         id="Bottom-node"
         sketch:type="MSShapeGroup" />
      <ellipse
         style="fill:#3498db"
         id="Top-left-node"
         sketch:type="MSShapeGroup"
         cx="64.466629"
         cy="207.56746"
         rx="85.654526"
         ry="85.943497" />
      <ellipse
         style="fill:#f39c12"
         id="Top-right-node"
         sketch:type="MSShapeGroup"
         cx="652.65039"
         cy="200.05284"
         rx="66.36969"
         ry="66.405487" />
    </g>
    <rect
       style="fill:#ffffff;fill-rule:evenodd;stroke:#3498db;stroke-width:6"
       id="Rectangle-1-Copy"
       sketch:type="MSShapeGroup"
       x="845.58813"
       y="759.96271"
       width="60.355873"
       height="15.238204"
       rx="3.7722421" />
    <text
       style="font-weight:normal;font-size:8.27474689px;font-family:'Helvetica Neue';fill:#3498db;fill-rule:evenodd;stroke:none;stroke-width:1"
       id="4000000000"
       sketch:type="MSTextLayer"
       font-size="18"
       font-weight="normal"
       sketch:alignment="middle"
       transform="scale(1.0257165,0.97492826)"
       x="579.82306"
       y="728.01898">
      <tspan
         x="831.26501"
         y="790.07959"
         id="tspan38">4000000000</tspan>
    </text>
    <rect
       style="fill:#ffffff;fill-rule:evenodd;stroke:#f39c12;stroke-width:6"
       id="Rectangle-1-Copy-2"
       sketch:type="MSShapeGroup"
       x="887.55438"
       y="862.14832"
       width="60.355873"
       height="15.238204"
       rx="3.7722421" />
    <text
       style="font-weight:normal;font-size:8.27474689px;font-family:'Helvetica Neue';fill:#f39c12;fill-rule:evenodd;stroke:none;stroke-width:1"
       id="100"
       sketch:type="MSTextLayer"
       font-size="18"
       font-weight="normal"
       sketch:alignment="middle"
       transform="scale(1.0257165,0.97492826)"
       x="579.82306"
       y="728.01898">
      <tspan
         x="889.66083"
         y="894.89301"
         id="tspan42">100</tspan>
    </text>
    <text
       xml:space="preserve"
       style="font-style:normal;font-variant:normal;font-weight:bold;font-stretch:normal;font-size:27.5px;line-height:125%;font-family:Arial;-inkscape-font-specification:'Arial Bold';letter-spacing:0px;word-spacing:0px;fill:#ffffff;fill-opacity:1;stroke:none;stroke-width:1px;stroke-linecap:butt;stroke-linejoin:miter;stroke-opacity:1"
       x="589.38605"
       y="828.73224"
       id="text4797"
       sodipodi:linespacing="125%"><tspan
         sodipodi:role="line"
         id="tspan4799"
         x="589.38605"
         y="828.73224">Logic</tspan></text>
    <text
       xml:space="preserve"
       style="font-style:normal;font-variant:normal;font-weight:bold;font-stretch:normal;font-size:25px;line-height:125%;font-family:Arial;-inkscape-font-specification:'Arial Bold';letter-spacing:0px;word-spacing:0px;fill:#002255;fill-opacity:1;stroke:none;stroke-width:1px;stroke-linecap:butt;stroke-linejoin:miter;stroke-opacity:1;"
       x="679.98419"
       y="1002.0563"
       id="text4797-0"
       sodipodi:linespacing="125%"><tspan
         sodipodi:role="line"
         id="tspan4799-9"
         x="679.98419"
         y="1002.0563">Visualise</tspan></text>
    <text
       xml:space="preserve"
       style="font-style:normal;font-variant:normal;font-weight:bold;font-stretch:normal;font-size:15px;line-height:125%;font-family:Arial;-inkscape-font-specification:'Arial Bold';letter-spacing:0px;word-spacing:0px;fill:#000000;fill-opacity:1;stroke:none;stroke-width:1px;stroke-linecap:butt;stroke-linejoin:miter;stroke-opacity:1"
       x="877.74231"
       y="819.87189"
       id="text4819"
       sodipodi:linespacing="125%"><tspan
         sodipodi:role="line"
         id="tspan4821"
         x="877.74231"
         y="819.87189">Control</tspan></text>
  </g>
</svg>
